# 3ds Max Wavefront OBJ Exporter v0.97b - (c)2007 guruware
# File Created: 15.02.2021 11:28:44

#
# object Ground_Pillar_003
#

v  3.2487 7.5206 -5.6506
v  4.9440 9.8235 -5.2018
v  5.3658 7.7145 -5.2778
v  6.4524 -0.0000 6.7288
v  6.7131 -0.0000 -1.6609
v  6.6948 6.0510 -1.4410
v  6.5361 5.9276 6.7244
v  5.8100 7.8179 -4.7344
v  5.6421 9.8264 -4.5134
v  5.6581 8.4206 -0.2368
v  -1.0809 -0.0000 6.7440
v  6.2832 -0.0000 6.9409
v  6.2318 5.9276 7.1035
v  -0.6793 5.9079 6.9320
v  -6.0693 7.3682 -2.4471
v  -5.9234 9.8319 4.5134
v  -5.8506 9.8134 -4.8522
v  -5.7137 7.5074 -5.2252
v  5.8458 -0.0000 -1.9108
v  5.8275 6.0510 -1.6909
v  6.5254 6.0510 -1.6702
v  6.5438 -0.0000 -1.8901
v  -1.1952 5.9863 5.5056
v  -1.2303 0.0058 5.8596
v  -1.2496 -0.0000 6.4935
v  -1.1271 5.9321 6.4634
v  -5.7250 6.9955 -5.2541
v  -5.2240 7.2514 -4.7037
v  -5.0312 7.2567 -4.9268
v  -5.5349 6.9959 -5.4755
v  -1.0209 6.0370 6.4675
v  -0.6267 6.0222 6.8327
v  5.1776 6.2219 5.6830
v  -1.0904 6.0926 5.5024
v  -5.7576 -0.0000 -5.8324
v  -5.8819 -0.0000 -5.6739
v  -5.1763 9.8243 5.1552
v  -5.4969 8.1884 5.2457
v  0.5089 8.4017 5.4134
v  5.0091 9.8525 5.4595
v  -5.5182 7.5176 -5.4499
v  -5.3261 9.8135 -5.2868
v  5.5447 8.4598 5.1356
v  5.4797 8.2217 5.0501
v  5.6046 8.1005 5.2466
v  5.1819 8.2216 5.3370
v  5.2464 8.4661 5.5518
v  5.3127 8.1044 5.5753
v  -5.9199 8.1597 4.7363
v  -6.1850 -0.0000 4.8543
v  -5.6910 0.0133 5.7252
v  5.9331 -0.0000 -5.2866
v  5.7515 -0.0000 -5.5180
v  5.4775 6.2276 5.4847
v  6.5900 6.1645 -1.4038
v  6.5219 6.1542 -1.5622
v  5.8221 6.1563 -1.5830
v  5.5666 9.8404 4.7559
v  6.1668 6.0436 7.0250
v  6.4703 6.0443 6.6457
v  -5.1823 10.6751 5.0161
v  5.0132 10.6751 5.0130
v  4.9406 10.6750 -4.9380
v  -5.3239 10.6752 -5.0183
v  5.5669 10.6738 4.6742
v  5.6348 10.6738 -4.4332
v  -5.9205 10.6738 4.4368
v  -5.8541 10.6737 -4.7692
v  -5.4081 10.0226 -5.4744
v  5.0486 10.0335 -5.3884
v  -6.0352 10.0133 -4.9585
v  -6.1029 10.0286 4.6120
v  -5.2676 10.0243 5.4283
v  5.1178 10.0476 5.5208
v  5.7481 10.0250 4.8473
v  5.8179 10.0260 -4.6035
v  5.0016 10.5075 -5.2701
v  -5.3661 10.5105 -5.3487
v  5.7810 10.4910 -4.5428
v  5.7094 10.4916 4.7956
v  5.0678 10.5088 5.3370
v  -5.2334 10.5083 5.3511
v  -6.0667 10.4913 4.5521
v  -5.9965 10.4918 -4.9028
v  -5.3937 10.2718 -5.5033
v  5.0422 10.2702 -5.4233
v  -6.0649 10.2628 -4.9616
v  -6.1372 10.2619 4.6027
v  -5.2679 10.2635 5.5126
v  5.1054 10.2766 5.4728
v  5.7788 10.2614 4.8490
v  5.8510 10.2625 -4.5902
# 92 vertices

vn 0.0449 0.0843 -0.9954
vn 0.3503 -0.3481 -0.8695
vn 0.5051 0.0895 -0.8584
vn 0.9381 -0.0130 0.3460
vn 0.9524 0.0140 -0.3046
vn 0.8901 0.3609 -0.2785
vn 0.8881 0.3010 0.3474
vn 0.9388 0.0812 -0.3348
vn 0.8681 -0.3656 -0.3358
vn 0.9974 0.0697 0.0194
vn -0.5004 0.0065 0.8658
vn 0.4266 -0.0211 0.9042
vn 0.4102 0.3089 0.8581
vn -0.3685 0.3441 0.8636
vn -0.9878 0.1253 -0.0923
vn -0.8392 -0.4081 0.3594
vn -0.8255 -0.4373 -0.3568
vn -0.7584 -0.5197 -0.3933
vn 0.7338 0.0269 -0.6788
vn 0.8044 0.2557 -0.5362
vn 0.4130 0.3597 -0.8367
vn 0.4599 0.0336 -0.8873
vn -0.5243 0.2643 0.8095
vn -0.7420 0.0439 0.6690
vn -0.9603 0.0212 0.2782
vn -0.8605 0.3457 0.3742
vn -0.7605 0.5375 -0.3643
vn -0.8762 0.0367 -0.4805
vn -0.3727 0.0270 -0.9276
vn -0.3773 0.5343 -0.7564
vn -0.4256 0.8547 0.2972
vn -0.1678 0.8743 0.4555
vn 0.1576 0.7468 0.6462
vn -0.2436 0.5429 0.8037
vn -0.4263 0.0596 -0.9026
vn -0.9363 0.0419 -0.3487
vn -0.3091 -0.4567 0.8342
vn -0.4552 0.1017 0.8846
vn -0.0294 0.0603 0.9977
vn 0.3463 -0.1737 0.9219
vn -0.3881 -0.4604 -0.7984
vn -0.3003 -0.3658 -0.8809
vn 0.9248 -0.1357 0.3554
vn 0.8842 0.3564 0.3020
vn 0.8369 0.4347 0.3326
vn 0.3757 0.2757 0.8848
vn 0.4382 -0.2615 0.8600
vn 0.3725 0.4943 0.7855
vn -0.9325 0.0405 0.3588
vn -0.9675 0.0233 0.2517
vn -0.5147 0.0624 0.8551
vn 0.9444 0.0379 -0.3267
vn 0.4677 0.0327 -0.8833
vn 0.5427 0.7731 0.3283
vn 0.3879 0.9167 -0.0961
vn 0.3898 0.8202 -0.4186
vn 0.7686 0.5956 -0.2335
vn 0.8724 -0.4069 0.2708
vn 0.2005 0.8358 0.5112
vn 0.5452 0.8227 0.1608
vn -0.1033 0.9608 0.2573
vn 0.0802 0.9624 0.2596
vn 0.0945 0.9619 -0.2566
vn -0.0601 0.9658 -0.2520
vn 0.4319 0.8774 0.2088
vn 0.4387 0.8777 -0.1930
vn -0.4396 0.8802 0.1788
vn -0.4202 0.8786 -0.2271
vn -0.3191 -0.3912 -0.8632
vn 0.3710 -0.4121 -0.8322
vn -0.8161 -0.4149 -0.4024
vn -0.8331 -0.4134 0.3675
vn -0.3308 -0.5612 0.7586
vn 0.4153 -0.1253 0.9010
vn 0.8325 -0.4315 0.3475
vn 0.8419 -0.4002 -0.3621
vn 0.2649 0.7190 -0.6425
vn -0.2174 0.7215 -0.6573
vn 0.7927 0.5078 -0.3373
vn 0.7791 0.5135 0.3596
vn 0.2504 0.7030 0.6657
vn -0.2696 0.7184 0.6412
vn -0.7924 0.5128 0.3305
vn -0.7592 0.5231 -0.3871
vn -0.3054 0.2260 -0.9250
vn 0.3684 0.2111 -0.9054
vn -0.8924 0.1182 -0.4355
vn -0.9249 0.1088 0.3642
vn -0.3647 0.1214 0.9232
vn 0.3440 0.3568 0.8686
vn 0.9085 0.1091 0.4034
vn 0.9244 0.1116 -0.3648
# 92 vertex normals

vt 0.3008 0.9247 0.0000
vt 0.3083 0.9301 0.0000
vt 0.3014 0.9314 0.0000
vt 0.3519 0.9491 0.0000
vt 0.3252 0.9491 0.0000
vt 0.3259 0.9299 0.0000
vt 0.3519 0.9303 0.0000
vt 0.3557 0.9206 0.0000
vt 0.3550 0.9272 0.0000
vt 0.3414 0.9225 0.0000
vt 0.3350 0.9734 0.0000
vt 0.3116 0.9734 0.0000
vt 0.3117 0.9546 0.0000
vt 0.3337 0.9546 0.0000
vt 0.3003 0.9582 0.0000
vt 0.3083 0.9361 0.0000
vt 0.3083 0.9658 0.0000
vt 0.3008 0.9670 0.0000
vt 0.3428 0.9122 0.0000
vt 0.3236 0.9122 0.0000
vt 0.3236 0.9100 0.0000
vt 0.3428 0.9100 0.0000
vt 0.2985 0.9726 0.0000
vt 0.2794 0.9721 0.0000
vt 0.2794 0.9698 0.0000
vt 0.2983 0.9699 0.0000
vt 0.3559 0.9288 0.0000
vt 0.3543 0.9305 0.0000
vt 0.3537 0.9298 0.0000
vt 0.3553 0.9281 0.0000
vt 0.3327 0.9511 0.0000
vt 0.3349 0.9497 0.0000
vt 0.3523 0.9540 0.0000
vt 0.3324 0.9538 0.0000
vt 0.2769 0.9689 0.0000
vt 0.2769 0.9684 0.0000
vt 0.2991 0.9671 0.0000
vt 0.2991 0.9678 0.0000
vt 0.3572 0.9271 0.0000
vt 0.3574 0.9203 0.0000
vt 0.3087 0.8970 0.0000
vt 0.3140 0.8959 0.0000
vt 0.3134 0.9150 0.0000
vt 0.3086 0.9293 0.0000
vt 0.3526 0.9491 0.0000
vt 0.3531 0.9303 0.0000
vt 0.3008 0.8968 0.0000
vt 0.3008 0.8962 0.0000
vt 0.3083 0.8958 0.0000
vt 0.3083 0.8974 0.0000
vt 0.3245 0.9491 0.0000
vt 0.3252 0.9299 0.0000
vt 0.2982 0.9684 0.0000
vt 0.2794 0.9690 0.0000
vt 0.3244 0.9227 0.0000
vt 0.3246 0.9219 0.0000
vt 0.3248 0.9131 0.0000
vt 0.3242 0.9125 0.0000
vt 0.3416 0.9140 0.0000
vt 0.3139 0.9299 0.0000
vt 0.3132 0.9301 0.0000
vt 0.3372 0.9550 0.0000
vt 0.3374 0.9703 0.0000
vt 0.3367 0.9698 0.0000
vt 0.3083 0.9336 0.0000
vt 0.3028 0.9354 0.0000
vt 0.3030 0.9333 0.0000
vt 0.2769 0.9350 0.0000
vt 0.2769 0.9329 0.0000
vt 0.3575 0.8958 0.0000
vt 0.3582 0.8958 0.0000
vt 0.2769 0.9326 0.0000
vt 0.3532 0.9549 0.0000
vt 0.3563 0.9757 0.0000
vt 0.3557 0.9774 0.0000
vt 0.3535 0.9774 0.0000
vt 0.3203 0.9299 0.0000
vt 0.3203 0.9308 0.0000
vt 0.3143 0.9312 0.0000
vt 0.3143 0.9303 0.0000
vt 0.3132 0.9310 0.0000
vt 0.3086 0.9311 0.0000
vt 0.3374 0.9563 0.0000
vt 0.3374 0.9550 0.0000
vt 0.3383 0.9550 0.0000
vt 0.3383 0.9563 0.0000
vt 0.3238 0.9137 0.0000
vt 0.3233 0.9131 0.0000
vt 0.3556 0.9501 0.0000
vt 0.3565 0.9513 0.0000
vt 0.0889 0.7800 0.0000
vt 0.0889 0.8327 0.0000
vt 0.0374 0.8323 0.0000
vt 0.0370 0.7793 0.0000
vt 0.0871 0.8356 0.0000
vt 0.0400 0.8359 0.0000
vt 0.0859 0.7762 0.0000
vt 0.0383 0.7765 0.0000
vt 0.0946 0.7763 0.0000
vt 0.0946 0.8294 0.0000
vt 0.0935 0.8296 0.0000
vt 0.0935 0.7762 0.0000
vt 0.0583 0.8419 0.0000
vt 0.0548 0.8419 0.0000
vt 0.0545 0.8409 0.0000
vt 0.0585 0.8409 0.0000
vt 0.1018 0.7763 0.0000
vt 0.1017 0.8248 0.0000
vt 0.1007 0.8249 0.0000
vt 0.1007 0.7762 0.0000
vt 0.0410 0.8418 0.0000
vt 0.0354 0.8418 0.0000
vt 0.0352 0.8409 0.0000
vt 0.0412 0.8409 0.0000
vt 0.0981 0.7763 0.0000
vt 0.0981 0.8290 0.0000
vt 0.0970 0.8292 0.0000
vt 0.0971 0.7761 0.0000
vt 0.0984 0.8291 0.0000
vt 0.0986 0.8325 0.0000
vt 0.0974 0.8326 0.0000
vt 0.0973 0.8292 0.0000
vt 0.0875 0.8402 0.0000
vt 0.0395 0.8403 0.0000
vt 0.0394 0.8392 0.0000
vt 0.0876 0.8392 0.0000
vt 0.0476 0.8419 0.0000
vt 0.0426 0.8419 0.0000
vt 0.0424 0.8409 0.0000
vt 0.0479 0.8409 0.0000
vt 0.0365 0.8325 0.0000
vt 0.0361 0.7791 0.0000
vt 0.0397 0.8363 0.0000
vt 0.0874 0.8360 0.0000
vt 0.0898 0.8329 0.0000
vt 0.0898 0.7798 0.0000
vt 0.0862 0.7758 0.0000
vt 0.0379 0.7761 0.0000
vt 0.3570 0.9377 0.0000
vt 0.3168 0.9371 0.0000
vt 0.3088 0.9638 0.0000
vt 0.3147 0.9381 0.0000
vt 0.3142 0.9373 0.0000
vt 0.3163 0.9363 0.0000
vt 0.3082 0.9325 0.0000
vt 0.3274 0.9275 0.0000
vt 0.3207 0.9099 0.0000
vt 0.3210 0.9096 0.0000
vt 0.3460 0.9150 0.0000
vt 0.3457 0.9153 0.0000
vt 0.2769 0.8961 0.0000
vt 0.2991 0.8968 0.0000
vt 0.3256 0.9272 0.0000
vt 0.3566 0.9770 0.0000
vt 0.3570 0.9511 0.0000
vt 0.3558 0.9496 0.0000
vt 0.3339 0.9494 0.0000
vt 0.3537 0.9778 0.0000
vt 0.3559 0.9778 0.0000
vt 0.3260 0.9450 0.0000
vt 0.3256 0.9301 0.0000
vt 0.3530 0.9310 0.0000
vt 0.3518 0.9310 0.0000
vt 0.2979 0.9695 0.0000
vt 0.2905 0.9682 0.0000
vt 0.2990 0.9726 0.0000
vt 0.2989 0.9699 0.0000
vt 0.3401 0.8954 0.0000
vt 0.3401 0.9095 0.0000
vt 0.3240 0.9215 0.0000
vt 0.3233 0.9156 0.0000
vt 0.3467 0.8958 0.0000
vt 0.0337 0.7789 0.0000
vt 0.0341 0.8329 0.0000
vt 0.0920 0.8331 0.0000
vt 0.0907 0.8330 0.0000
vt 0.0906 0.8300 0.0000
vt 0.0920 0.8297 0.0000
vt 0.0992 0.8251 0.0000
vt 0.0979 0.8248 0.0000
vt 0.0979 0.7762 0.0000
vt 0.0992 0.7759 0.0000
vt 0.0992 0.8296 0.0000
vt 0.0978 0.8292 0.0000
vt 0.0979 0.8251 0.0000
vt 0.0920 0.8332 0.0000
vt 0.0922 0.7796 0.0000
vt 0.0956 0.8328 0.0000
vt 0.0943 0.8327 0.0000
vt 0.0942 0.8297 0.0000
vt 0.0956 0.8294 0.0000
vt 0.0392 0.8377 0.0000
vt 0.0396 0.8365 0.0000
vt 0.0876 0.8365 0.0000
vt 0.0878 0.8377 0.0000
vt 0.0351 0.8378 0.0000
vt 0.0355 0.8363 0.0000
vt 0.0392 0.8364 0.0000
vt 0.0920 0.7759 0.0000
vt 0.0543 0.8396 0.0000
vt 0.0587 0.8395 0.0000
vt 0.0349 0.8395 0.0000
vt 0.0414 0.8396 0.0000
vt 0.0956 0.7759 0.0000
vt 0.0421 0.8395 0.0000
vt 0.0481 0.8396 0.0000
# 206 texture coords

o Ground_Pillar_003
g Ground_Pillar_003
s 1
f 1/1/1 2/2/2 3/3/3 
f 4/4/4 5/5/5 6/6/6 7/7/7 
f 8/8/8 9/9/9 10/10/10 
f 11/11/11 12/12/12 13/13/13 14/14/14 
f 15/15/15 16/16/16 17/17/17 18/18/18 
s 2
f 19/19/19 20/20/20 21/21/21 22/22/22 
s 1
f 23/23/23 24/24/24 25/25/25 26/26/26 
s 2
f 27/27/27 28/28/28 29/29/29 30/30/30 
f 31/31/31 32/32/32 33/33/33 34/34/34 
s 4
f 35/35/35 36/36/36 27/37/27 30/38/30 
s 2
f 2/39/2 9/9/9 8/8/8 3/40/3 
s 4
f 37/41/37 38/42/38 39/43/39 40/44/40 
s 2
f 12/45/12 4/4/4 7/7/7 13/46/13 
f 41/47/41 18/48/18 17/49/17 42/50/42 
s 4
f 5/5/5 22/51/22 21/52/21 6/6/6 
s 2
f 14/53/14 26/26/26 25/25/25 11/54/11 
s 1
f 43/55/43 44/56/44 10/10/10 
s 2
f 44/57/44 45/58/45 10/59/10 
s 1
f 39/43/39 46/60/46 47/61/47 
s 2
f 39/62/39 48/63/48 46/64/46 
f 37/65/37 16/16/16 49/66/49 38/67/38 
s 1
f 15/15/15 50/68/50 49/66/49 
s 2
f 49/66/49 50/68/50 51/69/51 38/67/38 
f 8/8/8 52/70/52 53/71/53 3/40/3 
s 1
f 3/3/3 53/72/53 1/1/1 
s 2
f 54/73/54 55/74/55 56/75/56 57/76/57 
s 8
f 33/77/33 54/78/54 45/79/45 48/80/48 
s 2
f 47/61/47 43/81/43 58/82/58 40/44/40 
s 8
f 43/83/43 47/84/47 46/85/46 44/86/44 
s 2
f 44/57/44 46/87/46 48/88/48 45/58/45 
f 54/73/54 33/33/33 59/89/59 60/90/60 
s 4
f 61/91/61 62/92/62 63/93/63 64/94/64 
f 62/92/62 65/95/65 66/96/66 63/93/63 
f 67/97/67 61/91/61 64/94/64 68/98/68 
s 8
f 2/99/2 42/100/42 69/101/69 70/102/70 
s 16
f 42/103/42 17/104/17 71/105/71 69/106/69 
s 4
f 17/107/17 16/108/16 72/109/72 71/110/71 
s 12
f 16/111/16 37/112/37 73/113/73 72/114/72 
s 1
f 37/115/37 40/116/40 74/117/74 73/118/73 
s 8
f 40/119/40 58/120/58 75/121/75 74/122/74 
s 4
f 58/123/58 9/124/9 76/125/76 75/126/75 
s 16
f 9/127/9 2/128/2 70/129/70 76/130/76 
s 4
f 64/94/64 63/93/63 77/131/77 78/132/78 
f 63/93/63 66/96/66 79/133/79 77/131/77 
f 66/96/66 65/95/65 80/134/80 79/133/79 
f 65/95/65 62/92/62 81/135/81 80/134/80 
f 62/92/62 61/91/61 82/136/82 81/135/81 
f 61/91/61 67/97/67 83/137/83 82/136/82 
f 67/97/67 68/98/68 84/138/84 83/137/83 
f 68/98/68 64/94/64 78/132/78 84/138/84 
s 2
f 27/27/27 15/139/15 28/28/28 
s 4
f 41/140/41 1/141/1 29/142/29 
f 28/143/28 18/144/18 41/140/41 29/142/29 
f 15/145/15 18/144/18 28/143/28 
s 2
f 1/146/1 30/30/30 29/29/29 
s 4
f 34/147/34 39/43/39 38/42/38 23/148/23 
s 1
f 20/149/20 8/8/8 10/10/10 57/150/57 
f 1/1/1 41/47/41 42/50/42 2/2/2 
f 53/72/53 35/151/35 30/152/30 1/1/1 
f 15/15/15 49/66/49 16/16/16 
f 15/15/15 27/37/27 36/36/36 50/68/50 
f 9/9/9 58/153/58 43/55/43 10/10/10 
s 4
f 39/43/39 47/61/47 40/44/40 
s 8
f 6/154/6 55/74/55 60/90/60 7/155/7 
s 4
f 13/156/13 59/89/59 32/32/32 14/157/14 
s 16
f 20/158/20 57/76/57 56/75/56 21/159/21 
s 8
f 55/160/55 6/6/6 21/52/21 56/161/56 
f 59/162/59 13/46/13 7/7/7 60/163/60 
f 31/164/31 26/26/26 14/53/14 32/165/32 
f 34/166/34 23/23/23 26/26/26 31/167/31 
s 2
f 32/32/32 59/89/59 33/33/33 
f 54/73/54 60/90/60 55/74/55 
s 4
f 38/42/38 51/168/51 24/169/24 23/148/23 
f 34/147/34 33/77/33 48/80/48 39/43/39 
s 1
f 10/10/10 45/170/45 54/171/54 57/150/57 
f 20/149/20 19/172/19 52/70/52 8/8/8 
s 12
f 85/173/85 78/132/78 77/131/77 86/174/86 
s 20
f 87/175/87 84/176/84 78/177/78 85/178/85 
s 4
f 88/179/88 83/180/83 84/181/84 87/182/87 
f 89/183/89 82/184/82 83/185/83 88/179/88 
s 5
f 90/186/90 81/135/81 82/136/82 89/187/89 
s 12
f 91/188/91 80/189/80 81/190/81 90/191/90 
s 4
f 92/192/92 79/193/79 80/194/80 91/195/91 
s 20
f 86/196/86 77/197/77 79/198/79 92/192/92 
s 8
f 69/101/69 85/178/85 86/199/86 70/102/70 
s 16
f 71/105/71 87/200/87 85/201/85 69/106/69 
s 4
f 72/109/72 88/179/88 87/182/87 71/110/71 
s 12
f 73/113/73 89/202/89 88/203/88 72/114/72 
s 1
f 74/117/74 90/191/90 89/204/89 73/118/73 
s 8
f 75/121/75 91/188/91 90/191/90 74/122/74 
s 4
f 76/125/76 92/192/92 91/195/91 75/126/75 
s 16
f 70/129/70 86/205/86 92/206/92 76/130/76 
# 76 polygons - 16 triangles

