# 3ds Max Wavefront OBJ Exporter v0.97b - (c)2007 guruware
# File Created: 15.02.2021 11:28:23

#
# object Ground_Pillar_002
#

v  -2.7452 9.8515 -3.8140
v  2.5828 9.8515 -3.8116
v  2.6163 0.0000 -3.9473
v  -3.0403 0.0000 -4.0409
v  3.9268 9.8515 -2.4817
v  3.8419 0.0000 -2.5494
v  3.9368 8.2529 3.1635
v  4.0478 0.0000 1.2603
v  3.2883 8.2632 3.8240
v  1.2999 0.0000 4.0409
v  -2.7648 9.8515 3.8298
v  -2.9420 0.0000 3.9408
v  -4.0401 0.0000 -2.3862
v  -3.9270 9.8515 -2.0498
v  -4.0478 0.0000 2.7749
v  -3.8306 9.8515 2.5896
v  3.8076 9.8515 2.5477
v  2.6836 9.8515 3.8449
v  3.8076 10.6847 2.5477
v  3.9268 10.6847 -2.4817
v  -3.9270 10.6847 -2.0498
v  -3.8306 10.6847 2.5896
v  2.5828 10.6847 -3.8116
v  -2.7452 10.6847 -3.8140
v  -2.7648 10.6847 3.8298
v  2.6836 10.6847 3.8449
v  -4.1148 10.0637 -2.0687
v  -2.8208 10.0638 -3.9980
v  -4.0170 10.0637 2.6235
v  -2.8156 10.0706 4.0199
v  2.7230 10.0609 4.0352
v  3.9900 10.0605 2.5734
v  4.1131 10.0703 -2.5208
v  2.6231 10.0635 -3.9968
v  -2.7986 10.5180 -3.9596
v  -4.0736 10.5175 -2.0532
v  2.6033 10.5174 -3.9581
v  4.0717 10.5175 -2.5017
v  3.9516 10.5174 2.5639
v  2.7132 10.5180 3.9963
v  -2.7957 10.5180 3.9810
v  -3.9769 10.5175 2.6036
v  -4.1590 10.3012 -2.0570
v  -2.8285 10.3013 -4.0412
v  -4.0619 10.3012 2.6139
v  -2.8130 10.3013 4.0658
v  2.7298 10.3013 4.0811
v  4.0353 10.3012 2.5762
v  4.1558 10.3012 -2.5153
v  2.6148 10.3012 -4.0402
# 50 vertices

vn -0.4420 -0.3940 -0.8058
vn 0.3676 -0.3767 -0.8503
vn 0.4196 0.0139 -0.9076
vn -0.4880 0.0347 -0.8722
vn 0.8516 -0.3747 -0.3667
vn 0.9253 -0.0054 -0.3792
vn 0.8978 0.0701 0.4348
vn 0.9521 -0.0565 0.3004
vn 0.4488 0.0413 0.8927
vn 0.3188 -0.0519 0.9464
vn -0.4006 -0.3812 0.8332
vn -0.4082 0.0176 0.9127
vn -0.9615 0.0204 -0.2739
vn -0.8907 -0.3652 -0.2707
vn -0.9280 0.0274 0.3716
vn -0.8643 -0.3658 0.3451
vn 0.9015 -0.2819 0.3285
vn 0.3688 -0.3409 0.8647
vn 0.4542 0.8683 0.1995
vn 0.4576 0.8631 -0.2137
vn -0.4604 0.8741 -0.1550
vn -0.4523 0.8695 0.1983
vn 0.2138 0.8663 -0.4514
vn -0.2514 0.8678 -0.4286
vn -0.2315 0.8694 0.4365
vn 0.2301 0.8691 0.4379
vn -0.8753 -0.4075 -0.2603
vn -0.4327 -0.4148 -0.8005
vn -0.8518 -0.4049 0.3323
vn -0.3875 -0.4077 0.8268
vn 0.3736 -0.4182 0.8280
vn 0.8518 -0.4099 0.3263
vn 0.8496 -0.3967 -0.3477
vn 0.3551 -0.3999 -0.8450
vn -0.4083 0.5089 -0.7579
vn -0.8331 0.4967 -0.2433
vn 0.3340 0.4899 -0.8053
vn 0.8066 0.4929 -0.3264
vn 0.8122 0.4922 0.3132
vn 0.3612 0.5039 0.7846
vn -0.3648 0.5043 0.7827
vn -0.8115 0.4952 0.3103
vn -0.9597 0.0965 -0.2639
vn -0.4557 0.0942 -0.8851
vn -0.9362 0.0970 0.3378
vn -0.3972 0.0916 0.9132
vn 0.3975 0.0875 0.9134
vn 0.9338 0.0883 0.3468
vn 0.9303 0.0961 -0.3540
vn 0.3590 0.0944 -0.9285
# 50 vertex normals

vt 0.3195 0.9761 0.0000
vt 0.2931 0.9782 0.0000
vt 0.2929 0.9455 0.0000
vt 0.3210 0.9460 0.0000
vt 0.2864 0.9782 0.0000
vt 0.2868 0.9451 0.0000
vt 0.2864 0.9708 0.0000
vt 0.2858 0.9449 0.0000
vt 0.3260 0.9088 0.0000
vt 0.3254 0.9348 0.0000
vt 0.3222 0.9348 0.0000
vt 0.3124 0.9088 0.0000
vt 0.2922 0.9421 0.0000
vt 0.2913 0.9090 0.0000
vt 0.3260 0.9460 0.0000
vt 0.3254 0.9761 0.0000
vt 0.2858 0.9094 0.0000
vt 0.2869 0.9421 0.0000
vt 0.2864 0.9401 0.0000
vt 0.2858 0.9100 0.0000
vt 0.3498 0.9433 0.0000
vt 0.3366 0.9468 0.0000
vt 0.3371 0.9319 0.0000
vt 0.3497 0.9360 0.0000
vt 0.2915 0.9354 0.0000
vt 0.3303 0.9348 0.0000
vt 0.3362 0.9471 0.0000
vt 0.2780 0.9467 0.0000
vt 0.2862 0.9363 0.0000
vt 0.3273 0.9453 0.0000
vt 0.0739 0.8307 0.0000
vt 0.0371 0.8315 0.0000
vt 0.0403 0.7742 0.0000
vt 0.0742 0.7749 0.0000
vt 0.0274 0.8217 0.0000
vt 0.0274 0.7828 0.0000
vt 0.0832 0.7827 0.0000
vt 0.0833 0.8224 0.0000
vt 0.0775 0.8404 0.0000
vt 0.0930 0.8404 0.0000
vt 0.0933 0.8417 0.0000
vt 0.0770 0.8417 0.0000
vt 0.0906 0.8175 0.0000
vt 0.0906 0.7836 0.0000
vt 0.0917 0.7836 0.0000
vt 0.0917 0.8175 0.0000
vt 0.0904 0.7831 0.0000
vt 0.0904 0.7740 0.0000
vt 0.0917 0.7737 0.0000
vt 0.0917 0.7832 0.0000
vt 0.0811 0.8374 0.0000
vt 0.0413 0.8374 0.0000
vt 0.0412 0.8362 0.0000
vt 0.0812 0.8362 0.0000
vt 0.0847 0.8239 0.0000
vt 0.0847 0.8144 0.0000
vt 0.0859 0.8141 0.0000
vt 0.0859 0.8241 0.0000
vt 0.0848 0.8135 0.0000
vt 0.0848 0.7768 0.0000
vt 0.0860 0.7767 0.0000
vt 0.0860 0.8136 0.0000
vt 0.0265 0.8375 0.0000
vt 0.0363 0.8375 0.0000
vt 0.0366 0.8387 0.0000
vt 0.0264 0.8387 0.0000
vt 0.0372 0.8377 0.0000
vt 0.0761 0.8377 0.0000
vt 0.0763 0.8388 0.0000
vt 0.0372 0.8388 0.0000
vt 0.0909 0.7752 0.0000
vt 0.0754 0.7752 0.0000
vt 0.0751 0.7745 0.0000
vt 0.0912 0.7745 0.0000
vt 0.0269 0.8218 0.0000
vt 0.0269 0.7826 0.0000
vt 0.0771 0.8282 0.0000
vt 0.0909 0.8282 0.0000
vt 0.0912 0.8288 0.0000
vt 0.0768 0.8288 0.0000
vt 0.0739 0.8312 0.0000
vt 0.0371 0.8321 0.0000
vt 0.0395 0.8372 0.0000
vt 0.0270 0.8372 0.0000
vt 0.0266 0.8365 0.0000
vt 0.0398 0.8365 0.0000
vt 0.0838 0.7826 0.0000
vt 0.0839 0.8226 0.0000
vt 0.0388 0.7745 0.0000
vt 0.0269 0.7745 0.0000
vt 0.0266 0.7738 0.0000
vt 0.0392 0.7738 0.0000
vt 0.0403 0.7736 0.0000
vt 0.0742 0.7743 0.0000
vt 0.0934 0.8175 0.0000
vt 0.0958 0.8178 0.0000
vt 0.0958 0.8315 0.0000
vt 0.0934 0.8316 0.0000
vt 0.0934 0.7835 0.0000
vt 0.0959 0.7835 0.0000
vt 0.0959 0.8175 0.0000
vt 0.0934 0.7732 0.0000
vt 0.0958 0.7736 0.0000
vt 0.0958 0.7833 0.0000
vt 0.0411 0.8346 0.0000
vt 0.0412 0.8321 0.0000
vt 0.0813 0.8321 0.0000
vt 0.0814 0.8346 0.0000
vt 0.0876 0.8137 0.0000
vt 0.0901 0.8140 0.0000
vt 0.0901 0.8242 0.0000
vt 0.0876 0.8243 0.0000
vt 0.0876 0.7766 0.0000
vt 0.0901 0.7768 0.0000
vt 0.0901 0.8136 0.0000
vt 0.0371 0.8405 0.0000
vt 0.0368 0.8429 0.0000
vt 0.0263 0.8429 0.0000
vt 0.0262 0.8405 0.0000
vt 0.0766 0.8405 0.0000
vt 0.0764 0.8429 0.0000
vt 0.0371 0.8429 0.0000
vt 0.0939 0.8435 0.0000
vt 0.0764 0.8435 0.0000
# 124 texture coords

o Ground_Pillar_002
g Ground_Pillar_002
s 1
f 1/1/1 2/2/2 3/3/3 4/4/4 
s 2
f 2/2/2 5/5/5 6/6/6 3/3/3 
s 1
f 5/5/5 7/7/7 8/8/8 6/6/6 
s 2
f 8/9/8 7/10/7 9/11/9 10/12/10 
s 1
f 9/11/9 11/13/11 12/14/12 10/12/10 
s 2
f 1/1/1 4/4/4 13/15/13 14/16/14 
s 1
f 15/17/15 16/18/16 14/19/14 13/20/13 
s 2
f 7/21/7 17/22/17 18/23/18 9/24/9 
f 15/17/15 12/14/12 11/13/11 16/18/16 
s 1
f 5/25/5 17/26/17 7/27/7 
f 9/28/9 18/29/18 11/30/11 
s 4
f 19/31/19 20/32/20 21/33/21 22/34/22 
f 20/32/20 23/35/23 24/36/24 21/33/21 
f 19/31/19 22/34/22 25/37/25 26/38/26 
f 1/39/1 14/40/14 27/41/27 28/42/28 
f 14/43/14 16/44/16 29/45/29 27/46/27 
f 16/47/16 11/48/11 30/49/30 29/50/29 
f 11/51/11 18/52/18 31/53/31 30/54/30 
f 18/55/18 17/56/17 32/57/32 31/58/31 
f 17/59/17 5/60/5 33/61/33 32/62/32 
f 5/63/5 2/64/2 34/65/34 33/66/33 
f 2/67/2 1/68/1 28/69/28 34/70/34 
f 21/71/21 24/72/24 35/73/35 36/74/36 
f 24/36/24 23/35/23 37/75/37 35/76/35 
f 23/77/23 20/78/20 38/79/38 37/80/37 
f 20/32/20 19/31/19 39/81/39 38/82/38 
f 19/83/19 26/84/26 40/85/40 39/86/39 
f 26/38/26 25/37/25 41/87/41 40/88/40 
f 25/89/25 22/90/22 42/91/42 41/92/41 
f 22/34/22 21/33/21 36/93/36 42/94/42 
f 43/95/43 36/96/36 35/97/35 44/98/44 
f 45/99/45 42/100/42 36/101/36 43/95/43 
f 46/102/46 41/103/41 42/104/42 45/99/45 
f 47/105/47 40/106/40 41/107/41 46/108/46 
f 48/109/48 39/110/39 40/111/40 47/112/47 
f 49/113/49 38/114/38 39/115/39 48/109/48 
f 50/116/50 37/117/37 38/118/38 49/119/49 
f 44/120/44 35/121/35 37/122/37 50/116/50 
f 27/41/27 43/123/43 44/124/44 28/42/28 
f 29/45/29 45/99/45 43/95/43 27/46/27 
f 30/49/30 46/102/46 45/99/45 29/50/29 
f 31/53/31 47/105/47 46/108/46 30/54/30 
f 32/57/32 48/109/48 47/112/47 31/58/31 
f 33/61/33 49/113/49 48/109/48 32/62/32 
f 34/65/34 50/116/50 49/119/49 33/66/33 
f 28/69/28 44/120/44 50/116/50 34/70/34 
# 44 polygons - 2 triangles

