# 3ds Max Wavefront OBJ Exporter v0.97b - (c)2007 guruware
# File Created: 15.02.2021 11:26:30

#
# object Ground_Pillar_001
#

v  -2.9763 0.0000 3.4539
v  3.0364 0.0000 3.6879
v  3.0622 7.8564 3.6879
v  -3.2226 7.8664 3.3712
v  3.6129 0.0000 3.1587
v  3.6366 0.0000 -2.4732
v  3.6366 0.0000 -3.2851
v  3.6129 7.7063 3.2039
v  3.5022 0.0000 -3.4196
v  -2.8404 7.5939 -3.6728
v  3.4778 7.5512 -3.4196
v  -3.1594 0.0000 -3.1254
v  -3.2857 0.0000 3.1306
v  -3.6416 7.8664 3.0202
v  -3.3869 7.6344 -3.3147
v  -2.9597 9.7589 3.2840
v  -3.4667 9.7422 2.7770
v  3.6366 7.5506 -3.2608
v  -2.6210 0.0000 -3.6879
v  2.8505 9.8590 3.7575
v  3.6416 7.9093 -2.8402
v  3.6651 9.7780 -2.2651
v  3.6087 9.7291 3.1638
v  3.5705 7.8746 3.2083
v  -2.8270 7.7632 -3.6717
v  -2.9371 9.8590 -3.6414
v  2.5468 9.8176 -3.4821
v  3.0403 7.9018 -3.3898
v  -3.2591 9.7787 -3.2585
v  3.2265 7.7433 -2.9572
v  3.0642 7.7444 -3.1195
v  2.6902 0.0000 -3.4196
v  -3.4667 10.6910 2.7770
v  -2.9597 10.6910 3.2840
v  2.8505 10.6910 3.7575
v  3.6087 10.6910 3.1638
v  -3.2591 10.6910 -3.2585
v  3.6651 10.6910 -2.2651
v  -2.9371 10.6910 -3.6414
v  2.5468 10.6910 -3.4821
v  3.8032 9.8950 3.2500
v  2.8942 10.0265 3.9652
v  3.8599 9.9344 -2.3267
v  2.6213 9.9856 -3.6807
v  -3.0214 10.0426 -3.8516
v  -3.4602 9.9577 -3.3180
v  -3.6571 9.9477 2.8411
v  -3.0298 9.9637 3.4674
v  2.8780 10.4805 3.9416
v  3.7822 10.4275 3.2207
v  -3.0177 10.4561 3.4593
v  -3.6464 10.4510 2.8199
v  -3.4363 10.4682 -3.2934
v  -2.9982 10.5058 -3.8238
v  2.6122 10.4679 -3.6578
v  3.8399 10.4328 -2.3077
v  3.8613 10.1075 3.2601
v  2.8904 10.2371 4.0249
v  3.9170 10.1399 -2.3439
v  2.6423 10.2002 -3.7387
v  -3.0285 10.2669 -3.9143
v  -3.5275 10.1811 -3.3135
v  -3.7207 10.1987 2.8489
v  -3.0402 10.2140 3.5275
# 64 vertices

vn -0.4033 -0.0030 0.9150
vn 0.3440 -0.0011 0.9390
vn 0.3758 0.0067 0.9267
vn -0.3780 0.0465 0.9247
vn 0.9152 -0.0024 0.4030
vn 0.0000 1.0000 -0.0000
vn 0.9239 0.0022 -0.3826
vn 0.7880 0.5315 0.3107
vn 0.3915 -0.0088 -0.9201
vn -0.1996 0.6057 -0.7703
vn 0.3644 0.5028 -0.7839
vn -0.9246 -0.0369 -0.3791
vn -0.9284 -0.0368 0.3697
vn -0.9109 0.0509 0.4094
vn -0.8585 0.0149 -0.5125
vn -0.3783 -0.3600 0.8528
vn -0.8725 -0.3500 0.3408
vn 0.7925 0.5072 -0.3386
vn -0.3626 -0.0086 -0.9319
vn 0.2093 -0.5027 0.8387
vn 0.8213 -0.4286 -0.3766
vn 0.8397 -0.4525 -0.3003
vn 0.7714 -0.4783 0.4198
vn 0.7180 -0.6217 0.3130
vn -0.1651 -0.5301 -0.8317
vn -0.3174 -0.5080 -0.8008
vn 0.3377 -0.4657 -0.8180
vn 0.3679 -0.4092 -0.8350
vn -0.8380 -0.4024 -0.3685
vn 0.8834 0.1123 -0.4550
vn 0.3920 0.0944 -0.9151
vn 0.0000 -1.0000 -0.0000
vn -0.4856 0.8492 0.2074
vn -0.2237 0.8593 0.4599
vn 0.1536 0.8725 0.4639
vn 0.4930 0.8299 0.2612
vn -0.4645 0.8642 -0.1933
vn 0.5030 0.8396 -0.2053
vn -0.1999 0.8877 -0.4147
vn 0.2158 0.8643 -0.4544
vn 0.7507 -0.5212 0.4059
vn 0.2372 -0.5086 0.8277
vn 0.7870 -0.5333 -0.3100
vn 0.3484 -0.5223 -0.7783
vn -0.3505 -0.4979 -0.7932
vn -0.7877 -0.5151 -0.3379
vn -0.8214 -0.4606 0.3364
vn -0.3745 -0.4536 0.8087
vn 0.2633 0.4836 0.8347
vn 0.8281 0.4043 0.3884
vn -0.3817 0.4410 0.8123
vn -0.8374 0.4440 0.3189
vn -0.8359 0.4572 -0.3037
vn -0.3602 0.5328 -0.7657
vn 0.3750 0.4644 -0.8024
vn 0.8544 0.4149 -0.3128
vn 0.9018 -0.0039 0.4322
vn 0.2753 0.0397 0.9605
vn 0.9340 -0.0019 -0.3572
vn 0.4131 0.0166 -0.9105
vn -0.3993 0.0626 -0.9147
vn -0.9409 0.0117 -0.3385
vn -0.9320 0.0288 0.3614
vn -0.4118 0.0268 0.9109
# 64 vertex normals

vt 0.3290 0.8869 0.0000
vt 0.3269 0.9320 0.0000
vt 0.2995 0.9322 0.0000
vt 0.2994 0.8850 0.0000
vt 0.3270 0.9363 0.0000
vt 0.3312 0.9365 0.0000
vt 0.3251 0.9365 0.0000
vt 0.3008 0.9363 0.0000
vt 0.3251 0.9378 0.0000
vt 0.3018 0.9854 0.0000
vt 0.3021 0.9380 0.0000
vt 0.3289 0.9878 0.0000
vt 0.3292 0.9887 0.0000
vt 0.2994 0.9914 0.0000
vt 0.3014 0.9895 0.0000
vt 0.2885 0.9661 0.0000
vt 0.2885 0.9640 0.0000
vt 0.3068 0.9622 0.0000
vt 0.3068 0.9646 0.0000
vt 0.3251 0.9368 0.0000
vt 0.3021 0.9368 0.0000
vt 0.3290 0.9838 0.0000
vt 0.2884 0.9335 0.0000
vt 0.3052 0.9351 0.0000
vt 0.3529 0.9307 0.0000
vt 0.3350 0.9275 0.0000
vt 0.3364 0.9022 0.0000
vt 0.3531 0.9014 0.0000
vt 0.3096 0.9654 0.0000
vt 0.3102 0.9472 0.0000
vt 0.3358 0.9476 0.0000
vt 0.3380 0.9656 0.0000
vt 0.3072 0.9148 0.0000
vt 0.3256 0.9164 0.0000
vt 0.3249 0.9446 0.0000
vt 0.3059 0.9455 0.0000
vt 0.2994 0.8819 0.0000
vt 0.3292 0.8845 0.0000
vt 0.3529 0.9334 0.0000
vt 0.3350 0.9332 0.0000
vt 0.2885 0.9311 0.0000
vt 0.3052 0.9316 0.0000
vt 0.3068 0.9660 0.0000
vt 0.3087 0.9471 0.0000
vt 0.3005 0.9398 0.0000
vt 0.2995 0.9411 0.0000
vt 0.3008 0.9369 0.0000
vt 0.3005 0.9411 0.0000
vt 0.3112 0.9022 0.0000
vt 0.3129 0.9011 0.0000
vt 0.3345 0.9210 0.0000
vt 0.3346 0.9244 0.0000
vt 0.2884 0.9249 0.0000
vt 0.2890 0.9217 0.0000
vt 0.3090 0.9015 0.0000
vt 0.3101 0.9023 0.0000
vt 0.3312 0.9439 0.0000
vt 0.3021 0.9365 0.0000
vt 0.1091 0.8403 0.0000
vt 0.1059 0.8433 0.0000
vt 0.0700 0.8450 0.0000
vt 0.0655 0.8412 0.0000
vt 0.1092 0.8031 0.0000
vt 0.0663 0.8077 0.0000
vt 0.1073 0.8007 0.0000
vt 0.0734 0.8005 0.0000
vt 0.0696 0.7678 0.0000
vt 0.0659 0.7632 0.0000
vt 0.0662 0.7626 0.0000
vt 0.0702 0.7677 0.0000
vt 0.0325 0.7628 0.0000
vt 0.0323 0.7622 0.0000
vt 0.0661 0.7626 0.0000
vt 0.0250 0.7697 0.0000
vt 0.0244 0.7694 0.0000
vt 0.0322 0.7623 0.0000
vt 0.0240 0.8035 0.0000
vt 0.0233 0.8037 0.0000
vt 0.0244 0.7695 0.0000
vt 0.0693 0.7940 0.0000
vt 0.0717 0.7938 0.0000
vt 0.0718 0.7947 0.0000
vt 0.0691 0.7948 0.0000
vt 0.0263 0.8055 0.0000
vt 0.0635 0.8068 0.0000
vt 0.0637 0.8073 0.0000
vt 0.0262 0.8061 0.0000
vt 0.0667 0.8036 0.0000
vt 0.0672 0.8039 0.0000
vt 0.0702 0.7678 0.0000
vt 0.0672 0.8038 0.0000
vt 0.0699 0.8454 0.0000
vt 0.0651 0.8413 0.0000
vt 0.1060 0.8437 0.0000
vt 0.1095 0.8405 0.0000
vt 0.1096 0.8030 0.0000
vt 0.1074 0.8003 0.0000
vt 0.0733 0.8001 0.0000
vt 0.0659 0.8076 0.0000
vt 0.0689 0.8486 0.0000
vt 0.0687 0.8503 0.0000
vt 0.0632 0.8501 0.0000
vt 0.0631 0.8486 0.0000
vt 0.0570 0.8451 0.0000
vt 0.0567 0.8468 0.0000
vt 0.0228 0.8468 0.0000
vt 0.0226 0.8451 0.0000
vt 0.0654 0.8451 0.0000
vt 0.0653 0.8466 0.0000
vt 0.0572 0.8468 0.0000
vt 0.1045 0.7848 0.0000
vt 0.1042 0.7861 0.0000
vt 0.0698 0.7863 0.0000
vt 0.0697 0.7848 0.0000
vt 0.0721 0.7970 0.0000
vt 0.0718 0.7984 0.0000
vt 0.0688 0.7983 0.0000
vt 0.0687 0.7970 0.0000
vt 0.1099 0.7970 0.0000
vt 0.1097 0.7985 0.0000
vt 0.0722 0.7984 0.0000
vt 0.0267 0.8486 0.0000
vt 0.0265 0.8503 0.0000
vt 0.0227 0.8503 0.0000
vt 0.0226 0.8486 0.0000
vt 0.0630 0.8502 0.0000
vt 0.0268 0.8503 0.0000
vt 0.0670 0.7613 0.0000
vt 0.0717 0.7673 0.0000
vt 0.0320 0.7608 0.0000
vt 0.0665 0.7611 0.0000
vt 0.0230 0.7687 0.0000
vt 0.0316 0.7609 0.0000
vt 0.0217 0.8040 0.0000
vt 0.0229 0.7691 0.0000
vt 0.0640 0.8088 0.0000
vt 0.0260 0.8077 0.0000
vt 0.0684 0.8044 0.0000
vt 0.0643 0.8086 0.0000
vt 0.0717 0.7676 0.0000
vt 0.0686 0.8042 0.0000
# 141 texture coords

o Ground_Pillar_001
g Ground_Pillar_001
s 1
f 1/1/1 2/2/2 3/3/3 4/4/4 
f 5/5/5 6/6/6 7/7/7 8/8/8 
f 9/9/9 10/10/10 11/11/11 
f 12/12/12 13/13/13 14/14/14 15/15/15 
s 2
f 14/16/14 4/17/4 16/18/16 17/19/17 
f 7/20/7 9/9/9 11/11/11 18/21/18 
f 2/2/2 5/5/5 8/8/8 3/3/3 
f 19/22/19 12/12/12 15/15/15 10/10/10 
s 1
f 3/23/3 20/24/20 16/18/16 4/17/4 
f 21/25/21 22/26/22 23/27/23 24/28/24 
f 25/29/25 26/30/26 27/31/27 28/32/28 
f 14/33/14 17/34/17 29/35/29 15/36/15 
s 2
f 14/37/14 13/38/13 1/1/1 4/4/4 
f 28/39/28 27/40/27 22/26/22 21/25/21 
s 4
f 3/23/3 24/41/24 23/42/23 20/24/20 
f 15/43/15 29/44/29 26/30/26 25/29/25 
s 8
f 18/21/18 30/45/30 3/46/3 8/47/8 
f 10/10/10 15/15/15 31/48/31 11/11/11 
f 11/11/11 31/48/31 30/45/30 18/21/18 
s 16
f 30/49/30 21/50/21 24/51/24 3/52/3 
s 32
f 15/53/15 25/54/25 28/55/28 31/56/31 
f 31/56/31 28/55/28 21/50/21 30/49/30 
s 1
f 9/9/9 32/57/32 19/22/19 10/10/10 
f 7/7/7 18/58/18 8/8/8 
f 33/59/33 34/60/34 35/61/35 36/62/36 
f 37/63/37 33/59/33 36/62/36 38/64/38 
f 39/65/39 37/63/37 38/64/38 40/66/40 
s 12
f 20/67/20 23/68/23 41/69/41 42/70/42 
s 20
f 23/68/23 22/71/22 43/72/43 41/73/41 
f 22/71/22 27/74/27 44/75/44 43/76/43 
f 27/74/27 26/77/26 45/78/45 44/79/44 
f 26/80/26 29/81/29 46/82/46 45/83/45 
s 12
f 29/84/29 17/85/17 47/86/47 46/87/46 
s 4
f 17/85/17 16/88/16 48/89/48 47/86/47 
s 12
f 16/88/16 20/67/20 42/90/42 48/91/48 
s 4
f 36/62/36 35/61/35 49/92/49 50/93/50 
f 35/61/35 34/60/34 51/94/51 49/92/49 
f 34/60/34 33/59/33 52/95/52 51/94/51 
f 33/59/33 37/63/37 53/96/53 52/95/52 
f 37/63/37 39/65/39 54/97/54 53/96/53 
f 39/65/39 40/66/40 55/98/55 54/97/54 
f 40/66/40 38/64/38 56/99/56 55/98/55 
f 38/64/38 36/62/36 50/93/50 56/99/56 
f 57/100/57 50/101/50 49/102/49 58/103/58 
f 59/104/59 56/105/56 50/106/50 57/107/57 
f 60/108/60 55/109/55 56/110/56 59/104/59 
f 61/111/61 54/112/54 55/113/55 60/114/60 
f 62/115/62 53/116/53 54/117/54 61/118/61 
f 63/119/63 52/120/52 53/121/53 62/115/62 
f 64/122/64 51/123/51 52/124/52 63/125/63 
f 58/103/58 49/126/49 51/127/51 64/122/64 
s 12
f 41/69/41 57/128/57 58/129/58 42/70/42 
s 20
f 43/72/43 59/130/59 57/131/57 41/73/41 
f 44/75/44 60/132/60 59/133/59 43/76/43 
f 45/78/45 61/134/61 60/135/60 44/79/44 
f 46/82/46 62/115/62 61/118/61 45/83/45 
s 12
f 47/86/47 63/136/63 62/137/62 46/87/46 
s 4
f 48/89/48 64/138/64 63/139/63 47/86/47 
s 12
f 42/90/42 58/140/58 64/141/64 48/91/48 
# 57 polygons - 2 triangles

