# 3ds Max Wavefront OBJ Exporter v0.97b - (c)2007 guruware
# File Created: 31.01.2021 15:58:49

#
# object Ground_Pillar_2
#

v  -2.7452 9.3208 -3.8140
v  2.5816 9.7303 -3.8068
v  2.6163 0.3774 -3.9473
v  -3.0403 0.4697 -4.0409
v  -3.5326 10.0176 2.5691
v  3.4569 10.0176 1.9769
v  3.6473 10.0176 -2.4587
v  -3.6249 10.0176 -2.0219
v  3.9298 9.7303 -2.4794
v  3.8419 0.2787 -2.5494
v  3.9368 8.2529 3.1635
v  4.0478 0.2471 1.2603
v  3.2883 8.2632 3.8240
v  1.2999 0.2469 4.0409
v  -2.7648 9.7304 3.8298
v  -2.9420 0.2789 3.9408
v  -4.0401 0.4712 -2.3862
v  -3.9270 9.3207 -2.0498
v  -4.0478 0.3685 2.7749
v  -3.8306 9.7306 2.5896
v  -3.7701 -0.0096 2.7233
v  -3.7080 -0.0091 -2.3975
v  3.5503 -0.0086 -2.5432
v  3.7628 -0.0143 1.2043
v  1.0638 -0.0150 3.7508
v  -2.8082 -0.0083 3.6452
v  2.6468 -0.0090 -3.5037
v  -2.9048 -0.0104 -3.7621
v  3.7801 9.8078 2.4167
v  2.5489 9.7600 3.8495
v  -2.6230 10.0176 3.5377
v  2.0570 10.0176 3.2561
v  2.4631 10.0176 -3.5120
v  -2.5529 10.0176 -3.4966
# 34 vertices

vn -0.4623 0.2405 -0.8535
vn 0.3388 0.3878 -0.8572
vn 0.3618 -0.3542 -0.8623
vn -0.4712 -0.2411 -0.8484
vn -0.4157 0.8865 0.2034
vn 0.2677 0.9606 0.0742
vn 0.4356 0.8703 -0.2300
vn -0.5896 0.7832 -0.1977
vn 0.8744 0.3422 -0.3439
vn 0.8688 -0.3542 -0.3461
vn 0.8926 0.0966 0.4403
vn 0.8725 -0.3977 0.2839
vn 0.4571 0.0665 0.8869
vn 0.3144 -0.4386 0.8419
vn -0.3853 0.3817 0.8401
vn -0.3868 -0.3736 0.8431
vn -0.9305 -0.2633 -0.2547
vn -0.9408 0.1991 -0.2742
vn -0.8986 -0.2764 0.3407
vn -0.8736 0.3823 0.3012
vn -0.4878 -0.8424 0.2291
vn -0.5082 -0.8464 -0.1595
vn 0.4203 -0.8804 -0.2198
vn 0.4046 -0.8955 0.1853
vn 0.1047 -0.9221 0.3725
vn -0.1612 -0.9056 0.3923
vn 0.2466 -0.8811 -0.4036
vn -0.2842 -0.8109 -0.5116
vn 0.7541 0.6027 0.2609
vn 0.2691 0.5692 0.7769
vn -0.1521 0.9003 0.4078
vn 0.0646 0.9783 0.1968
vn 0.1495 0.9040 -0.4004
vn -0.2714 0.7918 -0.5472
# 34 vertex normals

vt 0.4559 0.9761 0.0000
vt 0.4295 0.9782 0.0000
vt 0.4293 0.9455 0.0000
vt 0.4574 0.9460 0.0000
vt 0.0719 0.7742 0.0000
vt 0.0672 0.8296 0.0000
vt 0.0321 0.8311 0.0000
vt 0.0355 0.7735 0.0000
vt 0.4228 0.9782 0.0000
vt 0.4232 0.9451 0.0000
vt 0.4227 0.9708 0.0000
vt 0.4222 0.9449 0.0000
vt 0.4624 0.9088 0.0000
vt 0.4618 0.9348 0.0000
vt 0.4586 0.9348 0.0000
vt 0.4487 0.9088 0.0000
vt 0.4286 0.9421 0.0000
vt 0.4277 0.9090 0.0000
vt 0.4623 0.9460 0.0000
vt 0.4618 0.9761 0.0000
vt 0.4222 0.9094 0.0000
vt 0.4233 0.9421 0.0000
vt 0.4228 0.9401 0.0000
vt 0.4222 0.9100 0.0000
vt 0.4610 0.9436 0.0000
vt 0.4607 0.9436 0.0000
vt 0.4247 0.9436 0.0000
vt 0.4236 0.9436 0.0000
vt 0.4370 0.9436 0.0000
vt 0.4562 0.9436 0.0000
vt 0.4554 0.9076 0.0000
vt 0.4599 0.9076 0.0000
vt 0.4239 0.9076 0.0000
vt 0.4279 0.9076 0.0000
vt 0.4291 0.9436 0.0000
vt 0.4567 0.9436 0.0000
vt 0.4236 0.9076 0.0000
vt 0.4283 0.9076 0.0000
vt 0.4476 0.9075 0.0000
vt 0.4610 0.9075 0.0000
vt 0.4624 0.9455 0.0000
vt 0.0960 0.8413 0.0000
vt 0.0827 0.8449 0.0000
vt 0.0832 0.8299 0.0000
vt 0.0958 0.8340 0.0000
vt 0.0796 0.7814 0.0000
vt 0.0774 0.8185 0.0000
vt 0.0237 0.8217 0.0000
vt 0.0238 0.7820 0.0000
vt 0.0908 0.8161 0.0000
vt 0.0885 0.8169 0.0000
vt 0.0882 0.7746 0.0000
vt 0.0936 0.7765 0.0000
vt 0.0819 0.7803 0.0000
vt 0.0821 0.8224 0.0000
vt 0.0785 0.8259 0.0000
vt 0.0814 0.8244 0.0000
vt 0.0816 0.8374 0.0000
vt 0.0783 0.8364 0.0000
vt 0.0707 0.8322 0.0000
vt 0.0319 0.8334 0.0000
vt 0.0879 0.7886 0.0000
vt 0.0823 0.7888 0.0000
vt 0.0823 0.7771 0.0000
vt 0.0879 0.7746 0.0000
vt 0.0846 0.8253 0.0000
vt 0.0823 0.8252 0.0000
vt 0.0241 0.8255 0.0000
vt 0.0273 0.8264 0.0000
vt 0.0271 0.8390 0.0000
vt 0.0243 0.8405 0.0000
vt 0.0376 0.8335 0.0000
vt 0.0764 0.8328 0.0000
vt 0.0824 0.8452 0.0000
vt 0.0241 0.8447 0.0000
vt 0.0323 0.8343 0.0000
vt 0.0734 0.8433 0.0000
# 77 texture coords

o Ground_Pillar_2
g Ground_Pillar_2
s off
f 1/1/1 2/2/2 3/3/3 4/4/4 
f 5/5/5 6/6/6 7/7/7 8/8/8 
f 2/2/2 9/9/9 10/10/10 3/3/3 
f 9/9/9 11/11/11 12/12/12 10/10/10 
f 12/13/12 11/14/11 13/15/13 14/16/14 
f 13/15/13 15/17/15 16/18/16 14/16/14 
f 1/1/1 4/4/4 17/19/17 18/20/18 
f 19/21/19 20/22/20 18/23/18 17/24/17 
f 21/25/21 22/26/22 23/27/23 24/28/24 
f 24/28/24 25/29/25 26/30/26 21/25/21 
f 27/31/27 23/32/23 22/33/22 28/34/28 
f 3/3/3 27/35/27 28/36/28 4/4/4 
f 19/21/19 21/37/21 26/38/26 16/18/16 
f 4/4/4 28/36/28 22/26/22 17/19/17 
f 10/10/10 23/27/23 27/35/27 3/3/3 
f 16/18/16 26/38/26 25/39/25 14/16/14 
f 12/12/12 24/28/24 23/27/23 10/10/10 
f 14/16/14 25/39/25 24/40/24 12/13/12 
f 17/19/17 22/26/22 21/25/21 19/41/19 
f 11/42/11 29/43/29 30/44/30 13/45/13 
f 19/21/19 16/18/16 15/17/15 20/22/20 
f 5/5/5 31/46/31 32/47/32 6/6/6 
f 7/7/7 33/48/33 34/49/34 8/8/8 
f 33/50/33 2/51/2 1/52/1 34/53/34 
f 31/46/31 15/54/15 30/55/30 32/47/32 
f 5/56/5 20/57/20 15/58/15 31/59/31 
f 6/6/6 29/60/29 9/61/9 7/7/7 
f 18/62/18 8/63/8 34/64/34 1/65/1 
f 20/66/20 5/67/5 8/63/8 18/62/18 
f 2/68/2 33/69/33 7/70/7 9/71/9 
f 29/60/29 6/6/6 32/47/32 30/55/30 
f 9/72/9 29/73/29 11/74/11 
f 13/75/13 30/76/30 15/77/15 
# 31 polygons - 2 triangles

