# 3ds Max Wavefront OBJ Exporter v0.97b - (c)2007 guruware
# File Created: 31.01.2021 15:59:21

#
# object Ground_Pillar_3
#

v  3.2487 7.5206 -5.6506
v  0.6702 9.7945 -5.5130
v  5.2488 9.5678 -5.1556
v  5.4130 7.8624 -5.2739
v  6.4524 0.4604 6.7288
v  6.6944 6.1552 -1.4372
v  6.5376 6.0319 6.7244
v  -5.2363 10.0036 -1.0704
v  -5.2700 10.0016 4.6313
v  3.4959 10.0056 4.9804
v  0.7642 10.0056 -5.0845
v  5.8228 7.9645 -4.8827
v  5.7315 9.5669 -4.5479
v  5.7413 9.5792 1.4322
v  5.6581 8.4206 -0.2368
v  -1.0809 0.1755 6.7440
v  4.4779 0.1282 6.8781
v  -0.6723 6.0118 6.9354
v  -6.0693 7.3682 -2.4471
v  -5.8190 9.7990 -1.1274
v  -5.6940 9.1970 -5.2470
v  -5.7137 7.5074 -5.2252
v  5.6632 -0.0789 -1.6920
v  -1.0407 -0.0789 5.3863
v  -5.6884 -0.0789 4.9202
v  5.7544 -0.0789 -5.2913
v  5.8458 0.1756 -1.9108
v  5.8272 6.1552 -1.6871
v  6.5251 6.1552 -1.6664
v  6.5438 0.1756 -1.8901
v  5.8205 6.2318 -1.4631
v  5.4633 6.2274 5.7726
v  6.2743 6.1813 6.7038
v  6.5185 6.2318 -1.4424
v  -1.1980 6.0971 5.6125
v  -1.2273 0.1777 5.7611
v  -1.2496 0.1756 6.4935
v  -1.1250 6.0364 6.4629
v  -5.4826 7.1938 -5.2389
v  -5.7250 6.9955 -5.2541
v  -5.5349 6.9959 -5.4755
v  -5.5182 7.5176 -5.4499
v  -5.7568 -0.0789 -4.8779
v  -5.8813 0.1532 -4.8778
v  -5.1323 0.1532 -5.8330
v  -5.1321 -0.0789 -5.6745
v  3.5235 9.7685 5.1637
v  5.6153 9.2005 5.2262
v  6.4769 -0.0789 2.7678
v  6.5689 0.1180 2.7973
v  4.4133 -0.0789 6.6951
v  5.9331 0.1756 -5.2866
v  5.7515 0.1756 -5.5180
v  -5.6843 0.2990 5.5019
v  -6.1850 0.3155 4.8543
v  5.4464 9.9099 -4.8056
v  -5.2754 9.6226 5.2388
v  -5.7728 9.6096 4.6981
v  -1.0737 -0.0789 6.4987
v  6.7131 0.1756 -1.6609
v  6.5371 -0.0789 -1.6661
v  6.2309 6.0318 7.1063
v  -0.6115 6.1755 6.4802
v  -5.7576 0.4251 -5.8324
v  -5.8819 0.4251 -5.6739
v  -5.5008 8.1961 5.3749
v  0.5117 8.3961 5.3197
v  6.2832 0.4502 6.9409
v  5.1108 10.0078 1.4030
v  -5.5383 9.1972 -5.4460
v  -0.7585 6.2149 5.6258
v  5.6018 8.0837 5.5344
v  5.5386 8.4619 5.4238
v  5.4700 8.2109 5.3380
v  -5.9199 8.1597 4.7363
# 75 vertices

vn 0.1270 0.0029 -0.9919
vn -0.0474 0.5929 -0.8039
vn 0.3939 0.3394 -0.8542
vn 0.4405 0.0750 -0.8946
vn 0.7694 -0.5679 0.2924
vn 0.8294 0.5038 -0.2415
vn 0.8420 0.4505 0.2970
vn -0.1977 0.9672 -0.1594
vn -0.2999 0.9229 0.2415
vn 0.3662 0.8114 0.4555
vn -0.0632 0.9643 -0.2573
vn 0.9092 0.0940 -0.4057
vn 0.9132 0.3276 -0.2426
vn 0.8856 0.4575 0.0804
vn 0.9988 -0.0373 0.0321
vn -0.4440 -0.3211 0.8365
vn 0.1656 -0.5103 0.8439
vn -0.3221 0.5105 0.7972
vn -0.9966 0.0604 -0.0563
vn -0.7461 0.6607 -0.0829
vn -0.7727 0.5504 -0.3161
vn -0.8828 -0.2694 -0.3849
vn 0.1318 -0.9825 -0.1316
vn -0.1031 -0.9886 0.1093
vn -0.3261 -0.9099 0.2565
vn 0.4190 -0.8399 -0.3451
vn 0.6634 -0.4821 -0.5722
vn 0.8608 0.3184 -0.3971
vn 0.3836 0.5230 -0.7612
vn 0.4189 -0.2930 -0.8595
vn 0.7224 0.6854 -0.0918
vn 0.2831 0.8961 0.3419
vn 0.2461 0.9506 0.1891
vn 0.2019 0.9680 -0.1487
vn -0.3800 0.2916 0.8778
vn -0.7043 -0.5430 0.4574
vn -0.9300 -0.2644 0.2553
vn -0.7605 0.5410 0.3591
vn -0.6274 0.2205 -0.7468
vn -0.8388 0.3927 -0.3770
vn -0.3881 0.4087 -0.8260
vn -0.3938 -0.2632 -0.8807
vn -0.5579 -0.8018 -0.2141
vn -0.9262 -0.3337 -0.1754
vn -0.2008 -0.3879 -0.8996
vn -0.2958 -0.8064 -0.5121
vn 0.2086 0.4982 0.8416
vn 0.6822 0.4964 0.5369
vn 0.5642 -0.8136 0.1406
vn 0.9442 -0.3017 0.1323
vn 0.2846 -0.8597 0.4242
vn 0.9196 -0.2601 -0.2944
vn 0.4115 -0.2872 -0.8649
vn -0.4139 -0.4010 0.8173
vn -0.8900 -0.3681 0.2691
vn 0.4978 0.7625 -0.4133
vn -0.3200 0.4920 0.8096
vn -0.8359 0.4427 0.3245
vn -0.4231 -0.8457 0.3252
vn 0.9231 -0.2644 -0.2791
vn 0.4170 -0.8398 -0.3477
vn 0.3445 0.4863 0.8030
vn -0.1226 0.9735 0.1930
vn -0.4532 -0.3862 -0.8034
vn -0.8394 -0.4125 -0.3539
vn -0.4902 0.1009 0.8658
vn -0.0085 0.1308 0.9914
vn 0.3891 -0.5608 0.7308
vn 0.3019 0.9505 0.0741
vn -0.3827 0.5742 -0.7237
vn -0.1304 0.7101 0.6919
vn 0.6500 0.4301 0.6265
vn 0.6408 -0.1161 0.7589
vn 0.6544 0.4890 0.5767
vn -0.9545 0.0708 0.2897
# 75 vertex normals

vt 0.0632 0.7638 0.0000
vt 0.0792 0.7964 0.0000
vt 0.0506 0.7932 0.0000
vt 0.0496 0.7687 0.0000
vt 0.4656 0.8933 0.0000
vt 0.4426 0.8933 0.0000
vt 0.4435 0.8930 0.0000
vt 0.0296 0.7993 0.0000
vt 0.0306 0.7654 0.0000
vt 0.0971 0.7649 0.0000
vt 0.0741 0.8243 0.0000
vt 0.0456 0.8216 0.0000
vt 0.0496 0.7990 0.0000
vt 0.0788 0.8018 0.0000
vt 0.0689 0.8175 0.0000
vt 0.4677 0.9528 0.0000
vt 0.4681 0.9711 0.0000
vt 0.4436 0.9542 0.0000
vt 0.0585 0.8217 0.0000
vt 0.0650 0.8565 0.0000
vt 0.0447 0.8479 0.0000
vt 0.0449 0.8236 0.0000
vt 0.4697 0.8967 0.0000
vt 0.4697 0.9181 0.0000
vt 0.4697 0.9334 0.0000
vt 0.4697 0.8968 0.0000
vt 0.4677 0.8961 0.0000
vt 0.4426 0.8962 0.0000
vt 0.4426 0.8939 0.0000
vt 0.4677 0.8939 0.0000
vt 0.0932 0.7728 0.0000
vt 0.0236 0.7746 0.0000
vt 0.0149 0.7643 0.0000
vt 0.0932 0.7643 0.0000
vt 0.4430 0.9523 0.0000
vt 0.4677 0.9522 0.0000
vt 0.4435 0.9526 0.0000
vt 0.0177 0.8026 0.0000
vt 0.0214 0.8034 0.0000
vt 0.0213 0.8516 0.0000
vt 0.0177 0.8472 0.0000
vt 0.4334 0.9354 0.0000
vt 0.4332 0.9335 0.0000
vt 0.4341 0.9345 0.0000
vt 0.4341 0.9339 0.0000
vt 0.4322 0.9051 0.0000
vt 0.0442 0.8068 0.0000
vt 0.0496 0.7942 0.0000
vt 0.0510 0.7957 0.0000
vt 0.0510 0.7934 0.0000
vt 0.1042 0.8063 0.0000
vt 0.4697 0.9346 0.0000
vt 0.4679 0.9350 0.0000
vt 0.4679 0.9326 0.0000
vt 0.4697 0.9326 0.0000
vt 0.0296 0.8276 0.0000
vt 0.0296 0.7997 0.0000
vt 0.0452 0.8099 0.0000
vt 0.4697 0.9773 0.0000
vt 0.4682 0.9776 0.0000
vt 0.4697 0.9709 0.0000
vt 0.4677 0.8962 0.0000
vt 0.4677 0.8968 0.0000
vt 0.4697 0.9375 0.0000
vt 0.4668 0.9375 0.0000
vt 0.4667 0.9358 0.0000
vt 0.0253 0.7687 0.0000
vt 0.0193 0.7671 0.0000
vt 0.0253 0.7649 0.0000
vt 0.0216 0.8526 0.0000
vt 0.0282 0.8527 0.0000
vt 0.0213 0.8565 0.0000
vt 0.4697 0.9528 0.0000
vt 0.4677 0.8933 0.0000
vt 0.4697 0.8939 0.0000
vt 0.0783 0.7753 0.0000
vt 0.0783 0.7783 0.0000
vt 0.0757 0.7768 0.0000
vt 0.0828 0.7812 0.0000
vt 0.0857 0.7860 0.0000
vt 0.0806 0.7860 0.0000
vt 0.0857 0.7810 0.0000
vt 0.0784 0.7812 0.0000
vt 0.0810 0.7753 0.0000
vt 0.4658 0.9347 0.0000
vt 0.4658 0.9351 0.0000
vt 0.0475 0.7932 0.0000
vt 0.0470 0.7702 0.0000
vt 0.0264 0.7683 0.0000
vt 0.0468 0.7669 0.0000
vt 0.0440 0.8044 0.0000
vt 0.0243 0.8232 0.0000
vt 0.4657 0.9770 0.0000
vt 0.4656 0.9776 0.0000
vt 0.4435 0.9778 0.0000
vt 0.4435 0.9769 0.0000
vt 0.0750 0.8284 0.0000
vt 0.0750 0.8249 0.0000
vt 0.1098 0.8240 0.0000
vt 0.1088 0.8308 0.0000
vt 0.0512 0.8562 0.0000
vt 0.0514 0.8487 0.0000
vt 0.0869 0.8498 0.0000
vt 0.0882 0.8558 0.0000
vt 0.4679 0.9359 0.0000
vt 0.4697 0.9363 0.0000
vt 0.0241 0.7859 0.0000
vt 0.0282 0.7862 0.0000
vt 0.0437 0.8238 0.0000
vt 0.0438 0.8479 0.0000
vt 0.4682 0.8933 0.0000
vt 0.4697 0.8936 0.0000
vt 0.0257 0.8564 0.0000
vt 0.0236 0.8564 0.0000
vt 0.0250 0.7781 0.0000
vt 0.0292 0.7780 0.0000
vt 0.1057 0.8487 0.0000
vt 0.1015 0.8491 0.0000
vt 0.1017 0.7648 0.0000
vt 0.1063 0.7643 0.0000
vt 0.4677 0.9187 0.0000
vt 0.0953 0.7728 0.0000
vt 0.0953 0.7643 0.0000
vt 0.0232 0.8507 0.0000
vt 0.0232 0.8560 0.0000
vt 0.0151 0.8548 0.0000
vt 0.0151 0.8486 0.0000
vt 0.4259 0.9747 0.0000
vt 0.4420 0.9742 0.0000
vt 0.4420 0.9747 0.0000
vt 0.4254 0.9743 0.0000
vt 0.0896 0.8284 0.0000
vt 0.0922 0.8284 0.0000
vt 0.1104 0.8468 0.0000
vt 0.4255 0.9735 0.0000
vt 0.1104 0.8050 0.0000
vt 0.4256 0.9579 0.0000
vt 0.0266 0.7651 0.0000
vt 0.0474 0.7642 0.0000
vt 0.4334 0.9355 0.0000
vt 0.4274 0.9367 0.0000
vt 0.4271 0.9381 0.0000
vt 0.4421 0.9538 0.0000
vt 0.4289 0.8965 0.0000
vt 0.4296 0.8979 0.0000
vt 0.0967 0.8092 0.0000
vt 0.0966 0.8198 0.0000
vt 0.4420 0.8962 0.0000
vt 0.4254 0.8966 0.0000
vt 0.0430 0.8358 0.0000
vt 0.0324 0.8362 0.0000
vt 0.1178 0.7637 0.0000
vt 0.1179 0.7878 0.0000
vt 0.0937 0.8330 0.0000
vt 0.0935 0.8538 0.0000
vt 0.4697 0.9000 0.0000
vt 0.0296 0.8554 0.0000
vt 0.0287 0.8512 0.0000
vt 0.1085 0.7864 0.0000
vt 0.1097 0.8234 0.0000
vt 0.0287 0.8475 0.0000
vt 0.0702 0.8231 0.0000
vt 0.0718 0.8235 0.0000
vt 0.0840 0.8472 0.0000
vt 0.4677 0.9776 0.0000
vt 0.4426 0.9776 0.0000
# 166 texture coords

o Ground_Pillar_3
g Ground_Pillar_3
s 1
f 1/1/1 2/2/2 3/3/3 4/4/4 
f 5/5/5 6/6/6 7/7/7 
f 8/8/8 9/9/9 10/10/10 11/11/11 
f 12/12/12 13/13/13 14/14/14 15/15/15 
f 16/16/16 17/17/17 18/18/18 
f 19/19/19 20/20/20 21/21/21 22/22/22 
s 2
f 23/23/23 24/24/24 25/25/25 26/26/26 
f 27/27/27 28/28/28 29/29/29 30/30/30 
f 31/31/31 32/32/32 33/33/33 34/34/34 
s 1
f 35/35/35 36/36/36 37/36/37 38/37/38 
s 2
f 11/38/11 2/39/2 20/40/20 8/41/8 
f 19/42/19 39/43/39 40/44/40 
f 41/45/41 39/43/39 1/46/1 
s 4
f 19/47/19 22/48/22 39/49/39 
f 39/49/39 42/50/42 1/51/1 
s 8
f 43/52/43 44/53/44 45/54/45 46/55/46 
s 2
f 14/56/14 47/57/47 48/58/48 
s 1
f 49/59/49 50/60/50 17/17/17 51/61/51 
s 4
f 52/62/52 26/26/26 53/63/53 
f 25/64/25 54/65/54 55/66/55 
s 8
f 3/67/3 56/68/56 13/69/13 
s 2
f 57/70/57 9/71/9 58/72/58 
s 4
f 59/73/59 16/16/16 37/36/37 
f 30/30/30 60/74/60 61/75/61 
f 34/76/34 6/77/6 29/78/29 
f 33/79/33 62/80/62 7/81/7 
s 8
f 38/82/38 18/83/18 63/84/63 
s 16
f 26/26/26 52/62/52 27/27/27 23/23/23 
s 4
f 56/68/56 3/67/3 2/39/2 11/38/11 
s 8
f 64/85/64 65/86/65 40/44/40 41/45/41 
f 3/3/3 13/87/13 12/88/12 4/4/4 
s 16
f 57/89/57 66/90/66 67/91/67 47/92/47 
f 68/93/68 5/94/5 7/95/7 62/96/62 
s 4
f 8/97/8 20/98/20 58/99/58 9/100/9 
s 2
f 69/101/69 14/102/14 13/103/13 56/104/56 
s 16
f 25/64/25 55/66/55 44/105/44 43/106/43 
s 8
f 9/71/9 57/70/57 47/107/47 10/108/10 
s 32
f 24/73/24 36/36/36 54/65/54 25/64/25 
f 46/55/46 45/54/45 53/63/53 26/26/26 
s 8
f 42/109/42 22/22/22 21/21/21 70/110/70 
f 16/16/16 59/73/59 51/61/51 17/17/17 
f 50/111/50 49/112/49 61/75/61 60/74/60 
f 60/74/60 30/30/30 29/29/29 6/6/6 
s 32
f 6/113/6 34/114/34 33/115/33 7/116/7 
s 8
f 62/117/62 33/118/33 63/119/63 18/120/18 
s 2
f 18/18/18 38/37/38 37/36/37 16/16/16 
s 64
f 36/121/36 24/24/24 59/24/59 37/121/37 
s 32
f 23/23/23 27/27/27 30/30/30 61/75/61 
s 16
f 28/122/28 31/31/31 34/34/34 29/123/29 
s 8
f 71/124/71 35/125/35 38/126/38 63/127/63 
s 1
f 72/128/72 32/129/32 31/130/31 15/131/15 
s 2
f 73/132/73 74/133/74 15/134/15 
s 4
f 74/135/74 72/128/72 15/131/15 
s 2
f 67/136/67 74/133/74 73/132/73 
s 4
f 67/137/67 72/128/72 74/135/74 
s 2
f 57/89/57 58/138/58 75/139/75 66/90/66 
s 1
f 19/140/19 44/105/44 55/66/55 75/141/75 
s 2
f 75/141/75 55/66/55 54/65/54 66/142/66 
s 16
f 66/142/66 35/35/35 71/143/71 67/137/67 
s 8
f 12/144/12 52/62/52 53/63/53 4/145/4 
s 1
f 4/145/4 53/63/53 45/54/45 1/46/1 
f 14/14/14 48/146/48 73/147/73 15/15/15 
f 31/148/31 28/28/28 12/144/12 15/149/15 
f 28/28/28 27/27/27 52/62/52 12/144/12 
s 2
f 32/32/32 71/124/71 63/127/63 33/33/33 
s 16
f 71/143/71 32/129/32 72/128/72 67/137/67 
f 66/142/66 54/65/54 36/36/36 35/35/35 
f 67/91/67 73/150/73 48/151/48 47/92/47 
s 1
f 1/1/1 42/152/42 70/153/70 2/2/2 
s 2
f 41/45/41 40/44/40 39/43/39 
s 4
f 39/49/39 22/48/22 42/50/42 
s 1
f 19/19/19 75/154/75 58/155/58 20/20/20 
f 19/42/19 40/44/40 65/86/65 44/53/44 
f 45/54/45 64/85/64 41/45/41 1/46/1 
s 2
f 25/25/25 43/52/43 46/55/46 26/26/26 
f 23/23/23 61/75/61 59/24/59 24/24/24 
f 61/75/61 49/112/49 51/156/51 59/24/59 
s 4
f 50/60/50 5/94/5 68/93/68 17/17/17 
f 44/53/44 65/86/65 64/85/64 45/54/45 
s 2
f 14/102/14 69/101/69 10/157/10 47/158/47 
s 1
f 10/10/10 69/159/69 56/160/56 11/11/11 
s 2
f 2/161/2 70/162/70 21/163/21 20/164/20 
s 1
f 17/17/17 68/93/68 62/96/62 18/18/18 
f 5/94/5 50/60/50 60/165/60 6/166/6 
# 62 polygons - 22 triangles

