# 3ds Max Wavefront OBJ Exporter v0.97b - (c)2007 guruware
# File Created: 15.02.2021 08:55:08

#
# object Rock_Sharp_Group_1
#

v  1.5821 0.0172 -1.1526
v  1.7905 0.0673 -1.0428
v  1.8626 0.0791 -1.2388
v  1.7438 0.0265 -1.3635
v  1.8794 -0.0059 -1.4170
v  1.6007 -0.0013 -1.3051
v  1.5640 -0.0057 -1.0508
v  1.6759 0.0023 -0.9065
v  1.8623 -0.0223 -0.8447
v  2.0274 0.0210 -1.1249
v  2.0447 0.0525 -1.3222
v  2.0577 -0.0554 -1.2485
v  1.6773 -0.0167 -1.1286
v  1.7340 -0.0343 -0.8556
v  1.9008 -0.0544 -0.9611
v  -0.3208 -0.0772 -1.8258
v  -0.2169 -0.0980 -2.0501
v  0.0421 -0.0848 -1.8689
v  -0.2988 0.0141 -1.6301
v  -0.5354 0.0037 -1.7736
v  -0.4437 -0.0858 -1.9555
v  -0.3279 -0.0117 -2.0589
v  -0.0072 -0.0063 -1.9838
v  -0.0695 0.0153 -1.7232
v  -0.3337 0.0510 -1.7114
v  -0.4474 0.0013 -1.8990
v  -0.1624 0.0475 -1.9059
v  0.5999 -0.0036 -1.1712
v  0.6148 -0.0541 -1.0358
v  0.4886 -0.0566 -1.0388
v  0.4458 -0.0104 -1.1272
v  0.3866 0.0018 -1.0603
v  0.5105 0.0137 -1.1920
v  0.6615 0.0063 -1.1574
v  0.7177 -0.0138 -1.0648
v  0.7120 -0.0158 -0.9456
v  0.5176 -0.0396 -0.9175
v  0.4024 -0.0498 -0.9529
v  0.4431 0.0099 -0.9206
v  0.5931 0.0085 -1.1101
v  0.7343 0.0013 -1.0184
v  0.6389 0.0065 -0.9464
v  0.0140 0.0534 -0.1615
v  0.3394 -0.0282 0.0360
v  -0.0383 -0.0122 -0.1067
v  0.0533 0.0909 0.0169
v  -0.0195 0.0921 0.1259
v  -0.0060 0.0531 0.3192
v  -0.2100 -0.0115 0.1209
v  0.0156 -0.0270 0.3957
v  0.3586 0.0294 0.1424
v  0.2851 0.0338 0.3561
v  0.3196 -0.0094 0.4063
v  0.4345 -0.0128 0.1381
v  -1.0560 0.0300 -0.2044
v  -0.9948 -0.0212 -0.3533
v  -1.0297 -0.0112 -0.1862
v  -0.9841 0.0536 -0.2326
v  -0.9337 0.0543 -0.2093
v  -0.8538 0.0298 -0.2276
v  -0.9233 -0.0107 -0.1294
v  -0.8233 -0.0205 -0.2416
v  -0.9517 0.0149 -0.3684
v  -0.8575 0.0177 -0.3517
v  -0.8388 -0.0094 -0.3694
v  -0.9584 -0.0115 -0.3998
v  -1.8204 0.0483 -1.0844
v  -2.0577 -0.0051 -1.2476
v  -1.9585 0.0072 -0.9786
v  -1.7380 0.0098 -0.9929
v  -1.6455 0.0645 -1.0920
v  -1.7637 0.0730 -1.2394
v  -1.5649 0.0322 -1.2358
v  -1.8600 -0.0186 -1.4359
v  -1.9919 -0.0138 -1.3764
v  -1.9852 -0.0207 -1.1462
v  -1.8343 -0.0109 -1.0744
v  -1.5872 0.0118 -1.1285
v  -1.9195 0.0248 -1.3011
v  -1.6543 -0.0333 -1.3311
v  -1.1542 -0.0091 1.2733
v  -1.0037 0.0709 1.1032
v  -1.1773 0.0752 0.9864
v  -1.3206 0.0009 1.0662
v  -1.3370 -0.0210 0.9193
v  -1.2953 -0.0372 1.2164
v  -1.0578 -0.0259 1.3138
v  -0.8927 0.0049 1.2419
v  -0.7863 0.0049 1.0749
v  -1.0223 0.0437 0.8503
v  -1.2121 0.0616 0.7879
v  -1.1269 -0.0383 0.7844
v  -1.1051 -0.0308 1.1844
v  -0.8261 -0.0214 1.1952
v  -0.8865 -0.0319 1.0066
v  0.0383 0.0223 1.9296
v  0.2172 0.0238 1.9639
v  0.2200 0.0238 1.7311
v  -0.0700 -0.0020 1.8319
v  -0.0858 -0.0020 2.0351
v  0.0631 0.0221 2.0589
v  0.1740 -0.0036 2.0336
v  0.2669 -0.0036 1.8095
v  0.0842 -0.0045 1.7348
v  -0.0367 -0.0155 1.8875
v  0.0270 -0.0041 2.0363
v  0.1532 -0.0188 1.8686
v  1.3252 0.0780 1.2233
v  1.3831 0.0311 0.9460
v  1.1750 0.0444 1.1424
v  1.2751 0.0584 1.3382
v  1.4007 0.0980 1.3790
v  1.4891 0.0967 1.2117
v  1.5657 0.0822 1.3982
v  1.6346 0.0337 1.0532
v  1.5276 0.0293 0.9558
v  1.3193 0.0253 1.0538
v  1.3126 0.0400 1.2195
v  1.4592 0.0681 1.4221
v  1.4858 0.0577 1.0487
v  1.6202 0.0360 1.2841
v  0.9190 0.0356 0.1504
v  0.8461 0.0379 0.2792
v  1.0246 0.0379 0.3419
v  1.0223 -0.0048 0.0925
v  0.8700 -0.0048 0.0276
v  0.8130 0.0351 0.1360
v  0.8037 -0.0075 0.2279
v  0.9521 -0.0075 0.3576
v  1.0570 -0.0090 0.2364
v  0.9708 -0.0272 0.1037
v  0.8397 -0.0083 0.1141
v  0.9361 -0.0327 0.2547
# 133 vertices

vn -0.7006 0.7096 -0.0750
vn -0.0197 0.9789 0.2035
vn -0.0452 0.9954 -0.0850
vn -0.6002 0.1223 -0.7905
vn 0.0201 -0.1829 -0.9829
vn -0.7100 -0.0045 -0.7042
vn -0.9553 -0.1052 0.2762
vn -0.5990 0.4678 0.6499
vn 0.3921 -0.0231 0.9196
vn 0.8083 0.4178 0.4149
vn 0.8693 0.1982 -0.4528
vn 0.8459 -0.3804 -0.3737
vn -0.1209 -0.9919 -0.0402
vn -0.3408 -0.3588 0.8690
vn 0.3805 -0.8947 0.2339
vn -0.0943 -0.9522 0.2907
vn 0.1056 -0.6691 -0.7356
vn 0.8863 -0.4438 0.1320
vn -0.0615 0.0298 0.9977
vn -0.9415 0.1138 0.3172
vn -0.6993 -0.6002 -0.3883
vn -0.3189 0.3796 -0.8685
vn 0.6998 0.3470 -0.6243
vn 0.5855 0.3332 0.7390
vn -0.1361 0.9654 0.2225
vn -0.5290 0.7417 -0.4124
vn 0.0957 0.9819 -0.1636
vn 0.1614 -0.6117 -0.7745
vn 0.1638 -0.9828 -0.0847
vn -0.0960 -0.9723 -0.2133
vn -0.5215 0.0164 -0.8531
vn -0.9161 0.2597 -0.3054
vn -0.3970 0.1479 -0.9058
vn 0.6082 0.1961 -0.7691
vn 0.8073 -0.4444 -0.3883
vn 0.7141 -0.1002 0.6928
vn 0.0781 -0.5448 0.8349
vn -0.7445 -0.2632 0.6136
vn -0.6430 0.3055 0.7023
vn 0.0397 0.9991 0.0148
vn 0.9449 0.3242 0.0455
vn 0.1092 0.8201 0.5617
vn -0.0732 0.3089 -0.9483
vn 0.6096 -0.4426 -0.6577
vn -0.4449 -0.6509 -0.6151
vn 0.0663 0.9902 -0.1231
vn -0.2310 0.9719 0.0456
vn -0.3485 0.7872 0.5088
vn -0.9815 -0.1910 0.0114
vn -0.3373 -0.3810 0.8609
vn 0.3880 0.9144 -0.1157
vn 0.2649 0.8919 0.3665
vn 0.5330 -0.1997 0.8222
vn 0.9795 -0.1419 -0.1428
vn -0.8990 0.3662 0.2401
vn -0.6998 -0.5314 -0.4774
vn -0.5816 -0.6464 0.4939
vn -0.1851 0.9807 -0.0623
vn 0.1125 0.9513 0.2869
vn 0.6401 0.7180 0.2735
vn 0.1605 -0.2579 0.9527
vn 0.8625 -0.4614 0.2082
vn -0.2219 0.8442 -0.4879
vn 0.4070 0.8176 -0.4074
vn 0.7185 -0.2582 -0.6458
vn -0.2895 -0.1881 -0.9385
vn -0.1294 0.9689 0.2108
vn -0.9942 -0.0104 -0.1072
vn -0.5455 -0.0067 0.8381
vn 0.2345 -0.1487 0.9607
vn 0.4180 0.7957 0.4383
vn -0.0241 0.9815 -0.1901
vn 0.9299 0.2273 -0.2891
vn -0.1115 -0.1591 -0.9809
vn -0.6840 -0.1715 -0.7091
vn -0.2386 -0.9632 0.1234
vn 0.0416 -0.9869 0.1559
vn 0.8336 -0.3401 0.4353
vn -0.2190 0.9497 -0.2239
vn 0.5371 -0.5367 -0.6507
vn -0.3094 0.6241 0.7175
vn 0.0941 0.9841 0.1507
vn -0.1924 0.9756 0.1059
vn -0.9183 -0.0026 0.3959
vn -0.9268 -0.2547 -0.2759
vn -0.8483 -0.1333 0.5125
vn 0.0511 -0.1837 0.9817
vn 0.4393 0.4507 0.7771
vn 0.9839 0.0890 -0.1549
vn 0.5507 0.5312 -0.6439
vn -0.2514 0.2532 -0.9342
vn -0.1227 -0.3168 -0.9405
vn 0.0317 -0.9992 0.0240
vn 0.7949 -0.3249 0.5124
vn 0.4056 -0.8291 -0.3848
vn -0.1091 0.9937 -0.0243
vn 0.7612 0.5379 0.3622
vn 0.4503 0.2503 -0.8571
vn -0.8454 0.0168 -0.5339
vn -0.8201 -0.0432 0.5706
vn -0.0287 0.4213 0.9065
vn 0.5247 -0.2786 0.8044
vn 0.9569 -0.2298 -0.1773
vn -0.3244 -0.1630 -0.9318
vn -0.1542 -0.9876 -0.0277
vn -0.0113 -0.8865 0.4626
vn 0.0609 -0.9981 -0.0089
vn -0.1814 0.9807 -0.0730
vn -0.2950 -0.0642 -0.9533
vn -0.9850 -0.0359 -0.1685
vn -0.7968 -0.0875 0.5979
vn -0.2348 0.8603 0.4524
vn 0.0891 0.9893 -0.1159
vn 0.6196 0.2273 0.7513
vn 0.8662 -0.1112 -0.4872
vn 0.3916 -0.1511 -0.9076
vn -0.1154 -0.9914 -0.0621
vn -0.0588 -0.9916 0.1156
vn -0.0532 -0.2052 0.9773
vn 0.0567 0.9685 -0.2425
vn 0.8909 -0.3855 0.2400
vn 0.1137 0.9758 -0.1868
vn -0.5622 0.6258 0.5406
vn 0.6188 0.4185 0.6648
vn 0.7738 0.0307 -0.6327
vn -0.2842 -0.0833 -0.9551
vn -0.7635 0.5643 -0.3140
vn -0.8835 -0.4052 0.2351
vn -0.0917 -0.3575 0.9294
vn 0.9616 -0.2738 0.0194
vn 0.1382 -0.9587 -0.2486
vn -0.5869 -0.7805 -0.2152
vn -0.0209 -0.9926 0.1193
# 133 vertex normals

vt 0.3087 0.9326 0.0000
vt 0.3012 0.9307 0.0000
vt 0.3071 0.9250 0.0000
vt 0.3135 0.9238 0.0000
vt 0.3129 0.9172 0.0000
vt 0.3139 0.9281 0.0000
vt 0.3052 0.9342 0.0000
vt 0.2980 0.9341 0.0000
vt 0.2923 0.9287 0.0000
vt 0.2997 0.9199 0.0000
vt 0.3067 0.9167 0.0000
vt 0.3033 0.9132 0.0000
vt 0.3060 0.9288 0.0000
vt 0.2949 0.9319 0.0000
vt 0.2957 0.9239 0.0000
vt 0.3142 0.9598 0.0000
vt 0.3047 0.9637 0.0000
vt 0.3017 0.9516 0.0000
vt 0.3190 0.9520 0.0000
vt 0.3223 0.9625 0.0000
vt 0.3144 0.9668 0.0000
vt 0.3079 0.9653 0.0000
vt 0.3000 0.9547 0.0000
vt 0.3092 0.9486 0.0000
vt 0.3178 0.9546 0.0000
vt 0.3161 0.9637 0.0000
vt 0.3071 0.9556 0.0000
vt 0.3239 0.9433 0.0000
vt 0.3124 0.9436 0.0000
vt 0.3253 0.9421 0.0000
vt 0.3217 0.9502 0.0000
vt 0.3234 0.9539 0.0000
vt 0.3219 0.9578 0.0000
vt 0.3295 0.9499 0.0000
vt 0.3207 0.9562 0.0000
vt 0.3112 0.9494 0.0000
vt 0.3124 0.9565 0.0000
vt 0.3110 0.9558 0.0000
vt 0.3088 0.9469 0.0000
vt 0.2918 0.9259 0.0000
vt 0.2856 0.9106 0.0000
vt 0.2986 0.9186 0.0000
vt 0.2956 0.9300 0.0000
vt 0.2896 0.9354 0.0000
vt 0.2832 0.9281 0.0000
vt 0.2814 0.9372 0.0000
vt 0.2739 0.9187 0.0000
vt 0.2783 0.9126 0.0000
vt 0.2901 0.9149 0.0000
vt 0.2924 0.9236 0.0000
vt 0.2871 0.9365 0.0000
vt 0.2815 0.9181 0.0000
vt 0.2773 0.9299 0.0000
# 53 texture coords

o Rock_Sharp_Group_1
g Rock_Sharp_Group_1
s 1
f 1/1/1 2/2/2 3/3/3 4/4/4 
f 1/1/1 4/4/4 5/5/5 6/6/6 
s 2
f 1/1/1 6/6/6 7/7/7 
f 1/1/1 7/7/7 8/8/8 
f 1/1/1 8/8/8 2/2/2 
s 4
f 2/2/2 9/9/9 10/10/10 
s 2
f 5/5/5 11/11/11 10/10/10 12/12/12 
s 4
f 6/6/6 12/12/12 13/13/13 
f 7/7/7 13/13/13 14/14/14 
s 8
f 8/8/8 14/14/14 9/9/9 
s 4
f 10/10/10 11/11/11 3/3/3 2/2/2 
s 8
f 12/12/12 6/6/6 5/5/5 
s 4
f 13/13/13 7/7/7 6/6/6 
s 1
f 14/14/14 8/8/8 7/7/7 
s 8
f 9/9/9 2/2/2 8/8/8 
s 1
f 15/15/15 12/12/12 10/10/10 
s 4
f 15/15/15 13/13/13 12/12/12 
f 15/15/15 14/14/14 13/13/13 
s 2
f 15/15/15 9/9/9 14/14/14 
s 1
f 15/15/15 10/10/10 9/9/9 
f 3/3/3 11/11/11 5/5/5 4/4/4 
f 16/16/16 17/17/17 18/18/18 
f 16/16/16 18/18/18 19/19/19 
f 16/16/16 19/19/19 20/20/20 
f 16/16/16 20/20/20 21/21/21 
f 16/16/16 21/21/21 17/17/17 
s 2
f 17/17/17 22/22/22 23/23/23 
s 4
f 18/18/18 23/23/23 24/24/24 
s 8
f 19/19/19 24/24/24 25/25/25 
f 20/20/20 25/25/25 26/26/26 
s 4
f 21/21/21 26/26/26 22/22/22 
s 16
f 23/23/23 18/18/18 17/17/17 
s 1
f 24/24/24 19/19/19 18/18/18 
s 2
f 25/25/25 20/20/20 19/19/19 
s 4
f 26/26/26 21/21/21 20/20/20 
s 32
f 22/22/22 17/17/17 21/21/21 
s 8
f 27/27/27 24/24/24 23/23/23 
f 27/27/27 25/25/25 24/24/24 
f 27/27/27 26/26/26 25/25/25 
f 27/27/27 22/22/22 26/26/26 
f 27/27/27 23/23/23 22/22/22 
s 1
f 28/1/28 29/2/29 30/3/30 31/4/31 
f 28/1/28 31/4/31 32/5/32 33/6/33 
s 2
f 28/1/28 33/6/33 34/7/34 
f 28/1/28 34/7/34 35/8/35 
f 28/1/28 35/8/35 29/2/29 
s 4
f 29/2/29 36/9/36 37/10/37 
s 2
f 32/5/32 38/11/38 37/10/37 39/12/39 
s 4
f 33/6/33 39/12/39 40/13/40 
f 34/7/34 40/13/40 41/14/41 
s 8
f 35/8/35 41/14/41 36/9/36 
s 4
f 37/10/37 38/11/38 30/3/30 29/2/29 
s 8
f 39/12/39 33/6/33 32/5/32 
s 4
f 40/13/40 34/7/34 33/6/33 
s 1
f 41/14/41 35/8/35 34/7/34 
s 8
f 36/9/36 29/2/29 35/8/35 
s 1
f 42/15/42 39/12/39 37/10/37 
s 4
f 42/15/42 40/13/40 39/12/39 
f 42/15/42 41/14/41 40/13/40 
s 2
f 42/15/42 36/9/36 41/14/41 
s 1
f 42/15/42 37/10/37 36/9/36 
f 30/3/30 38/11/38 32/5/32 31/4/31 
f 43/28/43 44/29/44 45/30/45 
s 2
f 46/31/46 43/28/43 47/32/47 
s 1
f 48/33/48 49/34/49 50/35/50 
f 51/36/51 52/37/52 53/38/53 54/39/54 
s 4
f 54/39/54 53/38/53 50/35/50 44/29/44 
f 50/35/50 49/34/49 45/30/45 44/29/44 
f 52/37/52 47/32/47 48/33/48 
s 8
f 51/36/51 54/39/54 44/29/44 43/28/43 
s 2
f 48/33/48 50/35/50 53/38/53 52/37/52 
s 16
f 52/37/52 51/36/51 46/31/46 47/32/47 
s 8
f 51/36/51 43/28/43 46/31/46 
s 2
f 43/28/43 49/34/49 47/32/47 
s 16
f 43/28/43 45/30/45 49/34/49 
s 1
f 49/34/49 48/33/48 47/32/47 
f 55/28/55 56/29/56 57/30/57 
s 2
f 58/31/58 55/28/55 59/32/59 
s 1
f 60/33/60 61/34/61 62/35/62 
f 63/36/63 64/37/64 65/38/65 66/39/66 
s 4
f 66/39/66 65/38/65 62/35/62 56/29/56 
f 62/35/62 61/34/61 57/30/57 56/29/56 
f 64/37/64 59/32/59 60/33/60 
s 8
f 63/36/63 66/39/66 56/29/56 55/28/55 
s 2
f 60/33/60 62/35/62 65/38/65 64/37/64 
s 16
f 64/37/64 63/36/63 58/31/58 59/32/59 
s 8
f 63/36/63 55/28/55 58/31/58 
s 2
f 55/28/55 61/34/61 59/32/59 
s 16
f 55/28/55 57/30/57 61/34/61 
s 1
f 61/34/61 60/33/60 59/32/59 
f 67/40/67 68/41/68 69/42/69 
s 2
f 67/40/67 69/42/69 70/43/70 
f 67/40/67 70/43/70 71/44/71 
s 1
f 67/40/67 71/44/71 72/45/72 
s 2
f 72/45/72 73/46/73 74/47/74 
s 4
f 68/41/68 75/48/75 74/47/74 76/49/76 
f 69/42/69 76/49/76 77/50/77 
f 70/43/70 77/50/77 78/51/78 
s 8
f 71/44/71 78/51/78 73/46/73 
s 1
f 74/47/74 75/48/75 79/52/79 72/45/72 
s 8
f 76/49/76 69/42/69 68/41/68 
s 4
f 77/50/77 70/43/70 69/42/69 
s 8
f 78/51/78 71/44/71 70/43/70 
s 4
f 73/46/73 72/45/72 71/44/71 
f 80/53/80 76/49/76 74/47/74 
f 80/53/80 77/50/77 76/49/76 
f 80/53/80 78/51/78 77/50/77 
s 1
f 80/53/80 73/46/73 78/51/78 
s 2
f 80/53/80 74/47/74 73/46/73 
s 1
f 75/48/75 68/41/68 79/52/79 
f 67/40/67 72/45/72 79/52/79 68/41/68 
f 81/1/81 82/2/82 83/3/83 84/4/84 
f 81/1/81 84/4/84 85/5/85 86/6/86 
s 2
f 81/1/81 86/6/86 87/7/87 
f 81/1/81 87/7/87 88/8/88 
f 81/1/81 88/8/88 82/2/82 
s 4
f 82/2/82 89/9/89 90/10/90 
s 2
f 85/5/85 91/11/91 90/10/90 92/12/92 
s 4
f 86/6/86 92/12/92 93/13/93 
f 87/7/87 93/13/93 94/14/94 
s 8
f 88/8/88 94/14/94 89/9/89 
s 4
f 90/10/90 91/11/91 83/3/83 82/2/82 
s 8
f 92/12/92 86/6/86 85/5/85 
s 4
f 93/13/93 87/7/87 86/6/86 
s 1
f 94/14/94 88/8/88 87/7/87 
s 8
f 89/9/89 82/2/82 88/8/88 
s 1
f 95/15/95 92/12/92 90/10/90 
s 4
f 95/15/95 93/13/93 92/12/92 
f 95/15/95 94/14/94 93/13/93 
s 2
f 95/15/95 89/9/89 94/14/94 
s 1
f 95/15/95 90/10/90 89/9/89 
f 83/3/83 91/11/91 85/5/85 84/4/84 
f 96/16/96 97/17/97 98/18/98 
f 96/16/96 98/18/98 99/19/99 
f 96/16/96 99/19/99 100/20/100 
f 96/16/96 100/20/100 101/21/101 
f 96/16/96 101/21/101 97/17/97 
s 2
f 97/17/97 102/22/102 103/23/103 
s 4
f 98/18/98 103/23/103 104/24/104 
s 8
f 99/19/99 104/24/104 105/25/105 
f 100/20/100 105/25/105 106/26/106 
s 4
f 101/21/101 106/26/106 102/22/102 
s 16
f 103/23/103 98/18/98 97/17/97 
s 1
f 104/24/104 99/19/99 98/18/98 
s 2
f 105/25/105 100/20/100 99/19/99 
s 4
f 106/26/106 101/21/101 100/20/100 
s 32
f 102/22/102 97/17/97 101/21/101 
s 8
f 107/27/107 104/24/104 103/23/103 
f 107/27/107 105/25/105 104/24/104 
f 107/27/107 106/26/106 105/25/105 
f 107/27/107 102/22/102 106/26/106 
f 107/27/107 103/23/103 102/22/102 
s 1
f 108/40/108 109/41/109 110/42/110 
s 2
f 108/40/108 110/42/110 111/43/111 
f 108/40/108 111/43/111 112/44/112 
s 1
f 108/40/108 112/44/112 113/45/113 
s 2
f 113/45/113 114/46/114 115/47/115 
s 4
f 109/41/109 116/48/116 115/47/115 117/49/117 
f 110/42/110 117/49/117 118/50/118 
f 111/43/111 118/50/118 119/51/119 
s 8
f 112/44/112 119/51/119 114/46/114 
s 1
f 115/47/115 116/48/116 120/52/120 113/45/113 
s 8
f 117/49/117 110/42/110 109/41/109 
s 4
f 118/50/118 111/43/111 110/42/110 
s 8
f 119/51/119 112/44/112 111/43/111 
s 4
f 114/46/114 113/45/113 112/44/112 
f 121/53/121 117/49/117 115/47/115 
f 121/53/121 118/50/118 117/49/117 
f 121/53/121 119/51/119 118/50/118 
s 1
f 121/53/121 114/46/114 119/51/119 
s 2
f 121/53/121 115/47/115 114/46/114 
s 1
f 116/48/116 109/41/109 120/52/120 
f 108/40/108 113/45/113 120/52/120 109/41/109 
f 122/16/122 123/17/123 124/18/124 
f 122/16/122 124/18/124 125/19/125 
f 122/16/122 125/19/125 126/20/126 
f 122/16/122 126/20/126 127/21/127 
f 122/16/122 127/21/127 123/17/123 
s 2
f 123/17/123 128/22/128 129/23/129 
s 4
f 124/18/124 129/23/129 130/24/130 
s 8
f 125/19/125 130/24/130 131/25/131 
f 126/20/126 131/25/131 132/26/132 
s 4
f 127/21/127 132/26/132 128/22/128 
s 16
f 129/23/129 124/18/124 123/17/123 
s 1
f 130/24/130 125/19/125 124/18/124 
s 2
f 131/25/131 126/20/126 125/19/125 
s 4
f 132/26/132 127/21/127 126/20/126 
s 32
f 128/22/128 123/17/123 127/21/127 
s 8
f 133/27/133 130/24/130 129/23/129 
f 133/27/133 131/25/131 130/24/130 
f 133/27/133 132/26/132 131/25/131 
f 133/27/133 128/22/128 132/26/132 
f 133/27/133 129/23/129 128/22/128 
# 33 polygons - 160 triangles

