# 3ds Max Wavefront OBJ Exporter v0.97b - (c)2007 guruware
# File Created: 15.12.2020 20:34:55

#
# object Box002
#

v  -0.0000 -0.0426 -0.0168
v  -0.0000 0.0001 -0.0145
v  0.0114 0.0000 -0.0134
v  0.0137 -0.0426 -0.0162
v  -0.0212 -0.0426 0.0000
v  -0.0177 0.0000 0.0000
v  -0.0114 0.0000 -0.0134
v  -0.0137 -0.0426 -0.0162
v  0.0177 0.0000 0.0000
v  0.0212 -0.0426 0.0000
v  -0.0000 -0.1337 0.0000
v  -0.0000 -0.0559 -0.0124
v  0.0102 -0.1069 -0.0124
v  0.0024 -0.2040 0.0000
v  0.0189 -0.2040 -0.0145
v  0.0113 -0.2330 -0.0145
v  -0.0024 -0.2040 0.0000
v  -0.0113 -0.2330 -0.0145
v  -0.0189 -0.2040 -0.0145
v  -0.0024 -0.1427 0.0000
v  -0.0189 -0.1427 -0.0145
v  -0.0102 -0.1069 -0.0124
v  0.0291 -0.2040 0.0000
v  0.0156 -0.2503 0.0000
v  -0.0156 -0.2503 0.0000
v  -0.0291 -0.2040 0.0000
v  -0.0291 -0.1427 0.0000
v  -0.0158 -0.0793 0.0000
v  0.0291 -0.1427 0.0000
v  0.0331 -0.1734 0.0000
v  0.0229 -0.1734 -0.0145
v  0.0189 -0.1427 -0.0145
v  -0.0331 -0.1734 0.0000
v  -0.0229 -0.1734 -0.0145
v  0.0064 -0.1734 0.0000
v  0.0024 -0.1427 0.0000
v  -0.0064 -0.1734 0.0000
v  -0.0000 -0.2655 0.0000
v  -0.0000 -0.2412 -0.0145
v  -0.0000 -0.2085 0.0000
v  0.0158 -0.0793 0.0000
v  0.0056 0.7185 -0.0044
v  -0.0000 0.7185 -0.0066
v  -0.0000 0.8203 0.0000
v  -0.0056 0.7185 -0.0044
v  -0.0084 0.7185 0.0000
v  0.0084 0.7185 0.0000
v  -0.0000 0.6589 -0.0087
v  0.0074 0.6589 -0.0060
v  -0.0111 0.6589 0.0000
v  -0.0074 0.6589 -0.0060
v  0.0111 0.6589 0.0000
v  -0.0000 0.5346 -0.0093
v  0.0079 0.5346 -0.0070
v  -0.0000 0.0519 -0.0118
v  0.0097 0.0518 -0.0111
v  -0.0000 0.0439 -0.0162
v  0.0133 0.0439 -0.0153
v  0.0100 -0.0491 -0.0119
v  -0.0000 -0.0490 -0.0123
v  -0.0119 0.5346 0.0000
v  -0.0079 0.5346 -0.0070
v  -0.0149 0.0519 0.0000
v  -0.0097 0.0518 -0.0111
v  -0.0205 0.0439 0.0000
v  -0.0133 0.0439 -0.0153
v  -0.0100 -0.0491 -0.0119
v  -0.0156 -0.0491 0.0000
v  0.0119 0.5346 0.0000
v  0.0149 0.0519 0.0000
v  0.0205 0.0439 0.0000
v  0.0156 -0.0491 0.0000
v  -0.0000 -0.0426 0.0168
v  0.0137 -0.0426 0.0162
v  0.0114 0.0000 0.0134
v  -0.0000 0.0001 0.0145
v  -0.0137 -0.0426 0.0162
v  -0.0114 0.0000 0.0134
v  0.0102 -0.1069 0.0124
v  -0.0000 -0.0559 0.0124
v  0.0113 -0.2330 0.0145
v  0.0189 -0.2040 0.0145
v  -0.0189 -0.2040 0.0145
v  -0.0113 -0.2330 0.0145
v  -0.0102 -0.1069 0.0124
v  -0.0189 -0.1427 0.0145
v  0.0189 -0.1427 0.0145
v  0.0229 -0.1734 0.0145
v  -0.0229 -0.1734 0.0145
v  -0.0000 -0.2412 0.0145
v  0.0056 0.7185 0.0044
v  -0.0000 0.7185 0.0066
v  -0.0056 0.7185 0.0044
v  -0.0000 0.6589 0.0087
v  0.0074 0.6589 0.0060
v  -0.0074 0.6589 0.0060
v  -0.0000 0.5346 0.0093
v  0.0079 0.5346 0.0070
v  -0.0000 0.0519 0.0118
v  0.0097 0.0518 0.0111
v  -0.0000 0.0439 0.0162
v  0.0133 0.0439 0.0153
v  0.0100 -0.0491 0.0119
v  -0.0000 -0.0490 0.0123
v  -0.0079 0.5346 0.0070
v  -0.0097 0.0518 0.0111
v  -0.0133 0.0439 0.0153
v  -0.0100 -0.0491 0.0119
v  0.0010 -0.0977 0.0169
v  0.0043 -0.1778 0.0220
v  0.0233 -0.1822 0.0186
v  0.0141 -0.0977 0.0146
v  0.0070 -0.2517 0.0221
v  0.0239 -0.2380 0.0167
v  0.0106 -0.0490 0.0118
v  0.0205 -0.0977 0.0037
v  0.0141 -0.0490 0.0042
v  0.0324 -0.1789 0.0098
v  0.0281 -0.3325 0.0035
v  0.0300 -0.2537 0.0098
v  0.0224 -0.2887 0.0153
v  0.0014 -0.0490 0.0128
v  0.0078 -0.3251 0.0216
v  0.0151 -0.3532 0.0192
# 124 vertices

vn -0.0000 -0.3877 -0.9218
vn -0.0000 0.0138 -0.9999
vn 0.5748 0.0241 -0.8179
vn 0.5257 -0.3588 -0.7713
vn -0.9288 -0.3705 0.0000
vn -0.9998 0.0175 -0.0000
vn -0.5748 0.0241 -0.8179
vn -0.5257 -0.3588 -0.7713
vn 0.9998 0.0175 -0.0000
vn 0.9288 -0.3705 0.0000
vn 0.0000 -1.0000 -0.0000
vn 0.0000 -0.0214 -0.9998
vn 0.0108 0.0231 -0.9997
vn -0.8756 -0.4831 -0.0000
vn 0.1538 -0.0738 -0.9853
vn 0.2446 -0.1907 -0.9507
vn -0.4061 0.9138 -0.0000
vn 0.6481 -0.7615 -0.0000
vn -0.2446 -0.1907 -0.9507
vn -0.1538 -0.0738 -0.9853
vn 0.3250 0.9457 -0.0000
vn 0.9348 -0.3551 -0.0000
vn -0.1356 0.1102 -0.9846
vn -0.0108 0.0231 -0.9997
vn 0.9394 -0.3427 -0.0000
vn 0.6809 -0.7323 -0.0000
vn -0.6809 -0.7323 -0.0000
vn -0.9394 -0.3427 -0.0000
vn -0.9562 0.2926 -0.0000
vn -0.9950 0.0995 0.0000
vn 0.9562 0.2926 0.0000
vn 1.0000 0.0000 -0.0000
vn 0.2246 0.0000 -0.9744
vn 0.1356 0.1102 -0.9846
vn -1.0000 0.0000 -0.0000
vn -0.2246 0.0000 -0.9744
vn -0.9348 -0.3551 -0.0000
vn 1.0000 -0.0000 -0.0000
vn -0.0000 -1.0000 -0.0000
vn -0.0000 -0.2301 -0.9732
vn 0.0000 1.0000 -0.0000
vn 0.9950 0.0995 -0.0000
vn 0.6332 0.0980 -0.7678
vn 0.0000 0.0913 -0.9958
vn -0.0000 1.0000 0.0000
vn -0.6332 0.0980 -0.7678
vn -0.9933 0.1152 -0.0000
vn 0.9933 0.1152 -0.0000
vn 0.0000 0.0366 -0.9993
vn 0.6332 0.0438 -0.7728
vn -0.9989 0.0463 -0.0000
vn -0.6332 0.0438 -0.7728
vn 0.9989 0.0463 -0.0000
vn -0.0000 0.0092 -1.0000
vn 0.6189 0.0166 -0.7853
vn -0.0000 0.3983 -0.9172
vn 0.4702 0.5104 -0.7200
vn -0.0000 0.3497 -0.9369
vn 0.5378 0.3410 -0.7710
vn 0.4421 -0.5600 -0.7006
vn -0.0000 -0.4363 -0.8998
vn -0.9999 0.0116 -0.0000
vn -0.6189 0.0166 -0.7853
vn -0.8652 0.5014 0.0000
vn -0.4702 0.5104 -0.7200
vn -0.9381 0.3463 0.0000
vn -0.5378 0.3410 -0.7710
vn -0.4421 -0.5600 -0.7006
vn -0.8376 -0.5462 0.0000
vn 0.9999 0.0116 -0.0000
vn 0.8652 0.5014 -0.0000
vn 0.9381 0.3463 -0.0000
vn 0.8376 -0.5462 -0.0000
vn -0.0000 -0.3877 0.9218
vn 0.5257 -0.3588 0.7713
vn 0.5748 0.0241 0.8179
vn -0.0000 0.0138 0.9999
vn -0.5257 -0.3588 0.7713
vn -0.5748 0.0241 0.8179
vn 0.0108 0.0231 0.9997
vn 0.0000 -0.0214 0.9998
vn 0.2446 -0.1907 0.9507
vn 0.1538 -0.0738 0.9853
vn -0.1538 -0.0738 0.9853
vn -0.2446 -0.1907 0.9507
vn -0.0108 0.0231 0.9997
vn -0.1356 0.1102 0.9846
vn 0.1356 0.1102 0.9846
vn 0.2246 0.0000 0.9744
vn -0.2246 0.0000 0.9744
vn -0.0000 -0.2301 0.9732
vn 0.6332 0.0980 0.7678
vn 0.0000 0.0913 0.9958
vn -0.6332 0.0980 0.7678
vn 0.0000 0.0366 0.9993
vn 0.6332 0.0438 0.7728
vn -0.6332 0.0438 0.7728
vn -0.0000 0.0092 1.0000
vn 0.6189 0.0166 0.7853
vn -0.0000 0.3983 0.9172
vn 0.4702 0.5104 0.7200
vn -0.0000 0.3497 0.9369
vn 0.5378 0.3410 0.7710
vn 0.4421 -0.5600 0.7006
vn -0.0000 -0.4363 0.8998
vn -0.6189 0.0166 0.7853
vn -0.4702 0.5104 0.7200
vn -0.5378 0.3410 0.7710
vn -0.4421 -0.5600 0.7006
vn 0.1716 0.1378 0.9755
vn 0.1852 0.0786 0.9795
vn 0.4561 0.0517 0.8884
vn 0.5527 0.1699 0.8158
vn 0.3008 0.0045 0.9537
vn 0.5419 -0.0504 0.8389
vn 0.5660 0.1581 0.8091
vn 0.8356 0.2455 0.4915
vn 0.8899 0.2063 0.4069
vn 0.6737 0.1296 0.7275
vn 0.7646 -0.1272 0.6319
vn 0.6674 -0.1135 0.7360
vn 0.6539 -0.0674 0.7535
vn 0.1076 0.1489 0.9830
vn 0.3726 0.0197 0.9278
vn 0.3629 0.0281 0.9314
# 125 vertex normals

vt 0.4573 -0.9947 0.0000
vt 0.4573 -0.9691 0.0000
vt 0.4445 -0.9690 0.0000
vt 0.4442 -0.9941 0.0000
vt 0.4887 -0.9939 0.0000
vt 0.4865 -0.9685 0.0000
vt 0.4701 -0.9690 0.0000
vt 0.4704 -0.9941 0.0000
vt 0.4281 -0.9686 0.0000
vt 0.4260 -0.9939 0.0000
vt 0.4573 -1.0497 0.0000
vt 0.4573 -1.0054 0.0000
vt 0.4420 -1.0348 0.0000
vt 0.4549 -1.0877 0.0000
vt 0.4351 -1.0925 0.0000
vt 0.4451 -1.1082 0.0000
vt 0.4553 -1.0888 0.0000
vt 0.4592 -1.0888 0.0000
vt 0.4694 -1.1082 0.0000
vt 0.4794 -1.0925 0.0000
vt 0.4595 -1.0877 0.0000
vt 0.4606 -1.0561 0.0000
vt 0.4816 -1.0567 0.0000
vt 0.4727 -1.0348 0.0000
vt 0.4173 -1.0969 0.0000
vt 0.4366 -1.1246 0.0000
vt 0.4779 -1.1246 0.0000
vt 0.4973 -1.0969 0.0000
vt 0.5003 -1.0556 0.0000
vt 0.4859 -1.0172 0.0000
vt 0.4143 -1.0556 0.0000
vt 0.4114 -1.0764 0.0000
vt 0.4301 -1.0748 0.0000
vt 0.4330 -1.0567 0.0000
vt 0.5031 -1.0765 0.0000
vt 0.4845 -1.0748 0.0000
vt 0.4509 -1.0730 0.0000
vt 0.4540 -1.0561 0.0000
vt 0.4637 -1.0730 0.0000
vt 0.4572 -1.1333 0.0000
vt 0.4573 -1.1127 0.0000
vt 0.4573 -1.0909 0.0000
vt 0.4288 -1.0172 0.0000
vt 0.4486 -0.5438 0.0000
vt 0.4552 -0.5440 0.0000
vt 0.4548 -0.4837 0.0000
vt 0.4617 -0.5437 0.0000
vt 0.4673 -0.5432 0.0000
vt 0.4430 -0.5433 0.0000
vt 0.4554 -0.5789 0.0000
vt 0.4469 -0.5788 0.0000
vt 0.4715 -0.5784 0.0000
vt 0.4639 -0.5788 0.0000
vt 0.4392 -0.5786 0.0000
vt 0.4558 -0.6521 0.0000
vt 0.4469 -0.6520 0.0000
vt 0.4572 -0.9361 0.0000
vt 0.4454 -0.9364 0.0000
vt 0.4572 -0.9430 0.0000
vt 0.4444 -0.9434 0.0000
vt 0.4450 -1.0005 0.0000
vt 0.4573 -1.0015 0.0000
vt 0.4734 -0.6517 0.0000
vt 0.4647 -0.6519 0.0000
vt 0.4832 -0.9353 0.0000
vt 0.4690 -0.9363 0.0000
vt 0.4873 -0.9422 0.0000
vt 0.4700 -0.9433 0.0000
vt 0.4696 -1.0005 0.0000
vt 0.4850 -1.0002 0.0000
vt 0.4382 -0.6518 0.0000
vt 0.4313 -0.9355 0.0000
vt 0.4272 -0.9424 0.0000
vt 0.4297 -1.0003 0.0000
vt 0.5071 -1.0011 0.0000
vt 0.5101 -1.0483 0.0000
vt 0.5308 -1.0503 0.0000
vt 0.5215 -1.0009 0.0000
vt 0.5148 -1.0915 0.0000
vt 0.5333 -1.0826 0.0000
vt 0.5178 -0.9723 0.0000
vt 0.5348 -0.9988 0.0000
vt 0.5266 -0.9708 0.0000
vt 0.5442 -1.0476 0.0000
vt 0.5482 -1.1377 0.0000
vt 0.5435 -1.0915 0.0000
vt 0.5340 -1.1122 0.0000
vt 0.5078 -0.9724 0.0000
vt 0.5180 -1.1343 0.0000
vt 0.5271 -1.1502 0.0000
# 90 texture coords

o Box002
g Box002
s 1
f 1/1/1 2/2/2 3/3/3 4/4/4 
s 2
f 5/5/5 6/6/6 7/7/7 8/8/8 
f 4/4/4 3/3/3 9/9/9 10/10/10 
s 1
f 8/8/8 7/7/7 2/2/2 1/1/1 
f 11/11/11 12/12/12 13/13/13 
f 14/14/14 15/15/15 16/16/16 14/17/17 
s 2
f 17/18/18 18/19/19 19/20/20 17/21/21 
f 20/22/22 21/23/23 22/24/24 11/11/11 
f 15/15/15 23/25/25 24/26/26 16/16/16 
s 1
f 18/19/19 25/27/27 26/28/28 19/20/20 
f 21/23/23 27/29/29 28/30/30 22/24/24 
s 2
f 29/31/31 30/32/32 31/33/33 32/34/34 
s 1
f 26/28/28 33/35/35 34/36/36 19/20/20 
f 32/34/34 31/33/33 35/37/35 36/38/37 
s 2
f 19/20/20 34/36/36 37/39/38 17/21/21 
f 30/32/32 23/25/25 15/15/15 31/33/33 
s 1
f 33/35/35 27/29/29 21/23/23 34/36/36 
f 31/33/33 15/15/15 14/14/14 35/37/35 
s 2
f 34/36/36 21/23/23 20/22/22 37/39/38 
s 4
f 24/26/26 38/40/39 39/41/40 16/16/16 
s 1
f 16/16/16 39/41/40 40/42/41 14/17/17 
s 8
f 38/40/39 25/27/27 18/19/19 39/41/40 
s 2
f 39/41/40 18/19/19 17/18/18 40/42/41 
s 1
f 13/13/13 32/34/34 36/38/37 11/11/11 
s 2
f 22/24/24 12/12/12 11/11/11 
f 41/43/42 29/31/31 32/34/34 13/13/13 
s 1
f 42/44/43 43/45/44 44/46/45 
s 2
f 45/47/46 46/48/47 44/46/45 
s 4
f 47/49/48 42/44/43 44/46/45 
s 1
f 43/45/44 45/47/46 44/46/45 
f 48/50/49 43/45/44 42/44/43 49/51/50 
s 2
f 50/52/51 46/48/47 45/47/46 51/53/52 
s 4
f 49/51/50 42/44/43 47/49/48 52/54/53 
s 1
f 51/53/52 45/47/46 43/45/44 48/50/49 
f 53/55/54 48/50/49 49/51/50 54/56/55 
f 55/57/56 53/55/54 54/56/55 56/58/57 
s 8
f 57/59/58 55/57/56 56/58/57 58/60/59 
s 4
f 59/61/60 13/13/13 12/12/12 60/62/61 
s 8
f 4/4/4 59/61/60 60/62/61 1/1/1 
s 2
f 61/63/62 50/52/51 51/53/52 62/64/63 
f 63/65/64 61/63/62 62/64/63 64/66/65 
s 4
f 65/67/66 63/65/64 64/66/65 66/68/67 
s 1
f 67/69/68 22/24/24 28/30/30 68/70/69 
s 16
f 8/8/8 67/69/68 68/70/69 5/5/5 
s 4
f 54/56/55 49/51/50 52/54/53 69/71/70 
f 56/58/57 54/56/55 69/71/70 70/72/71 
s 16
f 58/60/59 56/58/57 70/72/71 71/73/72 
s 2
f 72/74/73 41/43/42 13/13/13 59/61/60 
s 16
f 10/10/10 72/74/73 59/61/60 4/4/4 
s 1
f 62/64/63 51/53/52 48/50/49 53/55/54 
f 64/66/65 62/64/63 53/55/54 55/57/56 
s 8
f 66/68/67 64/66/65 55/57/56 57/59/58 
s 4
f 60/62/61 12/12/12 22/24/24 67/69/68 
s 8
f 1/1/1 60/62/61 67/69/68 8/8/8 
s 1
f 2/2/2 57/59/58 58/60/59 3/3/3 
s 2
f 6/6/6 65/67/66 66/68/67 7/7/7 
f 3/3/3 58/60/59 71/73/72 9/9/9 
s 1
f 7/7/7 66/68/67 57/59/58 2/2/2 
f 73/1/74 74/4/75 75/3/76 76/2/77 
s 8
f 5/5/5 77/8/78 78/7/79 6/6/6 
s 4
f 74/4/75 10/10/10 9/9/9 75/3/76 
s 1
f 77/8/78 73/1/74 76/2/77 78/7/79 
s 4
f 11/11/11 79/13/80 80/12/81 
f 14/14/14 14/17/17 81/16/82 82/15/83 
s 8
f 17/18/18 17/21/21 83/20/84 84/19/85 
f 20/22/22 11/11/11 85/24/86 86/23/87 
s 1
f 82/15/83 81/16/82 24/26/26 23/25/25 
s 2
f 84/19/85 83/20/84 26/28/28 25/27/27 
f 86/23/87 85/24/86 28/30/30 27/29/29 
s 1
f 29/31/31 87/34/88 88/33/89 30/32/32 
s 2
f 26/28/28 83/20/84 89/36/90 33/35/35 
s 4
f 87/34/88 36/38/37 35/37/35 88/33/89 
s 8
f 83/20/84 17/21/21 37/39/38 89/36/90 
s 1
f 30/32/32 88/33/89 82/15/83 23/25/25 
s 2
f 33/35/35 89/36/90 86/23/87 27/29/29 
s 4
f 88/33/89 35/37/35 14/14/14 82/15/83 
s 8
f 89/36/90 37/39/38 20/22/22 86/23/87 
s 16
f 24/26/26 81/16/82 90/41/91 38/40/39 
s 4
f 81/16/82 14/17/17 40/42/41 90/41/91 
s 32
f 38/40/39 90/41/91 84/19/85 25/27/27 
s 8
f 90/41/91 40/42/41 17/18/18 84/19/85 
s 4
f 79/13/80 11/11/11 36/38/37 87/34/88 
s 8
f 85/24/86 11/11/11 80/12/81 
s 1
f 41/43/42 79/13/80 87/34/88 29/31/31 
s 8
f 91/44/92 44/46/45 92/45/93 
s 16
f 93/47/94 44/46/45 46/48/47 
s 32
f 47/49/48 44/46/45 91/44/92 
s 8
f 92/45/93 44/46/45 93/47/94 
f 94/50/95 95/51/96 91/44/92 92/45/93 
s 16
f 50/52/51 96/53/97 93/47/94 46/48/47 
s 32
f 95/51/96 52/54/53 47/49/48 91/44/92 
s 8
f 96/53/97 94/50/95 92/45/93 93/47/94 
f 97/55/98 98/56/99 95/51/96 94/50/95 
f 99/57/100 100/58/101 98/56/99 97/55/98 
s 2
f 101/59/102 102/60/103 100/58/101 99/57/100 
s 32
f 103/61/104 104/62/105 80/12/81 79/13/80 
s 64
f 74/4/75 73/1/74 104/62/105 103/61/104 
s 16
f 61/63/62 105/64/106 96/53/97 50/52/51 
f 63/65/64 106/66/107 105/64/106 61/63/62 
s 32
f 65/67/66 107/68/108 106/66/107 63/65/64 
s 2
f 108/69/109 68/70/69 28/30/30 85/24/86 
s 16
f 77/8/78 5/5/5 68/70/69 108/69/109 
s 32
f 98/56/99 69/71/70 52/54/53 95/51/96 
f 100/58/101 70/72/71 69/71/70 98/56/99 
s 64
f 102/60/103 71/73/72 70/72/71 100/58/101 
s 1
f 72/74/73 103/61/104 79/13/80 41/43/42 
s 16
f 10/10/10 74/4/75 103/61/104 72/74/73 
s 8
f 105/64/106 97/55/98 94/50/95 96/53/97 
f 106/66/107 99/57/100 97/55/98 105/64/106 
s 2
f 107/68/108 101/59/102 99/57/100 106/66/107 
s 32
f 104/62/105 108/69/109 85/24/86 80/12/81 
s 64
f 73/1/74 77/8/78 108/69/109 104/62/105 
s 1
f 76/2/77 75/3/76 102/60/103 101/59/102 
s 8
f 6/6/6 78/7/79 107/68/108 65/67/66 
s 4
f 75/3/76 9/9/9 71/73/72 102/60/103 
s 1
f 78/7/79 76/2/77 101/59/102 107/68/108 
s 18
f 109/75/110 110/76/111 111/77/112 112/78/113 
s off
f 110/76/111 113/79/114 114/80/115 111/77/112 
s 16
f 115/81/116 112/78/113 116/82/117 117/83/118 
s off
f 112/78/113 111/77/112 118/84/119 116/82/117 
f 119/85/120 120/86/121 114/80/115 121/87/122 
s 18
f 109/75/110 112/78/113 115/81/116 122/88/123 
s off
f 123/89/124 124/90/125 121/87/122 
f 113/79/114 123/89/124 121/87/122 114/80/115 
f 120/86/121 118/84/119 111/77/112 114/80/115 
# 112 polygons - 13 triangles

