# 3ds Max Wavefront OBJ Exporter v0.97b - (c)2007 guruware
# File Created: 31.01.2021 16:25:55

#
# object Book_1
#

v  0.9185 0.0000 0.6839
v  -0.9185 0.0000 0.6839
v  -0.9185 0.0000 -0.6891
v  0.9185 0.0000 -0.6891
v  0.9185 0.3957 0.6839
v  0.9185 0.3957 -0.6891
v  -0.9185 0.3957 -0.6891
v  -0.9185 0.3957 0.6839
v  -0.9185 0.0258 0.7097
v  0.9185 0.0258 0.7097
v  0.9185 0.1979 0.7296
v  -0.9185 0.1979 0.7296
v  -0.9185 0.0430 0.6455
v  -0.9185 0.0430 -0.6891
v  -0.9185 0.1979 0.6911
v  -0.9185 0.0748 0.6713
v  -0.9185 0.3527 -0.6891
v  -0.9185 0.3527 0.6455
v  -0.8979 0.3957 -0.7097
v  0.8979 0.3957 -0.7097
v  0.8979 0.3527 -0.7097
v  -0.8979 0.3527 -0.7097
v  0.9185 0.3527 0.6455
v  0.9185 0.3527 -0.6891
v  0.9185 0.3699 0.7097
v  0.9185 0.1979 0.6911
v  0.9185 0.3209 0.6713
v  0.9185 0.0430 -0.6891
v  0.9185 0.0430 0.6455
v  0.8979 0.0000 -0.7097
v  -0.8979 0.0000 -0.7097
v  -0.8979 0.0430 -0.7097
v  0.8979 0.0430 -0.7097
v  -0.8931 0.0473 -0.6718
v  -0.8931 0.0473 0.6461
v  -0.8931 0.1979 0.6918
v  -0.8931 0.0791 0.6719
v  -0.9071 0.3508 -0.6926
v  -0.8931 0.3484 -0.6718
v  -0.8931 0.3484 0.6461
v  0.9071 0.3508 -0.6926
v  0.8931 0.3484 -0.6718
v  0.8931 0.3484 0.6461
v  0.8931 0.1979 0.6918
v  0.8931 0.3166 0.6719
v  0.8931 0.0473 -0.6718
v  0.8931 0.0473 0.6461
v  0.8931 0.2702 -0.2977
v  0.8931 0.2778 -0.6582
v  0.8931 0.2685 -0.6718
v  0.8931 0.2014 -0.6718
v  -0.8931 0.2052 -0.6460
v  -0.8931 0.2700 -0.6718
v  -0.8931 0.3166 0.6719
v  -0.8931 0.2702 -0.2500
v  -0.8931 0.1979 -0.4871
v  -0.9185 0.3699 0.7097
v  -0.9185 0.3209 0.6713
v  0.9185 0.0748 0.6713
v  0.8931 0.0791 0.6719
v  0.8931 0.0979 -0.6718
v  -0.8931 0.0788 -0.6718
v  0.8931 0.1884 -0.6718
v  0.8931 0.1098 -0.6718
v  -0.8931 0.0885 -0.6298
v  -0.8931 0.1875 -0.6718
v  -0.8931 0.2763 -0.6718
v  0.8931 0.1009 -0.4908
v  -0.8931 0.0822 -0.6131
v  0.8931 0.1949 -0.6638
# 70 vertices

vn 0.6303 -0.7173 0.2971
vn -0.6303 -0.7173 0.2971
vn -0.7173 -0.6303 -0.2971
vn 0.7173 -0.6303 -0.2971
vn 0.6303 0.7173 0.2971
vn 0.7173 0.6303 -0.2971
vn -0.7173 0.6303 -0.2971
vn -0.6303 0.7173 0.2971
vn -0.6400 -0.3343 0.6918
vn 0.6400 -0.3343 0.6918
vn 0.6822 0.0000 0.7312
vn -0.6822 -0.0000 0.7312
vn -0.8531 0.4763 -0.2129
vn -0.7475 0.5859 -0.3129
vn -0.7367 0.0000 -0.6762
vn -0.7855 0.2676 -0.5580
vn -0.7639 -0.5705 -0.3017
vn -0.8531 -0.4763 -0.2129
vn -0.2971 0.6303 -0.7173
vn 0.2971 0.6303 -0.7173
vn 0.2975 -0.5890 -0.7513
vn -0.2976 -0.5890 -0.7513
vn 0.8531 -0.4763 -0.2129
vn 0.7639 -0.5705 -0.3017
vn 0.6400 0.3343 0.6918
vn 0.7367 0.0000 -0.6762
vn 0.7855 -0.2676 -0.5580
vn 0.7475 0.5859 -0.3129
vn 0.8531 0.4763 -0.2129
vn 0.2971 -0.6303 -0.7173
vn -0.2971 -0.6303 -0.7173
vn -0.3047 0.5943 -0.7443
vn 0.3047 0.5943 -0.7443
vn -0.3735 0.8622 -0.3422
vn -0.6732 0.6588 -0.3360
vn -0.6628 0.0000 -0.7488
vn -0.6697 0.2872 -0.6848
vn -0.1367 -0.9828 -0.1239
vn -0.3707 -0.8654 -0.3372
vn -0.6732 -0.6588 -0.3360
vn 0.1367 -0.9828 -0.1239
vn 0.3242 -0.8899 -0.3208
vn 0.6732 -0.6588 -0.3360
vn 0.6628 -0.0000 -0.7488
vn 0.6697 -0.2872 -0.6848
vn 0.3735 0.8622 -0.3422
vn 0.6732 0.6588 -0.3360
vn 1.0000 0.0001 -0.0066
vn 0.5914 -0.6174 -0.5187
vn 0.5779 0.5755 -0.5786
vn 0.6163 -0.3394 -0.7106
vn -0.6069 -0.6490 -0.4587
vn -0.5598 0.4650 -0.6858
vn -0.6697 -0.2872 -0.6848
vn -1.0000 0.0000 -0.0037
vn -0.9997 -0.0001 -0.0243
vn -0.6400 0.3343 0.6918
vn -0.7855 -0.2676 -0.5580
vn 0.7855 0.2676 -0.5580
vn 0.6697 0.2872 -0.6848
vn 0.5754 0.5755 -0.5811
vn -0.5832 0.5553 -0.5929
vn 0.6216 0.3377 -0.7068
vn 0.5766 -0.5568 -0.5979
vn -0.6310 -0.5636 -0.5331
vn -0.5614 0.4372 -0.7026
vn -0.5759 -0.5726 -0.5835
vn 0.9999 0.0002 -0.0159
vn -0.9933 0.0188 -0.1141
vn 0.9163 -0.0001 -0.4005
# 70 vertex normals

vt 0.9042 0.7974 0.0000
vt 0.9711 0.7974 0.0000
vt 0.9708 0.7970 0.0000
vt 0.9038 0.7970 0.0000
vt 0.9042 0.8118 0.0000
vt 0.9038 0.8115 0.0000
vt 0.9708 0.8115 0.0000
vt 0.9711 0.8118 0.0000
vt 0.9711 0.7983 0.0000
vt 0.9042 0.7983 0.0000
vt 0.9042 0.8046 0.0000
vt 0.9711 0.8046 0.0000
vt 0.9711 0.7989 0.0000
vt 0.9708 0.7986 0.0000
vt 0.9711 0.8001 0.0000
vt 0.9708 0.8099 0.0000
vt 0.9711 0.8102 0.0000
vt 0.9700 0.8115 0.0000
vt 0.9046 0.8115 0.0000
vt 0.9046 0.8099 0.0000
vt 0.9700 0.8099 0.0000
vt 0.9041 0.8102 0.0000
vt 0.9038 0.8099 0.0000
vt 0.9042 0.8108 0.0000
vt 0.9042 0.8090 0.0000
vt 0.9038 0.7986 0.0000
vt 0.9041 0.7989 0.0000
vt 0.9046 0.7970 0.0000
vt 0.9700 0.7970 0.0000
vt 0.9700 0.7986 0.0000
vt 0.9046 0.7986 0.0000
vt 0.9698 0.7988 0.0000
vt 0.9702 0.7991 0.0000
vt 0.9702 0.8046 0.0000
vt 0.9702 0.8002 0.0000
vt 0.9703 0.8098 0.0000
vt 0.9698 0.8097 0.0000
vt 0.9702 0.8100 0.0000
vt 0.9042 0.8098 0.0000
vt 0.9048 0.8097 0.0000
vt 0.9051 0.8100 0.0000
vt 0.9051 0.8046 0.0000
vt 0.9051 0.8089 0.0000
vt 0.9048 0.7988 0.0000
vt 0.9051 0.7991 0.0000
vt 0.3920 0.8082 0.0000
vt 0.3921 0.8054 0.0000
vt 0.3920 0.8056 0.0000
vt 0.3920 0.8053 0.0000
vt 0.3920 0.8028 0.0000
vt 0.4571 0.8030 0.0000
vt 0.4571 0.8053 0.0000
vt 0.4574 0.8073 0.0000
vt 0.4572 0.8054 0.0000
vt 0.4571 0.8027 0.0000
vt 0.4574 0.8030 0.0000
vt 0.9711 0.8108 0.0000
vt 0.9711 0.8090 0.0000
vt 0.9042 0.8001 0.0000
vt 0.9702 0.8089 0.0000
vt 0.9051 0.8002 0.0000
vt 0.3920 0.7990 0.0000
vt 0.3920 0.7972 0.0000
vt 0.4571 0.7972 0.0000
vt 0.4571 0.7983 0.0000
vt 0.3920 0.8023 0.0000
vt 0.3920 0.7995 0.0000
vt 0.4571 0.7987 0.0000
vt 0.4571 0.8023 0.0000
vt 0.4571 0.8055 0.0000
vt 0.4571 0.8082 0.0000
vt 0.1601 0.8040 0.0000
vt 0.1601 0.8037 0.0000
vt 0.2252 0.8030 0.0000
vt 0.2252 0.8032 0.0000
vt 0.1601 0.8073 0.0000
vt 0.1601 0.8071 0.0000
vt 0.2252 0.8073 0.0000
vt 0.2252 0.8075 0.0000
vt 0.2252 0.8098 0.0000
vt 0.2253 0.8099 0.0000
vt 0.1602 0.8099 0.0000
vt 0.1601 0.8098 0.0000
vt 0.1601 0.8036 0.0000
vt 0.2252 0.8029 0.0000
vt 0.1601 0.8069 0.0000
vt 0.2252 0.8068 0.0000
vt 0.2252 0.8101 0.0000
vt 0.1601 0.8101 0.0000
vt 0.3923 0.8030 0.0000
vt 0.3923 0.7987 0.0000
vt 0.3920 0.7992 0.0000
vt 0.3920 0.8026 0.0000
vt 0.3923 0.8073 0.0000
vt 0.3923 0.7975 0.0000
vt 0.3923 0.8085 0.0000
vt 0.4574 0.8085 0.0000
vt 0.4571 0.7985 0.0000
vt 0.4574 0.7987 0.0000
vt 0.4574 0.7975 0.0000
# 100 texture coords

o Book_1
g Book_1
s 1
f 1/1/1 2/2/2 3/3/3 4/4/4 
f 5/5/5 6/6/6 7/7/7 8/8/8 
f 9/9/9 10/10/10 11/11/11 12/12/12 
s 2
f 3/3/3 2/2/2 13/13/13 14/14/14 
f 9/9/9 12/12/12 15/12/15 16/15/16 
f 8/8/8 7/7/7 17/16/17 18/17/18 
f 19/18/19 20/19/20 21/20/21 22/21/22 
f 6/6/6 5/5/5 23/22/23 24/23/24 
f 25/24/25 11/11/11 26/11/26 27/25/27 
f 1/1/1 4/4/4 28/26/28 29/27/29 
f 30/28/30 31/29/31 32/30/32 33/31/33 
s 1
f 34/32/34 14/14/14 13/13/13 35/33/35 
f 16/15/16 15/12/15 36/34/36 37/35/37 
f 18/17/18 17/16/17 38/36/38 39/37/39 40/38/40 
f 38/36/38 22/21/22 21/20/21 41/39/41 42/40/42 39/37/39 
f 41/39/41 24/23/24 23/22/23 43/41/43 42/40/42 
f 27/25/27 26/11/26 44/42/44 45/43/45 
f 29/27/29 28/26/28 46/44/46 47/45/47 
f 46/44/46 33/31/33 32/30/32 34/32/34 
s 2
f 42/46/42 48/47/48 49/48/49 
s 1
f 50/49/50 51/50/51 52/51/52 53/52/53 
s 2
f 54/53/54 55/54/55 56/55/56 36/56/36 
s 1
f 14/14/14 34/32/34 32/30/32 
f 22/21/22 38/36/38 17/16/17 
f 24/23/24 41/39/41 21/20/21 
f 33/31/33 46/44/46 28/26/28 
s 4
f 31/29/31 3/3/3 14/14/14 32/30/32 
f 7/7/7 19/18/19 22/21/22 17/16/17 
f 20/19/20 6/6/6 24/23/24 21/20/21 
f 4/4/4 30/28/30 33/31/33 28/26/28 
f 1/1/1 10/10/10 9/9/9 2/2/2 
f 8/8/8 57/57/57 25/24/25 5/5/5 
s 2
f 2/2/2 9/9/9 16/15/16 13/13/13 
f 57/57/57 8/8/8 18/17/18 58/58/58 
f 5/5/5 25/24/25 27/25/27 23/22/23 
f 10/10/10 1/1/1 29/27/29 59/59/59 
s 4
f 13/13/13 16/15/16 37/35/37 35/33/35 
f 58/58/58 18/17/18 40/38/40 54/60/54 
f 23/22/23 27/25/27 45/43/45 43/41/43 
f 59/59/59 29/27/29 47/45/47 60/61/60 
s 1
f 11/11/11 25/24/25 57/57/57 12/12/12 
s 2
f 12/12/12 57/57/57 58/58/58 15/12/15 
f 11/11/11 10/10/10 59/59/59 26/11/26 
s 1
f 15/12/15 58/58/58 54/60/54 36/34/36 
f 26/11/26 59/59/59 60/61/60 44/42/44 
s 4
f 61/62/61 46/63/46 34/64/34 62/65/62 
s 1
f 63/66/63 64/67/64 65/68/65 66/69/66 
s 4
f 67/70/67 39/71/39 42/46/42 49/48/49 
f 64/72/64 68/73/68 69/74/69 65/75/65 
f 51/76/51 70/77/70 56/78/56 52/79/52 
f 53/80/53 55/81/55 48/82/48 50/83/50 
s 1
f 68/73/68 61/84/61 62/85/62 69/74/69 
s 8
f 70/77/70 63/86/63 66/87/66 56/78/56 
s 1
f 55/81/55 67/88/67 49/89/49 48/82/48 
s 2
f 44/90/44 60/91/60 68/92/68 70/93/70 
f 45/94/45 44/90/44 70/93/70 48/47/48 
f 60/91/60 47/95/47 46/63/46 68/92/68 
f 42/46/42 43/96/43 45/94/45 48/47/48 
f 68/92/68 64/67/64 63/66/63 70/93/70 
f 70/93/70 51/50/51 50/49/50 48/47/48 
f 46/63/46 61/62/61 68/92/68 
f 54/53/54 40/97/40 39/71/39 55/54/55 
f 56/55/56 69/98/69 37/99/37 36/56/36 
f 69/98/69 34/64/34 35/100/35 37/99/37 
f 55/54/55 53/52/53 52/51/52 56/55/56 
f 39/71/39 67/70/67 55/54/55 
f 56/55/56 66/69/66 65/68/65 69/98/69 
f 69/98/69 62/65/62 34/64/34 
s 1
f 6/6/6 20/19/20 19/18/19 7/7/7 
f 3/3/3 31/29/31 30/28/30 4/4/4 
# 62 polygons - 8 triangles

