# 3ds Max Wavefront OBJ Exporter v0.97b - (c)2007 guruware
# File Created: 31.01.2021 16:36:14

#
# object Bottle_Glass_1
#

v  0.3140 -0.0017 -0.0000
v  -0.2220 -0.0017 -0.2220
v  -0.0000 -0.0017 -0.3140
v  0.2220 -0.0017 -0.2220
v  0.2627 0.0545 0.2627
v  0.2563 0.7951 0.2563
v  -0.0000 0.7951 0.3624
v  -0.0000 0.0545 0.3716
v  0.3716 0.0545 -0.0000
v  0.3624 0.7951 -0.0000
v  0.2627 0.0545 -0.2627
v  0.2563 0.7951 -0.2563
v  -0.0000 0.0545 -0.3716
v  -0.0000 0.7951 -0.3624
v  -0.2627 0.0545 -0.2627
v  -0.2563 0.7951 -0.2563
v  -0.3716 0.0545 -0.0000
v  -0.3624 0.7951 -0.0000
v  -0.2627 0.0545 0.2627
v  -0.2563 0.7951 0.2563
v  0.2220 -0.0017 0.2220
v  -0.0000 -0.0017 0.3140
v  -0.3140 -0.0017 -0.0000
v  -0.2220 -0.0017 0.2220
v  -0.0000 1.7167 0.3270
v  0.2312 1.7167 0.2312
v  0.1470 1.8461 0.1470
v  -0.0000 1.8461 0.2079
v  0.3270 1.7167 -0.0000
v  0.2079 1.8461 -0.0000
v  0.2312 1.7167 -0.2312
v  0.1470 1.8461 -0.1470
v  -0.0000 1.7167 -0.3270
v  -0.0000 1.8461 -0.2079
v  -0.2312 1.7167 -0.2312
v  -0.1470 1.8461 -0.1470
v  -0.3270 1.7167 -0.0000
v  -0.2079 1.8461 -0.0000
v  -0.2312 1.7167 0.2312
v  -0.1470 1.8461 0.1470
v  -0.0000 1.9055 0.1674
v  0.1183 1.9055 0.1183
v  0.1055 2.4679 0.1055
v  -0.0000 2.4679 0.1492
v  0.1674 1.9055 -0.0000
v  0.1492 2.4679 -0.0000
v  0.1183 1.9055 -0.1183
v  0.1055 2.4679 -0.1055
v  -0.0000 1.9055 -0.1674
v  -0.0000 2.4679 -0.1492
v  -0.1183 1.9055 -0.1183
v  -0.1055 2.4679 -0.1055
v  -0.1674 1.9055 -0.0000
v  -0.1492 2.4679 -0.0000
v  -0.1183 1.9055 0.1183
v  -0.1055 2.4679 0.1055
v  0.2641 1.5962 0.2641
v  -0.0000 1.5962 0.3735
v  0.3735 1.5962 -0.0000
v  0.2641 1.5962 -0.2641
v  -0.0000 1.5962 -0.3735
v  -0.2641 1.5962 -0.2641
v  -0.3735 1.5962 -0.0000
v  -0.2641 1.5962 0.2641
v  -0.0000 0.0312 0.2980
v  0.2107 0.0312 0.2107
v  -0.2980 0.0312 -0.0000
v  -0.2107 0.0312 0.2107
v  -0.0000 0.7951 0.3259
v  0.2304 0.7951 0.2304
v  0.2386 0.0677 0.2386
v  -0.0000 0.0677 0.3375
v  0.3259 0.7951 -0.0000
v  0.3375 0.0677 -0.0000
v  0.2304 0.7951 -0.2304
v  0.2386 0.0677 -0.2386
v  -0.0000 0.7951 -0.3259
v  -0.0000 0.0677 -0.3375
v  -0.2304 0.7951 -0.2304
v  -0.2386 0.0677 -0.2386
v  -0.3259 0.7951 -0.0000
v  -0.3375 0.0677 -0.0000
v  -0.2304 0.7951 0.2304
v  -0.2386 0.0677 0.2386
v  0.2980 0.0312 -0.0000
v  0.2107 0.0312 -0.2107
v  -0.0000 0.0312 -0.2980
v  -0.2107 0.0312 -0.2107
v  0.1269 1.8231 0.1269
v  0.2090 1.6980 0.2090
v  -0.0000 1.6980 0.2956
v  -0.0000 1.8231 0.1794
v  0.1794 1.8231 -0.0000
v  0.2956 1.6980 -0.0000
v  0.1269 1.8231 -0.1269
v  0.2090 1.6980 -0.2090
v  -0.0000 1.8231 -0.1794
v  -0.0000 1.6980 -0.2956
v  -0.1269 1.8231 -0.1269
v  -0.2090 1.6980 -0.2090
v  -0.1794 1.8231 -0.0000
v  -0.2956 1.6980 -0.0000
v  -0.1269 1.8231 0.1269
v  -0.2090 1.6980 0.2090
v  -0.0000 1.8935 0.1328
v  0.0939 1.8935 0.0939
v  0.1328 1.8935 -0.0000
v  0.0939 1.8935 -0.0939
v  -0.0000 1.8935 -0.1328
v  -0.0939 1.8935 -0.0939
v  -0.1328 1.8935 -0.0000
v  -0.0939 1.8935 0.0939
v  0.2386 1.5900 0.2386
v  -0.0000 1.5900 0.3375
v  0.3375 1.5900 -0.0000
v  0.2386 1.5900 -0.2386
v  -0.0000 1.5900 -0.3375
v  -0.2386 1.5900 -0.2386
v  -0.3375 1.5900 -0.0000
v  -0.2386 1.5900 0.2386
v  -0.0000 2.5429 0.1621
v  0.1147 2.5429 0.1147
v  0.0779 2.5538 0.0779
v  -0.0000 2.5538 0.1102
v  0.1621 2.5429 -0.0000
v  0.1102 2.5538 -0.0000
v  0.1147 2.5429 -0.1147
v  0.0779 2.5538 -0.0779
v  -0.0000 2.5429 -0.1621
v  -0.0000 2.5538 -0.1102
v  -0.1147 2.5429 -0.1147
v  -0.0779 2.5538 -0.0779
v  -0.1621 2.5429 -0.0000
v  -0.1102 2.5538 -0.0000
v  -0.1147 2.5429 0.1147
v  -0.0779 2.5538 0.0779
v  0.1208 2.4905 0.1208
v  0.0000 2.4905 0.1708
v  0.1708 2.4905 -0.0000
v  0.1208 2.4905 -0.1208
v  -0.0000 2.4905 -0.1708
v  -0.1208 2.4905 -0.1208
v  -0.1708 2.4905 -0.0000
v  -0.1208 2.4905 0.1208
# 144 vertices

vn 0.4515 -0.8922 0.0000
vn -0.3193 -0.8922 -0.3193
vn 0.0000 -0.8922 -0.4515
vn 0.3193 -0.8922 -0.3193
vn 0.6617 -0.3525 0.6617
vn 0.7071 -0.0008 0.7071
vn 0.0000 -0.0008 1.0000
vn 0.0000 -0.3525 0.9358
vn 0.9358 -0.3525 -0.0000
vn 1.0000 -0.0008 -0.0000
vn 0.6617 -0.3525 -0.6617
vn 0.7071 -0.0008 -0.7071
vn -0.0000 -0.3525 -0.9358
vn 0.0000 -0.0008 -1.0000
vn -0.6617 -0.3525 -0.6617
vn -0.7071 -0.0008 -0.7071
vn -0.9358 -0.3525 0.0000
vn -1.0000 -0.0008 -0.0000
vn -0.6617 -0.3525 0.6617
vn -0.7071 -0.0008 0.7071
vn 0.3193 -0.8922 0.3193
vn 0.0000 -0.8922 0.4515
vn -0.4515 -0.8922 0.0000
vn -0.3193 -0.8922 0.3193
vn 0.0000 0.5085 0.8611
vn 0.6089 0.5085 0.6089
vn 0.5487 0.6308 0.5487
vn 0.0000 0.6308 0.7759
vn 0.8611 0.5085 0.0000
vn 0.7759 0.6308 -0.0000
vn 0.6089 0.5085 -0.6089
vn 0.5487 0.6308 -0.5487
vn -0.0000 0.5085 -0.8611
vn 0.0000 0.6308 -0.7759
vn -0.6089 0.5085 -0.6089
vn -0.5487 0.6308 -0.5487
vn -0.8611 0.5085 -0.0000
vn -0.7759 0.6308 -0.0000
vn -0.6089 0.5085 0.6089
vn -0.5487 0.6308 0.5487
vn -0.0000 0.3323 0.9432
vn 0.6669 0.3323 0.6669
vn 0.6498 -0.3944 0.6498
vn -0.0000 -0.3944 0.9190
vn 0.9432 0.3323 0.0000
vn 0.9190 -0.3944 -0.0000
vn 0.6669 0.3323 -0.6669
vn 0.6498 -0.3944 -0.6498
vn -0.0000 0.3323 -0.9432
vn 0.0000 -0.3944 -0.9190
vn -0.6669 0.3323 -0.6669
vn -0.6498 -0.3944 -0.6498
vn -0.9432 0.3323 -0.0000
vn -0.9190 -0.3944 -0.0000
vn -0.6669 0.3323 0.6669
vn -0.6498 -0.3944 0.6498
vn 0.6970 0.1688 0.6970
vn 0.0000 0.1688 0.9856
vn 0.9856 0.1688 -0.0000
vn 0.6970 0.1688 -0.6970
vn -0.0000 0.1688 -0.9856
vn -0.6970 0.1688 -0.6970
vn -0.9856 0.1688 0.0000
vn -0.6970 0.1688 0.6970
vn 0.0000 0.8991 -0.4377
vn -0.3095 0.8991 -0.3095
vn 0.4377 0.8991 -0.0000
vn 0.3095 0.8991 -0.3095
vn 0.0000 -0.0007 -1.0000
vn -0.7071 -0.0007 -0.7071
vn -0.6593 0.3615 -0.6593
vn -0.0000 0.3615 -0.9324
vn -1.0000 -0.0007 -0.0000
vn -0.9324 0.3615 -0.0000
vn -0.7071 -0.0007 0.7071
vn -0.6593 0.3615 0.6593
vn 0.0000 -0.0007 1.0000
vn 0.0000 0.3615 0.9324
vn 0.7071 -0.0007 0.7071
vn 0.6593 0.3615 0.6593
vn 1.0000 -0.0007 -0.0000
vn 0.9324 0.3615 0.0000
vn 0.7071 -0.0007 -0.7071
vn 0.6593 0.3615 -0.6593
vn -0.4377 0.8991 -0.0000
vn -0.3095 0.8991 0.3095
vn -0.0000 0.8991 0.4377
vn 0.3095 0.8991 0.3095
vn -0.5502 -0.6282 -0.5502
vn -0.6079 -0.5108 -0.6079
vn -0.0000 -0.5108 -0.8597
vn -0.0000 -0.6282 -0.7780
vn -0.7780 -0.6282 -0.0000
vn -0.8597 -0.5108 -0.0000
vn -0.5502 -0.6282 0.5502
vn -0.6079 -0.5108 0.6079
vn -0.0000 -0.6282 0.7780
vn 0.0000 -0.5108 0.8597
vn 0.5502 -0.6282 0.5502
vn 0.6079 -0.5108 0.6079
vn 0.7780 -0.6282 -0.0000
vn 0.8597 -0.5108 0.0000
vn 0.5502 -0.6282 -0.5502
vn 0.6079 -0.5108 -0.6079
vn 0.0000 -0.3257 -0.9455
vn -0.6685 -0.3257 -0.6685
vn -0.9455 -0.3257 -0.0000
vn -0.6685 -0.3257 0.6685
vn 0.0000 -0.3257 0.9455
vn 0.6685 -0.3257 0.6685
vn 0.9455 -0.3257 0.0000
vn 0.6685 -0.3257 -0.6685
vn -0.6969 -0.1693 -0.6969
vn -0.0000 -0.1693 -0.9856
vn -0.9856 -0.1693 -0.0000
vn -0.6969 -0.1693 0.6969
vn 0.0000 -0.1693 0.9856
vn 0.6969 -0.1693 0.6969
vn 0.9856 -0.1693 0.0000
vn 0.6969 -0.1693 -0.6969
vn -0.0000 0.6290 0.7774
vn 0.5497 0.6290 0.5497
vn -0.3512 0.8679 -0.3512
vn 0.0000 0.8679 -0.4967
vn 0.7774 0.6290 0.0000
vn -0.4967 0.8679 -0.0000
vn 0.5497 0.6290 -0.5497
vn -0.3512 0.8679 0.3512
vn -0.0000 0.6290 -0.7774
vn 0.0000 0.8679 0.4967
vn -0.5497 0.6290 -0.5497
vn 0.3512 0.8679 0.3512
vn -0.7774 0.6290 0.0000
vn 0.4967 0.8679 -0.0000
vn -0.5497 0.6290 0.5497
vn 0.3512 0.8679 -0.3512
vn 0.6810 -0.2693 0.6810
vn -0.0000 -0.2693 0.9631
vn 0.9631 -0.2693 -0.0000
vn 0.6810 -0.2693 -0.6810
vn -0.0000 -0.2693 -0.9631
vn -0.6810 -0.2693 -0.6810
vn -0.9631 -0.2693 -0.0000
vn -0.6810 -0.2693 0.6810
# 144 vertex normals

vt 0.6671 0.5361 0.9817
vt 0.6810 0.5361 0.9737
vt 0.6763 0.5361 0.9657
vt 0.6718 0.5361 0.9737
vt 0.7031 0.5370 1.0000
vt 0.7031 0.5604 1.0000
vt 0.6978 0.5604 1.0000
vt 0.6978 0.5370 1.0000
vt 0.6661 0.5370 1.0000
vt 0.6661 0.5604 1.0000
vt 0.6608 0.5604 1.0000
vt 0.6608 0.5370 1.0000
vt 0.6713 0.5370 1.0000
vt 0.6713 0.5604 1.0000
vt 0.6766 0.5370 1.0000
vt 0.6766 0.5604 1.0000
vt 0.6819 0.5370 1.0000
vt 0.6819 0.5604 1.0000
vt 0.6872 0.5370 1.0000
vt 0.6872 0.5604 1.0000
vt 0.6925 0.5370 1.0000
vt 0.6925 0.5604 1.0000
vt 0.7028 0.5371 1.0000
vt 0.6981 0.5371 1.0000
vt 0.6657 0.5371 1.0000
vt 0.6611 0.5371 1.0000
vt 0.6858 0.5361 0.9817
vt 0.6907 0.5361 0.9850
vt 0.6975 0.5371 1.0000
vt 0.6928 0.5371 1.0000
vt 0.6978 0.5784 1.0000
vt 0.7031 0.5784 1.0000
vt 0.6608 0.5784 1.0000
vt 0.6661 0.5784 1.0000
vt 0.6713 0.5784 1.0000
vt 0.6766 0.5784 1.0000
vt 0.6819 0.5784 1.0000
vt 0.6872 0.5784 1.0000
vt 0.6925 0.5784 1.0000
vt 0.7031 0.5765 1.0000
vt 0.6978 0.5765 1.0000
vt 0.6661 0.5765 1.0000
vt 0.6608 0.5765 1.0000
vt 0.6713 0.5765 1.0000
vt 0.6766 0.5765 1.0000
vt 0.6819 0.5765 1.0000
vt 0.6872 0.5765 1.0000
vt 0.6925 0.5765 1.0000
vt 0.6713 0.5361 0.4485
vt 0.6622 0.5361 0.9850
# 50 texture coords

o Bottle_Glass_1
g Bottle_Glass_1
s 1
f 1/1/1 2/2/2 3/3/3 4/4/4 
f 5/5/5 6/6/6 7/7/7 8/8/8 
f 9/9/9 10/10/10 6/11/6 5/12/5 
f 11/13/11 12/14/12 10/10/10 9/9/9 
f 13/15/13 14/16/14 12/14/12 11/13/11 
f 15/17/15 16/18/16 14/16/14 13/15/13 
f 17/19/17 18/20/18 16/18/16 15/17/15 
f 19/21/19 20/22/20 18/20/18 17/19/17 
f 8/8/8 7/7/7 20/22/20 19/21/19 
f 21/23/21 5/5/5 8/8/8 22/24/22 
f 1/25/1 9/9/9 5/12/5 21/26/21 
f 4/4/4 11/13/11 9/9/9 1/1/1 
f 3/3/3 13/15/13 11/13/11 4/4/4 
f 2/2/2 15/17/15 13/15/13 3/3/3 
f 23/27/23 17/19/17 15/17/15 2/2/2 
f 24/28/24 19/21/19 17/19/17 23/27/23 
f 22/29/22 8/8/8 19/21/19 24/30/24 
f 25/31/25 26/32/26 27/32/27 28/31/28 
f 26/33/26 29/34/29 30/34/30 27/33/27 
f 29/34/29 31/35/31 32/35/32 30/34/30 
f 31/35/31 33/36/33 34/36/34 32/35/32 
f 33/36/33 35/37/35 36/37/36 34/36/34 
f 35/37/35 37/38/37 38/38/38 36/37/36 
f 37/38/37 39/39/39 40/39/40 38/38/38 
f 39/39/39 25/31/25 28/31/28 40/39/40 
f 41/31/41 42/32/42 43/32/43 44/31/44 
f 42/33/42 45/34/45 46/34/46 43/33/43 
f 45/34/45 47/35/47 48/35/48 46/34/46 
f 47/35/47 49/36/49 50/36/50 48/35/48 
f 49/36/49 51/37/51 52/37/52 50/36/50 
f 51/37/51 53/38/53 54/38/54 52/37/52 
f 53/38/53 55/39/55 56/39/56 54/38/54 
f 55/39/55 41/31/41 44/31/44 56/39/56 
f 27/32/27 42/32/42 41/31/41 28/31/28 
f 30/34/30 45/34/45 42/33/42 27/33/27 
f 32/35/32 47/35/47 45/34/45 30/34/30 
f 34/36/34 49/36/49 47/35/47 32/35/32 
f 36/37/36 51/37/51 49/36/49 34/36/34 
f 38/38/38 53/38/53 51/37/51 36/37/36 
f 40/39/40 55/39/55 53/38/53 38/38/38 
f 28/31/28 41/31/41 55/39/55 40/39/40 
f 57/40/57 26/32/26 25/31/25 58/41/58 
f 59/42/59 29/34/29 26/33/26 57/43/57 
f 60/44/60 31/35/31 29/34/29 59/42/59 
f 61/45/61 33/36/33 31/35/31 60/44/60 
f 62/46/62 35/37/35 33/36/33 61/45/61 
f 63/47/63 37/38/37 35/37/35 62/46/62 
f 64/48/64 39/39/39 37/38/37 63/47/63 
f 58/41/58 25/31/25 39/39/39 64/48/64 
f 57/40/57 58/41/58 7/7/7 6/6/6 
f 59/42/59 57/43/57 6/11/6 10/10/10 
f 60/44/60 59/42/59 10/10/10 12/14/12 
f 61/45/61 60/44/60 12/14/12 14/16/14 
f 62/46/62 61/45/61 14/16/14 16/18/16 
f 63/47/63 62/46/62 16/18/16 18/20/18 
f 64/48/64 63/47/63 18/20/18 20/22/20 
f 58/41/58 64/48/64 20/22/20 7/7/7 
f 65/49/65 66/50/66 67/27/67 68/28/68 
f 69/7/69 70/6/70 71/5/71 72/8/72 
f 70/11/70 73/10/73 74/9/74 71/12/71 
f 73/10/73 75/14/75 76/13/76 74/9/74 
f 75/14/75 77/16/77 78/15/78 76/13/76 
f 77/16/77 79/18/79 80/17/80 78/15/78 
f 79/18/79 81/20/81 82/19/82 80/17/80 
f 81/20/81 83/22/83 84/21/84 82/19/82 
f 83/22/83 69/7/69 72/8/72 84/21/84 
f 72/8/72 71/5/71 66/23/66 65/24/65 
f 71/12/71 74/9/74 85/25/85 66/26/66 
f 74/9/74 76/13/76 86/4/86 85/1/85 
f 76/13/76 78/15/78 87/3/87 86/4/86 
f 78/15/78 80/17/80 88/2/88 87/3/87 
f 80/17/80 82/19/82 67/27/67 88/2/88 
f 82/19/82 84/21/84 68/28/68 67/27/67 
f 84/21/84 72/8/72 65/29/65 68/30/68 
f 89/32/89 90/32/90 91/31/91 92/31/92 
f 93/34/93 94/34/94 90/33/90 89/33/89 
f 95/35/95 96/35/96 94/34/94 93/34/93 
f 97/36/97 98/36/98 96/35/96 95/35/95 
f 99/37/99 100/37/100 98/36/98 97/36/97 
f 101/38/101 102/38/102 100/37/100 99/37/99 
f 103/39/103 104/39/104 102/38/102 101/38/101 
f 92/31/92 91/31/91 104/39/104 103/39/103 
f 105/31/105 106/32/106 89/32/89 92/31/92 
f 106/33/106 107/34/107 93/34/93 89/33/89 
f 107/34/107 108/35/108 95/35/95 93/34/93 
f 108/35/108 109/36/109 97/36/97 95/35/95 
f 109/36/109 110/37/110 99/37/99 97/36/97 
f 110/37/110 111/38/111 101/38/101 99/37/99 
f 111/38/111 112/39/112 103/39/103 101/38/101 
f 112/39/112 105/31/105 92/31/92 103/39/103 
f 91/31/91 90/32/90 113/40/113 114/41/114 
f 90/33/90 94/34/94 115/42/115 113/43/113 
f 94/34/94 96/35/96 116/44/116 115/42/115 
f 96/35/96 98/36/98 117/45/117 116/44/116 
f 98/36/98 100/37/100 118/46/118 117/45/117 
f 100/37/100 102/38/102 119/47/119 118/46/118 
f 102/38/102 104/39/104 120/48/120 119/47/119 
f 104/39/104 91/31/91 114/41/114 120/48/120 
f 69/7/69 114/41/114 113/40/113 70/6/70 
f 70/11/70 113/43/113 115/42/115 73/10/73 
f 73/10/73 115/42/115 116/44/116 75/14/75 
f 75/14/75 116/44/116 117/45/117 77/16/77 
f 77/16/77 117/45/117 118/46/118 79/18/79 
f 79/18/79 118/46/118 119/47/119 81/20/81 
f 81/20/81 119/47/119 120/48/120 83/22/83 
f 83/22/83 120/48/120 114/41/114 69/7/69 
f 121/31/121 122/32/122 123/32/123 124/31/124 
f 122/33/122 125/34/125 126/34/126 123/33/123 
f 125/34/125 127/35/127 128/35/128 126/34/126 
f 127/35/127 129/36/129 130/36/130 128/35/128 
f 129/36/129 131/37/131 132/37/132 130/36/130 
f 131/37/131 133/38/133 134/38/134 132/37/132 
f 133/38/133 135/39/135 136/39/136 134/38/134 
f 135/39/135 121/31/121 124/31/124 136/39/136 
f 137/32/137 122/32/122 121/31/121 138/31/138 
f 139/34/139 125/34/125 122/33/122 137/33/137 
f 140/35/140 127/35/127 125/34/125 139/34/139 
f 141/36/141 129/36/129 127/35/127 140/35/140 
f 142/37/142 131/37/131 129/36/129 141/36/141 
f 143/38/143 133/38/133 131/37/131 142/37/142 
f 144/39/144 135/39/135 133/38/133 143/38/143 
f 138/31/138 121/31/121 135/39/135 144/39/144 
f 106/32/106 105/31/105 124/31/124 123/32/123 
f 105/31/105 112/39/112 136/39/136 124/31/124 
f 112/39/112 111/38/111 134/38/134 136/39/136 
f 111/38/111 110/37/110 132/37/132 134/38/134 
f 110/37/110 109/36/109 130/36/130 132/37/132 
f 109/36/109 108/35/108 128/35/128 130/36/130 
f 108/35/108 107/34/107 126/34/126 128/35/128 
f 107/34/107 106/33/106 123/33/123 126/34/126 
f 44/31/44 43/32/43 137/32/137 138/31/138 
f 43/33/43 46/34/46 139/34/139 137/33/137 
f 46/34/46 48/35/48 140/35/140 139/34/139 
f 48/35/48 50/36/50 141/36/141 140/35/140 
f 50/36/50 52/37/52 142/37/142 141/36/141 
f 52/37/52 54/38/54 143/38/143 142/37/142 
f 54/38/54 56/39/56 144/39/144 143/38/143 
f 56/39/56 44/31/44 138/31/138 144/39/144 
f 21/50/21 22/49/22 24/28/24 23/27/23 
f 1/1/1 21/50/21 23/27/23 2/2/2 
f 66/50/66 85/1/85 88/2/88 67/27/67 
f 85/1/85 86/4/86 87/3/87 88/2/88 
# 142 polygons

