# 3ds Max Wavefront OBJ Exporter v0.97b - (c)2007 guruware
# File Created: 31.01.2021 16:51:54

#
# object Grass_Blade_1
#

v  -0.0154 -0.0174 -0.5254
v  -0.0284 -0.0000 0.0015
v  0.0284 -0.0000 0.0015
v  0.0154 -0.0174 -0.5254
v  -0.0066 -0.0678 -0.7411
v  0.0066 -0.0866 -0.7918
# 6 vertices

vn 0.0000 0.9917 -0.1288
vn 0.0000 0.9995 -0.0331
vn 0.0000 0.9900 -0.1411
vn 0.5243 0.8337 -0.1732
vn 0.3449 0.9057 -0.2465
# 5 vertex normals

vt 0.6995 0.5642 0.0000
vt 0.6331 0.5658 0.0000
vt 0.6331 0.5587 0.0000
vt 0.6995 0.5603 0.0000
vt 0.7266 0.5631 0.0000
vt 0.7330 0.5614 0.0000
# 6 texture coords

o Grass_Blade_1
g Grass_Blade_1
s 1
f 1/1/1 2/2/2 3/3/2 4/4/3 
f 5/5/4 1/1/1 4/4/3 6/6/5 
# 2 polygons

