# 3ds Max Wavefront OBJ Exporter v0.97b - (c)2007 guruware
# File Created: 31.01.2021 16:53:17

#
# object Leaf_1
#

v  0.0531 -0.0000 -0.0970
v  0.1709 -0.0000 -0.2880
v  0.0000 -0.0000 -0.2983
v  0.0000 -0.0000 -0.0970
v  -0.2120 -0.0000 -0.4590
v  -0.1733 -0.0000 -0.2980
v  -0.0578 -0.0000 -0.3010
v  0.0000 -0.0000 -0.4590
v  0.2120 -0.0000 -0.4590
v  -0.2121 -0.0000 -0.6299
v  0.0000 -0.0000 -0.6299
v  0.2121 -0.0000 -0.6196
v  0.1101 -0.0000 -0.6299
v  -0.1531 -0.0000 -0.8008
v  0.0000 -0.0000 -0.9601
v  0.2186 -0.0000 -0.6396
v  0.1531 -0.0000 -0.8008
v  0.0000 -0.0000 -0.0000
v  0.0171 -0.0000 -0.0000
v  -0.0531 -0.0000 -0.0970
v  -0.0171 -0.0000 -0.0000
v  -0.1655 -0.0000 -0.2793
# 22 vertices

vn 0.0000 1.0000 -0.0000
vn 0.0000 -1.0000 -0.0000
# 2 vertex normals

vt 0.6748 0.6042 0.0000
vt 0.6633 0.5839 0.0000
vt 0.6811 0.5835 0.0000
vt 0.6803 0.6044 0.0000
vt 0.7037 0.5675 0.0000
vt 0.6991 0.5841 0.0000
vt 0.6871 0.5834 0.0000
vt 0.6816 0.5668 0.0000
vt 0.6596 0.5660 0.0000
vt 0.7043 0.5498 0.0000
vt 0.6823 0.5490 0.0000
vt 0.6602 0.5493 0.0000
vt 0.6708 0.5486 0.0000
vt 0.6988 0.5318 0.0000
vt 0.6835 0.5146 0.0000
vt 0.6596 0.5472 0.0000
vt 0.6670 0.5307 0.0000
vt 0.6800 0.6145 0.0000
vt 0.6782 0.6144 0.0000
vt 0.6859 0.6046 0.0000
vt 0.6818 0.6145 0.0000
vt 0.6982 0.5860 0.0000
# 22 texture coords

o Leaf_1
g Leaf_1
s 1
f 1/1/1 2/2/1 3/3/1 4/4/1 
f 5/5/1 6/6/1 7/7/2 3/3/1 8/8/1 
f 8/8/1 3/3/1 2/2/1 9/9/1 
f 10/10/1 5/5/1 8/8/1 11/11/1 
f 11/11/1 8/8/1 9/9/1 12/12/1 13/13/1 
f 14/14/1 10/10/1 11/11/1 15/15/1 
f 15/15/1 11/11/1 13/13/1 16/16/1 17/17/1 
s off
f 1/1/1 4/4/1 18/18/1 19/19/1 
f 4/4/1 20/20/1 21/21/1 18/18/1 
s 1
f 3/3/1 7/7/2 22/22/1 20/20/1 4/4/1 
# 10 polygons

