# 3ds Max Wavefront OBJ Exporter v0.97b - (c)2007 guruware
# File Created: 31.01.2021 16:50:17

#
# object Leaf_Round_1
#

v  0.6099 0.2233 -0.1378
v  0.3906 0.2028 -0.4292
v  0.2051 0.2155 -0.2895
v  0.3321 0.2526 -0.0906
v  0.1078 0.2178 -0.5420
v  0.0799 0.2226 -0.3556
v  -0.0850 0.2194 -0.4501
v  -0.0632 0.2071 -0.2884
v  -0.2342 0.2540 -0.4948
v  -0.1836 0.2465 -0.3324
v  -0.5130 0.2765 -0.3073
v  -0.3107 0.2511 -0.2116
v  -0.6698 0.2164 0.0484
v  -0.3939 0.2486 0.0240
v  -0.5019 0.1903 0.4975
v  -0.2703 0.2910 0.2435
v  -0.1062 0.2363 0.7080
v  -0.0611 0.3383 0.3611
v  0.2917 0.2191 0.6570
v  0.1430 0.3560 0.3349
v  0.5877 0.2620 0.3127
v  0.2985 0.3235 0.1595
v  -0.0107 0.0778 -0.0797
# 23 vertices

vn 0.0868 0.9908 -0.1035
vn 0.0290 0.9982 -0.0522
vn -0.1339 0.9884 0.0722
vn -0.1484 0.9668 -0.2079
vn 0.0327 0.9992 -0.0210
vn -0.0438 0.9886 0.1439
vn 0.1305 0.9898 0.0577
vn 0.1141 0.9298 0.3501
vn 0.1539 0.9881 -0.0024
vn 0.2334 0.9652 0.1182
vn 0.0654 0.9900 0.1252
vn 0.2326 0.9627 0.1383
vn -0.1056 0.9885 0.1079
vn 0.0634 0.9929 -0.1003
vn -0.2298 0.9582 0.1702
vn -0.1215 0.9813 -0.1495
vn -0.0767 0.9592 0.2721
vn -0.1423 0.9878 -0.0629
vn 0.1456 0.9329 0.3293
vn 0.0336 0.9994 -0.0125
vn 0.1666 0.9828 0.0797
vn 0.0017 0.9708 -0.2400
vn -0.0181 0.9996 -0.0222
# 23 vertex normals

vt 0.7082 0.5408 0.0000
vt 0.7197 0.5615 0.0000
vt 0.7065 0.5688 0.0000
vt 0.6981 0.5561 0.0000
vt 0.7189 0.5812 0.0000
vt 0.7071 0.5780 0.0000
vt 0.7084 0.5902 0.0000
vt 0.6994 0.5847 0.0000
vt 0.7071 0.6003 0.0000
vt 0.6988 0.5930 0.0000
vt 0.6886 0.6118 0.0000
vt 0.6883 0.5973 0.0000
vt 0.6634 0.6117 0.0000
vt 0.6721 0.5960 0.0000
vt 0.6412 0.5899 0.0000
vt 0.6624 0.5829 0.0000
vt 0.6392 0.5610 0.0000
vt 0.6609 0.5674 0.0000
vt 0.6527 0.5387 0.0000
vt 0.6679 0.5560 0.0000
vt 0.6809 0.5303 0.0000
vt 0.6824 0.5515 0.0000
vt 0.7020 0.5606 0.0000
vt 0.6839 0.5678 0.0000
vt 0.6936 0.5478 0.0000
vt 0.7026 0.5698 0.0000
vt 0.6949 0.5765 0.0000
vt 0.6943 0.5848 0.0000
vt 0.6838 0.5891 0.0000
vt 0.6676 0.5878 0.0000
vt 0.6579 0.5747 0.0000
vt 0.6564 0.5592 0.0000
vt 0.6634 0.5478 0.0000
vt 0.6779 0.5432 0.0000
# 34 texture coords

o Leaf_Round_1
g Leaf_Round_1
s 1
f 1/1/1 2/2/2 3/3/3 4/4/4 
f 2/2/2 5/5/5 6/6/6 3/3/3 
f 5/5/5 7/7/7 8/8/8 6/6/6 
f 7/7/7 9/9/9 10/10/10 8/8/8 
f 9/9/9 11/11/11 12/12/12 10/10/10 
f 11/11/11 13/13/13 14/14/14 12/12/12 
f 13/13/13 15/15/15 16/16/16 14/14/14 
f 15/15/15 17/17/17 18/18/18 16/16/16 
f 17/17/17 19/19/19 20/20/20 18/18/18 
f 19/19/19 21/21/21 22/22/22 20/20/20 
f 21/21/21 1/1/1 4/4/4 22/22/22 
f 3/23/3 23/24/23 4/25/4 
f 6/26/6 23/24/23 3/23/3 
f 8/27/8 23/24/23 6/26/6 
f 10/28/10 23/24/23 8/27/8 
f 12/29/12 23/24/23 10/28/10 
f 14/30/14 23/24/23 12/29/12 
f 16/31/16 23/24/23 14/30/14 
f 18/32/18 23/24/23 16/31/16 
f 20/33/20 23/24/23 18/32/18 
f 22/34/22 23/24/23 20/33/20 
f 4/25/4 23/24/23 22/34/22 
# 11 polygons - 11 triangles

