# 3ds Max Wavefront OBJ Exporter v0.97b - (c)2007 guruware
# File Created: 31.01.2021 16:50:23

#
# object Leaf_Round_4
#

v  0.4417 0.1697 -0.4234
v  0.0647 0.1479 -0.5965
v  0.0738 0.2201 -0.3862
v  0.2410 0.2209 -0.2523
v  -0.0430 0.1874 -0.4654
v  -0.0389 0.1823 -0.3063
v  -0.1635 0.1471 -0.5697
v  -0.1505 0.2166 -0.3601
v  -0.4803 0.1912 -0.3160
v  -0.2810 0.2113 -0.1951
v  -0.5539 0.1741 -0.2540
v  -0.5986 0.1506 0.0649
v  -0.3100 0.1833 0.0364
v  -0.4211 0.1145 0.4394
v  -0.2117 0.1809 0.2168
v  -0.0819 0.1625 0.4429
v  -0.0547 0.1737 0.2966
v  0.2270 0.0971 0.5323
v  0.1142 0.1623 0.2671
v  0.5042 0.1194 0.2738
v  0.2494 0.1652 0.1313
v  0.6020 0.1276 -0.1384
v  0.2919 0.1863 -0.0591
v  -0.0049 -0.0324 0.0079
v  -0.1238 0.0904 0.5914
v  -0.0877 0.0902 0.5942
# 26 vertices

vn 0.1614 0.9814 -0.1043
vn 0.0406 0.9445 -0.3261
vn -0.1328 0.9893 -0.0600
vn -0.0450 0.9874 0.1514
vn 0.0200 0.9993 0.0317
vn 0.0367 0.9131 0.4060
vn -0.0844 0.9473 -0.3090
vn 0.0751 0.9943 -0.0757
vn 0.0025 0.9858 -0.1680
vn 0.1660 0.9735 0.1572
vn -0.1458 0.9879 0.0524
vn -0.1026 0.9898 0.0985
vn 0.1866 0.9817 0.0387
vn -0.1389 0.9678 0.2101
vn 0.1091 0.9913 -0.0731
vn -0.0061 0.9737 0.2280
vn 0.0866 0.9786 -0.1865
vn 0.1141 0.9649 0.2366
vn -0.0232 0.9936 -0.1108
vn 0.1143 0.9870 0.1127
vn -0.1733 0.9847 -0.0187
vn 0.1981 0.9789 0.0500
vn -0.1308 0.9790 0.1563
vn 0.0022 0.9999 -0.0161
vn -0.1324 0.9058 0.4025
vn 0.0653 0.8994 0.4322
# 26 vertex normals

vt 0.6155 0.5780 0.0000
vt 0.5962 0.6048 0.0000
vt 0.5885 0.5899 0.0000
vt 0.5948 0.5740 0.0000
vt 0.5836 0.6000 0.0000
vt 0.5776 0.5888 0.0000
vt 0.5794 0.6120 0.0000
vt 0.5720 0.5970 0.0000
vt 0.5474 0.6069 0.0000
vt 0.5565 0.5907 0.0000
vt 0.5399 0.6055 0.0000
vt 0.5242 0.5852 0.0000
vt 0.5453 0.5758 0.0000
vt 0.5217 0.5523 0.0000
vt 0.5450 0.5594 0.0000
vt 0.5451 0.5387 0.0000
vt 0.5527 0.5477 0.0000
vt 0.5629 0.5203 0.0000
vt 0.5656 0.5431 0.0000
vt 0.5923 0.5272 0.0000
vt 0.5803 0.5472 0.0000
vt 0.6153 0.5519 0.0000
vt 0.5907 0.5587 0.0000
vt 0.5826 0.5930 0.0000
vt 0.5616 0.5688 0.0000
vt 0.5889 0.5771 0.0000
vt 0.5717 0.5919 0.0000
vt 0.5661 0.6000 0.0000
vt 0.5505 0.5938 0.0000
vt 0.5394 0.5789 0.0000
vt 0.5391 0.5625 0.0000
vt 0.5468 0.5508 0.0000
vt 0.5597 0.5462 0.0000
vt 0.5744 0.5502 0.0000
vt 0.5848 0.5617 0.0000
vt 0.5363 0.5300 0.0000
vt 0.5387 0.5284 0.0000
# 37 texture coords

o Leaf_Round_4
g Leaf_Round_4
s 1
f 1/1/1 2/2/2 3/3/3 4/4/4 
f 2/2/2 5/5/5 6/6/6 3/3/3 
f 5/5/5 7/7/7 8/8/8 6/6/6 
f 7/7/7 9/9/9 10/10/10 8/8/8 
f 10/10/10 11/11/11 12/12/12 13/13/13 
f 12/12/12 14/14/14 15/15/15 13/13/13 
f 14/14/14 16/16/16 17/17/17 15/15/15 
f 16/16/16 18/18/18 19/19/19 17/17/17 
f 18/18/18 20/20/20 21/21/21 19/19/19 
f 20/20/20 22/22/22 23/23/23 21/21/21 
f 22/22/22 1/1/1 4/4/4 23/23/23 
f 3/24/3 24/25/24 4/26/4 
f 6/27/6 24/25/24 3/24/3 
f 8/28/8 24/25/24 6/27/6 
f 10/29/10 24/25/24 8/28/8 
f 13/30/13 24/25/24 10/29/10 
f 15/31/15 24/25/24 13/30/13 
f 17/32/17 24/25/24 15/31/15 
f 19/33/19 24/25/24 17/32/17 
f 21/34/21 24/25/24 19/33/19 
f 23/35/23 24/25/24 21/34/21 
f 4/26/4 24/25/24 23/35/23 
f 14/14/14 25/36/25 16/16/16 
f 16/16/16 26/37/26 18/18/18 
# 11 polygons - 13 triangles

