# 3ds Max Wavefront OBJ Exporter v0.97b - (c)2007 guruware
# File Created: 31.01.2021 16:14:18

#
# object Metal_Corrugated_1
#

v  1.6342 0.0000 -2.4513
v  1.4299 -0.0907 -2.4513
v  1.4299 -0.0907 -0.0000
v  1.6342 0.0000 0.0000
v  0.4085 0.0000 -2.4513
v  0.2043 -0.0907 -2.4513
v  0.2043 -0.0907 -0.0000
v  0.4085 0.0000 -0.0000
v  0.8171 0.0000 -2.4513
v  0.6128 -0.0907 -2.4513
v  0.6128 -0.0907 -0.0000
v  0.8171 0.0000 -0.0000
v  1.2256 0.0000 -2.4513
v  1.0214 -0.0907 -2.4513
v  1.0214 -0.0907 -0.0000
v  1.2256 0.0000 -0.0000
v  2.0427 0.0000 0.0000
v  2.2470 -0.0907 0.0000
v  2.2470 -0.0907 -2.4513
v  2.0427 0.0000 -2.4513
v  1.8384 -0.0907 0.0000
v  1.8384 -0.0907 -2.4513
v  0.0000 0.0000 -2.4513
v  -0.0000 0.0000 -0.0000
v  2.4512 0.0000 0.0000
v  2.4513 0.0000 -2.4512
# 26 vertices

vn 0.0001 1.0000 0.0000
vn -0.0001 1.0000 -0.0000
vn 0.0000 1.0000 -0.0000
vn -0.0000 1.0000 -0.0000
vn 0.0000 1.0000 0.0000
vn 0.4057 0.9140 0.0000
vn -0.4057 0.9140 -0.0000
# 7 vertex normals

vt 0.9008 0.5790 0.0000
vt 0.9008 0.5727 0.0000
vt 0.9694 0.5727 0.0000
vt 0.9694 0.5790 0.0000
vt 0.9008 0.5414 0.0000
vt 0.9008 0.5352 0.0000
vt 0.9694 0.5352 0.0000
vt 0.9694 0.5414 0.0000
vt 0.9008 0.5540 0.0000
vt 0.9008 0.5477 0.0000
vt 0.9694 0.5477 0.0000
vt 0.9694 0.5540 0.0000
vt 0.9008 0.5665 0.0000
vt 0.9008 0.5602 0.0000
vt 0.9694 0.5602 0.0000
vt 0.9694 0.5665 0.0000
vt 0.9694 0.5915 0.0000
vt 0.9694 0.5978 0.0000
vt 0.9008 0.5978 0.0000
vt 0.9008 0.5915 0.0000
vt 0.9694 0.5853 0.0000
vt 0.9008 0.5853 0.0000
vt 0.9008 0.5289 0.0000
vt 0.9694 0.5289 0.0000
vt 0.9694 0.6041 0.0000
vt 0.9008 0.6041 0.0000
# 26 texture coords

o Metal_Corrugated_1
g Metal_Corrugated_1
s 1
f 1/1/1 2/2/2 3/3/3 4/4/3 
f 5/5/4 6/6/5 7/7/4 8/8/4 
f 9/9/5 10/10/3 11/11/5 12/12/5 
f 13/13/1 14/14/4 15/15/3 16/16/2 
f 17/17/5 18/18/4 19/19/3 20/20/1 
s 2
f 4/4/3 21/21/5 22/22/2 1/1/1 
f 2/2/2 13/13/1 16/16/2 3/3/3 
f 6/6/5 23/23/6 24/24/6 7/7/4 
f 10/10/3 5/5/4 8/8/4 11/11/5 
f 14/14/4 9/9/5 12/12/5 15/15/3 
f 18/18/4 25/25/7 26/26/7 19/19/3 
s 4
f 21/21/5 17/17/5 20/20/1 22/22/2 
# 12 polygons

