# 3ds Max Wavefront OBJ Exporter v0.97b - (c)2007 guruware
# File Created: 31.01.2021 16:32:04

#
# object Milk_Carton_1
#

v  0.1379 1.9890 -0.3128
v  0.0163 1.9573 -0.3520
v  0.0163 2.0427 -0.4209
v  0.1379 2.0743 -0.3817
v  -0.1054 1.9890 -0.3128
v  -0.1054 2.0743 -0.3817
v  -0.1558 2.0654 -0.2182
v  -0.1558 2.1507 -0.2871
v  -0.1054 2.1418 -0.1235
v  -0.1054 2.2271 -0.1924
v  0.0163 2.1735 -0.0843
v  0.0163 2.2588 -0.1532
v  0.1379 2.1418 -0.1235
v  0.1379 2.2271 -0.1924
v  0.1883 2.0654 -0.2182
v  0.1883 2.1507 -0.2871
v  0.1768 2.1560 -0.2974
v  -0.0939 2.0855 -0.3847
v  -0.1443 2.1619 -0.2900
v  0.1264 2.2324 -0.2028
v  0.1284 2.0885 -0.3810
v  0.0163 2.0593 -0.4171
v  -0.0959 2.2294 -0.2065
v  0.0163 2.2586 -0.1703
v  -0.4985 0.0024 0.5336
v  -0.4985 0.0024 -0.4633
v  0.4985 0.0024 -0.4633
v  0.4985 0.0024 0.5336
v  0.4985 0.6277 0.5336
v  0.4985 1.2530 0.5336
v  -0.4985 1.2530 0.5336
v  -0.4985 0.6277 0.5336
v  0.4985 0.6277 -0.4633
v  0.4985 1.2530 -0.4633
v  -0.4985 0.6277 -0.4633
v  -0.4985 1.2530 -0.4633
v  -0.4985 1.8783 0.5336
v  0.4985 1.8783 0.5336
v  0.4985 2.2686 0.0519
v  -0.4985 2.2686 0.0519
v  0.4985 1.8783 -0.4633
v  -0.4985 1.8783 -0.4633
v  -0.4985 2.2686 0.0184
v  0.4985 2.2686 0.0184
v  -0.4985 2.3812 0.0184
v  -0.4985 2.3812 0.0519
v  0.4985 2.3812 0.0519
v  0.4985 2.3812 0.0184
v  0.3519 2.1296 0.0348
v  -0.3519 2.1296 0.0348
# 50 vertices

vn 0.7071 -0.4442 -0.5502
vn -0.0000 -0.6282 -0.7781
vn 0.0000 -0.2659 -0.9640
vn 0.6485 -0.0972 -0.7550
vn -0.7071 -0.4442 -0.5502
vn -0.6696 -0.1135 -0.7340
vn -1.0000 0.0001 0.0001
vn -0.9278 0.2778 -0.2491
vn -0.7071 0.4442 0.5502
vn -0.6485 0.7175 0.2541
vn 0.0000 0.6282 0.7781
vn 0.0000 0.8863 0.4631
vn 0.7071 0.4442 0.5502
vn 0.6697 0.6935 0.2657
vn 1.0000 0.0000 0.0000
vn 0.9278 0.3020 -0.2191
vn 0.4534 0.6576 -0.6017
vn -0.2816 0.4664 -0.8386
vn -0.4534 0.7268 -0.5160
vn 0.2816 0.9180 -0.2791
vn 0.2738 0.5361 -0.7985
vn 0.0076 0.4668 -0.8843
vn -0.2738 0.8936 -0.3557
vn -0.0076 0.9629 -0.2699
vn -0.5774 -0.5774 0.5774
vn -0.5774 -0.5774 -0.5774
vn 0.5774 -0.5774 -0.5774
vn 0.5774 -0.5774 0.5774
vn 0.7071 -0.0000 0.7071
vn 0.7071 0.0000 0.7071
vn -0.7071 0.0000 0.7071
vn 0.7071 -0.0000 -0.7071
vn 0.7071 0.0000 -0.7071
vn -0.7071 0.0000 -0.7071
vn -0.6351 0.3651 0.6807
vn 0.6352 0.3650 0.6807
vn 0.8518 -0.1477 0.5026
vn -0.8518 -0.1477 0.5026
vn 0.6352 0.3650 -0.6807
vn -0.6352 0.3650 -0.6807
vn -0.8516 -0.1482 -0.5028
vn 0.8516 -0.1482 -0.5028
vn -0.5774 0.5774 -0.5773
vn -0.5773 0.5774 0.5774
vn 0.5774 0.5774 0.5774
vn 0.5774 0.5774 -0.5774
vn 0.9681 -0.2504 0.0006
vn -0.9681 -0.2504 0.0006
# 48 vertex normals

vt 0.6702 0.1704 0.0000
vt 0.6702 0.1808 0.0000
vt 0.6593 0.1808 0.0000
vt 0.6593 0.1704 0.0000
vt 0.7001 0.1969 0.0000
vt 0.7105 0.1969 0.0000
vt 0.7105 0.2078 0.0000
vt 0.7001 0.2078 0.0000
vt 0.7209 0.1969 0.0000
vt 0.7209 0.2078 0.0000
vt 0.7209 0.1952 0.0000
vt 0.7105 0.1952 0.0000
vt 0.7105 0.1843 0.0000
vt 0.7209 0.1843 0.0000
vt 0.7001 0.1952 0.0000
vt 0.7001 0.1843 0.0000
vt 0.7001 0.2091 0.0000
vt 0.7105 0.2091 0.0000
vt 0.7105 0.2200 0.0000
vt 0.7001 0.2200 0.0000
vt 0.7209 0.2091 0.0000
vt 0.7209 0.2200 0.0000
vt 0.6702 0.1600 0.0000
vt 0.6593 0.1600 0.0000
vt 0.6960 0.1994 0.0000
vt 0.6785 0.2173 0.0000
vt 0.6705 0.2094 0.0000
vt 0.6880 0.1916 0.0000
vt 0.6958 0.2095 0.0000
vt 0.6885 0.2169 0.0000
vt 0.6707 0.1994 0.0000
vt 0.6779 0.1920 0.0000
vt 0.6890 0.2179 0.0000
vt 0.6968 0.2099 0.0000
vt 0.6749 0.1713 0.0000
vt 0.6736 0.1705 0.0000
vt 0.6735 0.1605 0.0000
vt 0.6750 0.1600 0.0000
vt 0.6697 0.2102 0.0000
vt 0.6777 0.2180 0.0000
vt 0.7105 0.1832 0.0000
vt 0.7199 0.1832 0.0000
vt 0.6775 0.1909 0.0000
vt 0.6696 0.1989 0.0000
vt 0.6596 0.1926 0.0000
vt 0.6583 0.1919 0.0000
vt 0.6582 0.1818 0.0000
vt 0.6597 0.1814 0.0000
vt 0.6967 0.1987 0.0000
vt 0.6887 0.1908 0.0000
vt 0.6582 0.1704 0.0000
vt 0.6582 0.1610 0.0000
vt 0.7018 0.0701 0.0000
vt 0.7203 0.0691 0.0000
vt 0.7216 0.0929 0.0000
vt 0.7031 0.0939 0.0000
vt 0.5856 0.0428 0.0000
vt 0.5673 0.0428 0.0000
vt 0.5673 0.0164 0.0000
vt 0.5856 0.0164 0.0000
vt 0.5460 0.0821 0.0000
vt 0.5617 0.0764 0.0000
vt 0.5587 0.1004 0.0000
vt 0.5430 0.1061 0.0000
vt 0.5856 0.0702 0.0000
vt 0.5673 0.0702 0.0000
vt 0.5673 0.0438 0.0000
vt 0.5856 0.0438 0.0000
vt 0.5273 0.0638 0.0000
vt 0.5273 0.0470 0.0000
vt 0.5488 0.0360 0.0000
vt 0.5489 0.0527 0.0000
vt 0.5907 0.0899 0.0000
vt 0.5907 0.1136 0.0000
vt 0.5735 0.1136 0.0000
vt 0.5735 0.0899 0.0000
vt 0.5790 0.0641 0.0000
vt 0.5778 0.0404 0.0000
vt 0.5926 0.0396 0.0000
vt 0.5938 0.0633 0.0000
vt 0.6929 0.0404 0.0000
vt 0.6929 0.0393 0.0000
vt 0.7352 0.0385 0.0000
vt 0.7352 0.0396 0.0000
vt 0.6680 0.0383 0.0000
vt 0.6680 0.0806 0.0000
vt 0.6628 0.0806 0.0000
vt 0.6628 0.0383 0.0000
vt 0.6867 0.0420 0.0000
vt 0.6873 0.0432 0.0000
vt 0.6825 0.0432 0.0000
vt 0.6819 0.0420 0.0000
vt 0.6620 0.0399 0.0000
vt 0.6620 0.0821 0.0000
vt 0.6567 0.0821 0.0000
vt 0.6567 0.0399 0.0000
vt 0.6808 0.0500 0.0000
vt 0.6797 0.0507 0.0000
vt 0.6755 0.0483 0.0000
vt 0.6766 0.0476 0.0000
vt 0.5849 0.0857 0.0000
vt 0.5846 0.0639 0.0000
vt 0.5921 0.0734 0.0000
vt 0.6722 0.0762 0.0000
vt 0.6717 0.0499 0.0000
vt 0.6780 0.0529 0.0000
vt 0.6851 0.0578 0.0000
vt 0.7110 0.0482 0.0000
vt 0.5278 0.0422 0.0000
vt 0.5084 0.0521 0.0000
vt 0.5158 0.0400 0.0000
vt 0.6805 0.0614 0.0000
vt 0.7105 0.0653 0.0000
vt 0.7057 0.0727 0.0000
vt 0.7115 0.0661 0.0000
vt 0.7146 0.0627 0.0000
vt 0.7408 0.0622 0.0000
vt 0.7178 0.0688 0.0000
vt 0.6928 0.0439 0.0000
vt 0.6763 0.0439 0.0000
vt 0.6763 0.0202 0.0000
vt 0.6928 0.0202 0.0000
vt 0.7092 0.0202 0.0000
vt 0.7257 0.0202 0.0000
vt 0.7257 0.0439 0.0000
vt 0.7092 0.0439 0.0000
vt 0.6877 0.0743 0.0000
vt 0.7019 0.0691 0.0000
vt 0.6992 0.0908 0.0000
vt 0.6850 0.0959 0.0000
vt 0.6709 0.1011 0.0000
vt 0.6567 0.1062 0.0000
vt 0.6594 0.0846 0.0000
vt 0.6736 0.0794 0.0000
vt 0.6928 0.0686 0.0000
vt 0.6763 0.0686 0.0000
vt 0.6763 0.0449 0.0000
vt 0.6928 0.0449 0.0000
vt 0.7092 0.0449 0.0000
vt 0.7257 0.0449 0.0000
vt 0.7257 0.0686 0.0000
vt 0.7092 0.0686 0.0000
vt 0.6567 0.0478 0.0000
vt 0.6567 0.0327 0.0000
vt 0.6761 0.0228 0.0000
vt 0.6761 0.0378 0.0000
vt 0.6761 0.0529 0.0000
vt 0.6761 0.0680 0.0000
vt 0.6567 0.0779 0.0000
vt 0.6567 0.0629 0.0000
# 150 texture coords

o Milk_Carton_1
g Milk_Carton_1
s 2
f 1/1/1 2/2/2 3/3/3 4/4/4 
s 4
f 2/5/2 5/6/5 6/7/6 3/8/3 
s 2
f 5/6/5 7/9/7 8/10/8 6/7/6 
s 4
f 7/11/7 9/12/9 10/13/10 8/14/8 
s 2
f 9/12/9 11/15/11 12/16/12 10/13/10 
s 4
f 11/17/11 13/18/13 14/19/14 12/20/12 
s 2
f 13/18/13 15/21/15 16/22/16 14/19/14 
s 4
f 15/23/15 1/1/1 4/4/4 16/24/16 
s 1
f 17/25/17 18/26/18 19/27/19 20/28/20 
f 17/25/17 21/29/21 22/30/22 18/26/18 
f 19/27/19 23/31/23 24/32/24 20/28/20 
s 8
f 3/33/3 22/30/22 21/29/21 4/34/4 
s 16
f 6/35/6 18/36/18 22/37/22 3/38/3 
s 8
f 8/39/8 19/27/19 18/26/18 6/40/6 
s 16
f 10/13/10 23/41/23 19/42/19 8/14/8 
s 8
f 12/43/12 24/32/24 23/31/23 10/44/10 
s 16
f 14/45/14 20/46/20 24/47/24 12/48/12 
s 8
f 16/49/16 17/25/17 20/28/20 14/50/14 
s 16
f 4/4/4 21/51/21 17/52/17 16/24/16 
s 1
f 25/53/25 26/54/26 27/55/27 28/56/28 
s 2
f 29/57/29 30/58/30 31/59/31 32/60/31 
s 4
f 33/61/32 34/62/33 30/63/30 29/64/29 
s 2
f 35/65/34 36/66/34 34/67/33 33/68/32 
s 4
f 32/69/31 31/70/31 36/71/34 35/72/34 
s 1
f 37/73/35 38/74/36 39/75/37 40/76/38 
f 41/77/39 42/78/40 43/79/41 44/80/42 
f 45/81/43 46/82/44 47/83/45 48/84/46 
s 2
f 44/85/42 43/86/41 45/87/43 48/88/46 
s 4
f 43/89/41 40/90/38 46/91/44 45/92/43 
s 2
f 40/93/38 39/94/37 47/95/45 46/96/44 
s 4
f 39/97/37 44/98/42 48/99/46 47/100/45 
f 38/101/36 41/102/39 49/103/47 
s 8
f 41/104/39 44/105/42 49/106/47 
f 44/98/42 39/97/37 49/107/47 
f 39/97/37 38/108/36 49/107/47 
s 4
f 42/109/40 37/110/35 50/111/48 
s 8
f 37/112/35 40/113/38 50/114/48 
f 40/113/38 43/115/41 50/114/48 
f 43/116/41 42/117/40 50/118/48 
s 2
f 30/119/30 38/120/36 37/121/35 31/122/31 
f 32/123/31 25/124/25 28/125/28 29/126/29 
s 4
f 34/127/33 41/128/39 38/129/36 30/130/30 
f 29/131/29 28/132/28 27/133/27 33/134/32 
s 2
f 36/135/34 42/136/40 41/137/39 34/138/33 
f 33/139/32 27/140/27 26/141/26 35/142/34 
s 4
f 31/143/31 37/144/35 42/145/40 36/146/34 
f 35/147/34 26/148/26 25/149/25 32/150/31 
# 39 polygons - 8 triangles

