# 3ds Max Wavefront OBJ Exporter v0.97b - (c)2007 guruware
# File Created: 31.01.2021 16:48:58

#
# object Mushroom_3
#

v  0.1203 0.0373 -0.0000
v  0.0238 0.0373 -0.1616
v  0.0153 0.4464 -0.1001
v  0.0813 0.4461 -0.0042
v  -0.1374 0.0373 -0.0999
v  -0.1044 0.4463 -0.0634
v  -0.1374 0.0373 0.0999
v  -0.1044 0.4460 0.0551
v  0.0238 0.0373 0.1616
v  0.0153 0.4459 0.0917
v  0.4321 0.6396 -0.0521
v  0.0958 0.6269 -0.3991
v  0.0837 0.7100 -0.4017
v  0.4143 0.7375 -0.0379
v  -0.3995 0.6477 -0.2295
v  -0.3847 0.7646 -0.2407
v  -0.3394 0.6326 0.3107
v  -0.3727 0.7656 0.3226
v  0.1931 0.6481 0.4204
v  0.1770 0.7700 0.4256
v  0.0412 0.9453 -0.1657
v  0.0571 0.9531 0.1601
v  0.1612 0.9347 -0.0085
v  0.0691 0.6600 -0.0104
v  -0.0017 0.6600 -0.0924
v  -0.1015 0.6600 -0.0467
v  -0.0892 0.6600 0.0636
v  0.0179 0.6600 0.0860
v  0.3402 0.8486 -0.0152
v  0.0928 0.8387 -0.3471
v  0.1326 0.9149 0.3213
v  -0.1373 0.9744 0.1071
v  -0.2820 0.9091 0.2360
v  -0.1470 0.9695 -0.0942
v  -0.3061 0.8987 -0.1918
v  0.0194 0.4390 -0.1266
v  0.1040 0.4389 -0.0135
v  -0.1299 0.4390 -0.0805
v  -0.1274 0.4390 0.0611
v  0.0235 0.4389 0.1025
v  0.0780 -0.0500 -0.0000
v  0.0103 -0.0500 -0.1134
v  -0.1027 -0.0500 -0.0701
v  -0.1027 -0.0500 0.0701
v  0.0103 -0.0500 0.1134
# 45 vertices

vn 0.9865 -0.1636 0.0017
vn 0.3130 -0.1646 -0.9354
vn 0.0872 -0.9286 -0.3607
vn 0.3259 -0.9396 -0.1043
vn -0.8061 -0.1646 -0.5684
vn -0.3185 -0.9221 -0.2196
vn -0.8051 -0.1590 0.5715
vn -0.3277 -0.9404 0.0908
vn 0.3123 -0.1558 0.9371
vn 0.2102 -0.9641 0.1622
vn 0.8300 -0.5361 -0.1540
vn 0.2158 -0.6372 -0.7399
vn 0.2005 0.1657 -0.9656
vn 0.9235 0.3638 -0.1217
vn -0.7219 -0.5668 -0.3969
vn -0.7604 0.2972 -0.5774
vn -0.5005 -0.7075 0.4990
vn -0.7568 0.1992 0.6225
vn 0.3932 -0.5859 0.7086
vn 0.3949 0.3034 0.8672
vn 0.1852 0.9273 -0.3252
vn 0.1578 0.9828 0.0962
vn 0.3392 0.9399 -0.0398
vn 0.5321 -0.8445 -0.0608
vn 0.0973 -0.8735 -0.4770
vn -0.4826 -0.8378 -0.2554
vn -0.3435 -0.8702 0.3531
vn 0.2151 -0.8657 0.4520
vn 0.7091 0.7033 -0.0511
vn 0.2998 0.5765 -0.7601
vn 0.2860 0.7980 0.5305
vn -0.1250 0.9817 0.1435
vn -0.4850 0.7837 0.3880
vn -0.1392 0.9714 -0.1923
vn -0.5387 0.7375 -0.4073
vn 0.2662 -0.6114 -0.7452
vn 0.7817 -0.6236 0.0033
vn -0.6433 -0.5899 -0.4881
vn -0.6245 -0.6296 0.4622
vn 0.2161 -0.7014 0.6792
vn 0.6370 -0.7708 -0.0000
vn 0.2172 -0.7755 -0.5928
vn -0.5319 -0.7723 -0.3473
vn -0.5319 -0.7723 0.3473
vn 0.2172 -0.7755 0.5928
# 45 vertex normals

vt 0.4181 0.8112 0.0000
vt 0.4282 0.8112 0.0000
vt 0.4243 0.8416 0.0000
vt 0.4184 0.8415 0.0000
vt 0.3983 0.8051 0.0000
vt 0.4084 0.8051 0.0000
vt 0.4063 0.8354 0.0000
vt 0.3988 0.8354 0.0000
vt 0.4329 0.8402 0.0000
vt 0.4329 0.8277 0.0000
vt 0.4632 0.8305 0.0000
vt 0.4632 0.8379 0.0000
vt 0.4410 0.7847 0.0000
vt 0.4511 0.7847 0.0000
vt 0.4506 0.8150 0.0000
vt 0.4431 0.8150 0.0000
vt 0.4080 0.8112 0.0000
vt 0.4124 0.8415 0.0000
vt 0.0422 0.2609 0.0000
vt 0.0639 0.2607 0.0000
vt 0.0639 0.2669 0.0000
vt 0.0411 0.2681 0.0000
vt 0.0818 0.3296 0.0000
vt 0.0509 0.3281 0.0000
vt 0.0519 0.3194 0.0000
vt 0.0811 0.3235 0.0000
vt 0.1111 0.3625 0.0000
vt 0.0774 0.3625 0.0000
vt 0.0770 0.3526 0.0000
vt 0.1121 0.3539 0.0000
vt 0.0734 0.3503 0.0000
vt 0.0402 0.3492 0.0000
vt 0.0412 0.3401 0.0000
vt 0.0755 0.3405 0.0000
vt 0.0128 0.2605 0.0000
vt 0.0121 0.2695 0.0000
vt 0.0684 0.2821 0.0000
vt 0.0887 0.2831 0.0000
vt 0.0782 0.2896 0.0000
vt 0.0695 0.9460 0.0000
vt 0.0657 0.9405 0.0000
vt 0.0737 0.9221 0.0000
vt 0.0923 0.9458 0.0000
vt 0.0592 0.9427 0.0000
vt 0.0419 0.9294 0.0000
vt 0.0592 0.9496 0.0000
vt 0.0421 0.9633 0.0000
vt 0.0657 0.9517 0.0000
vt 0.0744 0.9736 0.0000
vt 0.0778 0.3008 0.0000
vt 0.0571 0.2854 0.0000
vt 0.0987 0.2878 0.0000
vt 0.0854 0.2710 0.0000
vt 0.0934 0.2620 0.0000
vt 0.0728 0.2704 0.0000
vt 0.0667 0.2605 0.0000
vt 0.0601 0.2763 0.0000
vt 0.0394 0.2763 0.0000
vt 0.0568 0.3095 0.0000
vt 0.0816 0.3139 0.0000
vt 0.0827 0.3422 0.0000
vt 0.1094 0.3439 0.0000
vt 0.0440 0.3294 0.0000
vt 0.0698 0.3298 0.0000
vt 0.0183 0.2805 0.0000
vt 0.4367 0.8334 0.0000
vt 0.4388 0.8170 0.0000
vt 0.4439 0.8170 0.0000
vt 0.4438 0.8334 0.0000
vt 0.4327 0.8043 0.0000
vt 0.4163 0.8026 0.0000
vt 0.4163 0.7963 0.0000
vt 0.4327 0.7950 0.0000
vt 0.4680 0.8185 0.0000
vt 0.4681 0.8349 0.0000
vt 0.4613 0.8349 0.0000
vt 0.4592 0.8185 0.0000
vt 0.4515 0.8344 0.0000
vt 0.4519 0.8180 0.0000
vt 0.4585 0.8180 0.0000
vt 0.4609 0.8344 0.0000
vt 0.4500 0.8170 0.0000
vt 0.4510 0.8334 0.0000
vt 0.4419 0.5656 0.0000
vt 0.4318 0.5656 0.0000
vt 0.4318 0.5591 0.0000
vt 0.4389 0.5591 0.0000
vt 0.4221 0.5595 0.0000
vt 0.4121 0.5595 0.0000
vt 0.4129 0.5530 0.0000
vt 0.4200 0.5530 0.0000
vt 0.4466 0.5821 0.0000
vt 0.4466 0.5946 0.0000
vt 0.4401 0.5927 0.0000
vt 0.4401 0.5840 0.0000
vt 0.4549 0.5722 0.0000
vt 0.4448 0.5722 0.0000
vt 0.4470 0.5657 0.0000
vt 0.4540 0.5657 0.0000
vt 0.4218 0.5656 0.0000
vt 0.4248 0.5591 0.0000
vt 0.5958 0.9176 0.0000
vt 0.5931 0.9247 0.0000
vt 0.5843 0.9247 0.0000
vt 0.5816 0.9176 0.0000
vt 0.5887 0.9134 0.0000
vt 0.0243 0.9000 0.0000
vt 0.0227 0.8996 0.0000
vt 0.0299 0.8946 0.0000
vt 0.0304 0.8960 0.0000
vt 0.0263 0.9075 0.0000
vt 0.0252 0.9090 0.0000
vt 0.0337 0.9078 0.0000
vt 0.0341 0.9092 0.0000
vt 0.0363 0.9004 0.0000
vt 0.0370 0.8999 0.0000
# 116 texture coords

o Mushroom_3
g Mushroom_3
s 1
f 1/1/1 2/2/2 3/3/3 4/4/4 
f 2/5/2 5/6/5 6/7/6 3/8/3 
f 5/9/5 7/10/7 8/11/8 6/12/6 
f 7/13/7 9/14/9 10/15/10 8/16/8 
f 9/17/9 1/1/1 4/4/4 10/18/10 
f 11/19/11 12/20/12 13/21/13 14/22/14 
f 12/23/12 15/24/15 16/25/16 13/26/13 
f 15/27/15 17/28/17 18/29/18 16/30/16 
f 17/31/17 19/32/19 20/33/20 18/34/18 
f 19/35/19 11/19/11 14/22/14 20/36/20 
f 21/37/21 22/38/22 23/39/23 
f 24/40/24 25/41/25 12/42/12 11/43/11 
f 25/41/25 26/44/26 15/45/15 12/42/12 
f 26/44/26 27/46/27 17/47/17 15/45/15 
f 27/46/27 28/48/28 19/49/19 17/47/17 
f 28/48/28 24/40/24 11/43/11 19/49/19 
f 21/37/21 23/39/23 29/50/29 30/51/30 
f 23/39/23 22/38/22 31/52/31 29/50/29 
f 22/38/22 32/53/32 33/54/33 31/52/31 
f 32/53/32 34/55/34 35/56/35 33/54/33 
f 34/55/34 21/37/21 30/51/30 35/56/35 
f 13/21/13 30/57/30 29/58/29 14/22/14 
f 16/25/16 35/59/35 30/60/30 13/26/13 
f 18/29/18 33/61/33 35/62/35 16/30/16 
f 20/33/20 31/63/31 33/64/33 18/34/18 
f 14/22/14 29/58/29 31/65/31 20/36/20 
f 36/66/36 25/67/25 24/68/24 37/69/37 
f 38/70/38 26/71/26 25/72/25 36/73/36 
f 39/74/39 27/75/27 26/76/26 38/77/38 
f 40/78/40 28/79/28 27/80/27 39/81/39 
f 37/69/37 24/68/24 28/82/28 40/83/40 
f 2/84/2 1/85/1 41/86/41 42/87/42 
f 5/88/5 2/89/2 42/90/42 43/91/43 
f 7/92/7 5/93/5 43/94/43 44/95/44 
f 9/96/9 7/97/7 44/98/44 45/99/45 
f 1/85/1 9/100/9 45/101/45 41/86/41 
f 45/102/45 44/103/44 43/104/43 42/105/42 
f 41/106/41 45/102/45 42/105/42 
f 3/107/3 36/108/36 37/109/37 4/110/4 
f 6/111/6 38/112/38 36/108/36 3/107/3 
f 8/113/8 39/114/39 38/112/38 6/111/6 
f 10/115/10 40/116/40 39/114/39 8/113/8 
f 4/110/4 37/109/37 40/116/40 10/115/10 
f 21/37/21 34/55/34 32/53/32 
f 21/37/21 32/53/32 22/38/22 
# 41 polygons - 4 triangles

