# 3ds Max Wavefront OBJ Exporter v0.97b - (c)2007 guruware
# File Created: 31.01.2021 16:48:06

#
# object Mushroom_5
#

v  0.1533 0.0000 -0.0000
v  0.0956 0.0000 -0.1199
v  0.0726 0.2628 -0.0918
v  0.1165 0.2573 -0.0000
v  -0.0341 0.0000 -0.1495
v  -0.0256 0.2752 -0.1141
v  -0.1381 0.0000 -0.0665
v  -0.1042 0.2851 -0.0502
v  -0.1381 0.0000 0.0665
v  -0.1046 0.2851 0.0512
v  -0.0341 0.0000 0.1495
v  -0.0260 0.2752 0.1144
v  0.0956 0.0000 0.1199
v  0.0725 0.2628 0.0916
v  0.1221 0.7908 -0.0050
v  0.0810 0.7857 -0.1006
v  0.4637 1.0361 -0.4866
v  0.6758 1.0379 0.0793
v  -0.0222 0.7807 -0.1207
v  -0.0856 1.0181 -0.6507
v  -0.1084 0.7827 -0.0506
v  -0.5550 1.0375 -0.3058
v  -0.1143 0.7906 0.0552
v  -0.6189 1.0806 0.2612
v  -0.0363 0.7953 0.1180
v  -0.2144 1.0984 0.6475
v  0.0688 0.7936 0.0920
v  0.3509 1.0075 0.5920
v  0.4060 1.0946 -0.4268
v  0.5946 1.0915 0.0727
v  -0.0725 1.0787 -0.5688
v  -0.4822 1.0956 -0.2674
v  -0.5377 1.1357 0.2269
v  -0.1843 1.1478 0.5660
v  0.3149 1.0687 0.5222
v  0.2021 1.0372 -0.1893
v  0.2851 1.0460 0.0414
v  -0.0239 1.0291 -0.2563
v  -0.2202 1.0451 -0.1157
v  -0.2464 1.0766 0.1181
v  -0.0820 1.0846 0.2778
v  0.1548 1.0581 0.2502
v  0.1003 -0.0980 -0.0000
v  0.0618 -0.0980 -0.0800
v  -0.0248 -0.0980 -0.0998
v  -0.0943 -0.0980 -0.0444
v  -0.0943 -0.0980 0.0444
v  -0.0248 -0.0980 0.0998
v  0.0618 -0.0980 0.0800
v  0.0444 -0.1347 -0.0000
v  0.0269 -0.1347 -0.0363
v  -0.0124 -0.1347 -0.0453
v  -0.0439 -0.1347 -0.0201
v  -0.0439 -0.1347 0.0201
v  -0.0124 -0.1347 0.0453
v  0.0269 -0.1347 0.0363
# 56 vertices

vn 0.9867 -0.1625 -0.0000
vn 0.6166 -0.1622 -0.7704
vn 0.6270 0.0601 -0.7767
vn 0.9975 0.0699 0.0021
vn -0.2181 -0.1590 -0.9629
vn -0.2220 0.0605 -0.9732
vn -0.8899 -0.1540 -0.4295
vn -0.8991 0.0606 -0.4335
vn -0.8898 -0.1553 0.4291
vn -0.9002 0.0527 0.4324
vn -0.2179 -0.1595 0.9629
vn -0.2139 0.0604 0.9750
vn 0.6166 -0.1619 0.7704
vn 0.6286 0.0737 0.7742
vn 0.7698 -0.6360 0.0545
vn 0.5044 -0.6359 -0.5842
vn 0.6843 -0.0690 -0.7260
vn 0.9931 -0.0567 0.1030
vn -0.1936 -0.6185 -0.7616
vn -0.1642 -0.0999 -0.9813
vn -0.7345 -0.5926 -0.3306
vn -0.8664 -0.0740 -0.4938
vn -0.7065 -0.6039 0.3691
vn -0.9368 -0.0213 0.3491
vn -0.1524 -0.5966 0.7879
vn -0.3252 0.0310 0.9451
vn 0.4594 -0.6494 0.6060
vn 0.5024 -0.1688 0.8480
vn 0.2036 0.9491 -0.2404
vn 0.3049 0.9508 0.0557
vn -0.0596 0.9411 -0.3329
vn -0.2436 0.9471 -0.2088
vn -0.2847 0.9578 0.0410
vn -0.0180 0.9686 0.2479
vn 0.2652 0.9122 0.3122
vn -0.1111 0.9922 0.0573
vn -0.0825 0.9950 -0.0561
vn 0.0336 0.9971 0.0685
vn 0.1169 0.9916 -0.0553
vn 0.1184 0.9830 -0.1402
vn 0.0948 0.9844 -0.1482
vn 0.0584 0.9955 -0.0746
vn 0.7648 -0.6443 -0.0000
vn 0.4761 -0.6417 -0.6013
vn -0.1750 -0.6358 -0.7518
vn -0.6996 -0.6310 -0.3353
vn -0.6996 -0.6310 0.3353
vn -0.1750 -0.6358 0.7518
vn 0.4761 -0.6417 0.6013
vn 0.3570 -0.9341 -0.0000
vn 0.2226 -0.9341 -0.2791
vn -0.0794 -0.9341 -0.3480
vn -0.3216 -0.9341 -0.1549
vn -0.3216 -0.9341 0.1549
vn -0.0794 -0.9341 0.3480
vn 0.2226 -0.9341 0.2791
# 56 vertex normals

vt 0.4303 0.8377 0.0000
vt 0.4302 0.8420 0.0000
vt 0.4208 0.8406 0.0000
vt 0.4211 0.8374 0.0000
vt 0.4447 0.7788 0.0000
vt 0.4447 0.7742 0.0000
vt 0.4546 0.7745 0.0000
vt 0.4542 0.7780 0.0000
vt 0.4447 0.7704 0.0000
vt 0.4550 0.7717 0.0000
vt 0.4303 0.8170 0.0000
vt 0.4303 0.8218 0.0000
vt 0.4201 0.8212 0.0000
vt 0.4201 0.8176 0.0000
vt 0.4738 0.8396 0.0000
vt 0.4738 0.8433 0.0000
vt 0.4639 0.8436 0.0000
vt 0.4636 0.8408 0.0000
vt 0.4738 0.8480 0.0000
vt 0.4644 0.8472 0.0000
vt 0.4738 0.8490 0.0000
vt 0.4736 0.8533 0.0000
vt 0.4644 0.8530 0.0000
vt 0.4643 0.8497 0.0000
vt 0.0677 0.9352 0.0000
vt 0.0690 0.9317 0.0000
vt 0.0886 0.9313 0.0000
vt 0.0799 0.9512 0.0000
vt 0.0669 0.9286 0.0000
vt 0.0785 0.9133 0.0000
vt 0.0629 0.9283 0.0000
vt 0.0577 0.9105 0.0000
vt 0.0601 0.9309 0.0000
vt 0.0419 0.9236 0.0000
vt 0.0606 0.9344 0.0000
vt 0.0427 0.9437 0.0000
vt 0.0639 0.9364 0.0000
vt 0.0587 0.9564 0.0000
vt 0.4133 0.8311 0.0000
vt 0.4040 0.8115 0.0000
vt 0.4070 0.8115 0.0000
vt 0.4152 0.8288 0.0000
vt 0.4135 0.7932 0.0000
vt 0.4153 0.7956 0.0000
vt 0.4341 0.7897 0.0000
vt 0.4333 0.7925 0.0000
vt 0.4504 0.8022 0.0000
vt 0.4475 0.8034 0.0000
vt 0.4503 0.8223 0.0000
vt 0.4474 0.8210 0.0000
vt 0.4347 0.8355 0.0000
vt 0.4338 0.8328 0.0000
vt 0.4182 0.8121 0.0000
vt 0.4221 0.8200 0.0000
vt 0.4221 0.8046 0.0000
vt 0.4307 0.8031 0.0000
vt 0.4374 0.8082 0.0000
vt 0.4374 0.8164 0.0000
vt 0.4308 0.8219 0.0000
vt 0.4056 0.8280 0.0000
vt 0.4095 0.8205 0.0000
vt 0.4181 0.8378 0.0000
vt 0.4095 0.8359 0.0000
vt 0.4020 0.8403 0.0000
vt 0.4019 0.8369 0.0000
vt 0.4728 0.7746 0.0000
vt 0.4729 0.7783 0.0000
vt 0.4728 0.7715 0.0000
vt 0.4019 0.8214 0.0000
vt 0.4022 0.8176 0.0000
vt 0.4452 0.8432 0.0000
vt 0.4454 0.8404 0.0000
vt 0.4453 0.8470 0.0000
vt 0.4452 0.8525 0.0000
vt 0.4452 0.8490 0.0000
vt 0.4302 0.5870 0.0000
vt 0.4303 0.5827 0.0000
vt 0.4338 0.5828 0.0000
vt 0.4337 0.5857 0.0000
vt 0.4447 0.5192 0.0000
vt 0.4447 0.5238 0.0000
vt 0.4412 0.5226 0.0000
vt 0.4412 0.5195 0.0000
vt 0.4447 0.5154 0.0000
vt 0.4412 0.5170 0.0000
vt 0.4303 0.5668 0.0000
vt 0.4303 0.5620 0.0000
vt 0.4338 0.5628 0.0000
vt 0.4338 0.5660 0.0000
vt 0.4896 0.5151 0.0000
vt 0.4896 0.5114 0.0000
vt 0.4931 0.5129 0.0000
vt 0.4931 0.5154 0.0000
vt 0.4896 0.5198 0.0000
vt 0.4931 0.5185 0.0000
vt 0.4894 0.5251 0.0000
vt 0.4896 0.5208 0.0000
vt 0.4930 0.5224 0.0000
vt 0.4929 0.5252 0.0000
vt 0.5755 0.9313 0.0000
vt 0.5768 0.9342 0.0000
vt 0.5748 0.9342 0.0000
vt 0.5742 0.9329 0.0000
vt 0.5723 0.9306 0.0000
vt 0.5728 0.9326 0.0000
vt 0.5698 0.9326 0.0000
vt 0.5717 0.9335 0.0000
vt 0.5698 0.9358 0.0000
vt 0.5717 0.9349 0.0000
vt 0.5723 0.9378 0.0000
vt 0.5728 0.9358 0.0000
vt 0.5755 0.9371 0.0000
vt 0.5742 0.9355 0.0000
vt 0.4180 0.8190 0.0000
vt 0.4247 0.8241 0.0000
vt 0.4247 0.8324 0.0000
# 116 texture coords

o Mushroom_5
g Mushroom_5
s 1
f 1/1/1 2/2/2 3/3/3 4/4/4 
f 2/5/2 5/6/5 6/7/6 3/8/3 
f 5/6/5 7/9/7 8/10/8 6/7/6 
f 7/11/7 9/12/9 10/13/10 8/14/8 
f 9/15/9 11/16/11 12/17/12 10/18/10 
f 11/16/11 13/19/13 14/20/14 12/17/12 
f 13/21/13 1/22/1 4/23/4 14/24/14 
f 15/25/15 16/26/16 17/27/17 18/28/18 
f 16/26/16 19/29/19 20/30/20 17/27/17 
f 19/29/19 21/31/21 22/32/22 20/30/20 
f 21/31/21 23/33/23 24/34/24 22/32/22 
f 23/33/23 25/35/25 26/36/26 24/34/24 
f 25/35/25 27/37/27 28/38/28 26/36/26 
f 27/37/27 15/25/15 18/28/18 28/38/28 
f 18/39/18 17/40/17 29/41/29 30/42/30 
f 17/40/17 20/43/20 31/44/31 29/41/29 
f 20/43/20 22/45/22 32/46/32 31/44/31 
f 22/45/22 24/47/24 33/48/33 32/46/32 
f 24/47/24 26/49/26 34/50/34 33/48/33 
f 26/49/26 28/51/28 35/52/35 34/50/34 
f 28/51/28 18/39/18 30/42/30 35/52/35 
f 30/42/30 29/41/29 36/53/36 37/54/37 
f 29/41/29 31/44/31 38/55/38 36/53/36 
f 31/44/31 32/46/32 39/56/39 38/55/38 
f 32/46/32 33/48/33 40/57/40 39/56/39 
f 33/48/33 34/50/34 41/58/41 40/57/40 
f 34/50/34 35/52/35 42/59/42 41/58/41 
f 35/52/35 30/42/30 37/54/37 42/59/42 
f 36/60/36 38/61/38 42/62/42 37/63/37 
f 3/3/3 16/64/16 15/65/15 4/4/4 
f 6/7/6 19/66/19 16/67/16 3/8/3 
f 8/10/8 21/68/21 19/66/19 6/7/6 
f 10/13/10 23/69/23 21/70/21 8/14/8 
f 12/17/12 25/71/25 23/72/23 10/18/10 
f 14/20/14 27/73/27 25/71/25 12/17/12 
f 4/23/4 15/74/15 27/75/27 14/24/14 
f 2/76/2 1/77/1 43/78/43 44/79/44 
f 5/80/5 2/81/2 44/82/44 45/83/45 
f 7/84/7 5/80/5 45/83/45 46/85/46 
f 9/86/9 7/87/7 46/88/46 47/89/47 
f 11/90/11 9/91/9 47/92/47 48/93/48 
f 13/94/13 11/90/11 48/93/48 49/95/49 
f 1/96/1 13/97/13 49/98/49 43/99/43 
f 44/100/44 43/101/43 50/102/50 51/103/51 
f 45/104/45 44/100/44 51/103/51 52/105/52 
f 46/106/46 45/104/45 52/105/52 53/107/53 
f 47/108/47 46/106/46 53/107/53 54/109/54 
f 48/110/48 47/108/47 54/109/54 55/111/55 
f 49/112/49 48/110/48 55/111/55 56/113/56 
f 43/101/43 49/112/49 56/113/56 50/102/50 
f 53/107/53 52/105/52 51/103/51 50/102/50 
f 50/102/50 56/113/56 54/109/54 53/107/53 
f 54/109/54 56/113/56 55/111/55 
f 38/61/38 39/114/39 40/115/40 41/116/41 
f 38/61/38 41/116/41 42/62/42 
# 53 polygons - 2 triangles

