# 3ds Max Wavefront OBJ Exporter v0.97b - (c)2007 guruware
# File Created: 31.01.2021 16:49:03

#
# object Mushroom_10
#

v  0.4473 -0.0147 -0.4691
v  0.5253 -0.0056 -0.2260
v  0.0166 -0.1188 -0.2842
v  0.0085 -0.1016 -0.5140
v  0.2955 -0.0189 -0.6706
v  0.0064 -0.0540 -0.6958
v  -0.2826 -0.0323 -0.6579
v  0.0062 -0.0184 -0.7632
v  -0.4303 -0.0122 -0.4830
v  -0.4920 -0.0087 -0.2372
v  -0.3615 0.0010 -0.1650
v  0.0072 -0.0764 -0.1597
v  -0.0993 -0.0005 -0.0758
v  -0.0453 -0.0339 -0.0766
v  -0.0718 -0.0127 0.0004
v  0.1191 -0.0009 -0.0780
v  0.0656 -0.0127 0.0017
v  0.0548 -0.0315 -0.0765
v  0.3758 0.0013 -0.1294
v  -0.0031 -0.0127 0.0027
v  0.0008 -0.0397 -0.0677
v  0.0106 0.0498 -0.3734
v  0.5027 0.0182 -0.2454
v  0.4152 0.0122 -0.4698
v  0.0101 0.0498 -0.5170
v  0.2706 0.0215 -0.6355
v  0.0100 0.0289 -0.6594
v  0.0060 0.0146 -0.7339
v  -0.2574 0.0336 -0.6242
v  -0.3982 0.0099 -0.4826
v  -0.4694 0.0212 -0.2576
v  0.0101 0.0498 -0.2431
v  0.0103 0.0435 -0.1347
v  -0.0018 0.0179 0.0064
# 34 vertices

vn 0.8783 -0.2557 -0.4040
vn 0.9098 -0.1808 0.3737
vn 0.0079 -0.9938 0.1108
vn -0.0014 -0.9859 -0.1673
vn 0.5894 -0.2527 -0.7673
vn 0.0128 -0.9301 -0.3671
vn -0.5568 -0.4387 -0.7054
vn -0.0147 -0.1458 -0.9892
vn -0.8975 -0.1829 -0.4014
vn -0.8813 -0.2273 0.4144
vn -0.3445 0.1114 0.9322
vn -0.0137 -0.9380 0.3463
vn -0.5186 0.3290 0.7892
vn -0.3685 -0.9132 0.1742
vn -0.6617 -0.1668 0.7310
vn 0.3381 0.3467 0.8749
vn 0.5615 -0.2074 0.8011
vn 0.3243 -0.9156 0.2377
vn 0.3776 0.0772 0.9228
vn -0.0070 -0.7429 0.6693
vn -0.0103 0.1792 0.9838
vn 0.0072 -0.9312 0.3643
vn 0.0024 1.0000 -0.0000
vn 0.5070 0.8611 0.0372
vn 0.3951 0.8828 -0.2543
vn -0.0012 0.9970 -0.0769
vn 0.2496 0.9094 -0.3327
vn 0.0198 0.9854 -0.1689
vn 0.0036 0.8336 -0.5524
vn -0.2821 0.8931 -0.3504
vn -0.3646 0.9064 -0.2133
vn -0.5310 0.8424 0.0916
vn -0.0006 0.9997 0.0242
vn 0.0071 0.9950 0.1000
vn -0.0208 0.6518 0.7581
# 35 vertex normals

vt 0.9298 0.6534 0.0000
vt 0.9407 0.6534 0.0000
vt 0.9302 0.6754 0.0000
vt 0.9210 0.6725 0.0000
vt 0.9193 0.6574 0.0000
vt 0.9137 0.6700 0.0000
vt 0.9106 0.6835 0.0000
vt 0.9110 0.6690 0.0000
vt 0.9152 0.6926 0.0000
vt 0.9240 0.6988 0.0000
vt 0.9289 0.6940 0.0000
vt 0.9350 0.6776 0.0000
vt 0.9367 0.6835 0.0000
vt 0.9375 0.6811 0.0000
vt 0.9401 0.6834 0.0000
vt 0.9401 0.6737 0.0000
vt 0.9424 0.6772 0.0000
vt 0.9391 0.6766 0.0000
vt 0.9421 0.6615 0.0000
vt 0.9106 0.6580 0.0000
vt 0.9138 0.6580 0.0000
vt 0.9413 0.6803 0.0000
vt 0.9386 0.6791 0.0000
vt 0.9538 0.6919 0.0000
vt 0.9594 0.6685 0.0000
vt 0.9660 0.6765 0.0000
vt 0.9593 0.6946 0.0000
vt 0.9692 0.6857 0.0000
vt 0.9646 0.6973 0.0000
vt 0.9674 0.6989 0.0000
vt 0.9577 0.7081 0.0000
vt 0.9493 0.7114 0.0000
vt 0.9393 0.7102 0.0000
vt 0.9381 0.7039 0.0000
vt 0.9489 0.6895 0.0000
vt 0.9403 0.6910 0.0000
vt 0.9448 0.6875 0.0000
vt 0.9392 0.6853 0.0000
vt 0.9450 0.6818 0.0000
vt 0.9523 0.6718 0.0000
vt 0.9138 0.6565 0.0000
vt 0.9171 0.6580 0.0000
vt 0.9380 0.6884 0.0000
vt 0.9408 0.6826 0.0000
vt 0.9115 0.6546 0.0000
vt 0.9106 0.6535 0.0000
vt 0.9213 0.6534 0.0000
vt 0.9215 0.6547 0.0000
vt 0.9119 0.7017 0.0000
vt 0.9109 0.7000 0.0000
vt 0.9220 0.6997 0.0000
vt 0.9217 0.7023 0.0000
vt 0.9341 0.7049 0.0000
vt 0.9332 0.7066 0.0000
vt 0.9359 0.7033 0.0000
vt 0.9323 0.7034 0.0000
vt 0.9333 0.6932 0.0000
vt 0.9348 0.6943 0.0000
vt 0.9365 0.6839 0.0000
vt 0.9377 0.6852 0.0000
vt 0.9108 0.6565 0.0000
vt 0.9106 0.6545 0.0000
vt 0.9173 0.6563 0.0000
vt 0.9591 0.6672 0.0000
vt 0.9442 0.6813 0.0000
vt 0.9426 0.6814 0.0000
vt 0.9425 0.6672 0.0000
vt 0.9456 0.6683 0.0000
# 68 texture coords

o Mushroom_10
g Mushroom_10
s 1
f 1/1/1 2/2/2 3/3/3 4/4/4 
f 5/5/5 1/1/1 4/4/4 6/6/6 
f 7/7/7 8/8/8 6/6/6 
f 9/9/9 7/7/7 6/6/6 4/4/4 
f 10/10/10 9/9/9 4/4/4 3/3/3 
f 11/11/11 10/10/10 3/3/3 12/12/12 
f 13/13/13 11/11/11 12/12/12 14/14/14 
s 2
f 15/15/15 13/13/13 14/14/14 
s 1
f 16/16/16 17/17/17 18/18/18 
f 19/19/19 16/16/16 18/18/18 12/12/12 
f 2/2/2 19/19/19 12/12/12 3/3/3 
s 4
f 17/20/17 20/21/20 20/21/21 
s 1
f 18/18/18 17/17/17 20/22/21 21/23/22 
f 18/18/18 21/23/22 12/12/12 
s 8
f 22/24/23 23/25/24 24/26/25 25/27/26 
f 25/27/26 24/26/25 26/28/27 27/29/28 
f 27/29/28 26/28/27 28/30/29 
f 27/29/28 29/31/30 30/32/31 25/27/26 
f 25/27/26 30/32/31 31/33/32 22/24/23 
f 22/24/23 31/33/32 11/34/11 32/35/33 
f 32/35/33 11/34/11 13/36/13 33/37/34 
f 33/37/34 13/36/13 34/38/35 
f 34/38/35 16/39/16 33/37/34 
f 33/37/34 16/39/16 19/40/19 32/35/33 
f 32/35/33 19/40/19 23/25/24 22/24/23 
s 16
f 34/41/35 15/42/15 20/21/20 
s 1
f 8/8/8 5/5/5 6/6/6 
s 4
f 20/21/20 15/42/15 20/21/21 
s 1
f 20/22/21 15/15/15 14/14/14 21/23/22 
f 21/23/22 14/14/14 12/12/12 
s 8
f 28/30/29 29/31/30 27/29/28 
s 16
f 20/21/20 17/20/17 34/41/35 
s 8
f 13/36/13 15/43/15 34/38/35 
f 34/38/35 17/44/17 16/39/16 
s 2
f 23/45/24 2/46/2 1/47/1 24/48/25 
f 24/49/25 1/50/1 5/51/5 26/52/27 
f 26/52/27 5/51/5 8/53/8 28/54/29 
f 29/55/30 7/56/7 9/57/9 30/58/31 
f 30/58/31 9/57/9 10/59/10 31/60/32 
s 4
f 31/61/32 10/62/10 11/63/11 
f 19/40/19 2/64/2 23/25/24 
s 2
f 28/65/29 8/66/8 7/67/7 29/68/30 
# 24 polygons - 18 triangles

