# 3ds Max Wavefront OBJ Exporter v0.97b - (c)2007 guruware
# File Created: 31.01.2021 16:24:05

#
# object Nut
#

v  0.5884 0.0358 -0.0000
v  0.2942 0.0358 -0.5096
v  0.2942 0.4721 -0.5096
v  0.5884 0.4721 -0.0000
v  -0.2942 0.0358 -0.5096
v  -0.2942 0.4721 -0.5096
v  -0.5884 0.0358 -0.0000
v  -0.5884 0.4721 -0.0000
v  -0.2942 0.0358 0.5096
v  -0.2942 0.4721 0.5096
v  0.2942 0.0358 0.5096
v  0.2942 0.4721 0.5096
v  0.5665 0.5079 -0.0000
v  0.3196 0.5079 -0.1759
v  0.3634 0.5079 0.0009
v  0.2833 0.5079 -0.4906
v  0.0068 0.5079 -0.3642
v  0.1818 0.5079 -0.3137
v  -0.2833 0.5079 -0.4906
v  -0.3127 0.5079 -0.1875
v  -0.1815 0.5079 -0.3137
v  -0.5665 0.5079 -0.0000
v  -0.3192 0.5079 0.1771
v  -0.3631 0.5079 0.0009
v  -0.2833 0.5079 0.4906
v  0.0001 0.5079 0.3712
v  -0.1815 0.5079 0.3155
v  0.2833 0.5079 0.4906
v  0.3116 0.5079 0.1803
v  0.1818 0.5079 0.3155
v  0.2833 0.0000 0.4906
v  -0.2833 0.0000 0.4906
v  -0.5665 0.0000 -0.0000
v  -0.2833 0.0000 -0.4906
v  0.2833 0.0000 -0.4906
v  0.5665 0.0000 -0.0000
v  0.1818 1.1517 -0.3137
v  0.1522 1.3147 -0.2624
v  0.2675 1.3147 -0.1471
v  0.3196 1.1517 -0.1759
v  -0.1815 1.1517 -0.3137
v  -0.1518 1.3147 -0.2624
v  0.0058 1.3147 -0.3046
v  0.0068 1.1517 -0.3642
v  -0.3631 1.1517 0.0009
v  -0.3038 1.3147 0.0008
v  -0.2616 1.3147 -0.1568
v  -0.3127 1.1517 -0.1875
v  -0.1815 1.1517 0.3155
v  -0.1518 1.3147 0.2640
v  -0.2670 1.3147 0.1483
v  -0.3192 1.1517 0.1771
v  0.1818 1.1517 0.3155
v  0.1522 1.3147 0.2640
v  0.0002 1.3147 0.3107
v  0.0001 1.1517 0.3712
v  0.3634 1.1517 0.0009
v  0.3041 1.3147 0.0008
v  0.2608 1.3147 0.1509
v  0.3116 1.1517 0.1803
v  0.1818 1.8260 -0.3137
v  0.1522 1.9889 -0.2624
v  0.2675 1.9889 -0.1471
v  0.3196 1.8260 -0.1759
v  0.1818 1.4889 -0.3137
v  0.1522 1.6518 -0.2624
v  0.2675 1.6518 -0.1471
v  0.3196 1.4889 -0.1759
v  0.2675 0.6404 -0.1471
v  0.1522 0.6404 -0.2624
v  0.2675 0.9775 -0.1471
v  0.3196 0.8146 -0.1759
v  0.1818 0.8146 -0.3137
v  0.1522 0.9775 -0.2624
v  -0.1815 1.8260 -0.3137
v  -0.1518 1.9889 -0.2624
v  0.0058 1.9889 -0.3046
v  0.0068 1.8260 -0.3642
v  -0.1815 1.4889 -0.3137
v  -0.1518 1.6518 -0.2624
v  0.0058 1.6518 -0.3046
v  0.0068 1.4889 -0.3642
v  0.0058 0.6404 -0.3046
v  -0.1518 0.6404 -0.2624
v  0.0058 0.9775 -0.3046
v  0.0068 0.8146 -0.3642
v  -0.1815 0.8146 -0.3137
v  -0.1518 0.9775 -0.2624
v  -0.3631 1.8260 0.0009
v  -0.3038 1.9889 0.0008
v  -0.2616 1.9889 -0.1568
v  -0.3127 1.8260 -0.1875
v  -0.3631 1.4889 0.0009
v  -0.3038 1.6518 0.0008
v  -0.2616 1.6518 -0.1568
v  -0.3127 1.4889 -0.1875
v  -0.2616 0.6404 -0.1568
v  -0.3038 0.6404 0.0008
v  -0.2616 0.9775 -0.1568
v  -0.3127 0.8146 -0.1875
v  -0.3631 0.8146 0.0009
v  -0.3038 0.9775 0.0008
v  -0.1815 1.8260 0.3155
v  -0.1518 1.9889 0.2640
v  -0.2670 1.9889 0.1483
v  -0.3192 1.8260 0.1771
v  -0.1815 1.4889 0.3155
v  -0.1518 1.6518 0.2640
v  -0.2670 1.6518 0.1483
v  -0.3192 1.4889 0.1771
v  -0.2670 0.6404 0.1483
v  -0.1518 0.6404 0.2640
v  -0.2670 0.9775 0.1483
v  -0.3192 0.8146 0.1771
v  -0.1815 0.8146 0.3155
v  -0.1518 0.9775 0.2640
v  0.1818 1.8260 0.3155
v  0.1522 1.9889 0.2640
v  0.0002 1.9889 0.3107
v  0.0001 1.8260 0.3712
v  0.1818 1.4889 0.3155
v  0.1522 1.6518 0.2640
v  0.0002 1.6518 0.3107
v  0.0001 1.4889 0.3712
v  0.0002 0.6404 0.3107
v  0.1522 0.6404 0.2640
v  0.0002 0.9775 0.3107
v  0.0001 0.8146 0.3712
v  0.1818 0.8146 0.3155
v  0.1522 0.9775 0.2640
v  0.3634 1.8260 0.0009
v  0.3041 1.9889 0.0008
v  0.2608 1.9889 0.1509
v  0.3116 1.8260 0.1803
v  0.3634 1.4889 0.0009
v  0.3041 1.6518 0.0008
v  0.2608 1.6518 0.1509
v  0.3116 1.4889 0.1803
v  0.2608 0.6404 0.1509
v  0.3041 0.6404 0.0008
v  0.2608 0.9775 0.1509
v  0.3116 0.8146 0.1803
v  0.3634 0.8146 0.0009
v  0.3041 0.9775 0.0008
# 144 vertices

vn 0.9681 -0.2506 0.0000
vn 0.4840 -0.2506 -0.8384
vn 0.4840 0.2506 -0.8384
vn 0.9681 0.2506 0.0000
vn -0.4840 -0.2506 -0.8384
vn -0.4840 0.2506 -0.8384
vn -0.9681 -0.2506 0.0000
vn -0.9681 0.2506 0.0000
vn -0.4840 -0.2506 0.8384
vn -0.4840 0.2506 0.8384
vn 0.4840 -0.2506 0.8384
vn 0.4840 0.2506 0.8384
vn 0.5934 0.8049 -0.0000
vn 0.4098 0.8824 -0.2311
vn 0.4739 0.8805 0.0085
vn 0.2967 0.8049 -0.5139
vn 0.0047 0.8825 -0.4703
vn 0.2421 0.8790 -0.4107
vn -0.2967 0.8049 -0.5139
vn -0.4047 0.8826 -0.2391
vn -0.2346 0.8791 -0.4149
vn -0.5934 0.8049 -0.0000
vn -0.4101 0.8823 0.2310
vn -0.4762 0.8794 -0.0039
vn -0.2967 0.8049 0.5139
vn -0.0000 0.8878 0.4603
vn -0.2466 0.8781 0.4099
vn 0.2967 0.8049 0.5139
vn 0.4167 0.8767 0.2404
vn 0.2487 0.8794 0.4059
vn 0.2967 -0.8049 0.5139
vn -0.2967 -0.8049 0.5139
vn -0.5934 -0.8049 -0.0000
vn -0.2967 -0.8049 -0.5139
vn 0.2967 -0.8049 -0.5139
vn 0.5934 -0.8049 -0.0000
vn 0.5078 0.0099 -0.8614
vn 0.5087 0.0110 -0.8609
vn 0.8704 0.0111 -0.4922
vn 0.8709 0.0099 -0.4913
vn -0.4921 0.0099 -0.8705
vn -0.4911 0.0111 -0.8710
vn 0.0091 0.0111 -0.9999
vn 0.0099 0.0099 -0.9999
vn -0.9999 0.0100 -0.0082
vn -0.9999 0.0111 -0.0092
vn -0.8614 0.0112 -0.5078
vn -0.8610 0.0100 -0.5085
vn -0.5157 0.0100 0.8567
vn -0.5173 0.0111 0.8557
vn -0.8706 0.0112 0.4918
vn -0.8712 0.0100 0.4909
vn 0.5227 0.0099 0.8524
vn 0.5254 0.0111 0.8508
vn 0.0001 0.0114 0.9999
vn -0.0001 0.0100 0.9999
vn 0.9998 0.0099 0.0182
vn 0.9997 0.0111 0.0202
vn 0.8662 0.0109 0.4995
vn 0.8662 0.0099 0.4996
vn 0.3201 0.7772 -0.5417
vn 0.5504 0.7747 -0.3112
vn 0.8694 0.0497 -0.4917
vn 0.5082 0.0492 -0.8599
vn -0.3089 0.7773 -0.5480
vn 0.0057 0.7748 -0.6322
vn 0.0090 0.0497 -0.9987
vn -0.4904 0.0493 -0.8701
vn -0.6290 0.7774 -0.0058
vn -0.5445 0.7749 -0.3210
vn -0.8604 0.0498 -0.5071
vn -0.9987 0.0494 -0.0093
vn -0.3246 0.7786 0.5370
vn -0.5500 0.7752 0.3107
vn -0.8696 0.0497 0.4913
vn -0.5168 0.0493 0.8547
vn 0.3308 0.7771 0.5355
vn 0.0001 0.7724 0.6351
vn 0.0001 0.0507 0.9987
vn 0.5250 0.0493 0.8497
vn 0.6310 0.7757 0.0128
vn 0.5445 0.7778 0.3140
vn 0.8653 0.0487 0.4990
vn 0.9986 0.0494 0.0203
# 84 vertex normals

vt 0.2891 0.8939 0.0000
vt 0.3341 0.8932 0.0000
vt 0.3341 0.8936 0.0000
vt 0.2891 0.8942 0.0000
vt 0.3572 0.9318 0.0000
vt 0.3572 0.9322 0.0000
vt 0.3352 0.9711 0.0000
vt 0.3352 0.9715 0.0000
vt 0.2902 0.9718 0.0000
vt 0.2902 0.9722 0.0000
vt 0.2672 0.9332 0.0000
vt 0.2672 0.9336 0.0000
vt 0.2899 0.9005 0.0000
vt 0.3112 0.9098 0.0000
vt 0.2978 0.9138 0.0000
vt 0.3333 0.8998 0.0000
vt 0.3358 0.9229 0.0000
vt 0.3256 0.9134 0.0000
vt 0.3555 0.9370 0.0000
vt 0.3367 0.9509 0.0000
vt 0.3399 0.9373 0.0000
vt 0.3344 0.9749 0.0000
vt 0.3131 0.9656 0.0000
vt 0.3263 0.9616 0.0000
vt 0.2911 0.9755 0.0000
vt 0.2878 0.9522 0.0000
vt 0.2986 0.9620 0.0000
vt 0.2688 0.9383 0.0000
vt 0.2881 0.9243 0.0000
vt 0.2843 0.9381 0.0000
vt 0.2911 0.9708 0.0000
vt 0.2688 0.9336 0.0000
vt 0.2688 0.9331 0.0000
vt 0.2911 0.9703 0.0000
vt 0.3344 0.9701 0.0000
vt 0.3344 0.9697 0.0000
vt 0.3555 0.9323 0.0000
vt 0.3555 0.9318 0.0000
vt 0.3333 0.8951 0.0000
vt 0.3333 0.8946 0.0000
vt 0.2899 0.8957 0.0000
vt 0.2899 0.8953 0.0000
vt 0.3333 0.8994 0.0000
vt 0.2911 0.9751 0.0000
vt 0.3344 0.9744 0.0000
vt 0.3555 0.9366 0.0000
vt 0.2899 0.9000 0.0000
vt 0.2688 0.9379 0.0000
vt 0.3256 0.9092 0.0000
vt 0.3234 0.9133 0.0000
vt 0.3113 0.9103 0.0000
vt 0.3112 0.9056 0.0000
vt 0.3399 0.9331 0.0000
vt 0.3353 0.9333 0.0000
vt 0.3319 0.9213 0.0000
vt 0.3358 0.9187 0.0000
vt 0.3263 0.9573 0.0000
vt 0.3240 0.9536 0.0000
vt 0.3327 0.9446 0.0000
vt 0.3367 0.9467 0.0000
vt 0.2986 0.9578 0.0000
vt 0.3008 0.9539 0.0000
vt 0.3129 0.9570 0.0000
vt 0.3131 0.9614 0.0000
vt 0.2843 0.9339 0.0000
vt 0.2889 0.9340 0.0000
vt 0.2918 0.9458 0.0000
vt 0.2878 0.9480 0.0000
vt 0.2978 0.9096 0.0000
vt 0.3002 0.9137 0.0000
vt 0.2920 0.9224 0.0000
vt 0.2881 0.9201 0.0000
vt 0.3256 0.9098 0.0000
vt 0.3234 0.9139 0.0000
vt 0.3113 0.9109 0.0000
vt 0.3112 0.9062 0.0000
vt 0.3256 0.9095 0.0000
vt 0.3234 0.9136 0.0000
vt 0.3113 0.9106 0.0000
vt 0.3112 0.9059 0.0000
vt 0.3113 0.9097 0.0000
vt 0.3112 0.9050 0.0000
vt 0.3256 0.9087 0.0000
vt 0.3234 0.9127 0.0000
vt 0.3113 0.9100 0.0000
vt 0.3112 0.9053 0.0000
vt 0.3256 0.9089 0.0000
vt 0.3234 0.9130 0.0000
vt 0.3399 0.9337 0.0000
vt 0.3353 0.9339 0.0000
vt 0.3319 0.9219 0.0000
vt 0.3358 0.9193 0.0000
vt 0.3399 0.9334 0.0000
vt 0.3353 0.9336 0.0000
vt 0.3319 0.9216 0.0000
vt 0.3358 0.9190 0.0000
vt 0.3319 0.9207 0.0000
vt 0.3358 0.9182 0.0000
vt 0.3399 0.9325 0.0000
vt 0.3353 0.9327 0.0000
vt 0.3319 0.9210 0.0000
vt 0.3358 0.9184 0.0000
vt 0.3399 0.9328 0.0000
vt 0.3353 0.9330 0.0000
vt 0.3263 0.9579 0.0000
vt 0.3240 0.9542 0.0000
vt 0.3327 0.9452 0.0000
vt 0.3367 0.9472 0.0000
vt 0.3263 0.9576 0.0000
vt 0.3240 0.9539 0.0000
vt 0.3327 0.9449 0.0000
vt 0.3367 0.9469 0.0000
vt 0.3327 0.9440 0.0000
vt 0.3367 0.9461 0.0000
vt 0.3263 0.9568 0.0000
vt 0.3240 0.9530 0.0000
vt 0.3327 0.9443 0.0000
vt 0.3367 0.9464 0.0000
vt 0.3263 0.9571 0.0000
vt 0.3240 0.9533 0.0000
vt 0.2986 0.9584 0.0000
vt 0.3008 0.9545 0.0000
vt 0.3129 0.9576 0.0000
vt 0.3131 0.9620 0.0000
vt 0.2986 0.9581 0.0000
vt 0.3008 0.9542 0.0000
vt 0.3129 0.9573 0.0000
vt 0.3131 0.9617 0.0000
vt 0.3129 0.9564 0.0000
vt 0.3131 0.9608 0.0000
vt 0.2986 0.9572 0.0000
vt 0.3008 0.9533 0.0000
vt 0.3129 0.9567 0.0000
vt 0.3131 0.9611 0.0000
vt 0.2986 0.9575 0.0000
vt 0.3008 0.9536 0.0000
vt 0.2843 0.9345 0.0000
vt 0.2889 0.9346 0.0000
vt 0.2918 0.9464 0.0000
vt 0.2878 0.9486 0.0000
vt 0.2843 0.9342 0.0000
vt 0.2889 0.9343 0.0000
vt 0.2918 0.9461 0.0000
vt 0.2878 0.9483 0.0000
vt 0.2918 0.9452 0.0000
vt 0.2878 0.9475 0.0000
vt 0.2843 0.9334 0.0000
vt 0.2889 0.9334 0.0000
vt 0.2918 0.9455 0.0000
vt 0.2878 0.9477 0.0000
vt 0.2843 0.9336 0.0000
vt 0.2889 0.9337 0.0000
vt 0.2978 0.9102 0.0000
vt 0.3002 0.9143 0.0000
vt 0.2920 0.9230 0.0000
vt 0.2881 0.9207 0.0000
vt 0.2978 0.9099 0.0000
vt 0.3002 0.9140 0.0000
vt 0.2920 0.9227 0.0000
vt 0.2881 0.9204 0.0000
vt 0.2920 0.9218 0.0000
vt 0.2881 0.9195 0.0000
vt 0.2978 0.9091 0.0000
vt 0.3002 0.9131 0.0000
vt 0.2920 0.9221 0.0000
vt 0.2881 0.9198 0.0000
vt 0.2978 0.9094 0.0000
vt 0.3002 0.9134 0.0000
vt 0.3129 0.9580 0.0000
vt 0.3008 0.9550 0.0000
vt 0.2889 0.9351 0.0000
vt 0.2920 0.9235 0.0000
vt 0.3240 0.9547 0.0000
vt 0.3002 0.9148 0.0000
vt 0.3327 0.9457 0.0000
vt 0.3113 0.9114 0.0000
vt 0.3353 0.9344 0.0000
vt 0.3234 0.9144 0.0000
vt 0.3319 0.9224 0.0000
vt 0.2918 0.9469 0.0000
# 180 texture coords

o Nut
g Nut
s 1
f 1/1/1 2/2/2 3/3/3 4/4/4 
s 2
f 2/2/2 5/5/5 6/6/6 3/3/3 
s 1
f 5/5/5 7/7/7 8/8/8 6/6/6 
s 2
f 7/7/7 9/9/9 10/10/10 8/8/8 
s 1
f 9/9/9 11/11/11 12/12/12 10/10/10 
s 2
f 11/11/11 1/1/1 4/4/4 12/12/12 
s 1
f 13/13/13 14/14/14 15/15/15 
f 16/16/16 17/17/17 18/18/18 
f 19/19/19 20/20/20 21/21/21 
f 22/22/22 23/23/23 24/24/24 
f 25/25/25 26/26/26 27/27/27 
f 28/28/28 29/29/29 30/30/30 
s 4
f 25/31/25 10/10/10 12/12/12 28/32/28 
f 31/33/31 11/11/11 9/9/9 32/34/32 
s 8
f 22/35/22 8/8/8 10/10/10 25/31/25 
f 32/34/32 9/9/9 7/7/7 33/36/33 
s 4
f 19/37/19 6/6/6 8/8/8 22/35/22 
f 33/36/33 7/7/7 5/5/5 34/38/34 
s 8
f 16/39/16 3/3/3 6/6/6 19/37/19 
f 34/38/34 5/5/5 2/2/2 35/40/35 
s 4
f 13/41/13 4/4/4 3/3/3 16/39/16 
f 35/40/35 2/2/2 1/1/1 36/42/36 
s 8
f 28/32/28 12/12/12 4/4/4 13/41/13 
f 36/42/36 1/1/1 11/11/11 31/33/31 
s 1
f 35/43/35 32/44/32 33/45/33 34/46/34 
f 13/13/13 16/16/16 14/14/14 
f 16/16/16 19/19/19 17/17/17 
f 19/19/19 22/22/22 20/20/20 
f 22/22/22 25/25/25 23/23/23 
f 25/25/25 28/28/28 26/26/26 
f 28/28/28 13/13/13 29/29/29 
f 16/16/16 18/18/18 14/14/14 
f 19/19/19 21/21/21 17/17/17 
f 22/22/22 24/24/24 20/20/20 
f 25/25/25 27/27/27 23/23/23 
f 28/28/28 30/30/30 26/26/26 
f 13/13/13 15/15/15 29/29/29 
f 35/43/35 36/47/36 31/48/31 32/44/32 
f 37/49/37 38/50/38 39/51/39 40/52/40 
f 41/53/41 42/54/42 43/55/43 44/56/44 
f 45/57/45 46/58/46 47/59/47 48/60/48 
f 49/61/49 50/62/50 51/63/51 52/64/52 
f 53/65/53 54/66/54 55/67/55 56/68/56 
f 57/69/57 58/70/58 59/71/59 60/72/60 
f 56/68/56 55/67/55 50/62/50 49/61/49 
f 52/64/52 51/63/51 46/58/46 45/57/45 
f 48/60/48 47/59/47 42/54/42 41/53/41 
f 44/56/44 43/55/43 38/50/38 37/49/37 
f 40/52/40 39/51/39 58/70/58 57/69/57 
f 60/72/60 59/71/59 54/66/54 53/65/53 
f 61/73/37 62/74/61 63/75/62 64/76/40 
f 65/77/37 66/78/38 67/79/39 68/80/40 
s 2
f 69/81/63 14/82/14 18/83/18 70/84/64 
s 1
f 71/85/39 72/86/40 73/87/37 74/88/38 
f 75/89/41 76/90/65 77/91/66 78/92/44 
f 79/93/41 80/94/42 81/95/43 82/96/44 
s 2
f 83/97/67 17/98/17 21/99/21 84/100/68 
s 1
f 85/101/43 86/102/44 87/103/41 88/104/42 
f 89/105/45 90/106/69 91/107/70 92/108/48 
f 93/109/45 94/110/46 95/111/47 96/112/48 
s 2
f 97/113/71 20/114/20 24/115/24 98/116/72 
s 1
f 99/117/47 100/118/48 101/119/45 102/120/46 
f 103/121/49 104/122/73 105/123/74 106/124/52 
f 107/125/49 108/126/50 109/127/51 110/128/52 
s 2
f 111/129/75 23/130/23 27/131/27 112/132/76 
s 1
f 113/133/51 114/134/52 115/135/49 116/136/50 
f 117/137/53 118/138/77 119/139/78 120/140/56 
f 121/141/53 122/142/54 123/143/55 124/144/56 
s 2
f 125/145/79 26/146/26 30/147/30 126/148/80 
s 1
f 127/149/55 128/150/56 129/151/53 130/152/54 
f 131/153/57 132/154/81 133/155/82 134/156/60 
f 135/157/57 136/158/58 137/159/59 138/160/60 
s 2
f 139/161/83 29/162/29 15/163/15 140/164/84 
s 1
f 141/165/59 142/166/60 143/167/57 144/168/58 
f 120/140/56 119/139/78 104/122/73 103/121/49 
f 124/144/56 123/143/55 108/126/50 107/125/49 
s 2
f 112/132/76 27/131/27 26/146/26 125/145/79 
s 1
f 116/136/50 115/135/49 128/150/56 127/149/55 
f 106/124/52 105/123/74 90/106/69 89/105/45 
f 110/128/52 109/127/51 94/110/46 93/109/45 
s 2
f 98/116/72 24/115/24 23/130/23 111/129/75 
s 1
f 102/120/46 101/119/45 114/134/52 113/133/51 
f 92/108/48 91/107/70 76/90/65 75/89/41 
f 96/112/48 95/111/47 80/94/42 79/93/41 
s 2
f 84/100/68 21/99/21 20/114/20 97/113/71 
s 1
f 88/104/42 87/103/41 100/118/48 99/117/47 
f 78/92/44 77/91/66 62/74/61 61/73/37 
f 82/96/44 81/95/43 66/78/38 65/77/37 
s 2
f 70/84/64 18/83/18 17/98/17 83/97/67 
s 1
f 74/88/38 73/87/37 86/102/44 85/101/43 
f 64/76/40 63/75/62 132/154/81 131/153/57 
f 68/80/40 67/79/39 136/158/58 135/157/57 
s 2
f 140/164/84 15/163/15 14/82/14 69/81/63 
s 1
f 144/168/58 143/167/57 72/86/40 71/85/39 
f 134/156/60 133/155/82 118/138/77 117/137/53 
f 138/160/60 137/159/59 122/142/54 121/141/53 
s 2
f 126/148/80 30/147/30 29/162/29 139/161/83 
s 1
f 130/152/54 129/151/53 142/166/60 141/165/59 
s 2
f 66/78/38 61/73/37 64/76/40 67/79/39 
f 38/50/38 65/77/37 68/80/40 39/51/39 
s 4
f 72/86/40 69/81/63 70/84/64 73/87/37 
s 2
f 40/52/40 71/85/39 74/88/38 37/49/37 
f 80/94/42 75/89/41 78/92/44 81/95/43 
f 42/54/42 79/93/41 82/96/44 43/55/43 
s 4
f 86/102/44 83/97/67 84/100/68 87/103/41 
s 2
f 44/56/44 85/101/43 88/104/42 41/53/41 
f 94/110/46 89/105/45 92/108/48 95/111/47 
f 46/58/46 93/109/45 96/112/48 47/59/47 
s 4
f 100/118/48 97/113/71 98/116/72 101/119/45 
s 2
f 48/60/48 99/117/47 102/120/46 45/57/45 
f 108/126/50 103/121/49 106/124/52 109/127/51 
f 50/62/50 107/125/49 110/128/52 51/63/51 
s 4
f 114/134/52 111/129/75 112/132/76 115/135/49 
s 2
f 52/64/52 113/133/51 116/136/50 49/61/49 
f 122/142/54 117/137/53 120/140/56 123/143/55 
f 54/66/54 121/141/53 124/144/56 55/67/55 
s 4
f 128/150/56 125/145/79 126/148/80 129/151/53 
s 2
f 56/68/56 127/149/55 130/152/54 53/65/53 
f 136/158/58 131/153/57 134/156/60 137/159/59 
f 58/70/58 135/157/57 138/160/60 59/71/59 
s 4
f 142/166/60 139/161/83 140/164/84 143/167/57 
s 2
f 60/72/60 141/165/59 144/168/58 57/69/57 
f 123/143/55 120/140/56 103/121/49 108/126/50 
f 55/67/55 124/144/56 107/125/49 50/62/50 
s 4
f 115/135/49 112/132/76 125/145/79 128/150/56 
s 2
f 49/61/49 116/136/50 127/149/55 56/68/56 
f 109/127/51 106/124/52 89/105/45 94/110/46 
f 51/63/51 110/128/52 93/109/45 46/58/46 
s 4
f 101/119/45 98/116/72 111/129/75 114/134/52 
s 2
f 45/57/45 102/120/46 113/133/51 52/64/52 
f 95/111/47 92/108/48 75/89/41 80/94/42 
f 47/59/47 96/112/48 79/93/41 42/54/42 
s 4
f 87/103/41 84/100/68 97/113/71 100/118/48 
s 2
f 41/53/41 88/104/42 99/117/47 48/60/48 
f 81/95/43 78/92/44 61/73/37 66/78/38 
f 43/55/43 82/96/44 65/77/37 38/50/38 
s 4
f 73/87/37 70/84/64 83/97/67 86/102/44 
s 2
f 37/49/37 74/88/38 85/101/43 44/56/44 
f 67/79/39 64/76/40 131/153/57 136/158/58 
f 39/51/39 68/80/40 135/157/57 58/70/58 
s 4
f 143/167/57 140/164/84 69/81/63 72/86/40 
s 2
f 57/69/57 144/168/58 71/85/39 40/52/40 
f 137/159/59 134/156/60 117/137/53 122/142/54 
f 59/71/59 138/160/60 121/141/53 54/66/54 
s 4
f 129/151/53 126/148/80 139/161/83 142/166/60 
s 2
f 53/65/53 130/152/54 141/165/59 60/72/60 
f 105/169/74 104/170/73 118/171/77 133/172/82 
f 90/173/69 105/169/74 133/172/82 132/174/81 
f 91/175/70 90/173/69 132/174/81 63/176/62 
f 76/177/65 91/175/70 63/176/62 62/178/61 
s off
f 76/177/65 62/178/61 77/179/66 
f 118/171/77 104/170/73 119/180/78 
# 132 polygons - 20 triangles

