# 3ds Max Wavefront OBJ Exporter v0.97b - (c)2007 guruware
# File Created: 31.01.2021 16:12:19

#
# object Oil_Barrel_1
#

v  0.6898 0.0000 0.5012
v  0.2635 0.0000 -0.8109
v  0.6898 0.0000 -0.5012
v  0.8527 0.0000 0.0000
v  0.7836 1.2318 -0.5693
v  0.7836 1.2906 -0.5693
v  0.9686 1.2906 0.0000
v  0.9686 1.2318 0.0000
v  0.2993 1.2318 -0.9212
v  0.2993 1.2906 -0.9212
v  -0.2993 1.2318 -0.9212
v  -0.2993 1.2906 -0.9212
v  -0.7836 1.2318 -0.5693
v  -0.7836 1.2906 -0.5693
v  -0.9686 1.2318 -0.0000
v  -0.9686 1.2906 -0.0000
v  -0.7836 1.2318 0.5693
v  -0.7836 1.2906 0.5693
v  -0.2993 1.2318 0.9212
v  -0.2993 1.2906 0.9212
v  0.2993 1.2318 0.9212
v  0.2993 1.2906 0.9212
v  0.7836 1.2318 0.5693
v  0.7836 1.2906 0.5693
v  0.6898 2.5224 0.5012
v  0.2635 2.5224 -0.8109
v  -0.2635 2.5224 -0.8109
v  0.2635 2.5224 0.8109
v  0.7422 -0.0400 -0.5393
v  0.7905 0.0139 -0.5743
v  0.9771 0.0139 -0.0000
v  0.9175 -0.0400 0.0000
v  0.2835 -0.0400 -0.8726
v  0.3019 0.0139 -0.9293
v  -0.2835 -0.0400 -0.8726
v  -0.3019 0.0139 -0.9293
v  -0.7422 -0.0400 -0.5393
v  -0.7905 0.0139 -0.5743
v  -0.9175 -0.0400 0.0000
v  -0.9771 0.0139 0.0000
v  -0.7422 -0.0400 0.5393
v  -0.7905 0.0139 0.5743
v  -0.2835 -0.0400 0.8726
v  -0.3019 0.0139 0.9293
v  0.2835 -0.0400 0.8726
v  0.3019 0.0139 0.9293
v  0.7422 -0.0400 0.5393
v  0.7905 0.0139 0.5743
v  0.7905 2.5086 -0.5743
v  0.7422 2.5624 -0.5393
v  0.9175 2.5624 0.0000
v  0.9771 2.5086 -0.0000
v  0.3019 2.5086 -0.9293
v  0.2835 2.5624 -0.8726
v  -0.3019 2.5086 -0.9293
v  -0.2835 2.5624 -0.8726
v  -0.7905 2.5086 -0.5743
v  -0.7422 2.5624 -0.5393
v  -0.9771 2.5086 0.0000
v  -0.9175 2.5624 0.0000
v  -0.7905 2.5086 0.5743
v  -0.7422 2.5624 0.5393
v  -0.3019 2.5086 0.9293
v  -0.2835 2.5624 0.8726
v  0.3019 2.5086 0.9293
v  0.2835 2.5624 0.8726
v  0.7905 2.5086 0.5743
v  0.7422 2.5624 0.5393
v  -0.2635 0.0000 -0.8109
v  -0.6898 0.0000 -0.5012
v  -0.8527 0.0000 0.0000
v  -0.6898 0.0000 0.5012
v  -0.2635 0.0000 0.8109
v  0.2635 0.0000 0.8109
v  0.7581 0.0539 -0.5508
v  0.9370 0.0539 -0.0000
v  0.7581 0.0539 0.5508
v  0.2896 0.0539 0.8912
v  -0.2896 0.0539 0.8912
v  -0.7581 0.0539 0.5508
v  -0.9370 0.0539 0.0000
v  -0.7581 0.0539 -0.5508
v  -0.2896 0.0539 -0.8912
v  0.2896 0.0539 -0.8912
v  0.9370 2.4686 -0.0000
v  0.7581 2.4686 -0.5508
v  0.2896 2.4686 -0.8912
v  -0.2896 2.4686 -0.8912
v  -0.7581 2.4686 -0.5508
v  -0.9370 2.4686 0.0000
v  -0.7581 2.4686 0.5508
v  -0.2896 2.4686 0.8912
v  0.2896 2.4686 0.8912
v  0.7581 2.4686 0.5508
v  0.6898 2.5224 -0.5012
v  0.8527 2.5224 0.0000
v  -0.2635 2.5224 0.8109
v  -0.6898 2.5224 0.5012
v  -0.8527 2.5224 0.0000
v  -0.6898 2.5224 -0.5012
v  0.7581 1.3129 -0.5508
v  0.9370 1.3129 -0.0000
v  0.9370 1.2096 -0.0000
v  0.7581 1.2096 -0.5508
v  0.2896 1.3129 -0.8912
v  0.2896 1.2096 -0.8912
v  -0.2896 1.3129 -0.8912
v  -0.2896 1.2096 -0.8912
v  -0.7581 1.3129 -0.5508
v  -0.7581 1.2096 -0.5508
v  -0.9370 1.3129 0.0000
v  -0.9370 1.2096 0.0000
v  -0.7581 1.3129 0.5508
v  -0.7581 1.2096 0.5508
v  -0.2896 1.3129 0.8912
v  -0.2896 1.2096 0.8912
v  0.2896 1.3129 0.8912
v  0.2896 1.2096 0.8912
v  0.7581 1.3129 0.5508
v  0.7581 1.2096 0.5508
# 120 vertices

vn -0.2604 -0.9468 -0.1892
vn -0.0995 -0.9468 0.3061
vn -0.2604 -0.9468 0.1892
vn -0.3219 -0.9468 0.0000
vn 0.7317 -0.4267 -0.5316
vn 0.7317 0.4267 -0.5316
vn 0.9044 0.4267 0.0000
vn 0.9044 -0.4267 0.0000
vn 0.2795 -0.4267 -0.8601
vn 0.2795 0.4267 -0.8601
vn -0.2795 -0.4267 -0.8601
vn -0.2795 0.4267 -0.8601
vn -0.7317 -0.4267 -0.5316
vn -0.7317 0.4267 -0.5316
vn -0.9044 -0.4267 0.0000
vn -0.9044 0.4267 0.0000
vn -0.7317 -0.4267 0.5316
vn -0.7317 0.4267 0.5316
vn -0.2795 -0.4267 0.8601
vn -0.2795 0.4267 0.8601
vn 0.2795 -0.4267 0.8601
vn 0.2795 0.4267 0.8601
vn 0.7317 -0.4267 0.5316
vn 0.7317 0.4267 0.5316
vn -0.2604 0.9468 -0.1892
vn -0.0995 0.9468 0.3061
vn 0.0995 0.9468 0.3061
vn -0.0995 0.9468 -0.3061
vn 0.1664 -0.9786 -0.1209
vn 0.8088 -0.0221 -0.5876
vn 0.9998 -0.0221 -0.0000
vn 0.2057 -0.9786 -0.0000
vn 0.0636 -0.9786 -0.1956
vn 0.3089 -0.0221 -0.9508
vn -0.0636 -0.9786 -0.1956
vn -0.3089 -0.0221 -0.9508
vn -0.1664 -0.9786 -0.1209
vn -0.8088 -0.0221 -0.5876
vn -0.2057 -0.9786 0.0000
vn -0.9998 -0.0221 0.0000
vn -0.1664 -0.9786 0.1209
vn -0.8088 -0.0221 0.5876
vn -0.0636 -0.9786 0.1956
vn -0.3089 -0.0221 0.9508
vn 0.0636 -0.9786 0.1956
vn 0.3089 -0.0221 0.9508
vn 0.1664 -0.9786 0.1209
vn 0.8088 -0.0221 0.5876
vn 0.8088 0.0221 -0.5876
vn 0.1664 0.9786 -0.1209
vn 0.2057 0.9786 -0.0000
vn 0.9998 0.0221 -0.0000
vn 0.3089 0.0221 -0.9508
vn 0.0636 0.9786 -0.1956
vn -0.3089 0.0221 -0.9508
vn -0.0636 0.9786 -0.1956
vn -0.8088 0.0221 -0.5876
vn -0.1664 0.9786 -0.1209
vn -0.9998 0.0221 0.0000
vn -0.2057 0.9786 -0.0000
vn -0.8088 0.0221 0.5876
vn -0.1664 0.9786 0.1209
vn -0.3089 0.0221 0.9508
vn -0.0636 0.9786 0.1956
vn 0.3089 0.0221 0.9508
vn 0.0636 0.9786 0.1956
vn 0.8088 0.0221 0.5876
vn 0.1664 0.9786 0.1209
vn 0.0995 -0.9468 0.3061
vn 0.2604 -0.9468 0.1892
vn 0.3219 -0.9468 -0.0000
vn 0.2604 -0.9468 -0.1892
vn 0.0995 -0.9468 -0.3061
vn -0.0995 -0.9468 -0.3061
vn 0.7369 0.4126 -0.5354
vn 0.9109 0.4126 -0.0000
vn 0.7369 0.4126 0.5354
vn 0.2815 0.4126 0.8663
vn -0.2815 0.4126 0.8663
vn -0.7369 0.4126 0.5354
vn -0.9109 0.4126 0.0000
vn -0.7369 0.4126 -0.5354
vn -0.2815 0.4126 -0.8663
vn 0.2815 0.4126 -0.8663
vn 0.9109 -0.4126 -0.0000
vn 0.7369 -0.4126 -0.5354
vn 0.2815 -0.4126 -0.8663
vn -0.2815 -0.4126 -0.8663
vn -0.7369 -0.4126 -0.5354
vn -0.9109 -0.4126 0.0000
vn -0.7369 -0.4126 0.5354
vn -0.2815 -0.4126 0.8663
vn 0.2815 -0.4126 0.8663
vn 0.7369 -0.4126 0.5354
vn -0.2604 0.9468 0.1892
vn -0.3219 0.9468 0.0000
vn 0.0995 0.9468 -0.3061
vn 0.2604 0.9468 -0.1892
vn 0.3219 0.9468 -0.0000
vn 0.2604 0.9468 0.1892
vn 0.6998 0.5017 -0.5084
vn 0.8650 0.5017 -0.0000
vn 0.8650 -0.5017 -0.0000
vn 0.6998 -0.5017 -0.5084
vn 0.2673 0.5017 -0.8227
vn 0.2673 -0.5017 -0.8227
vn -0.2673 0.5017 -0.8227
vn -0.2673 -0.5017 -0.8227
vn -0.6998 0.5017 -0.5085
vn -0.6998 -0.5017 -0.5085
vn -0.8650 0.5017 0.0000
vn -0.8650 -0.5017 0.0000
vn -0.6998 0.5017 0.5085
vn -0.6998 -0.5017 0.5085
vn -0.2673 0.5017 0.8227
vn -0.2673 -0.5017 0.8227
vn 0.2673 0.5017 0.8227
vn 0.2673 -0.5017 0.8227
vn 0.6998 0.5017 0.5085
vn 0.6998 -0.5017 0.5085
# 120 vertex normals

vt 0.9152 0.7735 0.0000
vt 0.8980 0.7791 0.0000
vt 0.9020 0.7735 0.0000
vt 0.9086 0.7714 0.0000
vt 0.9738 0.8122 0.0000
vt 0.9730 0.8122 0.0000
vt 0.9730 0.8048 0.0000
vt 0.9738 0.8048 0.0000
vt 0.9031 0.8460 0.0000
vt 0.9031 0.8468 0.0000
vt 0.8968 0.8468 0.0000
vt 0.8968 0.8460 0.0000
vt 0.9110 0.8460 0.0000
vt 0.9110 0.8468 0.0000
vt 0.9173 0.8460 0.0000
vt 0.9173 0.8468 0.0000
vt 0.9171 0.7694 0.0000
vt 0.9171 0.7702 0.0000
vt 0.9096 0.7702 0.0000
vt 0.9096 0.7694 0.0000
vt 0.9246 0.7694 0.0000
vt 0.9246 0.7702 0.0000
vt 0.9738 0.7761 0.0000
vt 0.9730 0.7761 0.0000
vt 0.9730 0.7697 0.0000
vt 0.9738 0.7697 0.0000
vt 0.9738 0.7839 0.0000
vt 0.9730 0.7839 0.0000
vt 0.9738 0.7903 0.0000
vt 0.9730 0.7903 0.0000
vt 0.9730 0.7973 0.0000
vt 0.9738 0.7973 0.0000
vt 0.9691 0.7754 0.0000
vt 0.9635 0.7926 0.0000
vt 0.9566 0.7926 0.0000
vt 0.9635 0.7713 0.0000
vt 0.9015 0.7728 0.0000
vt 0.9011 0.7722 0.0000
vt 0.9086 0.7697 0.0000
vt 0.9086 0.7705 0.0000
vt 0.8971 0.7788 0.0000
vt 0.8964 0.7786 0.0000
vt 0.8971 0.7863 0.0000
vt 0.8964 0.7865 0.0000
vt 0.9015 0.7923 0.0000
vt 0.9011 0.7929 0.0000
vt 0.9086 0.7946 0.0000
vt 0.9086 0.7954 0.0000
vt 0.9293 0.7824 0.0000
vt 0.9283 0.7826 0.0000
vt 0.9283 0.7747 0.0000
vt 0.9293 0.7749 0.0000
vt 0.9200 0.7863 0.0000
vt 0.9208 0.7865 0.0000
vt 0.9161 0.7929 0.0000
vt 0.9157 0.7923 0.0000
vt 0.9200 0.7788 0.0000
vt 0.9208 0.7786 0.0000
vt 0.9157 0.7728 0.0000
vt 0.9161 0.7722 0.0000
vt 0.9304 0.7824 0.0000
vt 0.9293 0.7826 0.0000
vt 0.9293 0.7747 0.0000
vt 0.9304 0.7749 0.0000
vt 0.9704 0.7895 0.0000
vt 0.9698 0.7890 0.0000
vt 0.9721 0.7819 0.0000
vt 0.9728 0.7819 0.0000
vt 0.9640 0.7941 0.0000
vt 0.9637 0.7934 0.0000
vt 0.9561 0.7941 0.0000
vt 0.9563 0.7934 0.0000
vt 0.9497 0.7895 0.0000
vt 0.9503 0.7890 0.0000
vt 0.9472 0.7819 0.0000
vt 0.9480 0.7819 0.0000
vt 0.9497 0.7744 0.0000
vt 0.9503 0.7749 0.0000
vt 0.9561 0.7697 0.0000
vt 0.9563 0.7705 0.0000
vt 0.9640 0.7697 0.0000
vt 0.9637 0.7705 0.0000
vt 0.9704 0.7744 0.0000
vt 0.9698 0.7749 0.0000
vt 0.8980 0.7860 0.0000
vt 0.9020 0.7916 0.0000
vt 0.9086 0.7937 0.0000
vt 0.9152 0.7916 0.0000
vt 0.9192 0.7860 0.0000
vt 0.9192 0.7791 0.0000
vt 0.9559 0.7956 0.0000
vt 0.9635 0.7956 0.0000
vt 0.9637 0.7964 0.0000
vt 0.9558 0.7964 0.0000
vt 0.9697 0.7926 0.0000
vt 0.9701 0.7933 0.0000
vt 0.9275 0.7825 0.0000
vt 0.9275 0.7749 0.0000
vt 0.9282 0.7747 0.0000
vt 0.9282 0.7826 0.0000
vt 0.9124 0.8092 0.0000
vt 0.9124 0.8016 0.0000
vt 0.9129 0.8015 0.0000
vt 0.9129 0.8094 0.0000
vt 0.9272 0.8125 0.0000
vt 0.9198 0.8109 0.0000
vt 0.9198 0.8102 0.0000
vt 0.9275 0.8118 0.0000
vt 0.9132 0.8126 0.0000
vt 0.9129 0.8119 0.0000
vt 0.8965 0.8299 0.0000
vt 0.8981 0.8225 0.0000
vt 0.8988 0.8225 0.0000
vt 0.8972 0.8302 0.0000
vt 0.8964 0.8158 0.0000
vt 0.8971 0.8155 0.0000
vt 0.9591 0.8294 0.0000
vt 0.9667 0.8294 0.0000
vt 0.9668 0.8299 0.0000
vt 0.9589 0.8299 0.0000
vt 0.9498 0.7926 0.0000
vt 0.9494 0.7933 0.0000
vt 0.9559 0.7946 0.0000
vt 0.9635 0.7946 0.0000
vt 0.9637 0.7953 0.0000
vt 0.9558 0.7953 0.0000
vt 0.9697 0.7916 0.0000
vt 0.9701 0.7922 0.0000
vt 0.9591 0.8462 0.0000
vt 0.9667 0.8462 0.0000
vt 0.9668 0.8467 0.0000
vt 0.9589 0.8467 0.0000
vt 0.9397 0.7695 0.0000
vt 0.9471 0.7710 0.0000
vt 0.9471 0.7718 0.0000
vt 0.9393 0.7701 0.0000
vt 0.9537 0.7694 0.0000
vt 0.9540 0.7701 0.0000
vt 0.9272 0.8114 0.0000
vt 0.9198 0.8099 0.0000
vt 0.9198 0.8091 0.0000
vt 0.9275 0.8107 0.0000
vt 0.9132 0.8115 0.0000
vt 0.9129 0.8108 0.0000
vt 0.9591 0.8125 0.0000
vt 0.9667 0.8125 0.0000
vt 0.9668 0.8131 0.0000
vt 0.9589 0.8131 0.0000
vt 0.9274 0.7749 0.0000
vt 0.9274 0.7825 0.0000
vt 0.9267 0.7826 0.0000
vt 0.9267 0.7747 0.0000
vt 0.9498 0.7916 0.0000
vt 0.9494 0.7922 0.0000
vt 0.9691 0.7885 0.0000
vt 0.9712 0.7819 0.0000
vt 0.9566 0.7713 0.0000
vt 0.9510 0.7754 0.0000
vt 0.9488 0.7819 0.0000
vt 0.9510 0.7885 0.0000
vt 0.9370 0.8299 0.0000
vt 0.9370 0.8458 0.0000
vt 0.9297 0.8458 0.0000
vt 0.9297 0.8299 0.0000
vt 0.9212 0.7930 0.0000
vt 0.9212 0.8090 0.0000
vt 0.9139 0.8090 0.0000
vt 0.9139 0.7930 0.0000
vt 0.9591 0.8302 0.0000
vt 0.9529 0.8462 0.0000
vt 0.9529 0.8302 0.0000
vt 0.9728 0.8134 0.0000
vt 0.9728 0.8294 0.0000
vt 0.9667 0.8134 0.0000
vt 0.9667 0.8302 0.0000
vt 0.9591 0.8134 0.0000
vt 0.9728 0.8302 0.0000
vt 0.9728 0.8462 0.0000
vt 0.9529 0.8294 0.0000
vt 0.9529 0.8134 0.0000
vt 0.9444 0.8299 0.0000
vt 0.9444 0.8458 0.0000
vt 0.9372 0.8458 0.0000
vt 0.9372 0.8299 0.0000
vt 0.9446 0.8089 0.0000
vt 0.9286 0.8089 0.0000
vt 0.9286 0.8017 0.0000
vt 0.9446 0.8017 0.0000
vt 0.9516 0.8299 0.0000
vt 0.9516 0.8458 0.0000
vt 0.9286 0.7944 0.0000
vt 0.9446 0.7944 0.0000
vt 0.9591 0.7966 0.0000
vt 0.9529 0.8125 0.0000
vt 0.9529 0.7966 0.0000
vt 0.8964 0.7955 0.0000
vt 0.9124 0.7955 0.0000
vt 0.8964 0.8016 0.0000
vt 0.9667 0.7966 0.0000
vt 0.8964 0.8092 0.0000
vt 0.9728 0.7966 0.0000
vt 0.9728 0.8125 0.0000
vt 0.9124 0.8154 0.0000
vt 0.8964 0.8154 0.0000
vt 0.9225 0.8458 0.0000
vt 0.9225 0.8299 0.0000
vt 0.9284 0.7930 0.0000
vt 0.9284 0.8090 0.0000
vt 0.9376 0.7932 0.0000
vt 0.9437 0.7887 0.0000
vt 0.9441 0.7889 0.0000
vt 0.9377 0.7935 0.0000
vt 0.9461 0.7815 0.0000
vt 0.9465 0.7815 0.0000
vt 0.9437 0.7742 0.0000
vt 0.9441 0.7740 0.0000
vt 0.9376 0.7698 0.0000
vt 0.9377 0.7694 0.0000
vt 0.9300 0.7698 0.0000
vt 0.9299 0.7694 0.0000
vt 0.9239 0.7742 0.0000
vt 0.9235 0.7740 0.0000
vt 0.9215 0.7815 0.0000
vt 0.9211 0.7815 0.0000
vt 0.9239 0.7887 0.0000
vt 0.9235 0.7889 0.0000
vt 0.9300 0.7932 0.0000
vt 0.9299 0.7935 0.0000
vt 0.9057 0.8454 0.0000
vt 0.9133 0.8454 0.0000
vt 0.9134 0.8458 0.0000
vt 0.9055 0.8458 0.0000
vt 0.9194 0.8409 0.0000
vt 0.9197 0.8412 0.0000
vt 0.9218 0.8337 0.0000
vt 0.9222 0.8337 0.0000
vt 0.9194 0.8265 0.0000
vt 0.9197 0.8262 0.0000
vt 0.9133 0.8220 0.0000
vt 0.9134 0.8216 0.0000
vt 0.9057 0.8220 0.0000
vt 0.9055 0.8216 0.0000
vt 0.8995 0.8265 0.0000
vt 0.8992 0.8262 0.0000
vt 0.8972 0.8337 0.0000
vt 0.8968 0.8337 0.0000
vt 0.8995 0.8409 0.0000
vt 0.8992 0.8412 0.0000
# 248 texture coords

o Oil_Barrel_1
g Oil_Barrel_1
s off
f 1/1/1 2/2/2 3/3/3 4/4/4 
s 2
f 5/5/5 6/6/6 7/7/7 8/8/8 
f 9/9/9 10/10/10 6/11/6 5/12/5 
f 11/13/11 12/14/12 10/10/10 9/9/9 
f 13/15/13 14/16/14 12/14/12 11/13/11 
f 15/17/15 16/18/16 14/19/14 13/20/13 
f 17/21/17 18/22/18 16/18/16 15/17/15 
f 19/23/19 20/24/20 18/25/18 17/26/17 
f 21/27/21 22/28/22 20/24/20 19/23/19 
f 23/29/23 24/30/24 22/28/22 21/27/21 
f 8/8/8 7/7/7 24/31/24 23/32/23 
s off
f 25/33/25 26/34/26 27/35/27 28/36/28 
s 2
f 29/37/29 30/38/30 31/39/31 32/40/32 
f 33/41/33 34/42/34 30/38/30 29/37/29 
f 35/43/35 36/44/36 34/42/34 33/41/33 
f 37/45/37 38/46/38 36/44/36 35/43/35 
f 39/47/39 40/48/40 38/46/38 37/45/37 
f 41/49/41 42/50/42 40/51/40 39/52/39 
f 43/53/43 44/54/44 42/55/42 41/56/41 
f 45/57/45 46/58/46 44/54/44 43/53/43 
f 47/59/47 48/60/48 46/58/46 45/57/45 
f 32/61/32 31/62/31 48/63/48 47/64/47 
f 49/65/49 50/66/50 51/67/51 52/68/52 
f 53/69/53 54/70/54 50/66/50 49/65/49 
f 55/71/55 56/72/56 54/70/54 53/69/53 
f 57/73/57 58/74/58 56/72/56 55/71/55 
f 59/75/59 60/76/60 58/74/58 57/73/57 
f 61/77/61 62/78/62 60/76/60 59/75/59 
f 63/79/63 64/80/64 62/78/62 61/77/61 
f 65/81/65 66/82/66 64/80/64 63/79/63 
f 67/83/67 68/84/68 66/82/66 65/81/65 
f 52/68/52 51/67/51 68/84/68 67/83/67 
f 4/4/4 3/3/3 29/37/29 32/40/32 
f 3/3/3 2/2/2 33/41/33 29/37/29 
f 2/2/2 69/85/69 35/43/35 33/41/33 
f 69/85/69 70/86/70 37/45/37 35/43/35 
f 70/86/70 71/87/71 39/47/39 37/45/37 
f 71/87/71 72/88/72 41/56/41 39/47/39 
f 72/88/72 73/89/73 43/53/43 41/56/41 
f 73/89/73 74/90/74 45/57/45 43/53/43 
f 74/90/74 1/1/1 47/59/47 45/57/45 
f 1/1/1 4/4/4 32/40/32 47/59/47 
f 75/91/75 76/92/76 31/93/31 30/94/30 
f 76/92/76 77/95/77 48/96/48 31/93/31 
f 77/97/77 78/98/78 46/99/46 48/100/48 
f 78/101/78 79/102/79 44/103/44 46/104/46 
f 79/105/79 80/106/80 42/107/42 44/108/44 
f 80/106/80 81/109/81 40/110/40 42/107/42 
f 81/111/81 82/112/82 38/113/38 40/114/40 
f 82/112/82 83/115/83 36/116/36 38/113/38 
f 83/117/83 84/118/84 34/119/34 36/120/36 
f 84/121/84 75/91/75 30/94/30 34/122/34 
f 85/123/85 86/124/86 49/125/49 52/126/52 
f 86/124/86 87/127/87 53/128/53 49/125/49 
f 87/129/87 88/130/88 55/131/55 53/132/53 
f 88/133/88 89/134/89 57/135/57 55/136/55 
f 89/134/89 90/137/90 59/138/59 57/135/57 
f 90/139/90 91/140/91 61/141/61 59/142/59 
f 91/140/91 92/143/92 63/144/63 61/141/61 
f 92/145/92 93/146/93 65/147/65 63/148/63 
f 93/149/93 94/150/94 67/151/67 65/152/65 
f 94/153/94 85/123/85 52/126/52 67/154/67 
f 95/155/95 96/156/96 51/67/51 50/66/50 
f 96/156/96 25/33/25 68/84/68 51/67/51 
f 25/33/25 28/36/28 66/82/66 68/84/68 
f 28/36/28 97/157/97 64/80/64 66/82/66 
f 97/157/97 98/158/98 62/78/62 64/80/64 
f 98/158/98 99/159/99 60/76/60 62/78/62 
f 99/159/99 100/160/100 58/74/58 60/76/60 
f 100/160/100 27/35/27 56/72/56 58/74/58 
f 27/35/27 26/34/26 54/70/54 56/72/56 
f 26/34/26 95/155/95 50/66/50 54/70/54 
s 1
f 101/161/101 86/162/86 85/163/85 102/164/102 
f 103/165/103 76/166/76 75/167/75 104/168/104 
f 105/169/105 87/129/87 86/170/86 101/171/101 
f 104/172/104 75/173/75 84/118/84 106/174/106 
f 107/175/107 88/130/88 87/129/87 105/169/105 
f 106/174/106 84/118/84 83/117/83 108/176/108 
f 109/177/109 89/178/89 88/130/88 107/175/107 
f 108/176/108 83/117/83 82/179/82 110/180/110 
f 111/181/111 90/182/90 89/183/89 109/184/109 
f 110/185/110 82/186/82 81/187/81 112/188/112 
f 113/189/113 91/190/91 90/182/90 111/181/111 
f 112/188/112 81/187/81 80/191/80 114/192/114 
f 115/193/115 92/145/92 91/194/91 113/195/113 
f 114/196/114 80/197/80 79/102/79 116/198/116 
f 117/199/117 93/146/93 92/145/92 115/193/115 
f 116/198/116 79/102/79 78/101/78 118/200/118 
f 119/201/119 94/202/94 93/146/93 117/199/117 
f 118/200/118 78/101/78 77/203/77 120/204/120 
f 102/164/102 85/163/85 94/205/94 119/206/119 
f 120/207/120 77/208/77 76/166/76 103/165/103 
s 2
f 101/209/101 102/210/102 7/211/7 6/212/6 
f 102/210/102 119/213/119 24/214/24 7/211/7 
f 119/213/119 117/215/117 22/216/22 24/214/24 
f 117/215/117 115/217/115 20/218/20 22/216/22 
f 115/217/115 113/219/113 18/220/18 20/218/20 
f 113/219/113 111/221/111 16/222/16 18/220/18 
f 111/221/111 109/223/109 14/224/14 16/222/16 
f 109/223/109 107/225/107 12/226/12 14/224/14 
f 107/225/107 105/227/105 10/228/10 12/226/12 
f 105/227/105 101/209/101 6/212/6 10/228/10 
f 103/229/103 104/230/104 5/231/5 8/232/8 
f 104/230/104 106/233/106 9/234/9 5/231/5 
f 106/233/106 108/235/108 11/236/11 9/234/9 
f 108/235/108 110/237/110 13/238/13 11/236/11 
f 110/237/110 112/239/112 15/240/15 13/238/13 
f 112/239/112 114/241/114 17/242/17 15/240/15 
f 114/241/114 116/243/116 19/244/19 17/242/17 
f 116/243/116 118/245/118 21/246/21 19/244/19 
f 118/245/118 120/247/120 23/248/23 21/246/21 
f 120/247/120 103/229/103 8/232/8 23/248/23 
s off
f 27/35/27 100/160/100 97/157/97 28/36/28 
f 100/160/100 99/159/99 98/158/98 97/157/97 
f 25/33/25 96/156/96 95/155/95 26/34/26 
f 74/90/74 73/89/73 70/86/70 69/85/69 
f 73/89/73 72/88/72 71/87/71 70/86/70 
f 1/1/1 74/90/74 69/85/69 2/2/2 
# 118 polygons

