# 3ds Max Wavefront OBJ Exporter v0.97b - (c)2007 guruware
# File Created: 31.01.2021 16:29:54

#
# object Pencil_1
#

v  0.1257 -0.0000 -0.0000
v  0.0000 0.1257 -0.0000
v  -0.1257 0.0000 -0.0000
v  0.0000 -0.1257 -0.0000
v  -0.1257 0.0000 -4.5024
v  -0.0000 -0.1257 -4.3416
v  -0.0000 0.1257 -4.3344
v  0.1257 -0.0000 -4.5024
v  -0.0628 0.0000 -4.7991
v  -0.0000 -0.0628 -4.7187
v  -0.0000 0.0628 -4.7151
v  0.0628 -0.0000 -4.7991
v  -0.0000 0.0000 -5.0958
# 13 vertices

vn 0.8166 0.0000 0.5773
vn 0.0000 0.8165 0.5774
vn -0.8165 -0.0001 0.5773
vn 0.0001 -0.8164 0.5775
vn -0.9894 0.0020 -0.1454
vn -0.0000 -0.9991 -0.0429
vn 0.0000 0.9991 -0.0414
vn 0.9894 0.0020 -0.1454
vn -0.9783 0.0023 -0.2072
vn -0.0000 -0.9864 -0.1644
vn -0.0000 0.9867 -0.1629
vn 0.9783 0.0023 -0.2072
vn -0.0000 0.0005 -1.0000
# 13 vertex normals

vt 0.9534 0.6625 0.0000
vt 0.9375 0.6784 0.0000
vt 0.9215 0.6625 0.0000
vt 0.9375 0.6467 0.0000
vt 0.9215 0.7179 0.0000
vt 0.9375 0.7001 0.0000
vt 0.9375 0.7317 0.0000
vt 0.9534 0.7179 0.0000
vt 0.0462 0.9501 0.0000
vt 0.0541 0.9538 0.0000
vt 0.0621 0.9448 0.0000
vt 0.0621 0.9323 0.0000
vt 0.0621 0.9639 0.0000
vt 0.0621 0.9607 0.0000
vt 0.0780 0.9501 0.0000
vt 0.0700 0.9538 0.0000
vt 0.1776 0.4404 0.0000
vt 0.1855 0.4440 0.0000
vt 0.1855 0.4315 0.0000
vt 0.1855 0.4473 0.0000
vt 0.1935 0.4404 0.0000
# 21 texture coords

o Pencil_1
g Pencil_1
s 1
f 1/1/1 2/2/2 3/3/3 4/4/4 
s 2
f 4/4/4 3/3/3 5/5/5 6/6/6 
s 4
f 3/3/3 2/2/2 7/7/7 5/5/5 
s 8
f 2/2/2 1/1/1 8/8/8 7/7/7 
s 16
f 1/1/1 4/4/4 6/6/6 8/8/8 
s 1
f 5/9/5 9/10/9 10/11/10 6/12/6 
f 7/13/7 11/14/11 9/10/9 5/9/5 
f 8/15/8 12/16/12 11/14/11 7/13/7 
f 6/12/6 10/11/10 12/16/12 8/15/8 
f 9/17/9 13/18/13 10/19/10 
f 11/20/11 13/18/13 9/17/9 
f 12/21/12 13/18/13 11/20/11 
f 10/19/10 13/18/13 12/21/12 
# 9 polygons - 4 triangles

