# 3ds Max Wavefront OBJ Exporter v0.97b - (c)2007 guruware
# File Created: 31.01.2021 16:27:26

#
# object Q_Tip_1
#

v  -0.0365 0.0365 -0.0009
v  0.0365 0.0365 -0.0009
v  0.0365 -0.0365 -0.0009
v  -0.0365 -0.0365 -0.0009
v  -0.0534 0.0534 0.3234
v  0.0534 0.0534 0.3234
v  0.0757 0.0757 0.0686
v  -0.0757 0.0757 0.0686
v  0.0534 -0.0534 0.3234
v  0.0757 -0.0757 0.0686
v  -0.0534 -0.0534 0.3234
v  -0.0757 -0.0757 0.0686
v  -0.0444 0.0444 0.3739
v  0.0444 0.0444 0.3739
v  0.0444 -0.0444 0.3739
v  -0.0444 -0.0444 0.3739
v  -0.0365 0.0365 3.3343
v  -0.0365 -0.0365 3.3343
v  0.0365 -0.0365 3.3343
v  0.0365 0.0365 3.3343
v  -0.0444 0.0444 2.9596
v  0.0444 0.0444 2.9596
v  0.0444 -0.0444 2.9596
v  -0.0444 -0.0444 2.9596
v  -0.0534 0.0534 3.0100
v  -0.0757 0.0757 3.2649
v  0.0757 0.0757 3.2649
v  0.0534 0.0534 3.0100
v  0.0757 -0.0757 3.2649
v  0.0534 -0.0534 3.0100
v  -0.0757 -0.0757 3.2649
v  -0.0534 -0.0534 3.0100
# 32 vertices

vn -0.4058 0.4058 -0.8190
vn 0.4058 0.4058 -0.8190
vn 0.4058 -0.4058 -0.8190
vn -0.4058 -0.4058 -0.8190
vn -0.6956 0.6956 0.1800
vn 0.6956 0.6956 0.1800
vn 0.6873 0.6873 -0.2349
vn -0.6873 0.6873 -0.2349
vn 0.6956 -0.6956 0.1800
vn 0.6873 -0.6873 -0.2349
vn -0.6956 -0.6956 0.1800
vn -0.6873 -0.6873 -0.2349
vn -0.7009 0.7009 0.1318
vn 0.7009 0.7009 0.1318
vn 0.7009 -0.7009 0.1318
vn -0.7009 -0.7009 0.1318
vn -0.4058 0.4058 0.8190
vn -0.4058 -0.4058 0.8190
vn 0.4058 -0.4058 0.8190
vn 0.4058 0.4058 0.8190
vn -0.7009 0.7009 -0.1318
vn 0.7009 0.7009 -0.1318
vn 0.7009 -0.7009 -0.1318
vn -0.7009 -0.7009 -0.1318
vn -0.6956 0.6956 -0.1800
vn -0.6873 0.6873 0.2349
vn 0.6873 0.6873 0.2349
vn 0.6956 0.6956 -0.1800
vn 0.6873 -0.6873 0.2349
vn 0.6956 -0.6956 -0.1800
vn -0.6873 -0.6873 0.2349
vn -0.6956 -0.6956 -0.1800
# 32 vertex normals

vt 0.4433 0.7947 0.0000
vt 0.4283 0.7947 0.0000
vt 0.4283 0.7797 0.0000
vt 0.4433 0.7797 0.0000
vt 0.4468 0.8038 0.0000
vt 0.4248 0.8038 0.0000
vt 0.4202 0.8039 0.0000
vt 0.4514 0.8039 0.0000
vt 0.4248 0.7819 0.0000
vt 0.4202 0.7729 0.0000
vt 0.4468 0.7819 0.0000
vt 0.4514 0.7729 0.0000
vt 0.4593 0.9122 0.0000
vt 0.4410 0.9122 0.0000
vt 0.4392 0.9132 0.0000
vt 0.4612 0.9132 0.0000
vt 0.4410 0.8940 0.0000
vt 0.4392 0.8913 0.0000
vt 0.4593 0.8940 0.0000
vt 0.4612 0.8913 0.0000
vt 0.4433 0.8526 0.0000
vt 0.4433 0.8376 0.0000
vt 0.4283 0.8376 0.0000
vt 0.4283 0.8526 0.0000
vt 0.6767 0.0452 0.0000
vt 0.6950 0.0452 0.0000
vt 0.6950 0.0901 0.0000
vt 0.6767 0.0901 0.0000
vt 0.6767 0.0270 0.0000
vt 0.6767 0.0719 0.0000
vt 0.6950 0.0270 0.0000
vt 0.6950 0.0719 0.0000
vt 0.4468 0.8505 0.0000
vt 0.4514 0.8595 0.0000
vt 0.4202 0.8595 0.0000
vt 0.4248 0.8505 0.0000
vt 0.4202 0.8284 0.0000
vt 0.4248 0.8285 0.0000
vt 0.4514 0.8284 0.0000
vt 0.4468 0.8285 0.0000
vt 0.4593 0.9571 0.0000
vt 0.4612 0.9599 0.0000
vt 0.4392 0.9599 0.0000
vt 0.4410 0.9571 0.0000
vt 0.4392 0.9379 0.0000
vt 0.4410 0.9389 0.0000
vt 0.4612 0.9379 0.0000
vt 0.4593 0.9389 0.0000
# 48 texture coords

o Q_Tip_1
g Q_Tip_1
s 1
f 1/1/1 2/2/2 3/3/3 4/4/4 
f 5/5/5 6/6/6 7/7/7 8/8/8 
f 6/6/6 9/9/9 10/10/10 7/7/7 
f 9/9/9 11/11/11 12/12/12 10/10/10 
f 11/11/11 5/5/5 8/8/8 12/12/12 
f 13/13/13 14/14/14 6/15/6 5/16/5 
f 14/14/14 15/17/15 9/18/9 6/15/6 
f 15/17/15 16/19/16 11/20/11 9/18/9 
f 16/19/16 13/13/13 5/16/5 11/20/11 
f 2/2/2 1/1/1 8/8/8 7/7/7 
f 1/1/1 4/4/4 12/12/12 8/8/8 
f 4/4/4 3/3/3 10/10/10 12/12/12 
f 3/3/3 2/2/2 7/7/7 10/10/10 
f 17/21/17 18/22/18 19/23/19 20/24/20 
f 14/25/14 13/26/13 21/27/21 22/28/22 
f 15/29/15 14/25/14 22/28/22 23/30/23 
f 16/31/16 15/29/15 23/30/23 24/32/24 
f 13/26/13 16/31/16 24/32/24 21/27/21 
f 25/33/25 26/34/26 27/35/27 28/36/28 
f 28/36/28 27/35/27 29/37/29 30/38/30 
f 30/38/30 29/37/29 31/39/31 32/40/32 
f 32/40/32 31/39/31 26/34/26 25/33/25 
f 21/41/21 25/42/25 28/43/28 22/44/22 
f 22/44/22 28/43/28 30/45/30 23/46/23 
f 23/46/23 30/45/30 32/47/32 24/48/24 
f 24/48/24 32/47/32 25/42/25 21/41/21 
f 20/24/20 27/35/27 26/34/26 17/21/17 
f 17/21/17 26/34/26 31/39/31 18/22/18 
f 18/22/18 31/39/31 29/37/29 19/23/19 
f 19/23/19 29/37/29 27/35/27 20/24/20 
# 30 polygons

