# 3ds Max Wavefront OBJ Exporter v0.97b - (c)2007 guruware
# File Created: 15.02.2021 09:56:55

#
# object Rock_Dirt_4
#

v  -0.2412 0.7674 -0.6892
v  -0.6266 0.7764 -0.5517
v  -0.1844 0.9097 0.6437
v  0.8689 0.7808 -0.1634
v  0.9187 0.5807 -0.1062
v  0.9806 0.5721 0.2018
v  0.9880 0.1378 0.2109
v  0.9470 0.0666 -0.1001
v  -0.3367 0.5169 -0.6811
v  0.8628 0.5895 -0.1611
v  0.8919 0.0666 -0.1571
v  -0.3392 0.1168 -0.6737
v  -0.9880 0.6197 0.4209
v  -0.6069 0.5199 -0.5776
v  -0.6267 0.1172 -0.5716
v  -0.9440 0.1385 0.3238
v  -0.9368 0.6208 0.4727
v  -0.8585 0.1330 0.5111
v  -0.1936 0.0722 0.6811
v  -0.1914 0.7118 0.6453
v  -0.8191 0.0424 0.5048
v  -0.9142 0.0436 0.2852
v  -0.5668 -0.0025 -0.3046
v  -0.1855 0.0375 0.6516
v  0.9418 0.5703 0.4873
v  0.7586 0.5648 0.5752
v  0.7716 0.1344 0.6050
v  0.9396 0.1627 0.4788
v  0.9672 0.8247 0.4925
v  0.9919 0.6723 0.5277
v  1.0301 0.6854 0.2001
v  0.9995 0.7628 0.1948
v  0.8869 0.7088 -0.2012
v  -0.3402 0.6308 -0.7416
v  -0.6393 0.6327 -0.6178
v  -1.0168 0.7661 0.4233
v  -0.9720 0.7991 0.3991
v  -0.9300 0.7950 0.4549
v  -0.9475 0.7545 0.4959
v  -0.1935 0.8321 0.6951
v  0.9219 0.7824 -0.1145
v  0.9622 0.6990 -0.1266
v  0.7250 0.8226 0.6094
v  0.7733 0.6660 0.6323
v  0.9163 0.0584 0.4669
v  0.9672 0.0446 0.2138
v  0.8806 0.0375 -0.1282
v  -0.0714 -0.0024 -0.4164
v  0.9193 0.0375 -0.0880
v  0.7254 0.0447 0.5912
# 50 vertices

vn 0.1533 0.6923 -0.7051
vn -0.5075 0.7246 -0.4662
vn -0.0643 0.8909 0.4497
vn 0.3161 0.8170 -0.4823
vn 0.8577 -0.1718 -0.4846
vn 0.9793 -0.1995 -0.0357
vn 0.9949 -0.0940 0.0373
vn 0.8545 -0.3682 -0.3665
vn 0.0328 -0.2598 -0.9651
vn 0.5427 -0.1882 -0.8186
vn 0.5160 -0.3687 -0.7732
vn -0.0088 -0.5106 -0.8598
vn -0.9559 -0.1706 0.2392
vn -0.7003 -0.2053 -0.6837
vn -0.6165 -0.4640 -0.6361
vn -0.9769 -0.2081 0.0489
vn -0.4957 -0.0991 0.8628
vn -0.6384 -0.1776 0.7489
vn -0.0915 -0.3290 0.9399
vn -0.0798 -0.1903 0.9785
vn -0.3955 -0.7256 0.5631
vn -0.7303 -0.6728 -0.1180
vn -0.2306 -0.9559 -0.1819
vn -0.0296 -0.8865 0.4618
vn 0.7731 -0.3123 0.5520
vn 0.2381 -0.2154 0.9471
vn 0.3926 -0.1416 0.9087
vn 0.8482 -0.1190 0.5161
vn 0.5571 0.7757 0.2964
vn 0.7983 -0.1343 0.5872
vn 0.9990 -0.0178 -0.0411
vn 0.8150 0.5707 -0.1002
vn 0.5570 0.0896 -0.8257
vn -0.0537 -0.0271 -0.9982
vn -0.7017 -0.0301 -0.7119
vn -0.9077 0.3619 0.2125
vn -0.3600 0.9329 0.0114
vn -0.3426 0.8374 0.4258
vn -0.4845 0.2650 0.8337
vn -0.0932 0.1315 0.9869
vn 0.5187 0.7922 -0.3215
vn 0.8832 0.0304 -0.4680
vn 0.1778 0.7355 0.6538
vn 0.2490 -0.1640 0.9545
vn 0.6144 -0.6671 0.4213
vn 0.6325 -0.7734 0.0428
vn 0.2602 -0.8903 -0.3737
vn 0.0843 -0.9506 -0.2988
vn 0.3868 -0.9028 -0.1880
vn 0.1876 -0.7435 0.6418
# 50 vertex normals

vt 0.0430 0.7801 0.0000
vt 0.0496 0.7809 0.0000
vt 0.0467 0.8027 0.0000
vt 0.0250 0.7930 0.0000
vt 0.2637 0.9114 0.0000
vt 0.2638 0.9170 0.0000
vt 0.2637 0.9144 0.0000
vt 0.2632 0.9084 0.0000
vt 0.2846 0.8961 0.0000
vt 0.2645 0.9103 0.0000
vt 0.2640 0.9072 0.0000
vt 0.2847 0.8937 0.0000
vt 0.3013 0.9135 0.0000
vt 0.2901 0.8969 0.0000
vt 0.2905 0.8943 0.0000
vt 0.3000 0.9089 0.0000
vt 0.3005 0.9146 0.0000
vt 0.2992 0.9125 0.0000
vt 0.2876 0.9177 0.0000
vt 0.2874 0.9211 0.0000
vt 0.2985 0.9120 0.0000
vt 0.2993 0.9078 0.0000
vt 0.2905 0.8985 0.0000
vt 0.2873 0.9170 0.0000
vt 0.2657 0.9218 0.0000
vt 0.2695 0.9226 0.0000
vt 0.2694 0.9205 0.0000
vt 0.2657 0.9191 0.0000
vt 0.0260 0.8038 0.0000
vt 0.0255 0.8038 0.0000
vt 0.0236 0.7989 0.0000
vt 0.0245 0.7991 0.0000
vt 0.0243 0.7922 0.0000
vt 0.0444 0.7780 0.0000
vt 0.0499 0.7788 0.0000
vt 0.0610 0.7954 0.0000
vt 0.0598 0.7954 0.0000
vt 0.0593 0.7961 0.0000
vt 0.0603 0.7965 0.0000
vt 0.0472 0.8030 0.0000
vt 0.0244 0.7938 0.0000
vt 0.0235 0.7933 0.0000
vt 0.0302 0.8045 0.0000
vt 0.0293 0.8046 0.0000
vt 0.2661 0.9181 0.0000
vt 0.2641 0.9138 0.0000
vt 0.2643 0.9075 0.0000
vt 0.2808 0.8985 0.0000
vt 0.2638 0.9083 0.0000
vt 0.2702 0.9195 0.0000
# 50 texture coords

o Rock_Dirt_4
g Rock_Dirt_4
s off
f 1/1/1 2/2/2 3/3/3 4/4/4 
f 5/5/5 6/6/6 7/7/7 8/8/8 
f 9/9/9 10/10/10 11/11/11 12/12/12 
f 13/13/13 14/14/14 15/15/15 16/16/16 
f 17/17/17 18/18/18 19/19/19 20/20/20 
f 21/21/21 22/22/22 23/23/23 24/24/24 
f 25/25/25 26/26/26 27/27/27 28/28/28 
f 10/10/10 5/5/5 8/8/8 11/11/11 
f 14/14/14 9/9/9 12/12/12 15/15/15 
f 17/17/17 13/13/13 16/16/16 18/18/18 
f 29/29/29 30/30/30 31/31/31 32/32/32 
f 4/4/4 33/33/33 34/34/34 1/1/1 
f 2/2/2 35/35/35 36/36/36 37/37/37 
f 38/38/38 39/39/39 40/40/40 3/3/3 
f 39/39/39 38/38/38 37/37/37 36/36/36 
f 35/35/35 2/2/2 1/1/1 34/34/34 
f 33/33/33 4/4/4 41/41/41 42/42/42 
f 30/30/30 29/29/29 43/43/43 44/44/44 
f 28/28/28 45/45/45 46/46/46 7/7/7 
f 18/18/18 21/21/21 24/24/24 19/19/19 
f 11/11/11 47/47/47 48/48/48 12/12/12 
f 15/15/15 23/23/23 22/22/22 16/16/16 
f 12/12/12 48/48/48 23/23/23 15/15/15 
f 8/8/8 49/49/49 47/47/47 11/11/11 
f 27/27/27 50/50/50 45/45/45 28/28/28 
f 16/16/16 22/22/22 21/21/21 18/18/18 
f 6/6/6 25/25/25 28/28/28 7/7/7 
f 31/31/31 42/42/42 41/41/41 32/32/32 
f 46/46/46 49/49/49 8/8/8 7/7/7 
f 19/19/19 27/27/27 26/26/26 20/20/20 
f 40/40/40 44/44/44 43/43/43 3/3/3 
f 24/24/24 50/50/50 27/27/27 19/19/19 
f 3/3/3 43/43/43 41/41/41 4/4/4 
f 2/2/2 37/37/37 38/38/38 3/3/3 
f 43/43/43 29/29/29 32/32/32 41/41/41 
f 23/23/23 48/48/48 50/50/50 24/24/24 
f 48/48/48 47/47/47 49/49/49 50/50/50 
f 49/49/49 46/46/46 45/45/45 50/50/50 
f 13/36/13 17/39/17 39/39/39 36/36/36 
f 17/39/17 20/40/20 40/40/40 39/39/39 
f 20/40/20 26/44/26 44/44/44 40/40/40 
f 26/44/26 25/30/25 30/30/30 44/44/44 
f 25/30/25 6/31/6 31/31/31 30/30/30 
f 6/31/6 5/42/5 42/42/42 31/31/31 
f 5/42/5 10/33/10 33/33/33 42/42/42 
f 10/33/10 9/34/9 34/34/34 33/33/33 
f 9/34/9 14/35/14 35/35/35 34/34/34 
f 14/35/14 13/36/13 36/36/36 35/35/35 
# 48 polygons

