# 3ds Max Wavefront OBJ Exporter v0.97b - (c)2007 guruware
# File Created: 31.01.2021 16:03:10

#
# object Rock_3
#

v  -0.1165 0.5982 -0.7255
v  0.7698 0.2609 -0.0610
v  0.7080 0.2639 -0.3506
v  0.6699 0.2632 -0.3879
v  0.7537 0.2037 -0.3676
v  0.8157 0.1950 -0.0596
v  0.8122 0.0553 -0.0504
v  0.7713 0.0292 -0.3615
v  -0.1564 0.4795 -0.7904
v  0.6978 0.2124 -0.4225
v  0.7161 0.0292 -0.4185
v  -0.1712 0.0793 -0.7777
v  -0.7598 0.5765 0.2459
v  -0.4786 0.4824 -0.6813
v  -0.4984 0.0797 -0.6753
v  -0.8157 0.1010 0.2201
v  -0.7070 0.5779 0.3261
v  -0.7302 0.0955 0.4075
v  -0.0018 0.0678 0.7570
v  0.0004 0.5603 0.7414
v  -0.6908 0.0049 0.4011
v  -0.1746 0.0074 -0.7490
v  0.7914 0.0072 -0.0476
v  0.0063 0.0001 0.7477
v  0.7769 0.1940 0.2259
v  0.1746 0.5091 0.7606
v  0.2362 0.0969 0.7904
v  0.7639 0.0667 0.2174
v  0.7437 0.2462 0.1972
v  -0.4475 0.6007 -0.6084
v  -0.6724 0.6229 0.2261
v  -0.6373 0.6238 0.2795
v  0.0170 0.6100 0.6990
v  0.1649 0.5880 0.7307
v  0.7405 0.0209 0.2055
v  0.7048 0.0001 -0.3895
v  -0.4979 0.0074 -0.6429
v  -0.7859 0.0061 0.1815
v  0.7436 0.0001 -0.3494
v  0.1900 0.0072 0.7766
# 40 vertices

vn 0.1814 0.7944 -0.5796
vn 0.6206 0.7842 0.0020
vn 0.4132 0.8783 -0.2406
vn 0.5169 0.6617 -0.5431
vn 0.8339 0.3423 -0.4329
vn 0.9608 0.2758 -0.0289
vn 0.9778 -0.2062 0.0365
vn 0.8561 -0.3398 -0.3894
vn 0.0354 0.2308 -0.9724
vn 0.5688 0.3410 -0.7485
vn 0.5126 -0.3643 -0.7776
vn 0.0335 -0.1959 -0.9801
vn -0.8475 0.5178 0.1164
vn -0.6659 0.2669 -0.6967
vn -0.6675 -0.1488 -0.7296
vn -0.9919 -0.1055 0.0700
vn -0.5857 0.5459 0.5991
vn -0.7208 -0.0968 0.6863
vn -0.2893 -0.0705 0.9546
vn -0.2407 0.3809 0.8927
vn -0.4503 -0.7576 0.4725
vn 0.0163 -0.7721 -0.6353
vn 0.5923 -0.8050 0.0345
vn -0.1936 -0.7377 0.6468
vn 0.8721 0.2095 0.4422
vn 0.3450 0.2330 0.9092
vn 0.3931 -0.0981 0.9143
vn 0.8484 -0.3045 0.4331
vn 0.6978 0.6916 0.1864
vn -0.4642 0.8033 -0.3732
vn -0.2910 0.9565 0.0199
vn -0.1695 0.9677 0.1867
vn -0.0761 0.9161 0.3936
vn 0.3230 0.7487 0.5790
vn 0.5345 -0.7917 0.2958
vn 0.2346 -0.9130 -0.3337
vn -0.5262 -0.7238 -0.4465
vn -0.6782 -0.7338 -0.0397
vn 0.3769 -0.9084 -0.1810
vn 0.1524 -0.6979 0.6998
# 40 vertex normals

vt 0.2970 0.9168 0.0000
vt 0.2833 0.9297 0.0000
vt 0.2833 0.9244 0.0000
vt 0.2838 0.9236 0.0000
vt 0.2824 0.9239 0.0000
vt 0.2825 0.9295 0.0000
vt 0.2826 0.9288 0.0000
vt 0.2821 0.9230 0.0000
vt 0.2975 0.9147 0.0000
vt 0.2832 0.9228 0.0000
vt 0.2829 0.9218 0.0000
vt 0.2978 0.9124 0.0000
vt 0.3130 0.9312 0.0000
vt 0.3039 0.9154 0.0000
vt 0.3043 0.9129 0.0000
vt 0.3139 0.9275 0.0000
vt 0.3123 0.9328 0.0000
vt 0.3131 0.9311 0.0000
vt 0.3010 0.9398 0.0000
vt 0.3009 0.9427 0.0000
vt 0.3123 0.9305 0.0000
vt 0.2980 0.9124 0.0000
vt 0.2830 0.9285 0.0000
vt 0.3008 0.9393 0.0000
vt 0.2844 0.9344 0.0000
vt 0.2978 0.9434 0.0000
vt 0.2967 0.9415 0.0000
vt 0.2846 0.9334 0.0000
vt 0.2849 0.9341 0.0000
vt 0.3037 0.9176 0.0000
vt 0.3113 0.9314 0.0000
vt 0.3108 0.9325 0.0000
vt 0.3004 0.9423 0.0000
vt 0.2978 0.9433 0.0000
vt 0.2850 0.9328 0.0000
vt 0.2832 0.9221 0.0000
vt 0.3045 0.9130 0.0000
vt 0.3132 0.9263 0.0000
vt 0.2826 0.9229 0.0000
vt 0.2975 0.9406 0.0000
# 40 texture coords

o Rock_3
g Rock_3
s off
f 1/1/1 2/2/2 3/3/3 4/4/4 
f 5/5/5 6/6/6 7/7/7 8/8/8 
f 9/9/9 10/10/10 11/11/11 12/12/12 
f 13/13/13 14/14/14 15/15/15 16/16/16 
f 17/17/17 18/18/18 19/19/19 20/20/20 
f 21/21/21 22/22/22 23/23/23 24/24/24 
f 25/25/25 26/26/26 27/27/27 28/28/28 
f 10/10/10 5/5/5 8/8/8 11/11/11 
f 14/14/14 9/9/9 12/12/12 15/15/15 
f 17/17/17 13/13/13 16/16/16 18/18/18 
f 29/29/29 25/25/25 6/6/6 2/2/2 
f 4/4/4 10/10/10 9/9/9 1/1/1 
f 30/30/30 14/14/14 13/13/13 31/31/31 
f 32/32/32 17/17/17 20/20/20 33/33/33 
f 17/17/17 32/32/32 31/31/31 13/13/13 
f 14/14/14 30/30/30 1/1/1 9/9/9 
f 10/10/10 4/4/4 3/3/3 5/5/5 
f 25/25/25 29/29/29 34/34/34 26/26/26 
f 28/28/28 35/35/35 23/23/23 7/7/7 
f 18/18/18 21/21/21 24/24/24 19/19/19 
f 11/11/11 36/36/36 22/22/22 12/12/12 
f 15/15/15 37/37/37 38/38/38 16/16/16 
f 12/12/12 22/22/22 37/37/37 15/15/15 
f 8/8/8 39/39/39 36/36/36 11/11/11 
f 27/27/27 40/40/40 35/35/35 28/28/28 
f 16/16/16 38/38/38 21/21/21 18/18/18 
f 6/6/6 25/25/25 28/28/28 7/7/7 
f 6/6/6 5/5/5 3/3/3 2/2/2 
f 23/23/23 39/39/39 8/8/8 7/7/7 
f 19/19/19 27/27/27 26/26/26 20/20/20 
f 20/20/20 26/26/26 34/34/34 33/33/33 
f 24/24/24 40/40/40 27/27/27 19/19/19 
f 1/1/1 30/30/30 33/33/33 34/34/34 
f 21/21/21 38/38/38 37/37/37 22/22/22 
f 22/22/22 36/36/36 39/39/39 23/23/23 
f 23/23/23 35/35/35 40/40/40 24/24/24 
f 30/30/30 31/31/31 32/32/32 33/33/33 
f 1/1/1 34/34/34 29/29/29 2/2/2 
# 38 polygons

