# 3ds Max Wavefront OBJ Exporter v0.97b - (c)2007 guruware
# File Created: 31.01.2021 16:34:06

#
# object Rock_Sharp_2
#

v  -0.2632 0.1290 0.1174
v  -0.1025 -0.2581 -0.6521
v  -0.6800 -0.1480 -0.1072
v  -0.4021 -0.0326 0.4361
v  -0.0537 0.2940 0.5492
v  0.1916 0.2837 0.0851
v  0.4043 0.1637 0.6027
v  0.5953 -0.2366 -0.3548
v  0.2986 -0.2728 -0.6249
v  -0.2796 -0.3055 -0.3531
v  -0.2982 -0.1843 0.1066
v  0.1086 0.0474 0.6689
v  0.1823 -0.0386 -0.3671
v  0.5554 -0.2174 0.2859
# 14 vertices

vn -0.4705 0.8595 -0.1998
vn -0.2912 -0.1660 -0.9421
vn -0.9835 -0.0920 -0.1558
vn -0.7495 -0.1800 0.6370
vn -0.2995 0.8075 0.5081
vn 0.1923 0.9355 -0.2963
vn 0.6467 0.3893 0.6559
vn 0.8505 -0.2724 -0.4499
vn 0.3705 -0.3904 -0.8428
vn -0.2771 -0.9521 -0.1295
vn -0.1640 -0.9327 0.3212
vn -0.0634 -0.2965 0.9529
vn 0.1363 0.7966 -0.5889
vn 0.7327 -0.5770 0.3609
# 14 vertex normals

vt 0.2918 0.9259 0.0000
vt 0.2856 0.9106 0.0000
vt 0.2986 0.9186 0.0000
vt 0.2956 0.9300 0.0000
vt 0.2896 0.9354 0.0000
vt 0.2832 0.9281 0.0000
vt 0.2814 0.9372 0.0000
vt 0.2739 0.9187 0.0000
vt 0.2783 0.9126 0.0000
vt 0.2901 0.9149 0.0000
vt 0.2924 0.9236 0.0000
vt 0.2871 0.9365 0.0000
vt 0.2815 0.9181 0.0000
vt 0.2773 0.9299 0.0000
# 14 texture coords

o Rock_Sharp_2
g Rock_Sharp_2
s 1
f 1/1/1 2/2/2 3/3/3 
s 2
f 1/1/1 3/3/3 4/4/4 
f 1/1/1 4/4/4 5/5/5 
s 1
f 1/1/1 5/5/5 6/6/6 
s 2
f 6/6/6 7/7/7 8/8/8 
s 4
f 2/2/2 9/9/9 8/8/8 10/10/10 
f 3/3/3 10/10/10 11/11/11 
f 4/4/4 11/11/11 12/12/12 
s 8
f 5/5/5 12/12/12 7/7/7 
s 1
f 8/8/8 9/9/9 13/13/13 6/6/6 
s 8
f 10/10/10 3/3/3 2/2/2 
s 4
f 11/11/11 4/4/4 3/3/3 
s 8
f 12/12/12 5/5/5 4/4/4 
s 4
f 7/7/7 6/6/6 5/5/5 
f 14/14/14 10/10/10 8/8/8 
f 14/14/14 11/11/11 10/10/10 
f 14/14/14 12/12/12 11/11/11 
s 1
f 14/14/14 7/7/7 12/12/12 
s 2
f 14/14/14 8/8/8 7/7/7 
s 1
f 9/9/9 2/2/2 13/13/13 
f 1/1/1 6/6/6 13/13/13 2/2/2 
# 3 polygons - 18 triangles

