# 3ds Max Wavefront OBJ Exporter v0.97b - (c)2007 guruware
# File Created: 15.02.2021 11:33:04

#
# object Rock_Dirt_2
#

v  -0.3686 0.1167 0.4963
v  0.1818 0.1167 0.6298
v  0.1979 0.4139 0.6659
v  -0.4002 0.4139 0.5331
v  0.7451 0.0544 0.5139
v  0.8119 0.0913 -0.1043
v  0.8156 0.4086 -0.1034
v  0.7451 0.4568 0.5139
v  0.6023 0.0920 -0.6082
v  0.0610 0.0913 -0.6634
v  0.0535 0.4086 -0.6659
v  0.6106 0.4139 -0.6089
v  -0.6205 0.0544 -0.5613
v  -0.8156 0.0544 0.0808
v  -0.8156 0.4568 0.0808
v  -0.6205 0.4568 -0.5613
v  -0.7666 -0.0046 0.1227
v  -0.5582 -0.0046 -0.5634
v  0.1816 0.0181 0.5847
v  -0.3467 0.0181 0.4519
v  0.8214 0.6509 -0.0970
v  0.6746 0.6574 -0.5693
v  0.1974 0.6551 0.6809
v  0.7383 0.6762 0.5748
v  0.7448 0.0920 -0.5021
v  0.7454 0.4139 -0.5075
v  -0.7934 0.0544 0.1812
v  -0.7934 0.4568 0.1812
v  0.6788 0.0544 0.5870
v  0.6788 0.4568 0.5870
v  -0.5448 0.0544 -0.6243
v  -0.5448 0.4568 -0.6243
v  0.6837 -0.0046 0.5248
v  0.6285 0.0102 -0.5190
v  0.7973 0.5915 0.5298
v  0.6981 0.5925 0.6380
v  -0.6686 0.5892 -0.5890
v  -0.6070 0.6704 -0.6151
v  -0.5591 0.5916 -0.6781
v  0.6265 0.5464 -0.6607
v  0.7906 0.5551 -0.5297
v  -0.8388 0.6744 0.1394
v  -0.8700 0.5887 0.0745
v  -0.8368 0.5924 0.2140
v  0.0617 0.0053 -0.6181
v  0.7646 0.0053 -0.0966
v  -0.4089 0.6628 0.5435
v  -0.4267 0.5354 0.5873
v  0.1943 0.5318 0.7268
v  0.8744 0.5299 -0.1074
v  0.0554 0.5263 -0.7279
v  0.0539 0.6603 -0.6805
# 52 vertices

vn -0.3881 -0.2948 0.8732
vn -0.0910 -0.2584 0.9617
vn -0.0090 -0.2959 0.9552
vn -0.4489 -0.3082 0.8388
vn 0.8690 -0.3506 0.3492
vn 0.9684 -0.2466 -0.0379
vn 0.9735 -0.2279 -0.0200
vn 0.8866 -0.2012 0.4166
vn 0.3127 -0.3553 -0.8809
vn 0.0254 -0.2364 -0.9713
vn 0.0063 -0.2403 -0.9707
vn 0.3624 -0.2052 -0.9092
vn -0.7979 -0.3383 -0.4989
vn -0.9382 -0.3404 -0.0616
vn -0.9788 -0.2015 -0.0355
vn -0.8143 -0.2042 -0.5433
vn -0.4548 -0.8786 0.1458
vn -0.3088 -0.8702 -0.3840
vn -0.0598 -0.7992 0.5980
vn -0.2546 -0.7916 0.5555
vn 0.6348 0.7702 -0.0619
vn 0.3611 0.8171 -0.4495
vn -0.0142 0.7838 0.6208
vn 0.4690 0.7704 0.4318
vn 0.8020 -0.3936 -0.4493
vn 0.8353 -0.1823 -0.5187
vn -0.7515 -0.3684 0.5473
vn -0.8525 -0.2002 0.4829
vn 0.3672 -0.3641 0.8559
vn 0.4814 -0.2009 0.8532
vn -0.3110 -0.3507 -0.8833
vn -0.3772 -0.2056 -0.9030
vn 0.3322 -0.8796 0.3404
vn 0.2967 -0.8732 -0.3866
vn 0.9327 0.0596 0.3556
vn 0.4140 0.0772 0.9070
vn -0.8551 0.0357 -0.5173
vn -0.4063 0.7754 -0.4834
vn -0.3051 0.1031 -0.9467
vn 0.3416 0.0948 -0.9351
vn 0.8697 0.1884 -0.4562
vn -0.6258 0.7641 0.1566
vn -0.9969 0.0149 -0.0771
vn -0.8225 0.0765 0.5636
vn 0.0347 -0.8295 -0.5574
vn 0.5585 -0.8275 -0.0584
vn -0.2894 0.7771 0.5589
vn -0.4609 -0.0610 0.8853
vn -0.0207 -0.0716 0.9972
vn 0.9985 -0.0365 -0.0398
vn 0.0149 -0.0876 -0.9960
vn 0.0309 0.7926 -0.6089
# 52 vertex normals

vt 0.3329 0.9377 0.0000
vt 0.3232 0.9422 0.0000
vt 0.3231 0.9447 0.0000
vt 0.3336 0.9401 0.0000
vt 0.3123 0.9419 0.0000
vt 0.3085 0.9316 0.0000
vt 0.3085 0.9336 0.0000
vt 0.3123 0.9445 0.0000
vt 0.3103 0.9220 0.0000
vt 0.3202 0.9189 0.0000
vt 0.3203 0.9208 0.0000
vt 0.3102 0.9240 0.0000
vt 0.3332 0.9178 0.0000
vt 0.3395 0.9283 0.0000
vt 0.3395 0.9308 0.0000
vt 0.3332 0.9203 0.0000
vt 0.3388 0.9288 0.0000
vt 0.3321 0.9176 0.0000
vt 0.3231 0.9407 0.0000
vt 0.3323 0.9364 0.0000
vt 0.0694 0.8161 0.0000
vt 0.0700 0.8081 0.0000
vt 0.0827 0.8263 0.0000
vt 0.0733 0.8267 0.0000
vt 0.3081 0.9244 0.0000
vt 0.3081 0.9263 0.0000
vt 0.3395 0.9301 0.0000
vt 0.3395 0.9327 0.0000
vt 0.3138 0.9429 0.0000
vt 0.3138 0.9455 0.0000
vt 0.3316 0.9170 0.0000
vt 0.3316 0.9195 0.0000
vt 0.3135 0.9415 0.0000
vt 0.3102 0.9231 0.0000
vt 0.0721 0.8264 0.0000
vt 0.0736 0.8274 0.0000
vt 0.0930 0.8023 0.0000
vt 0.0919 0.8028 0.0000
vt 0.0914 0.8015 0.0000
vt 0.0700 0.8059 0.0000
vt 0.0679 0.8082 0.0000
vt 0.0986 0.8140 0.0000
vt 0.0993 0.8128 0.0000
vt 0.0993 0.8146 0.0000
vt 0.3203 0.9191 0.0000
vt 0.3094 0.9310 0.0000
vt 0.0927 0.8218 0.0000
vt 0.0934 0.8220 0.0000
vt 0.0829 0.8267 0.0000
vt 0.0683 0.8155 0.0000
vt 0.0801 0.8027 0.0000
vt 0.0803 0.8043 0.0000
# 52 texture coords

o Rock_Dirt_2
g Rock_Dirt_2
s off
f 1/1/1 2/2/2 3/3/3 4/4/4 
f 5/5/5 6/6/6 7/7/7 8/8/8 
f 9/9/9 10/10/10 11/11/11 12/12/12 
f 13/13/13 14/14/14 15/15/15 16/16/16 
f 17/17/17 18/18/18 19/19/19 20/20/20 
f 21/21/21 22/22/22 23/23/23 24/24/24 
f 6/6/6 25/25/25 26/26/26 7/7/7 
f 27/27/27 1/1/1 4/4/4 28/28/28 
f 2/2/2 29/29/29 30/30/30 3/3/3 
f 10/10/10 31/31/31 32/32/32 11/11/11 
f 29/29/29 33/33/33 5/5/5 
f 31/31/31 18/18/18 13/13/13 
f 25/25/25 34/34/34 9/9/9 
f 35/35/35 24/24/24 36/36/36 
f 37/37/37 38/38/38 39/39/39 
f 40/40/40 22/22/22 41/41/41 
f 27/27/27 14/14/14 17/17/17 
f 42/42/42 43/43/43 44/44/44 
f 20/20/20 1/1/1 27/27/27 17/17/17 
f 18/18/18 31/31/31 10/10/10 45/45/45 
f 34/34/34 25/25/25 6/6/6 46/46/46 
f 33/33/33 29/29/29 2/2/2 19/19/19 
f 47/47/47 48/48/48 49/49/49 23/23/23 
f 24/24/24 35/35/35 50/50/50 21/21/21 
f 22/22/22 40/40/40 51/51/51 52/52/52 
f 38/38/38 37/37/37 43/43/43 42/42/42 
f 29/29/29 5/5/5 8/8/8 30/30/30 
f 25/25/25 9/9/9 12/12/12 26/26/26 
f 31/31/31 13/13/13 16/16/16 32/32/32 
f 17/17/17 14/14/14 13/13/13 18/18/18 
f 46/46/46 6/6/6 5/5/5 33/33/33 
f 21/21/21 50/50/50 41/41/41 22/22/22 
f 42/42/42 44/44/44 48/48/48 47/47/47 
f 14/14/14 27/27/27 28/28/28 15/15/15 
f 45/45/45 10/10/10 9/9/9 34/34/34 
f 19/19/19 2/2/2 1/1/1 20/20/20 
f 23/23/23 49/49/49 36/36/36 24/24/24 
f 52/52/52 51/51/51 39/39/39 38/38/38 
f 52/52/52 38/38/38 42/42/42 47/47/47 
f 22/22/22 52/52/52 47/47/47 23/23/23 
f 18/18/18 45/45/45 34/34/34 46/46/46 
f 18/18/18 46/46/46 33/33/33 19/19/19 
f 30/36/30 8/35/8 35/35/35 36/36/36 
f 8/35/8 7/50/7 50/50/50 35/35/35 
f 7/50/7 26/41/26 41/41/41 50/50/50 
f 26/41/26 12/40/12 40/40/40 41/41/41 
f 12/40/12 11/51/11 51/51/51 40/40/40 
f 11/51/11 32/39/32 39/39/39 51/51/51 
f 32/39/32 16/37/16 37/37/37 39/39/39 
f 16/37/16 15/43/15 43/43/43 37/37/37 
f 15/43/15 28/44/28 44/44/44 43/43/43 
f 28/44/28 4/48/4 48/48/48 44/44/44 
f 4/48/4 3/49/3 49/49/49 48/48/48 
f 3/49/3 30/36/30 36/36/36 49/49/49 
# 46 polygons - 8 triangles

