# 3ds Max Wavefront OBJ Exporter v0.97b - (c)2007 guruware
# File Created: 31.01.2021 16:01:06

#
# object Rock_1
#

v  -0.1921 -0.0558 -0.3257
v  -0.2223 -0.0259 0.2994
v  0.1894 -0.0365 0.3017
v  0.1893 -0.0536 -0.3380
v  0.3392 -0.1038 -0.3160
v  0.3490 -0.0986 0.2850
v  0.3781 -0.6206 0.3051
v  0.3676 -0.6342 -0.3100
v  -0.2965 -0.0941 -0.3621
v  0.2834 -0.0950 -0.3710
v  0.3124 -0.6342 -0.3669
v  -0.3445 -0.6392 -0.3762
v  -0.3880 -0.0549 0.2890
v  -0.3601 -0.0922 -0.2995
v  -0.3795 -0.6392 -0.3413
v  -0.3707 -0.6343 0.3157
v  -0.3339 -0.0539 0.3435
v  -0.3137 -0.6343 0.3707
v  0.3028 -0.6206 0.3806
v  0.2895 -0.0970 0.3351
v  -0.2093 -0.6585 0.3411
v  -0.2360 -0.6560 -0.3535
v  0.2031 -0.6577 -0.3394
v  0.2079 -0.6562 0.3429
v  0.3162 -0.0412 0.1818
v  0.3093 -0.0510 -0.2169
v  -0.3253 -0.0508 -0.1955
v  -0.3444 -0.0301 0.1827
v  0.3399 -0.6562 0.2108
v  0.3381 -0.6585 -0.2061
v  -0.3566 -0.6560 -0.2329
v  -0.3426 -0.6577 0.2061
# 32 vertices

vn -0.0625 0.9202 -0.3864
vn -0.0188 0.9631 0.2685
vn 0.0957 0.8672 0.4886
vn 0.0461 0.8847 -0.4639
vn 0.8281 0.4137 -0.3782
vn 0.7997 0.4458 0.4021
vn 0.8081 -0.4629 0.3644
vn 0.7816 -0.5190 -0.3461
vn -0.3452 0.5100 -0.7879
vn 0.3751 0.5022 -0.7792
vn 0.3668 -0.5350 -0.7611
vn -0.3488 -0.5383 -0.7672
vn -0.7871 0.5339 0.3090
vn -0.7692 0.5133 -0.3806
vn -0.7689 -0.5367 -0.3475
vn -0.7553 -0.5452 0.3639
vn -0.3411 0.5545 0.7591
vn -0.3410 -0.5255 0.7795
vn 0.3642 -0.4527 0.8139
vn 0.3600 0.4489 0.8179
vn -0.0307 -0.9432 0.3309
vn -0.0139 -0.9392 -0.3432
vn 0.0345 -0.9480 -0.3163
vn 0.0537 -0.9293 0.3653
vn 0.5197 0.8525 0.0570
vn 0.4784 0.8726 -0.0983
vn -0.3567 0.9274 -0.1124
vn -0.3184 0.9477 -0.0235
vn 0.3634 -0.9301 0.0542
vn 0.3286 -0.9440 -0.0299
vn -0.3414 -0.9398 -0.0140
vn -0.3141 -0.9488 0.0349
# 32 vertex normals

vt 0.3489 0.9494 0.0000
vt 0.3520 0.9604 0.0000
vt 0.3444 0.9620 0.0000
vt 0.3417 0.9506 0.0000
vt 0.3391 0.9513 0.0000
vt 0.3413 0.9619 0.0000
vt 0.3409 0.9591 0.0000
vt 0.3386 0.9482 0.0000
vt 0.3507 0.9481 0.0000
vt 0.3399 0.9502 0.0000
vt 0.3393 0.9470 0.0000
vt 0.3515 0.9442 0.0000
vt 0.3550 0.9594 0.0000
vt 0.3521 0.9489 0.0000
vt 0.3523 0.9447 0.0000
vt 0.3548 0.9563 0.0000
vt 0.3543 0.9605 0.0000
vt 0.3540 0.9574 0.0000
vt 0.3426 0.9601 0.0000
vt 0.3427 0.9625 0.0000
vt 0.3519 0.9572 0.0000
vt 0.3496 0.9449 0.0000
vt 0.3415 0.9469 0.0000
vt 0.3442 0.9588 0.0000
vt 0.3415 0.9603 0.0000
vt 0.3400 0.9532 0.0000
vt 0.3519 0.9512 0.0000
vt 0.3538 0.9578 0.0000
vt 0.3412 0.9570 0.0000
vt 0.3395 0.9497 0.0000
vt 0.3523 0.9466 0.0000
vt 0.3539 0.9543 0.0000
# 32 texture coords

o Rock_1
g Rock_1
s 1
f 1/1/1 2/2/2 3/3/3 4/4/4 
s 2
f 5/5/5 6/6/6 7/7/7 8/8/8 
f 9/9/9 10/10/10 11/11/11 12/12/12 
f 13/13/13 14/14/14 15/15/15 16/16/16 
f 17/17/17 18/18/18 19/19/19 20/20/20 
s 1
f 21/21/21 22/22/22 23/23/23 24/24/24 
s 4
f 6/6/6 20/20/20 19/19/19 7/7/7 
f 10/10/10 5/5/5 8/8/8 11/11/11 
f 14/14/14 9/9/9 12/12/12 15/15/15 
f 17/17/17 13/13/13 16/16/16 18/18/18 
s 2
f 25/25/25 6/6/6 5/5/5 26/26/26 
s 8
f 4/4/4 10/10/10 9/9/9 1/1/1 
s 1
f 27/27/27 14/14/14 13/13/13 28/28/28 
s 8
f 2/2/2 17/17/17 20/20/20 3/3/3 
s 1
f 17/17/17 2/2/2 28/28/28 13/13/13 
f 14/14/14 27/27/27 1/1/1 9/9/9 
f 10/10/10 4/4/4 26/26/26 5/5/5 
s 16
f 6/6/6 25/25/25 3/3/3 20/20/20 
s 1
f 7/7/7 29/29/29 30/30/30 8/8/8 
f 18/18/18 21/21/21 24/24/24 19/19/19 
f 11/11/11 23/23/23 22/22/22 12/12/12 
f 15/15/15 31/31/31 32/32/32 16/16/16 
f 12/12/12 22/22/22 31/31/31 15/15/15 
f 8/8/8 30/30/30 23/23/23 11/11/11 
f 19/19/19 24/24/24 29/29/29 7/7/7 
f 16/16/16 32/32/32 21/21/21 18/18/18 
f 1/1/1 27/27/27 28/28/28 2/2/2 
f 3/3/3 25/25/25 26/26/26 4/4/4 
f 23/23/23 30/30/30 29/29/29 24/24/24 
f 21/21/21 32/32/32 31/31/31 22/22/22 
# 30 polygons

