# 3ds Max Wavefront OBJ Exporter v0.97b - (c)2007 guruware
# File Created: 31.01.2021 16:04:22

#
# object Rock_4
#

v  -0.2448 0.6356 -0.6218
v  -0.5758 0.6382 -0.5047
v  -0.1749 0.7616 0.6030
v  0.8348 0.6402 -0.1265
v  0.9187 0.5807 -0.1062
v  0.9806 0.5721 0.2018
v  0.9880 0.1378 0.2109
v  0.9470 0.0666 -0.1001
v  -0.3367 0.5169 -0.6811
v  0.8628 0.5895 -0.1611
v  0.8919 0.0666 -0.1571
v  -0.3392 0.1168 -0.6737
v  -0.9880 0.6197 0.4209
v  -0.6069 0.5199 -0.5776
v  -0.6267 0.1172 -0.5716
v  -0.9440 0.1385 0.3238
v  -0.9368 0.6208 0.4727
v  -0.8585 0.1330 0.5111
v  -0.1936 0.0722 0.6811
v  -0.1914 0.7118 0.6453
v  -0.8191 0.0424 0.5048
v  -0.9142 0.0436 0.2852
v  -0.5668 -0.0025 -0.3046
v  -0.1855 0.0375 0.6516
v  0.9418 0.5703 0.4873
v  0.7586 0.5648 0.5752
v  0.7716 0.1344 0.6050
v  0.9396 0.1627 0.4788
v  0.9086 0.6811 0.4586
v  0.9347 0.6379 0.2004
v  -0.9259 0.6549 0.3933
v  -0.8920 0.6556 0.4277
v  0.8729 0.6409 -0.0892
v  0.7003 0.6738 0.5453
v  0.9163 0.0584 0.4669
v  0.9672 0.0446 0.2138
v  0.8806 0.0375 -0.1282
v  -0.0714 -0.0024 -0.4164
v  0.9193 0.0375 -0.0880
v  0.7254 0.0447 0.5912
# 40 vertices

vn 0.1441 0.7375 -0.6598
vn -0.4428 0.7920 -0.4204
vn -0.0379 0.9169 0.3973
vn 0.2717 0.8706 -0.4102
vn 0.8398 0.3288 -0.4319
vn 0.9546 0.2969 -0.0256
vn 0.9949 -0.0940 0.0373
vn 0.8545 -0.3682 -0.3665
vn -0.0318 0.2342 -0.9717
vn 0.5287 0.3653 -0.7662
vn 0.5160 -0.3687 -0.7732
vn -0.0088 -0.5106 -0.8598
vn -0.8907 0.3958 0.2234
vn -0.6567 0.2691 -0.7045
vn -0.6165 -0.4640 -0.6361
vn -0.9769 -0.2081 0.0489
vn -0.4787 0.4549 0.7509
vn -0.6384 -0.1776 0.7489
vn -0.0915 -0.3290 0.9399
vn -0.0780 0.3912 0.9170
vn -0.3955 -0.7256 0.5631
vn -0.7303 -0.6728 -0.1180
vn -0.2306 -0.9559 -0.1819
vn -0.0296 -0.8865 0.4618
vn 0.7918 0.1707 0.5864
vn 0.2759 0.2252 0.9344
vn 0.3926 -0.1416 0.9087
vn 0.8482 -0.1190 0.5161
vn 0.5064 0.8020 0.3168
vn 0.6882 0.7193 -0.0945
vn -0.3314 0.9434 0.0112
vn -0.2452 0.9221 0.2993
vn 0.4417 0.8580 -0.2623
vn 0.1500 0.7929 0.5906
vn 0.6144 -0.6671 0.4213
vn 0.6325 -0.7734 0.0428
vn 0.2602 -0.8903 -0.3737
vn 0.0843 -0.9506 -0.2988
vn 0.3868 -0.9028 -0.1880
vn 0.1876 -0.7435 0.6418
# 40 vertex normals

vt 0.2832 0.8982 0.0000
vt 0.2898 0.8990 0.0000
vt 0.2869 0.9207 0.0000
vt 0.2652 0.9111 0.0000
vt 0.2637 0.9114 0.0000
vt 0.2638 0.9170 0.0000
vt 0.2637 0.9144 0.0000
vt 0.2632 0.9084 0.0000
vt 0.2846 0.8961 0.0000
vt 0.2645 0.9103 0.0000
vt 0.2640 0.9072 0.0000
vt 0.2847 0.8937 0.0000
vt 0.3013 0.9135 0.0000
vt 0.2901 0.8969 0.0000
vt 0.2905 0.8943 0.0000
vt 0.3000 0.9089 0.0000
vt 0.3005 0.9146 0.0000
vt 0.2992 0.9125 0.0000
vt 0.2876 0.9177 0.0000
vt 0.2874 0.9211 0.0000
vt 0.2985 0.9120 0.0000
vt 0.2993 0.9078 0.0000
vt 0.2905 0.8985 0.0000
vt 0.2873 0.9170 0.0000
vt 0.2657 0.9218 0.0000
vt 0.2695 0.9226 0.0000
vt 0.2694 0.9205 0.0000
vt 0.2657 0.9191 0.0000
vt 0.2662 0.9219 0.0000
vt 0.2647 0.9172 0.0000
vt 0.3000 0.9135 0.0000
vt 0.2995 0.9142 0.0000
vt 0.2646 0.9119 0.0000
vt 0.2704 0.9226 0.0000
vt 0.2661 0.9181 0.0000
vt 0.2641 0.9138 0.0000
vt 0.2643 0.9075 0.0000
vt 0.2808 0.8985 0.0000
vt 0.2638 0.9083 0.0000
vt 0.2702 0.9195 0.0000
# 40 texture coords

o Rock_4
g Rock_4
s off
f 1/1/1 2/2/2 3/3/3 4/4/4 
f 5/5/5 6/6/6 7/7/7 8/8/8 
f 9/9/9 10/10/10 11/11/11 12/12/12 
f 13/13/13 14/14/14 15/15/15 16/16/16 
f 17/17/17 18/18/18 19/19/19 20/20/20 
f 21/21/21 22/22/22 23/23/23 24/24/24 
f 25/25/25 26/26/26 27/27/27 28/28/28 
f 10/10/10 5/5/5 8/8/8 11/11/11 
f 14/14/14 9/9/9 12/12/12 15/15/15 
f 17/17/17 13/13/13 16/16/16 18/18/18 
f 29/29/29 25/25/25 6/6/6 30/30/30 
f 4/4/4 10/10/10 9/9/9 1/1/1 
f 2/2/2 14/14/14 13/13/13 31/31/31 
f 32/32/32 17/17/17 20/20/20 3/3/3 
f 17/17/17 32/32/32 31/31/31 13/13/13 
f 14/14/14 2/2/2 1/1/1 9/9/9 
f 10/10/10 4/4/4 33/33/33 5/5/5 
f 25/25/25 29/29/29 34/34/34 26/26/26 
f 28/28/28 35/35/35 36/36/36 7/7/7 
f 18/18/18 21/21/21 24/24/24 19/19/19 
f 11/11/11 37/37/37 38/38/38 12/12/12 
f 15/15/15 23/23/23 22/22/22 16/16/16 
f 12/12/12 38/38/38 23/23/23 15/15/15 
f 8/8/8 39/39/39 37/37/37 11/11/11 
f 27/27/27 40/40/40 35/35/35 28/28/28 
f 16/16/16 22/22/22 21/21/21 18/18/18 
f 6/6/6 25/25/25 28/28/28 7/7/7 
f 6/6/6 5/5/5 33/33/33 30/30/30 
f 36/36/36 39/39/39 8/8/8 7/7/7 
f 19/19/19 27/27/27 26/26/26 20/20/20 
f 20/20/20 26/26/26 34/34/34 3/3/3 
f 24/24/24 40/40/40 27/27/27 19/19/19 
f 3/3/3 34/34/34 33/33/33 4/4/4 
f 2/2/2 31/31/31 32/32/32 3/3/3 
f 34/34/34 29/29/29 30/30/30 33/33/33 
f 23/23/23 38/38/38 40/40/40 24/24/24 
f 38/38/38 37/37/37 39/39/39 40/40/40 
f 39/39/39 36/36/36 35/35/35 40/40/40 
# 38 polygons

