# 3ds Max Wavefront OBJ Exporter v0.97b - (c)2007 guruware
# File Created: 31.01.2021 16:30:56

#
# object Rock_7
#

v  -0.2930 1.3400 0.7684
v  0.1464 2.2629 0.7503
v  -0.6338 2.1740 0.7019
v  -0.6618 1.4739 0.7177
v  -0.8990 0.1416 -0.8699
v  -0.8990 0.8049 0.2238
v  -0.9185 0.7565 -0.8753
v  0.7883 2.3132 0.1354
v  0.7653 2.3124 -0.6278
v  -0.3865 2.3140 -0.6477
v  0.1305 2.3140 0.6929
v  -0.7316 1.5140 0.6653
v  -0.7160 2.1737 0.6205
v  -0.7511 2.1785 -0.1640
v  -0.7285 1.6928 0.0591
v  0.3842 0.0300 -0.8990
v  -0.5634 0.0114 -0.8990
v  0.2720 0.7486 -0.9260
v  0.9372 1.2803 0.3163
v  0.8879 2.2646 0.1407
v  0.8879 1.9970 0.7234
v  0.8912 1.3348 0.7205
v  -0.7200 0.0000 0.3080
v  0.3842 0.0000 -0.7200
v  0.8873 0.0000 -0.6693
v  -0.7200 0.0000 0.7200
v  -0.7500 0.0300 0.3380
v  -0.7500 0.8049 0.2538
v  -0.8690 0.8049 0.2538
v  -0.8690 0.0300 0.3380
v  -0.7500 0.8349 0.2238
v  -0.7257 0.8332 -0.7459
v  -0.8735 0.8151 -0.8735
v  -0.8690 0.8349 0.2238
v  0.3682 0.7821 -0.7499
v  0.4141 0.0308 -0.7709
v  0.4142 0.0300 -0.8690
v  0.3515 0.7583 -0.8634
v  0.8428 1.2911 0.6899
v  0.8912 1.2441 0.7203
v  0.8580 1.2443 0.7505
v  0.8579 1.3388 0.7505
v  0.9509 0.0000 0.6222
v  0.9721 0.0212 0.6222
v  0.8443 0.0212 0.7500
v  0.8443 0.0000 0.7288
v  -0.3922 2.2948 -0.6721
v  -0.7488 1.9984 -0.6722
v  -0.8832 0.0000 -0.3398
v  -0.8990 0.0074 -0.3434
v  -0.5515 0.0000 -0.8735
v  -0.7505 0.0300 0.7193
v  -0.7195 0.0300 0.7504
v  0.8836 0.0783 -0.7471
v  0.9722 0.0848 -0.6624
v  -0.6674 2.2764 0.6550
v  0.7631 2.1955 -0.7091
v  0.8506 2.1904 -0.6387
v  0.3842 0.0000 -0.8690
v  -0.8990 0.0300 0.3080
v  -0.8690 0.0000 0.3080
v  -0.8682 0.7565 -0.9256
v  0.2639 0.8128 -0.8637
v  0.9509 0.1278 0.7500
v  0.9721 0.1278 0.7288
v  0.8008 1.6047 -0.7282
v  0.1201 1.6831 -0.7049
v  -0.8712 0.1376 -0.8990
v  -0.6436 2.3148 -0.1626
v  0.8613 1.9971 0.7500
v  0.2933 0.8283 -0.7500
v  -0.7514 1.6685 -0.7087
v  -0.7368 1.7089 -0.6989
v  -0.6878 1.6890 -0.6472
v  0.8754 1.5905 -0.6444
# 75 vertices

vn -0.1081 -0.0569 0.9925
vn 0.1045 0.4999 0.8598
vn -0.3742 0.1579 0.9138
vn -0.3668 0.0357 0.9296
vn -0.8193 -0.4537 -0.3505
vn -0.8739 0.3635 0.3227
vn -0.8973 0.2696 -0.3496
vn 0.2681 0.9489 0.1666
vn 0.3935 0.8267 -0.4021
vn -0.2697 0.8981 -0.3475
vn 0.1200 0.9102 0.3965
vn -0.8851 0.0450 0.4633
vn -0.9177 0.1813 0.3535
vn -0.9279 0.3627 -0.0860
vn -0.9999 -0.0122 0.0017
vn 0.3673 -0.3245 -0.8717
vn -0.1598 -0.6263 -0.7630
vn 0.2690 0.3468 -0.8986
vn 0.9987 0.0404 0.0297
vn 0.7899 0.6034 0.1089
vn 0.8228 0.3932 0.4103
vn 0.7956 -0.4028 0.4525
vn -0.1101 -0.9878 0.1101
vn 0.0909 -0.9913 -0.0955
vn 0.3583 -0.8682 -0.3434
vn -0.3418 -0.8758 0.3407
vn -0.6035 -0.5466 0.5806
vn -0.7780 0.2675 0.5684
vn -0.3407 0.3880 0.8563
vn -0.3417 -0.2949 0.8923
vn -0.7906 0.5667 0.2321
vn -0.3317 0.8666 -0.3728
vn -0.4041 0.8304 -0.3835
vn -0.3411 0.8785 0.3345
vn 0.3973 0.2744 -0.8757
vn 0.6630 -0.6020 -0.4450
vn 0.8894 -0.3046 -0.3410
vn 0.7643 0.4237 -0.4861
vn 0.6638 -0.0079 0.7478
vn 0.7995 0.4163 0.4330
vn 0.3336 0.4131 0.8474
vn 0.3172 -0.3990 0.8603
vn 0.4394 -0.8719 0.2162
vn 0.8768 -0.4309 0.2135
vn 0.2262 -0.4370 0.8705
vn 0.2246 -0.8726 0.4337
vn -0.2814 0.5409 -0.7926
vn -0.7338 0.2736 -0.6219
vn -0.2398 -0.9684 -0.0681
vn -0.8136 -0.5764 -0.0759
vn -0.1284 -0.9682 -0.2147
vn -0.8783 -0.3314 0.3445
vn -0.3478 -0.3252 0.8794
vn 0.3809 -0.3101 -0.8711
vn 0.8876 -0.2949 -0.3537
vn -0.5210 0.6943 0.4965
vn 0.2994 0.2891 -0.9093
vn 0.8585 0.2804 -0.4293
vn 0.3424 -0.8755 -0.3409
vn -0.8765 -0.3162 0.3630
vn -0.3385 -0.8753 0.3454
vn -0.3390 0.2946 -0.8935
vn 0.2156 0.8705 -0.4423
vn 0.4439 -0.2097 0.8712
vn 0.8934 -0.1847 0.4096
vn 0.4026 0.0507 -0.9140
vn -0.0178 0.0431 -0.9989
vn -0.4303 -0.4788 -0.7652
vn -0.4356 0.8935 -0.1091
vn 0.3997 0.4340 0.8074
vn 0.1819 0.5568 -0.8105
vn -0.6280 0.5090 -0.5886
vn -0.6044 -0.4771 -0.6380
vn -0.7204 0.0469 -0.6920
vn 0.9254 0.0523 -0.3753
# 75 vertex normals

vt 0.3313 0.9527 0.0000
vt 0.3231 0.9599 0.0000
vt 0.3373 0.9554 0.0000
vt 0.3379 0.9512 0.0000
vt 0.3358 0.9141 0.0000
vt 0.3403 0.9374 0.0000
vt 0.3361 0.9178 0.0000
vt 0.3086 0.9519 0.0000
vt 0.3059 0.9385 0.0000
vt 0.3272 0.9336 0.0000
vt 0.3231 0.9591 0.0000
vt 0.3390 0.9503 0.0000
vt 0.3385 0.9537 0.0000
vt 0.3360 0.9399 0.0000
vt 0.3365 0.9408 0.0000
vt 0.3119 0.9178 0.0000
vt 0.3295 0.9140 0.0000
vt 0.3138 0.9215 0.0000
vt 0.3066 0.9491 0.0000
vt 0.3068 0.9521 0.0000
vt 0.3092 0.9606 0.0000
vt 0.3091 0.9564 0.0000
vt 0.3373 0.9345 0.0000
vt 0.3126 0.9208 0.0000
vt 0.3035 0.9236 0.0000
vt 0.3390 0.9417 0.0000
vt 0.3380 0.9351 0.0000
vt 0.3377 0.9385 0.0000
vt 0.3399 0.9381 0.0000
vt 0.3402 0.9346 0.0000
vt 0.3375 0.9382 0.0000
vt 0.3331 0.9213 0.0000
vt 0.3353 0.9184 0.0000
vt 0.3397 0.9377 0.0000
vt 0.3128 0.9251 0.0000
vt 0.3118 0.9202 0.0000
vt 0.3114 0.9185 0.0000
vt 0.3126 0.9229 0.0000
vt 0.3099 0.9554 0.0000
vt 0.3091 0.9558 0.0000
vt 0.3099 0.9562 0.0000
vt 0.3099 0.9568 0.0000
vt 0.3076 0.9465 0.0000
vt 0.3072 0.9467 0.0000
vt 0.3101 0.9484 0.0000
vt 0.3100 0.9479 0.0000
vt 0.3272 0.9331 0.0000
vt 0.3338 0.9298 0.0000
vt 0.3377 0.9225 0.0000
vt 0.3380 0.9225 0.0000
vt 0.3293 0.9145 0.0000
vt 0.3396 0.9418 0.0000
vt 0.3391 0.9424 0.0000
vt 0.3032 0.9227 0.0000
vt 0.3019 0.9246 0.0000
vt 0.3378 0.9551 0.0000
vt 0.3056 0.9363 0.0000
vt 0.3043 0.9378 0.0000
vt 0.3120 0.9182 0.0000
vt 0.3406 0.9340 0.0000
vt 0.3401 0.9339 0.0000
vt 0.3350 0.9171 0.0000
vt 0.3142 0.9229 0.0000
vt 0.3081 0.9495 0.0000
vt 0.3076 0.9492 0.0000
vt 0.3048 0.9324 0.0000
vt 0.3176 0.9306 0.0000
vt 0.3352 0.9137 0.0000
vt 0.3340 0.9412 0.0000
vt 0.3098 0.9610 0.0000
vt 0.3142 0.9251 0.0000
vt 0.3337 0.9271 0.0000
vt 0.3335 0.9276 0.0000
vt 0.3328 0.9285 0.0000
vt 0.3038 0.9340 0.0000
# 75 texture coords

o Rock_7
g Rock_7
s off
f 1/1/1 2/2/2 3/3/3 4/4/4 
f 5/5/5 6/6/6 7/7/7 
f 8/8/8 9/9/9 10/10/10 11/11/11 
f 12/12/12 13/13/13 14/14/14 15/15/15 
f 16/16/16 17/17/17 18/18/18 
f 19/19/19 20/20/20 21/21/21 22/22/22 
f 23/23/23 24/24/24 25/25/25 26/26/26 
f 27/27/27 28/28/28 29/29/29 30/30/30 
f 31/31/31 32/32/32 33/33/33 34/34/34 
f 35/35/35 36/36/36 37/37/37 38/38/38 
f 11/11/11 2/2/2 20/20/20 8/8/8 
f 19/19/19 39/39/39 40/40/40 
f 41/41/41 39/39/39 1/1/1 
f 19/19/19 22/22/22 39/39/39 
f 39/39/39 42/42/42 1/1/1 
f 43/43/43 44/44/44 45/45/45 46/46/46 
f 14/14/14 47/47/47 48/48/48 
f 49/49/49 50/50/50 17/17/17 51/51/51 
f 52/52/52 26/26/26 53/53/53 
f 25/25/25 54/54/54 55/55/55 
f 3/3/3 56/56/56 13/13/13 
f 57/57/57 9/9/9 58/58/58 
f 59/59/59 16/16/16 37/37/37 
f 30/30/30 60/60/60 61/61/61 
f 34/34/34 6/6/6 29/29/29 
f 33/33/33 62/62/62 7/7/7 
f 38/38/38 18/18/18 63/63/63 
f 26/26/26 52/52/52 27/27/27 23/23/23 
f 56/56/56 3/3/3 2/2/2 11/11/11 
f 64/64/64 65/65/65 40/40/40 41/41/41 
f 3/3/3 13/13/13 12/12/12 4/4/4 
f 57/57/57 66/66/66 67/67/67 47/47/47 
f 68/68/68 5/5/5 7/7/7 62/62/62 
f 8/8/8 20/20/20 58/58/58 9/9/9 
f 69/69/69 14/14/14 13/13/13 56/56/56 
f 25/25/25 55/55/55 44/44/44 43/43/43 
f 9/9/9 57/57/57 47/47/47 10/10/10 
f 24/24/24 36/36/36 54/54/54 25/25/25 
f 46/46/46 45/45/45 53/53/53 26/26/26 
f 42/42/42 22/22/22 21/21/21 70/70/70 
f 16/16/16 59/59/59 51/51/51 17/17/17 
f 50/50/50 49/49/49 61/61/61 60/60/60 
f 60/60/60 30/30/30 29/29/29 6/6/6 
f 6/6/6 34/34/34 33/33/33 7/7/7 
f 62/62/62 33/33/33 63/63/63 18/18/18 
f 18/18/18 38/38/38 37/37/37 16/16/16 
f 36/36/36 24/24/24 59/59/59 37/37/37 
f 23/23/23 27/27/27 30/30/30 61/61/61 
f 28/28/28 31/31/31 34/34/34 29/29/29 
f 71/71/71 35/35/35 38/38/38 63/63/63 
f 72/72/72 32/32/32 31/31/31 15/15/15 
f 73/73/73 74/74/74 15/15/15 
f 74/74/74 72/72/72 15/15/15 
f 67/67/67 74/74/74 73/73/73 
f 67/67/67 72/72/72 74/74/74 
f 57/57/57 58/58/58 75/75/75 66/66/66 
f 19/19/19 44/44/44 55/55/55 75/75/75 
f 75/75/75 55/55/55 54/54/54 66/66/66 
f 66/66/66 35/35/35 71/71/71 67/67/67 
f 12/12/12 52/52/52 53/53/53 4/4/4 
f 4/4/4 53/53/53 45/45/45 1/1/1 
f 14/14/14 48/48/48 73/73/73 15/15/15 
f 31/31/31 28/28/28 12/12/12 15/15/15 
f 28/28/28 27/27/27 52/52/52 12/12/12 
f 32/32/32 71/71/71 63/63/63 33/33/33 
f 71/71/71 32/32/32 72/72/72 67/67/67 
f 66/66/66 54/54/54 36/36/36 35/35/35 
f 67/67/67 73/73/73 48/48/48 47/47/47 
f 1/1/1 42/42/42 70/70/70 2/2/2 
f 41/41/41 40/40/40 39/39/39 
f 39/39/39 22/22/22 42/42/42 
f 19/19/19 75/75/75 58/58/58 20/20/20 
f 19/19/19 40/40/40 65/65/65 44/44/44 
f 45/45/45 64/64/64 41/41/41 1/1/1 
f 25/25/25 43/43/43 46/46/46 26/26/26 
f 23/23/23 61/61/61 59/59/59 24/24/24 
f 61/61/61 49/49/49 51/51/51 59/59/59 
f 50/50/50 5/5/5 68/68/68 17/17/17 
f 44/44/44 65/65/65 64/64/64 45/45/45 
f 14/14/14 69/69/69 10/10/10 47/47/47 
f 10/10/10 69/69/69 56/56/56 11/11/11 
f 2/2/2 70/70/70 21/21/21 20/20/20 
f 17/17/17 68/68/68 62/62/62 18/18/18 
f 5/5/5 50/50/50 60/60/60 6/6/6 
# 62 polygons - 22 triangles

