# 3ds Max Wavefront OBJ Exporter v0.97b - (c)2007 guruware
# File Created: 31.01.2021 16:30:39

#
# object Rock_6
#

v  -0.6291 0.0053 0.6190
v  -0.5186 0.0045 -0.4981
v  0.6245 0.0050 0.6337
v  -0.6462 1.7704 0.5076
v  -0.5942 1.7704 0.5596
v  0.5327 1.7755 0.5704
v  -0.6154 1.7843 -0.5599
v  -0.6410 0.0875 0.6958
v  0.6237 0.1469 0.7450
v  0.6292 0.9152 0.7450
v  -0.6928 0.9176 0.7238
v  0.7450 0.1462 0.6337
v  0.7500 0.0283 -0.5509
v  0.7500 0.1991 -0.7217
v  0.7450 0.8790 0.6432
v  0.7217 0.1991 -0.7500
v  -0.6124 0.8520 -0.6525
v  0.7166 0.8417 -0.7500
v  -0.6795 0.0916 -0.5374
v  -0.7061 0.0837 0.6278
v  -0.7809 0.9176 0.6856
v  -0.7273 0.8617 -0.5772
v  0.5509 0.0283 -0.7500
v  -0.6143 1.7136 0.6347
v  -0.7169 1.7136 0.5320
v  -0.5662 0.0875 -0.6557
v  0.7159 1.6434 0.6103
v  0.5623 1.6436 0.7305
v  -0.6749 1.6834 -0.5395
v  -0.6097 1.6833 -0.6170
v  0.7273 1.7032 -0.4891
v  0.5008 1.7038 -0.7355
v  0.3561 1.8236 -0.6790
v  0.6476 1.8096 -0.2982
v  0.5509 0.0000 -0.7217
v  0.7217 0.0000 -0.5509
v  0.7500 0.8416 -0.7166
v  0.7510 0.9279 -0.6281
v  0.7361 0.9196 0.6441
v  -0.6096 0.8927 -0.6523
v  0.6246 0.9261 -0.7437
v  0.6637 0.8879 -0.6527
v  0.6296 0.8882 -0.6869
# 43 vertices

vn -0.3499 -0.8798 0.3218
vn -0.2214 -0.9568 -0.1884
vn 0.3499 -0.8456 0.4033
vn -0.3636 0.9183 0.1564
vn -0.1627 0.9240 0.3461
vn 0.2317 0.9163 0.3267
vn -0.4699 0.7788 -0.4156
vn -0.3527 -0.3661 0.8612
vn 0.3187 -0.2896 0.9025
vn 0.3910 0.0285 0.9200
vn -0.2182 0.0414 0.9750
vn 0.8767 -0.2965 0.3787
vn 0.8722 -0.4446 -0.2040
vn 0.8732 -0.2238 -0.4330
vn 0.7976 0.5166 0.3114
vn 0.4135 -0.2161 -0.8845
vn -0.2449 0.5987 -0.7626
vn 0.3294 0.4769 -0.8149
vn -0.8050 -0.4994 -0.3203
vn -0.8591 -0.3990 0.3205
vn -0.8354 0.0302 0.5487
vn -0.8581 0.0002 -0.5136
vn 0.1710 -0.4129 -0.8946
vn -0.3439 0.4847 0.8042
vn -0.8328 0.4695 0.2932
vn -0.3794 -0.4804 -0.7908
vn 0.8152 0.4244 0.3941
vn 0.2563 0.4080 0.8763
vn -0.9108 0.2544 -0.3251
vn -0.4393 0.2322 -0.8678
vn 0.8195 0.4729 -0.3237
vn 0.3485 0.3775 -0.8580
vn 0.0641 0.8234 -0.5638
vn 0.5315 0.8468 0.0199
vn 0.1807 -0.8703 -0.4582
vn 0.4423 -0.8725 -0.2075
vn 0.8010 0.4909 -0.3426
vn 0.8348 -0.4196 -0.3564
vn 0.7338 -0.5996 0.3194
vn -0.2284 -0.4788 -0.8477
vn 0.3094 -0.3841 -0.8699
vn 0.8854 0.1179 -0.4497
vn 0.3155 0.0639 -0.9468
# 43 vertex normals

vt 0.3245 0.9344 0.0000
vt 0.3179 0.9152 0.0000
vt 0.3013 0.9395 0.0000
vt 0.3244 0.9435 0.0000
vt 0.3236 0.9446 0.0000
vt 0.3027 0.9492 0.0000
vt 0.3194 0.9250 0.0000
vt 0.3250 0.9362 0.0000
vt 0.3018 0.9423 0.0000
vt 0.3017 0.9472 0.0000
vt 0.3261 0.9417 0.0000
vt 0.2991 0.9408 0.0000
vt 0.2941 0.9194 0.0000
vt 0.2934 0.9174 0.0000
vt 0.2991 0.9456 0.0000
vt 0.2938 0.9168 0.0000
vt 0.3190 0.9175 0.0000
vt 0.2939 0.9209 0.0000
vt 0.3207 0.9145 0.0000
vt 0.3260 0.9347 0.0000
vt 0.3276 0.9407 0.0000
vt 0.3214 0.9184 0.0000
vt 0.2970 0.9151 0.0000
vt 0.3243 0.9455 0.0000
vt 0.3258 0.9433 0.0000
vt 0.3181 0.9128 0.0000
vt 0.2995 0.9497 0.0000
vt 0.3028 0.9513 0.0000
vt 0.3206 0.9245 0.0000
vt 0.3191 0.9234 0.0000
vt 0.2948 0.9309 0.0000
vt 0.2980 0.9257 0.0000
vt 0.3009 0.9269 0.0000
vt 0.2970 0.9346 0.0000
vt 0.2971 0.9154 0.0000
vt 0.2946 0.9191 0.0000
vt 0.2934 0.9216 0.0000
vt 0.2938 0.9237 0.0000
vt 0.2993 0.9459 0.0000
vt 0.3189 0.9178 0.0000
vt 0.2956 0.9212 0.0000
vt 0.2953 0.9227 0.0000
vt 0.2958 0.9219 0.0000
# 43 texture coords

o Rock_6
g Rock_6
s off
f 1/1/1 2/2/2 3/3/3 
f 4/4/4 5/5/5 6/6/6 7/7/7 
f 8/8/8 9/9/9 10/10/10 11/11/11 
f 12/12/12 13/13/13 14/14/14 15/15/15 
f 16/16/16 17/17/17 18/18/18 
f 19/19/19 20/20/20 21/21/21 22/22/22 
f 13/13/13 23/23/23 16/16/16 14/14/14 
f 21/21/21 11/11/11 24/24/24 25/25/25 
f 8/8/8 20/20/20 1/1/1 
f 3/3/3 12/12/12 9/9/9 
f 19/19/19 26/26/26 2/2/2 
f 27/27/27 6/6/6 28/28/28 
f 29/29/29 7/7/7 30/30/30 
f 31/31/31 32/32/32 33/33/33 34/34/34 
f 1/1/1 20/20/20 19/19/19 2/2/2 
f 2/2/2 26/26/26 23/23/23 35/35/35 
f 36/36/36 13/13/13 12/12/12 3/3/3 
f 3/3/3 9/9/9 8/8/8 1/1/1 
f 5/5/5 24/24/24 28/28/28 6/6/6 
f 6/6/6 27/27/27 31/31/31 34/34/34 
f 33/33/33 32/32/32 30/30/30 7/7/7 
f 7/7/7 29/29/29 25/25/25 4/4/4 
f 14/14/14 16/16/16 18/18/18 37/37/37 
f 9/9/9 12/12/12 15/15/15 10/10/10 
f 26/26/26 19/19/19 22/22/22 17/17/17 
f 10/10/10 28/28/28 24/24/24 11/11/11 
f 38/38/38 31/31/31 27/27/27 39/39/39 
f 40/40/40 30/30/30 32/32/32 41/41/41 
f 21/21/21 25/25/25 29/29/29 22/22/22 
f 21/21/21 20/20/20 8/8/8 11/11/11 
f 41/41/41 32/32/32 31/31/31 38/38/38 
f 10/10/10 39/39/39 27/27/27 28/28/28 
f 22/22/22 29/29/29 30/30/30 40/40/40 
f 37/37/37 42/42/42 10/10/10 15/15/15 
f 17/17/17 22/22/22 43/43/43 18/18/18 
f 18/18/18 43/43/43 42/42/42 37/37/37 
f 42/42/42 38/38/38 39/39/39 10/10/10 
f 22/22/22 40/40/40 41/41/41 43/43/43 
f 43/43/43 41/41/41 38/38/38 42/42/42 
f 24/24/24 5/5/5 4/4/4 25/25/25 
f 16/16/16 23/23/23 26/26/26 17/17/17 
f 14/14/14 37/37/37 15/15/15 
f 2/2/2 35/35/35 36/36/36 3/3/3 
f 13/13/13 36/36/36 35/35/35 23/23/23 
f 6/6/6 34/34/34 33/33/33 7/7/7 
# 37 polygons - 8 triangles

