# 3ds Max Wavefront OBJ Exporter v0.97b - (c)2007 guruware
# File Created: 15.02.2021 09:57:27

#
# object Rock_Dirt_6
#

v  -0.6291 0.0053 0.6190
v  -0.5186 0.0045 -0.4981
v  0.6245 0.0050 0.6337
v  -0.7005 1.9080 0.5401
v  -0.6282 1.9017 0.6077
v  0.5731 1.9076 0.6178
v  -0.6817 1.9175 -0.6210
v  -0.6410 0.0875 0.6958
v  0.6237 0.1469 0.7450
v  0.6292 0.9152 0.7450
v  -0.6928 0.9176 0.7238
v  0.7450 0.1462 0.6337
v  0.7500 0.0283 -0.5509
v  0.7500 0.1991 -0.7217
v  0.7450 0.8790 0.6432
v  0.7217 0.1991 -0.7500
v  -0.6124 0.8520 -0.6525
v  0.7166 0.8417 -0.7500
v  -0.6795 0.0916 -0.5374
v  -0.7061 0.0837 0.6278
v  -0.7809 0.9176 0.6856
v  -0.7273 0.8617 -0.5772
v  0.5509 0.0283 -0.7500
v  -0.6143 1.7136 0.6347
v  -0.7169 1.7136 0.5320
v  -0.5662 0.0875 -0.6557
v  0.7552 1.7611 0.6296
v  0.5775 1.7577 0.7737
v  -0.7382 1.7755 -0.5606
v  -0.6382 1.7755 -0.6795
v  0.7664 1.8246 -0.5082
v  0.5310 1.8232 -0.7897
v  0.3771 1.9575 -0.7551
v  0.7158 1.9371 -0.3086
v  0.5509 0.0000 -0.7217
v  0.7217 0.0000 -0.5509
v  -0.6285 1.8306 0.6749
v  -0.7575 1.8300 0.5468
v  0.7500 0.8416 -0.7166
v  0.5623 1.6436 0.7305
v  0.7510 0.9279 -0.6281
v  0.7273 1.7032 -0.4891
v  0.7159 1.6434 0.6103
v  0.7361 0.9196 0.6441
v  -0.6096 0.8927 -0.6523
v  -0.6097 1.6833 -0.6170
v  0.5008 1.7038 -0.7355
v  0.6246 0.9261 -0.7437
v  -0.6749 1.6834 -0.5395
v  0.6637 0.8879 -0.6527
v  0.6296 0.8882 -0.6869
# 51 vertices

vn -0.3499 -0.8798 0.3218
vn -0.2214 -0.9568 -0.1884
vn 0.3499 -0.8456 0.4033
vn -0.4582 0.8506 0.2580
vn -0.2056 0.8500 0.4850
vn 0.2652 0.8904 0.3700
vn -0.5440 0.6903 -0.4771
vn -0.3527 -0.3661 0.8612
vn 0.3187 -0.2896 0.9025
vn 0.3910 0.0285 0.9200
vn -0.2182 0.0414 0.9750
vn 0.8767 -0.2965 0.3787
vn 0.8722 -0.4446 -0.2040
vn 0.8732 -0.2238 -0.4330
vn 0.7976 0.5166 0.3114
vn 0.4135 -0.2161 -0.8845
vn -0.2449 0.5987 -0.7626
vn 0.3294 0.4769 -0.8149
vn -0.8050 -0.4994 -0.3203
vn -0.8591 -0.3990 0.3205
vn -0.8354 0.0302 0.5487
vn -0.8581 0.0002 -0.5136
vn 0.1710 -0.4129 -0.8946
vn -0.4199 -0.1139 0.9004
vn -0.9306 -0.1178 0.3466
vn -0.3794 -0.4804 -0.7908
vn 0.8872 0.2120 0.4098
vn 0.2828 0.1691 0.9441
vn -0.9403 -0.1734 -0.2928
vn -0.4060 -0.1790 -0.8962
vn 0.8900 0.2470 -0.3833
vn 0.4536 0.0932 -0.8863
vn 0.0734 0.7672 -0.6373
vn 0.6500 0.7593 0.0313
vn 0.1807 -0.8703 -0.4582
vn 0.4423 -0.8725 -0.2075
vn -0.3824 0.1799 0.9063
vn -0.9262 0.1268 0.3550
vn 0.8010 0.4909 -0.3426
vn 0.2664 -0.1728 0.9483
vn 0.8348 -0.4196 -0.3564
vn 0.9309 -0.1377 -0.3383
vn 0.8888 -0.1606 0.4293
vn 0.7338 -0.5996 0.3194
vn -0.2284 -0.4788 -0.8477
vn -0.4493 -0.3187 -0.8346
vn 0.3156 -0.2239 -0.9221
vn 0.3094 -0.3841 -0.8699
vn -0.8939 -0.2898 -0.3421
vn 0.8854 0.1179 -0.4497
vn 0.3155 0.0638 -0.9468
# 51 vertex normals

vt 0.3245 0.9344 0.0000
vt 0.3179 0.9152 0.0000
vt 0.3013 0.9395 0.0000
vt 0.0842 0.8254 0.0000
vt 0.0834 0.8265 0.0000
vt 0.0625 0.8311 0.0000
vt 0.0792 0.8069 0.0000
vt 0.3250 0.9362 0.0000
vt 0.3018 0.9423 0.0000
vt 0.3017 0.9472 0.0000
vt 0.3261 0.9417 0.0000
vt 0.2991 0.9408 0.0000
vt 0.2941 0.9194 0.0000
vt 0.2934 0.9174 0.0000
vt 0.2991 0.9456 0.0000
vt 0.2938 0.9168 0.0000
vt 0.3190 0.9175 0.0000
vt 0.2939 0.9209 0.0000
vt 0.3207 0.9145 0.0000
vt 0.3260 0.9347 0.0000
vt 0.3276 0.9407 0.0000
vt 0.3214 0.9184 0.0000
vt 0.2970 0.9151 0.0000
vt 0.3243 0.9455 0.0000
vt 0.3258 0.9433 0.0000
vt 0.3181 0.9128 0.0000
vt 0.0593 0.8317 0.0000
vt 0.0626 0.8332 0.0000
vt 0.0804 0.8064 0.0000
vt 0.0789 0.8053 0.0000
vt 0.0546 0.8129 0.0000
vt 0.0578 0.8077 0.0000
vt 0.0607 0.8088 0.0000
vt 0.0568 0.8166 0.0000
vt 0.2971 0.9154 0.0000
vt 0.2946 0.9191 0.0000
vt 0.0841 0.8274 0.0000
vt 0.0856 0.8252 0.0000
vt 0.2934 0.9216 0.0000
vt 0.3028 0.9513 0.0000
vt 0.2938 0.9237 0.0000
vt 0.2948 0.9309 0.0000
vt 0.2995 0.9497 0.0000
vt 0.2993 0.9459 0.0000
vt 0.3189 0.9178 0.0000
vt 0.3191 0.9234 0.0000
vt 0.2980 0.9257 0.0000
vt 0.2956 0.9212 0.0000
vt 0.3206 0.9245 0.0000
vt 0.2953 0.9227 0.0000
vt 0.2958 0.9219 0.0000
# 51 texture coords

o Rock_Dirt_6
g Rock_Dirt_6
s off
f 1/1/1 2/2/2 3/3/3 
f 4/4/4 5/5/5 6/6/6 7/7/7 
f 8/8/8 9/9/9 10/10/10 11/11/11 
f 12/12/12 13/13/13 14/14/14 15/15/15 
f 16/16/16 17/17/17 18/18/18 
f 19/19/19 20/20/20 21/21/21 22/22/22 
f 13/13/13 23/23/23 16/16/16 14/14/14 
f 21/21/21 11/11/11 24/24/24 25/25/25 
f 8/8/8 20/20/20 1/1/1 
f 3/3/3 12/12/12 9/9/9 
f 19/19/19 26/26/26 2/2/2 
f 27/27/27 6/6/6 28/28/28 
f 29/29/29 7/7/7 30/30/30 
f 31/31/31 32/32/32 33/33/33 34/34/34 
f 1/1/1 20/20/20 19/19/19 2/2/2 
f 2/2/2 26/26/26 23/23/23 35/35/35 
f 36/36/36 13/13/13 12/12/12 3/3/3 
f 3/3/3 9/9/9 8/8/8 1/1/1 
f 5/5/5 37/37/37 28/28/28 6/6/6 
f 6/6/6 27/27/27 31/31/31 34/34/34 
f 33/33/33 32/32/32 30/30/30 7/7/7 
f 7/7/7 29/29/29 38/38/38 4/4/4 
f 14/14/14 16/16/16 18/18/18 39/39/39 
f 9/9/9 12/12/12 15/15/15 10/10/10 
f 26/26/26 19/19/19 22/22/22 17/17/17 
f 10/10/10 40/40/40 24/24/24 11/11/11 
f 41/41/41 42/42/42 43/43/43 44/44/44 
f 45/45/45 46/46/46 47/47/47 48/48/48 
f 21/21/21 25/25/25 49/49/49 22/22/22 
f 21/21/21 20/20/20 8/8/8 11/11/11 
f 48/48/48 47/47/47 42/42/42 41/41/41 
f 10/10/10 44/44/44 43/43/43 40/40/40 
f 22/22/22 49/49/49 46/46/46 45/45/45 
f 39/39/39 50/50/50 10/10/10 15/15/15 
f 17/17/17 22/22/22 51/51/51 18/18/18 
f 18/18/18 51/51/51 50/50/50 39/39/39 
f 50/50/50 41/41/41 44/44/44 10/10/10 
f 22/22/22 45/45/45 48/48/48 51/51/51 
f 51/51/51 48/48/48 41/41/41 50/50/50 
f 37/37/37 5/5/5 4/4/4 38/38/38 
f 16/16/16 23/23/23 26/26/26 17/17/17 
f 14/14/14 39/39/39 15/15/15 
f 2/2/2 35/35/35 36/36/36 3/3/3 
f 13/13/13 36/36/36 35/35/35 23/23/23 
f 6/6/6 34/34/34 33/33/33 7/7/7 
f 40/28/40 43/27/43 27/27/27 28/28/28 
f 43/27/43 42/31/42 31/31/31 27/27/27 
f 42/31/42 47/32/47 32/32/32 31/31/31 
f 47/32/47 46/30/46 30/30/30 32/32/32 
f 46/30/46 49/29/49 29/29/29 30/30/30 
f 49/29/49 25/38/25 38/38/38 29/29/29 
f 25/38/25 24/37/24 37/37/37 38/38/38 
f 24/37/24 40/28/40 28/28/28 37/37/37 
# 45 polygons - 8 triangles

