# 3ds Max Wavefront OBJ Exporter v0.97b - (c)2007 guruware
# File Created: 31.01.2021 16:39:27

#
# object Wood_Plank_2
#

v  -0.2006 -0.0697 1.8418
v  -0.2114 -0.0697 -1.9052
v  0.0121 -0.0601 -1.9116
v  -0.0698 -0.0690 1.5138
v  -0.0597 -0.0697 1.8697
v  -0.2006 0.0697 1.7757
v  -0.0752 0.0637 1.8089
v  -0.0833 0.0619 1.4579
v  -0.0034 0.0527 -1.8662
v  -0.1959 0.0697 -1.8286
v  0.2114 -0.0697 1.9232
v  0.1256 -0.0516 -1.9232
v  0.0965 0.0377 -1.8846
v  0.1808 0.0515 1.8765
v  0.0254 -0.0697 1.8865
v  0.0085 0.0597 1.8310
# 16 vertices

vn -0.6145 -0.4632 0.6387
vn -0.5826 -0.4250 -0.6928
vn -0.0206 -0.5794 -0.8148
vn 0.0252 0.6867 0.7265
vn 0.5357 -0.4154 0.7352
vn -0.6336 0.6873 0.3553
vn 0.5198 0.6936 0.4988
vn 0.7231 -0.2653 0.6377
vn -0.0077 0.8266 -0.5628
vn -0.5701 0.7417 -0.3534
vn 0.5736 -0.4106 0.7088
vn 0.6118 -0.3601 -0.7043
vn 0.4733 0.7185 -0.5098
vn 0.4576 0.7119 0.5327
vn -0.5203 -0.5060 0.6880
vn -0.5802 0.6787 0.4502
# 16 vertex normals

vt 0.6588 0.7866 0.0000
vt 0.6590 0.8497 0.0000
vt 0.6552 0.8498 0.0000
vt 0.6566 0.7922 0.0000
vt 0.6564 0.7862 0.0000
vt 0.6623 0.7868 0.0000
vt 0.6644 0.7862 0.0000
vt 0.6642 0.7921 0.0000
vt 0.6656 0.8481 0.0000
vt 0.6623 0.8475 0.0000
vt 0.5951 0.9130 0.0000
vt 0.5927 0.9130 0.0000
vt 0.5930 0.9101 0.0000
vt 0.5951 0.9100 0.0000
vt 0.6622 0.7853 0.0000
vt 0.6618 0.8500 0.0000
vt 0.6599 0.8494 0.0000
vt 0.6596 0.7861 0.0000
vt 0.5960 0.9088 0.0000
vt 0.5958 0.9069 0.0000
vt 0.5983 0.9067 0.0000
vt 0.5979 0.9084 0.0000
vt 0.6688 0.8482 0.0000
vt 0.6688 0.7851 0.0000
vt 0.6718 0.7862 0.0000
vt 0.6718 0.8469 0.0000
vt 0.6533 0.8500 0.0000
vt 0.6519 0.7853 0.0000
vt 0.6550 0.7859 0.0000
vt 0.6658 0.7859 0.0000
vt 0.6687 0.7851 0.0000
vt 0.6673 0.8484 0.0000
vt 0.6000 0.8998 0.0000
vt 0.6032 0.8998 0.0000
vt 0.6026 0.9025 0.0000
vt 0.5997 0.9026 0.0000
vt 0.5958 0.9031 0.0000
vt 0.5988 0.9035 0.0000
vt 0.5867 0.7946 0.0000
vt 0.5867 0.8006 0.0000
vt 0.5838 0.8015 0.0000
vt 0.5838 0.7956 0.0000
vt 0.5847 0.7913 0.0000
vt 0.5910 0.7913 0.0000
vt 0.5901 0.7941 0.0000
vt 0.5838 0.7942 0.0000
# 46 texture coords

o Wood_Plank_2
g Wood_Plank_2
s 1
f 1/1/1 2/2/2 3/3/3 4/4/4 5/5/5 
f 6/6/6 7/7/7 8/8/8 9/9/9 10/10/10 
s 2
f 1/11/1 5/12/5 7/13/7 6/14/6 
s 4
f 11/15/11 12/16/12 13/17/13 14/18/14 
s 2
f 12/19/12 3/20/3 9/21/9 13/22/13 
s 4
f 2/23/2 1/24/1 6/25/6 10/26/10 
s 1
f 3/3/3 12/27/12 11/28/11 15/29/15 4/4/4 
f 8/8/8 16/30/16 14/31/14 13/32/13 9/9/9 
s 2
f 15/33/15 11/34/11 14/35/14 16/36/16 
f 3/20/3 2/37/2 10/38/10 9/21/9 
s off
f 5/39/5 4/40/4 8/41/8 7/42/7 
f 4/43/4 15/44/15 16/45/16 8/46/8 
# 12 polygons

