# 3ds Max Wavefront OBJ Exporter v0.97b - (c)2007 guruware
# File Created: 31.01.2021 16:41:12

#
# object Wood_Pike_1
#

v  0.1754 0.0000 0.0100
v  0.0877 0.1519 0.0100
v  -0.0877 0.1519 0.0100
v  -0.1754 0.0000 0.0100
v  -0.0877 -0.1519 0.0100
v  0.0877 -0.1519 0.0100
v  -0.0931 -0.1964 -1.9047
v  -0.1040 -0.1801 -2.8472
v  0.1040 -0.1801 -2.8472
v  0.1149 -0.1964 -1.9047
v  -0.1972 -0.0163 -1.8839
v  -0.2080 -0.0000 -2.8160
v  -0.0931 0.1639 -1.9047
v  -0.1040 0.1801 -2.8472
v  0.1149 0.1639 -1.9047
v  0.1040 0.1801 -2.8472
v  0.2189 -0.0163 -1.8839
v  0.2080 -0.0000 -2.8160
v  0.1613 0.0116 -4.7669
v  -0.1613 0.0116 -4.7669
v  -0.0877 0.1519 -4.7519
v  0.0877 0.1519 -4.7519
v  -0.1040 -0.1801 -0.0196
v  0.1040 -0.1801 -0.0196
v  -0.2080 0.0000 -0.0196
v  -0.1040 0.1801 -0.0196
v  0.1040 0.1801 -0.0196
v  0.2080 0.0000 -0.0196
v  -0.1040 -0.1801 -4.7323
v  -0.0877 -0.1519 -4.7519
v  0.0877 -0.1519 -4.7519
v  0.1040 -0.1801 -4.7323
v  -0.1939 -0.0116 -4.7323
v  -0.1613 -0.0116 -4.7519
v  -0.1040 0.1801 -4.7323
v  -0.1939 0.0116 -4.7473
v  0.1040 0.1801 -4.7323
v  0.1939 0.0116 -4.7473
v  0.1613 -0.0116 -4.7519
v  0.1939 -0.0116 -4.7323
v  -0.1683 -0.0000 -4.6803
v  -0.2080 -0.0000 -4.6803
v  0.1683 -0.0000 -4.6803
v  0.2080 -0.0000 -4.6803
v  -0.1040 -0.1765 -3.7898
v  0.1040 -0.1765 -3.7898
v  0.1169 -0.1801 -0.9621
v  -0.0911 -0.1801 -0.9621
v  -0.2080 0.0036 -3.7482
v  -0.1951 0.0000 -0.9517
v  -0.1040 0.1837 -3.7898
v  -0.0911 0.1801 -0.9621
v  0.1040 0.1837 -3.7898
v  0.1169 0.1801 -0.9621
v  0.2080 0.0036 -3.7482
v  0.2210 -0.0000 -0.9517
# 56 vertices

vn 0.4545 -0.0000 0.8908
vn 0.2272 0.3936 0.8908
vn -0.2272 0.3936 0.8908
vn -0.4545 0.0000 0.8908
vn -0.2272 -0.3936 0.8908
vn 0.2272 -0.3936 0.8908
vn -0.4963 -0.8682 0.0032
vn -0.5023 -0.8646 -0.0063
vn 0.5001 -0.8659 -0.0116
vn 0.4990 -0.8666 -0.0039
vn -1.0000 -0.0056 0.0067
vn -1.0000 0.0030 0.0064
vn -0.5010 0.8655 0.0039
vn -0.4998 0.8661 0.0115
vn 0.5038 0.8638 -0.0033
vn 0.4977 0.8673 0.0064
vn 1.0000 -0.0056 -0.0066
vn 1.0000 0.0030 -0.0063
vn 0.2781 -0.4973 -0.8218
vn -0.2781 -0.4973 -0.8218
vn -0.1584 0.3464 -0.9246
vn 0.1584 0.3464 -0.9246
vn -0.4683 -0.8066 0.3607
vn 0.4631 -0.8068 0.3670
vn -0.9339 -0.0000 0.3575
vn -0.4683 0.8066 0.3607
vn 0.4631 0.8068 0.3670
vn 0.9290 -0.0000 0.3702
vn -0.4538 -0.7767 -0.4368
vn -0.1830 -0.2959 -0.9375
vn 0.1830 -0.2959 -0.9375
vn 0.4538 -0.7767 -0.4368
vn -0.7760 0.3203 -0.5434
vn -0.2757 0.5246 -0.8055
vn -0.4462 0.7844 -0.4309
vn -0.7810 -0.3375 -0.5255
vn 0.4462 0.7844 -0.4309
vn 0.7810 -0.3375 -0.5255
vn 0.2757 0.5246 -0.8055
vn 0.7760 0.3203 -0.5434
vn -0.0000 -0.0137 -0.9999
vn -0.9884 -0.0060 -0.1518
vn 0.9884 -0.0060 -0.1518
vn -0.5005 -0.8657 0.0001
vn 0.5005 -0.8657 0.0001
vn 0.5029 -0.8643 0.0103
vn -0.4993 -0.8664 0.0048
vn -1.0000 0.0013 0.0000
vn -1.0000 0.0026 -0.0061
vn -0.4995 0.8663 -0.0001
vn -0.4971 0.8676 -0.0103
vn 0.4995 0.8663 -0.0001
vn 0.5007 0.8656 -0.0048
vn 1.0000 0.0013 0.0000
vn 1.0000 0.0026 0.0060
# 55 vertex normals

vt 0.0584 0.9792 0.0000
vt 0.0603 0.9802 0.0000
vt 0.0603 0.9824 0.0000
vt 0.0584 0.9834 0.0000
vt 0.0566 0.9824 0.0000
vt 0.0566 0.9802 0.0000
vt 0.6778 0.8015 0.0000
vt 0.6778 0.8180 0.0000
vt 0.6756 0.8180 0.0000
vt 0.6756 0.8015 0.0000
vt 0.6730 0.8011 0.0000
vt 0.6732 0.8175 0.0000
vt 0.6707 0.8180 0.0000
vt 0.6704 0.8015 0.0000
vt 0.6650 0.8015 0.0000
vt 0.6649 0.8180 0.0000
vt 0.6627 0.8175 0.0000
vt 0.6628 0.8011 0.0000
vt 0.6671 0.8015 0.0000
vt 0.6671 0.8180 0.0000
vt 0.6676 0.8181 0.0000
vt 0.6678 0.8018 0.0000
vt 0.6703 0.8012 0.0000
vt 0.6701 0.8178 0.0000
vt 0.6734 0.8175 0.0000
vt 0.6734 0.8011 0.0000
vt 0.0591 0.9058 0.0000
vt 0.0580 0.9020 0.0000
vt 0.0599 0.9024 0.0000
vt 0.0605 0.9044 0.0000
vt 0.0561 0.9002 0.0000
vt 0.0565 0.9007 0.0000
vt 0.0543 0.9007 0.0000
vt 0.0543 0.9002 0.0000
vt 0.0516 0.9002 0.0000
vt 0.0518 0.9007 0.0000
vt 0.0493 0.9007 0.0000
vt 0.0495 0.9002 0.0000
vt 0.0436 0.9002 0.0000
vt 0.0436 0.9007 0.0000
vt 0.0414 0.9007 0.0000
vt 0.0417 0.9002 0.0000
vt 0.0454 0.9002 0.0000
vt 0.0458 0.9007 0.0000
vt 0.0467 0.9837 0.0000
vt 0.0465 0.9831 0.0000
vt 0.0490 0.9831 0.0000
vt 0.0488 0.9837 0.0000
vt 0.0521 0.9007 0.0000
vt 0.0524 0.9002 0.0000
vt 0.0634 0.9002 0.0000
vt 0.0633 0.9006 0.0000
vt 0.0613 0.9012 0.0000
vt 0.0610 0.9009 0.0000
vt 0.0463 0.9774 0.0000
vt 0.0459 0.9772 0.0000
vt 0.0459 0.9752 0.0000
vt 0.0463 0.9750 0.0000
vt 0.0459 0.9697 0.0000
vt 0.0463 0.9699 0.0000
vt 0.0464 0.9719 0.0000
vt 0.0459 0.9720 0.0000
vt 0.0609 0.9045 0.0000
vt 0.0602 0.9021 0.0000
vt 0.0570 0.9068 0.0000
vt 0.0575 0.9071 0.0000
vt 0.0571 0.9090 0.0000
vt 0.0566 0.9091 0.0000
vt 0.0463 0.9747 0.0000
vt 0.0459 0.9745 0.0000
vt 0.0459 0.9725 0.0000
vt 0.0463 0.9723 0.0000
vt 0.0609 0.9031 0.0000
vt 0.0647 0.9020 0.0000
vt 0.5823 0.8196 0.0000
vt 0.5808 0.8194 0.0000
vt 0.5808 0.8190 0.0000
vt 0.5820 0.8192 0.0000
vt 0.5846 0.8185 0.0000
vt 0.5848 0.8172 0.0000
vt 0.5852 0.8172 0.0000
vt 0.5850 0.8181 0.0000
vt 0.5823 0.8230 0.0000
vt 0.5808 0.8230 0.0000
vt 0.5812 0.8172 0.0000
vt 0.5812 0.8185 0.0000
vt 0.5809 0.8181 0.0000
vt 0.5808 0.8172 0.0000
vt 0.5820 0.8233 0.0000
vt 0.5808 0.8234 0.0000
vt 0.6678 0.7691 0.0000
vt 0.6680 0.7679 0.0000
vt 0.6703 0.7681 0.0000
vt 0.6756 0.8511 0.0000
vt 0.6737 0.8511 0.0000
vt 0.6734 0.8502 0.0000
vt 0.6732 0.8502 0.0000
vt 0.6730 0.8511 0.0000
vt 0.6707 0.8511 0.0000
vt 0.6649 0.8511 0.0000
vt 0.6630 0.8514 0.0000
vt 0.6627 0.8502 0.0000
vt 0.6778 0.8346 0.0000
vt 0.6778 0.8511 0.0000
vt 0.6756 0.8346 0.0000
vt 0.6755 0.7849 0.0000
vt 0.6756 0.7684 0.0000
vt 0.6778 0.7684 0.0000
vt 0.6777 0.7849 0.0000
vt 0.6733 0.8338 0.0000
vt 0.6707 0.8346 0.0000
vt 0.6706 0.7849 0.0000
vt 0.6707 0.7684 0.0000
vt 0.6732 0.7684 0.0000
vt 0.6731 0.7848 0.0000
vt 0.6650 0.8346 0.0000
vt 0.6628 0.8338 0.0000
vt 0.6629 0.7848 0.0000
vt 0.6627 0.7684 0.0000
vt 0.6649 0.7684 0.0000
vt 0.6651 0.7849 0.0000
vt 0.6671 0.8346 0.0000
vt 0.6671 0.8511 0.0000
vt 0.6671 0.7684 0.0000
vt 0.6673 0.7849 0.0000
vt 0.6679 0.7854 0.0000
vt 0.6704 0.7847 0.0000
vt 0.6703 0.8343 0.0000
vt 0.6703 0.8508 0.0000
vt 0.6678 0.8508 0.0000
vt 0.6677 0.8345 0.0000
vt 0.6734 0.8338 0.0000
vt 0.6733 0.7848 0.0000
vt 0.6734 0.7684 0.0000
# 134 texture coords

o Wood_Pike_1
g Wood_Pike_1
s 1
f 1/1/1 2/2/2 3/3/3 4/4/4 5/5/5 6/6/6 
f 7/7/7 8/8/8 9/9/9 10/10/10 
s 2
f 11/11/11 12/12/12 8/13/8 7/14/7 
s 1
f 13/15/13 14/16/14 12/17/12 11/18/11 
s 2
f 15/19/15 16/20/16 14/16/14 13/15/13 
s 1
f 17/21/17 18/22/18 16/23/16 15/24/15 
s 2
f 10/10/10 9/9/9 18/25/18 17/26/17 
s 1
f 19/27/19 20/28/20 21/29/21 22/30/22 
s 4
f 5/31/5 23/32/23 24/33/24 6/34/6 
s 8
f 4/35/4 25/36/25 23/37/23 5/38/5 
s 4
f 3/39/3 26/40/26 25/41/25 4/42/4 
s 8
f 2/43/2 27/44/27 26/40/26 3/39/3 
s 4
f 1/45/1 28/46/28 27/47/27 2/48/2 
s 8
f 6/34/6 24/33/24 28/49/28 1/50/1 
s 4
f 29/51/29 30/52/30 31/53/31 32/54/32 
s 8
f 33/55/33 34/56/34 30/57/30 29/58/29 
s 4
f 35/59/35 21/60/21 20/61/20 36/62/36 
s 8
f 37/63/37 22/30/22 21/29/21 35/64/35 
s 4
f 38/65/38 19/66/19 22/67/22 37/68/37 
s 8
f 32/69/32 31/70/31 39/71/39 40/72/40 
s 1
f 39/73/39 31/53/31 30/52/30 34/74/34 
s 8
f 20/75/20 41/76/41 42/77/42 36/78/36 
s 4
f 39/79/39 43/80/41 44/81/43 40/82/40 
s 8
f 19/83/19 43/84/41 41/76/41 20/75/20 
s 4
f 41/85/41 34/86/34 33/87/33 42/88/42 
s 8
f 43/84/41 19/83/19 38/89/38 44/90/43 
s 4
f 43/80/41 39/79/39 34/86/34 41/85/41 
s 1
f 44/91/43 38/92/38 37/93/37 
s 2
f 32/94/32 40/95/40 44/96/43 
f 42/97/42 33/98/33 29/99/29 
s 1
f 35/100/35 36/101/36 42/102/42 
f 45/103/44 29/104/29 32/94/32 46/105/45 
f 8/8/8 45/103/44 46/105/45 9/9/9 
f 47/106/46 24/107/24 23/108/23 48/109/47 
f 10/10/10 47/106/46 48/109/47 7/7/7 
s 2
f 49/110/48 42/97/42 29/99/29 45/111/44 
f 12/12/12 49/110/48 45/111/44 8/13/8 
f 48/112/47 23/113/23 25/114/25 50/115/49 
f 7/14/7 48/112/47 50/115/49 11/11/11 
s 1
f 51/116/50 35/100/35 42/102/42 49/117/48 
f 14/16/14 51/116/50 49/117/48 12/17/12 
f 50/118/49 25/119/25 26/120/26 52/121/51 
f 11/18/11 50/118/49 52/121/51 13/15/13 
s 2
f 53/122/52 37/123/37 35/100/35 51/116/50 
f 16/20/16 53/122/52 51/116/50 14/16/14 
f 52/121/51 26/120/26 27/124/27 54/125/53 
f 13/15/13 52/121/51 54/125/53 15/19/15 
s 1
f 55/126/54 44/91/43 37/93/37 53/127/52 
f 18/22/18 55/126/54 53/127/52 16/23/16 
f 54/128/53 27/129/27 28/130/28 56/131/55 
f 15/24/15 54/128/53 56/131/55 17/21/17 
s 2
f 46/105/45 32/94/32 44/96/43 55/132/54 
f 9/9/9 46/105/45 55/132/54 18/25/18 
f 56/133/55 28/134/28 24/107/24 47/106/46 
f 17/26/17 56/133/55 47/106/46 10/10/10 
# 51 polygons - 4 triangles

