# 3ds Max Wavefront OBJ Exporter v0.97b - (c)2007 guruware
# File Created: 31.01.2021 16:39:45

#
# object Wood_Plank_3
#

v  -0.2018 -0.0697 1.9225
v  -0.2552 -0.0697 -1.9237
v  -0.0336 -0.0608 -1.9655
v  -0.0049 -0.0697 1.9655
v  -0.2018 0.0697 1.8746
v  -0.0216 0.0607 1.9272
v  -0.0422 0.0539 -1.9370
v  -0.2345 0.0697 -1.8765
v  0.2552 -0.0697 1.9241
v  0.1954 -0.0516 -1.9151
v  0.1565 0.0377 -1.9058
v  0.2213 0.0515 1.8955
# 12 vertices

vn -0.6190 -0.5009 0.6050
vn -0.6447 -0.4800 -0.5950
vn 0.0383 -0.5692 -0.8213
vn -0.0116 -0.5589 0.8292
vn -0.6305 0.6734 0.3860
vn -0.0337 0.7607 0.6482
vn -0.0065 0.7438 -0.6684
vn -0.5772 0.7259 -0.3741
vn 0.6819 -0.4557 0.5721
vn 0.7356 -0.4243 -0.5281
vn 0.5063 0.6960 -0.5092
vn 0.5432 0.7036 0.4582
# 12 vertex normals

vt 0.6460 0.7948 0.0000
vt 0.7199 0.7938 0.0000
vt 0.7207 0.7977 0.0000
vt 0.6452 0.7982 0.0000
vt 0.7192 0.8033 0.0000
vt 0.7203 0.8064 0.0000
vt 0.6460 0.8061 0.0000
vt 0.6472 0.8027 0.0000
vt 0.7202 0.8174 0.0000
vt 0.6464 0.8169 0.0000
vt 0.6466 0.8147 0.0000
vt 0.7197 0.8144 0.0000
vt 0.5551 0.9103 0.0000
vt 0.5624 0.9102 0.0000
vt 0.5625 0.9155 0.0000
vt 0.5562 0.9145 0.0000
vt 0.6462 0.8108 0.0000
vt 0.7201 0.8108 0.0000
vt 0.7192 0.8142 0.0000
vt 0.6471 0.8142 0.0000
vt 0.5634 0.9170 0.0000
vt 0.5690 0.9181 0.0000
vt 0.5694 0.9259 0.0000
vt 0.5634 0.9254 0.0000
vt 0.7197 0.8016 0.0000
vt 0.6460 0.8027 0.0000
vt 0.7196 0.8106 0.0000
vt 0.6466 0.8095 0.0000
vt 0.5696 0.9100 0.0000
vt 0.5687 0.9164 0.0000
vt 0.5698 0.9317 0.0000
vt 0.5634 0.9317 0.0000
# 32 texture coords

o Wood_Plank_3
g Wood_Plank_3
s 1
f 1/1/1 2/2/2 3/3/3 4/4/4 
f 5/5/5 6/6/6 7/7/7 8/8/8 
s 4
f 9/9/9 10/10/10 11/11/11 12/12/12 
s 2
f 10/13/10 3/14/3 7/15/7 11/16/11 
s 4
f 2/17/2 1/18/1 5/19/5 8/20/8 
s 2
f 9/21/9 12/22/12 6/23/6 4/24/4 
s 1
f 3/3/3 10/25/10 9/26/9 4/4/4 
f 6/6/6 12/27/12 11/28/11 7/7/7 
s 2
f 3/14/3 2/29/2 8/30/8 7/15/7 
f 6/23/6 5/31/5 1/32/1 4/24/4 
# 10 polygons

