# 3ds Max Wavefront OBJ Exporter v0.97b - (c)2007 guruware
# File Created: 31.01.2021 16:41:02

#
# object Wood_Pike_2
#

v  0.0855 -0.1801 -1.6126
v  0.1040 -0.1960 -3.1725
v  0.2080 -0.0159 -3.1725
v  0.1895 -0.0000 -1.6126
v  -0.1225 -0.1801 -1.6126
v  -0.1040 -0.1960 -3.1725
v  -0.2266 -0.0000 -1.6126
v  -0.2080 -0.0159 -3.1725
v  -0.1225 0.1801 -1.6126
v  -0.1040 0.1643 -3.1725
v  0.0855 0.1801 -1.6126
v  0.1040 0.1643 -3.1725
v  0.1014 -0.1801 -4.7358
v  -0.0124 -0.0187 -5.3973
v  -0.0016 -0.0000 -5.3976
v  0.2054 -0.0000 -4.7390
v  -0.1065 -0.1801 -4.7293
v  -0.0339 -0.0187 -5.3966
v  -0.2105 -0.0000 -4.7261
v  -0.0447 -0.0000 -5.3963
v  -0.1065 0.1801 -4.7293
v  -0.0339 0.0187 -5.3966
v  0.1014 0.1801 -4.7358
v  -0.0124 0.0187 -5.3973
v  -0.1798 0.0000 -0.0196
v  -0.0877 -0.1519 -0.0196
v  0.0877 -0.1519 -0.0196
v  0.1798 0.0000 -0.0196
v  0.0877 0.1519 -0.0196
v  -0.0877 0.1519 -0.0196
v  0.2080 -0.0000 -0.0528
v  0.1040 -0.1801 -0.0528
v  -0.1040 -0.1801 -0.0528
v  -0.2080 0.0000 -0.0528
v  -0.1040 0.1801 -0.0528
v  0.1040 0.1801 -0.0528
# 36 vertices

vn 0.4979 -0.8673 0.0044
vn 0.5002 -0.8659 0.0026
vn 1.0000 -0.0032 0.0051
vn 1.0000 0.0016 -0.0000
vn -0.5035 -0.8640 0.0044
vn -0.4970 -0.8678 -0.0025
vn -1.0000 0.0016 -0.0000
vn -1.0000 -0.0033 -0.0052
vn -0.5021 0.8648 -0.0044
vn -0.4998 0.8661 -0.0026
vn 0.4965 0.8681 -0.0044
vn 0.5030 0.8643 0.0026
vn 0.4961 -0.8564 -0.1432
vn 0.3296 -0.6094 -0.7211
vn 0.6813 -0.0000 -0.7320
vn 0.9891 0.0017 -0.1471
vn -0.4961 -0.8589 -0.1271
vn -0.3737 -0.6094 -0.6993
vn -0.9934 0.0017 -0.1146
vn -0.7254 0.0000 -0.6884
vn -0.4950 0.8608 -0.1183
vn -0.3737 0.6094 -0.6993
vn 0.4954 0.8582 -0.1346
vn 0.3296 0.6094 -0.7211
vn -0.5238 0.0000 0.8519
vn -0.2355 -0.4214 0.8758
vn 0.2355 -0.4214 0.8758
vn 0.5238 0.0000 0.8519
vn 0.2355 0.4214 0.8758
vn -0.2355 0.4214 0.8758
vn 0.9512 -0.0000 0.3085
vn 0.4720 -0.8137 0.3391
vn -0.4677 -0.8139 0.3446
vn -0.9476 0.0000 0.3196
vn -0.4677 0.8139 0.3446
vn 0.4720 0.8137 0.3391
# 36 vertex normals

vt 0.7148 0.7754 0.0000
vt 0.7072 0.7724 0.0000
vt 0.7266 0.8060 0.0000
vt 0.7342 0.8090 0.0000
vt 0.6760 0.7754 0.0000
vt 0.6684 0.7724 0.0000
vt 0.6566 0.8090 0.0000
vt 0.6490 0.8060 0.0000
vt 0.6760 0.8426 0.0000
vt 0.6684 0.8397 0.0000
vt 0.7148 0.8426 0.0000
vt 0.7072 0.8397 0.0000
vt 0.0659 0.9036 0.0000
vt 0.0399 0.9337 0.0000
vt 0.0420 0.9372 0.0000
vt 0.0853 0.9372 0.0000
vt 0.0272 0.9036 0.0000
vt 0.0359 0.9337 0.0000
vt 0.0078 0.9372 0.0000
vt 0.0339 0.9372 0.0000
vt 0.0272 0.9708 0.0000
vt 0.0359 0.9407 0.0000
vt 0.0659 0.9708 0.0000
vt 0.0399 0.9407 0.0000
vt 0.0471 0.9372 0.0000
vt 0.0642 0.9089 0.0000
vt 0.0970 0.9089 0.0000
vt 0.1141 0.9372 0.0000
vt 0.0970 0.9656 0.0000
vt 0.0642 0.9656 0.0000
vt 0.1192 0.9372 0.0000
vt 0.0998 0.9036 0.0000
vt 0.0610 0.9036 0.0000
vt 0.0416 0.9372 0.0000
vt 0.0610 0.9709 0.0000
vt 0.0998 0.9709 0.0000
vt 0.6955 0.7754 0.0000
vt 0.7149 0.8090 0.0000
vt 0.7488 0.8090 0.0000
vt 0.7294 0.7754 0.0000
vt 0.6568 0.7754 0.0000
vt 0.6906 0.7754 0.0000
vt 0.6374 0.8090 0.0000
vt 0.6712 0.8090 0.0000
vt 0.6568 0.8426 0.0000
vt 0.6906 0.8426 0.0000
vt 0.6955 0.8426 0.0000
vt 0.7294 0.8426 0.0000
# 48 texture coords

o Wood_Pike_2
g Wood_Pike_2
s 1
f 1/1/1 2/2/2 3/3/3 4/4/4 
s 2
f 5/5/5 6/6/6 2/2/2 1/1/1 
s 1
f 7/7/7 8/8/8 6/6/6 5/5/5 
s 2
f 9/9/9 10/10/10 8/8/8 7/7/7 
s 1
f 11/11/11 12/12/12 10/10/10 9/9/9 
s 2
f 4/4/4 3/3/3 12/12/12 11/11/11 
s 1
f 13/13/13 14/14/14 15/15/15 16/16/16 
s 2
f 17/17/17 18/18/18 14/14/14 13/13/13 
s 1
f 19/19/19 20/20/20 18/18/18 17/17/17 
s 2
f 21/21/21 22/22/22 20/20/20 19/19/19 
s 1
f 23/23/23 24/24/24 22/22/22 21/21/21 
s 2
f 16/16/16 15/15/15 24/24/24 23/23/23 
s 4
f 15/15/15 14/14/14 18/18/18 20/20/20 22/22/22 24/24/24 
f 25/25/25 26/26/26 27/27/27 28/28/28 
f 28/28/28 29/29/29 30/30/30 25/25/25 
s 1
f 31/31/31 28/28/28 27/27/27 32/32/32 
s 8
f 32/32/32 27/27/27 26/26/26 33/33/33 
s 1
f 33/33/33 26/26/26 25/25/25 34/34/34 
s 2
f 34/34/34 25/25/25 30/30/30 35/35/35 
s 8
f 35/35/35 30/30/30 29/29/29 36/36/36 
s 2
f 36/36/36 29/29/29 28/28/28 31/31/31 
s 1
f 2/2/2 13/37/13 16/38/16 3/3/3 
f 4/4/4 31/39/31 32/40/32 1/1/1 
s 2
f 6/6/6 17/41/17 13/37/13 2/2/2 
f 1/1/1 32/40/32 33/42/33 5/5/5 
s 1
f 8/8/8 19/43/19 17/41/17 6/6/6 
f 5/5/5 33/42/33 34/44/34 7/7/7 
s 2
f 10/10/10 21/45/21 19/43/19 8/8/8 
f 7/7/7 34/44/34 35/46/35 9/9/9 
s 1
f 12/12/12 23/47/23 21/45/21 10/10/10 
f 9/9/9 35/46/35 36/48/36 11/11/11 
s 2
f 3/3/3 16/38/16 23/47/23 12/12/12 
f 11/11/11 36/48/36 31/39/31 4/4/4 
# 33 polygons

