# 3ds Max Wavefront OBJ Exporter v0.97b - (c)2007 guruware
# File Created: 31.01.2021 16:39:07

#
# object Wood_Plank_1
#

v  -0.1940 -0.0697 2.0481
v  -0.2179 -0.0697 -2.0481
v  -0.0427 -0.0608 -2.0162
v  -0.0166 -0.0697 1.9610
v  -0.1940 0.0697 1.9820
v  -0.0316 0.0607 1.9044
v  -0.0495 0.0539 -1.9597
v  -0.2015 0.0697 -1.9730
v  0.2179 -0.0697 1.9195
v  0.1384 -0.0516 -1.9832
v  0.1077 0.0377 -1.9460
v  0.1873 0.0515 1.8728
# 12 vertices

vn -0.4046 -0.4105 0.8172
vn -0.5216 -0.4128 -0.7467
vn 0.1784 -0.5213 -0.8345
vn 0.2541 -0.5817 0.7726
vn -0.4781 0.6906 0.5427
vn 0.1883 0.8586 0.4767
vn 0.1326 0.8431 -0.5212
vn -0.5121 0.7434 -0.4303
vn 0.6732 -0.4305 0.6012
vn 0.6909 -0.3804 -0.6148
vn 0.5279 0.7364 -0.4232
vn 0.5620 0.7233 0.4012
# 12 vertex normals

vt 0.6944 0.7762 0.0000
vt 0.6948 0.8360 0.0000
vt 0.6922 0.8355 0.0000
vt 0.6919 0.7775 0.0000
vt 0.6773 0.7761 0.0000
vt 0.6797 0.7772 0.0000
vt 0.6794 0.8336 0.0000
vt 0.6772 0.8338 0.0000
vt 0.6826 0.8343 0.0000
vt 0.6830 0.7773 0.0000
vt 0.6847 0.7779 0.0000
vt 0.6849 0.8336 0.0000
vt 0.5782 0.9168 0.0000
vt 0.5781 0.9141 0.0000
vt 0.5802 0.9141 0.0000
vt 0.5799 0.9164 0.0000
vt 0.6745 0.8360 0.0000
vt 0.6745 0.7762 0.0000
vt 0.6771 0.7772 0.0000
vt 0.6771 0.8349 0.0000
vt 0.5805 0.9118 0.0000
vt 0.5782 0.9113 0.0000
vt 0.5780 0.9082 0.0000
vt 0.5805 0.9084 0.0000
vt 0.6896 0.8350 0.0000
vt 0.6884 0.7781 0.0000
vt 0.6829 0.7776 0.0000
vt 0.6817 0.8334 0.0000
vt 0.5780 0.9116 0.0000
vt 0.5806 0.9119 0.0000
vt 0.5778 0.9058 0.0000
vt 0.5805 0.9058 0.0000
# 32 texture coords

o Wood_Plank_1
g Wood_Plank_1
s 1
f 1/1/1 2/2/2 3/3/3 4/4/4 
f 5/5/5 6/6/6 7/7/7 8/8/8 
s 4
f 9/9/9 10/10/10 11/11/11 12/12/12 
s 2
f 10/13/10 3/14/3 7/15/7 11/16/11 
s 4
f 2/17/2 1/18/1 5/19/5 8/20/8 
s 2
f 9/21/9 12/22/12 6/23/6 4/24/4 
s 1
f 3/3/3 10/25/10 9/26/9 4/4/4 
f 6/6/6 12/27/12 11/28/11 7/7/7 
s 2
f 3/14/3 2/29/2 8/30/8 7/15/7 
f 6/23/6 5/31/5 1/32/1 4/24/4 
# 10 polygons

