# 3ds Max Wavefront OBJ Exporter v0.97b - (c)2007 guruware
# File Created: 31.01.2021 16:41:27

#
# object Wood_Pike_3
#

v  0.1116 -0.1735 1.1782
v  0.0967 -0.1868 -0.0000
v  0.2007 -0.0066 -0.0000
v  0.2157 0.0066 1.1782
v  -0.0964 -0.1735 1.1782
v  -0.1113 -0.1868 -0.0000
v  -0.2004 0.0066 1.1782
v  -0.2154 -0.0066 -0.0000
v  -0.0964 0.1868 1.1782
v  -0.1113 0.1735 -0.0000
v  0.1116 0.1868 1.1782
v  0.0967 0.1735 -0.0000
v  0.0142 0.0066 3.0211
v  0.0034 -0.0120 3.0211
v  0.0967 -0.1735 2.3564
v  0.2007 0.0066 2.3564
v  -0.0181 -0.0120 3.0211
v  -0.1113 -0.1735 2.3564
v  -0.0289 0.0066 3.0211
v  -0.2154 0.0066 2.3564
v  -0.0181 0.0253 3.0211
v  -0.1113 0.1868 2.3564
v  0.0967 0.1868 2.3564
v  0.0034 0.0253 3.0211
v  0.0967 -0.1735 -2.3564
v  0.0034 -0.0120 -3.0211
v  0.0142 0.0066 -3.0211
v  0.2007 0.0066 -2.3564
v  -0.1113 -0.1735 -2.3564
v  -0.0181 -0.0120 -3.0211
v  -0.2154 0.0066 -2.3564
v  -0.0289 0.0066 -3.0211
v  -0.1113 0.1868 -2.3564
v  -0.0181 0.0253 -3.0211
v  0.0967 0.1868 -2.3564
v  0.0034 0.0253 -3.0211
v  0.0964 -0.1749 -1.1782
v  0.2004 0.0053 -1.1782
v  -0.1117 -0.1749 -1.1782
v  -0.2157 0.0053 -1.1782
v  -0.1117 0.1854 -1.1782
v  0.0964 0.1854 -1.1782
# 42 vertices

vn 0.5038 -0.8638 0.0049
vn 0.4970 -0.8677 -0.0027
vn 1.0000 -0.0034 -0.0065
vn 1.0000 0.0018 -0.0000
vn -0.4977 -0.8673 0.0049
vn -0.5000 -0.8660 0.0037
vn -1.0000 0.0018 -0.0000
vn -1.0000 -0.0034 0.0065
vn -0.4962 0.8682 -0.0049
vn -0.5030 0.8643 0.0028
vn 0.5022 0.8647 -0.0049
vn 0.5000 0.8660 -0.0038
vn 0.7037 0.0000 0.7105
vn 0.3518 -0.6094 0.7105
vn 0.4939 -0.8591 0.1339
vn 0.9906 -0.0000 0.1371
vn -0.3518 -0.6094 0.7105
vn -0.4975 -0.8580 0.1276
vn -0.7037 0.0000 0.7105
vn -0.9922 0.0000 0.1245
vn -0.3518 0.6094 0.7105
vn -0.4975 0.8580 0.1276
vn 0.4939 0.8591 0.1339
vn 0.3518 0.6094 0.7105
vn 0.4958 -0.8585 -0.1312
vn 0.3518 -0.6094 -0.7105
vn 0.7037 -0.0000 -0.7105
vn 0.9914 0.0002 -0.1307
vn -0.4957 -0.8585 -0.1314
vn -0.3518 -0.6094 -0.7105
vn -0.9914 0.0002 -0.1309
vn -0.7037 0.0000 -0.7105
vn -0.4956 0.8587 -0.1303
vn -0.3518 0.6094 -0.7105
vn 0.4957 0.8587 -0.1302
vn 0.3518 0.6094 -0.7105
vn 0.5006 -0.8657 -0.0049
vn 1.0000 0.0014 0.0000
vn -0.5007 -0.8656 -0.0049
vn -1.0000 0.0014 0.0000
vn -0.4994 0.8663 0.0049
vn 0.4993 0.8664 0.0049
# 42 vertex normals

vt 0.6791 0.8286 0.0000
vt 0.6705 0.8162 0.0000
vt 0.6693 0.8182 0.0000
vt 0.6779 0.8306 0.0000
vt 0.6817 0.8273 0.0000
vt 0.6731 0.8149 0.0000
vt 0.6829 0.8279 0.0000
vt 0.6743 0.8156 0.0000
vt 0.6817 0.8299 0.0000
vt 0.6731 0.8175 0.0000
vt 0.6791 0.8312 0.0000
vt 0.6705 0.8189 0.0000
vt 0.0824 0.9532 0.0000
vt 0.0825 0.9530 0.0000
vt 0.0765 0.9455 0.0000
vt 0.0752 0.9475 0.0000
vt 0.0828 0.9529 0.0000
vt 0.0790 0.9442 0.0000
vt 0.0829 0.9529 0.0000
vt 0.0802 0.9449 0.0000
vt 0.0828 0.9531 0.0000
vt 0.0790 0.9469 0.0000
vt 0.0765 0.9482 0.0000
vt 0.0825 0.9533 0.0000
vt 0.0413 0.8968 0.0000
vt 0.0375 0.8905 0.0000
vt 0.0374 0.8907 0.0000
vt 0.0401 0.8988 0.0000
vt 0.0438 0.8955 0.0000
vt 0.0378 0.8904 0.0000
vt 0.0451 0.8961 0.0000
vt 0.0379 0.8905 0.0000
vt 0.0438 0.8981 0.0000
vt 0.0378 0.8907 0.0000
vt 0.0413 0.8995 0.0000
vt 0.0375 0.8908 0.0000
vt 0.6618 0.8041 0.0000
vt 0.6530 0.7919 0.0000
vt 0.6517 0.7939 0.0000
vt 0.6605 0.8061 0.0000
vt 0.6869 0.8427 0.0000
vt 0.6881 0.8407 0.0000
vt 0.6643 0.8028 0.0000
vt 0.6555 0.7906 0.0000
vt 0.6906 0.8393 0.0000
vt 0.6655 0.8035 0.0000
vt 0.6568 0.7913 0.0000
vt 0.6919 0.8400 0.0000
vt 0.6643 0.8055 0.0000
vt 0.6555 0.7933 0.0000
vt 0.6906 0.8420 0.0000
vt 0.6618 0.8068 0.0000
vt 0.6530 0.7946 0.0000
vt 0.6881 0.8433 0.0000
# 54 texture coords

o Wood_Pike_3
g Wood_Pike_3
s 1
f 1/1/1 2/2/2 3/3/3 4/4/4 
f 5/5/5 6/6/6 2/2/2 1/1/1 
f 7/7/7 8/8/8 6/6/6 5/5/5 
f 9/9/9 10/10/10 8/8/8 7/7/7 
f 11/11/11 12/12/12 10/10/10 9/9/9 
f 4/4/4 3/3/3 12/12/12 11/11/11 
s 2
f 13/13/13 14/14/14 15/15/15 16/16/16 
f 14/14/14 17/17/17 18/18/18 15/15/15 
f 17/17/17 19/19/19 20/20/20 18/18/18 
f 19/19/19 21/21/21 22/22/22 20/20/20 
f 23/23/23 22/22/22 21/21/21 24/24/24 
f 24/24/24 13/13/13 16/16/16 23/23/23 
f 25/25/25 26/26/26 27/27/27 28/28/28 
f 29/29/29 30/30/30 26/26/26 25/25/25 
f 31/31/31 32/32/32 30/30/30 29/29/29 
f 33/33/33 34/34/34 32/32/32 31/31/31 
f 35/35/35 36/36/36 34/34/34 33/33/33 
f 28/28/28 27/27/27 36/36/36 35/35/35 
f 13/13/13 24/24/24 21/21/21 19/19/19 17/17/17 14/14/14 
f 27/27/27 26/26/26 30/30/30 32/32/32 34/34/34 36/36/36 
s 1
f 37/37/37 25/38/25 28/39/28 38/40/38 
f 2/2/2 37/37/37 38/40/38 3/3/3 
f 4/4/4 16/41/16 15/42/15 1/1/1 
f 39/43/39 29/44/29 25/38/25 37/37/37 
f 6/6/6 39/43/39 37/37/37 2/2/2 
f 1/1/1 15/42/15 18/45/18 5/5/5 
f 40/46/40 31/47/31 29/44/29 39/43/39 
f 8/8/8 40/46/40 39/43/39 6/6/6 
f 5/5/5 18/45/18 20/48/20 7/7/7 
f 41/49/41 33/50/33 31/47/31 40/46/40 
f 10/10/10 41/49/41 40/46/40 8/8/8 
f 7/7/7 20/48/20 22/51/22 9/9/9 
f 42/52/42 35/53/35 33/50/33 41/49/41 
f 12/12/12 42/52/42 41/49/41 10/10/10 
f 9/9/9 22/51/22 23/54/23 11/11/11 
f 38/40/38 28/39/28 35/53/35 42/52/42 
f 3/3/3 38/40/38 42/52/42 12/12/12 
f 11/11/11 23/54/23 16/41/16 4/4/4 
# 38 polygons

